<?xml version="1.0" encoding="utf-8"?>
<!-- Generator: Adobe Illustrator 23.0.3, SVG Export Plug-In . SVG Version: 6.00 Build 0)  -->



<svg version="1.1" id="Layer_1" xmlnsvectornator="http://vectornator.io"
	 xmlns="http://www.w3.org/2000/svg" xmlnsXlink="http://www.w3.org/1999/xlink" x="0px" y="0px" viewBox="0 0 595.3 441"
	 style="enable-background:new 0 0 595.3 441;" xmlSpace="preserve">
<style type="text/css">

	.pi-blue{fill:none;stroke:#74C6D4;stroke-width:10.78;stroke-opacity:0.9978;}


	
</style>
<g vectornatorlayername="Layer 1">
	<path class="pi-blue" d="M159.6,141.9c0,0-28.3-8.1-37.1,10.8c-36,77.8-47.8,180.8-61.2,216.9l-8.2-54.3l-18.2,80l519.9-0.3
		l-80.1-140.5c0,0-185,120.3-240,71.6C131.5,223,252.7,147,252.7,147s31.1,44.4,50.8,44.4c57-74.6,59.5,43.1,93.2,43.1
		c24.8-29.2,117.9,28.2,163.6-17.9c-65,0-104.7-88.3-153.6-127.1C359.8,52.2,293,45.7,293,45.7L236.7,49c0,0-58.6,62.2-91.6,62"/>
	<path class="pi-blue" d="M180.4,380.5c0,0-63.4-172.1,60.1-250.1"/>
	<path class="pi-blue" d="M97.7,380.1h191.4"/>
</g>
</svg>
