<?xml version="1.0" encoding="utf-8"?>
<!-- Generator: Adobe Illustrator 24.2.3, SVG Export Plug-In . SVG Version: 6.00 Build 0)  -->
<svg version="1.1" id="Capa_1"
	xmlns="http://www.w3.org/2000/svg"
	xmlnsXlink="http://www.w3.org/1999/xlink" x="0px" y="0px" viewBox="0 0 470 470" style="enable-background:new 0 0 470 470;" xmlSpace="preserve">
	<style type="text/css">
	.computer{fill:none;stroke:#FFFFFF;stroke-width:3;stroke-miterlimit:10;}
	</style>
	<g>
		<g>
			<path class="computer" d="M316.9,205.2h-5.6c-0.4-1-0.8-2.1-1.3-3.1l4-4c5.8-5.8,5.8-15.3,0-21.1l-21.1-21.1c-5.8-5.8-15.3-5.8-21.1,0
			l-4,4c-1-0.5-2.1-0.9-3.1-1.3V153c0-8.2-6.7-14.9-14.9-14.9H220c-8.2,0-14.9,6.6-14.9,14.9v5.6c-1,0.4-2.1,0.8-3.1,1.3l-4-4
			c-5.8-5.8-15.3-5.8-21.1,0L155.9,177c-5.8,5.8-5.8,15.3,0,21.1l4.1,4c-0.5,1-0.9,2.1-1.3,3.1h-5.6c-8.2,0-14.9,6.6-14.9,14.9v29.8
			c0,8.2,6.7,14.9,14.9,14.9h5.6c0.4,1,0.8,2.1,1.3,3.1l-4,4c-5.8,5.8-5.8,15.3,0,21.1l21.1,21.1c5.8,5.8,15.3,5.8,21.1,0l4-4
			c1,0.5,2.1,0.9,3.1,1.3v5.6c0,8.2,6.7,14.9,14.9,14.9h29.7c8.2,0,14.9-6.6,14.9-14.9v-5.6c1-0.4,2.1-0.8,3.1-1.3l4,4
			c5.8,5.8,15.3,5.8,21.1,0L314,293c5.8-5.8,5.8-15.3,0-21.1l-4-4c0.5-1,0.9-2.1,1.3-3.1h5.6c8.2,0,14.9-6.6,14.9-14.9v-29.8
			C331.9,211.8,325.1,205.2,316.9,205.2z M316.9,249.7h-16.4l-1.6,5.2c-1.1,3.6-2.6,7.3-4.5,10.8l-2.5,4.8l11.5,11.5l-21.1,21.1
			l-11.5-11.4l-4.8,2.5c-3.6,1.9-7.3,3.4-10.8,4.5l-5.2,1.6v16.4h-29.8v-16.4l-5.2-1.6c-3.6-1.1-7.3-2.6-10.8-4.5l-4.8-2.5
			l-11.6,11.6l-21.1-21.1l11.5-11.5l-2.5-4.8c-1.9-3.6-3.5-7.3-4.5-10.8l-1.6-5.2h-16.4v-29.9h16.4l1.6-5.2
			c1.1-3.6,2.6-7.3,4.5-10.8l2.5-4.8l-11.5-11.5l21-21.4l11.5,11.6l4.8-2.5c3.6-1.9,7.3-3.4,10.8-4.5l5.2-1.6v-16.4h29.9v16.4
			l5.2,1.6c3.6,1.1,7.3,2.6,10.8,4.5l4.8,2.5l11.5-11.5l21.1,21.1l-11.5,11.5l2.5,4.8c1.9,3.6,3.5,7.3,4.5,10.8l1.6,5.2h16.4
			L316.9,249.7L316.9,249.7z"/>
		</g>
	</g>
	<g>
		<g>
			<path class="computer" d="M235,182.8c-28.8,0-52.2,23.4-52.2,52.2s23.5,52.2,52.2,52.2s52.2-23.4,52.2-52.2S263.8,182.8,235,182.8z
			 M235,272.4c-20.5,0-37.3-16.7-37.3-37.3s16.8-37.3,37.3-37.3c20.5,0,37.3,16.7,37.3,37.3S255.5,272.4,235,272.4z"/>
		</g>
	</g>
	<g>
		<g>
			<path class="computer" d="M235,205.2c-16.5,0-29.8,13.4-29.8,29.8s13.5,29.8,29.8,29.8c16.5,0,29.8-13.4,29.8-29.8
			S251.5,205.2,235,205.2z M235,250c-8.2,0-14.9-6.6-14.9-14.9c0-8.3,6.7-14.9,14.9-14.9s14.9,6.6,14.9,14.9
			C249.9,243.4,243.2,250,235,250z"/>
		</g>
	</g>
	<g>
		<g>
			<path class="computer" d="M382.5,80.2v-2.4c0-6.7-5.5-12.3-12.3-12.3h-0.7L370,65c2.3-2.3,3.6-5.4,3.6-8.7c0-3.3-1.3-6.4-3.6-8.7
			l-13.9-13.9c-4.7-4.7-12.8-4.7-17.4,0l-0.4,0.4v-0.6c0-6.7-5.5-12.3-12.3-12.3h-19.6c-6.7,0-12.3,5.5-12.3,12.3v0.6l-0.4-0.4
			c-2.3-2.3-5.4-3.6-8.6-3.6s-6.4,1.3-8.7,3.6l-13.9,13.9c-2.3,2.3-3.6,5.4-3.6,8.7c0,3.3,1.3,6.4,3.6,8.7l0.4,0.4H262
			c-6.7,0-12.3,5.5-12.3,12.3v2.4H6.4v309.7h140.1v44.3h-59v14.8h58.9h176.9h58.9v-14.8h-58.9v-44.3h140.2V80.2H382.5z M264.5,80.2
			h10.1l1.6-5.1c0.7-2.2,1.6-4.5,2.8-6.7l2.5-4.8l-7.1-7.2l10.4-10.4l7.2,7.2l4.8-2.5c2.2-1.2,4.5-2.2,6.7-2.8l5.1-1.6V36.1h14.8
			v10.1l5.1,1.6c2.2,0.7,4.5,1.6,6.7,2.8l4.8,2.5l7.2-7.2l10.4,10.4l-7.2,7.2l2.5,4.8c1.2,2.2,2.2,4.5,2.8,6.7l1.6,5.1h10.2v14.8
			h-10.2l-1.6,5.1c-0.7,2.2-1.6,4.5-2.8,6.7l-2.5,4.8l7.2,7.2l-10.4,10.4l-7.2-7.2l-4.8,2.5c-2.2,1.2-4.5,2.2-6.7,2.8l-5.1,1.6v10.2
			h-14.8v-10.2l-5.1-1.6c-2.2-0.7-4.5-1.6-6.7-2.8l-4.8-2.5l-7.2,7.2l-10.4-10.4l7.2-7.2l-2.5-4.8c-1.2-2.2-2.2-4.5-2.8-6.7
			l-1.6-5.1h-10.2V80.2L264.5,80.2z M308.8,434.2L308.8,434.2H161.3v-44.4h147.5V434.2z M448.8,375.3H323.5H146.5H21.2V331h427.7
			V375.3z M448.8,316.3H21.2V94.9h228.6v2.4c0,6.7,5.5,12.3,12.3,12.3h0.6l-0.4,0.4c-2.3,2.3-3.6,5.4-3.6,8.7s1.3,6.4,3.6,8.7
			l13.9,13.9c4.7,4.6,12.8,4.6,17.4,0l0.4-0.4v0.6c0,6.7,5.5,12.3,12.3,12.3H326c6.7,0,12.3-5.5,12.3-12.3v-0.6l0.4,0.4
			c4.7,4.7,12.8,4.7,17.4,0l13.9-13.9c2.3-2.3,3.6-5.4,3.6-8.7c0-3.2-1.3-6.4-3.6-8.7l-0.4-0.4h0.6c6.7,0,12.3-5.5,12.3-12.3V95
			h66.3L448.8,316.3L448.8,316.3z"/>
		</g>
	</g>
	<g>
		<g>
			<rect x="227.5" y="227.5" class="computer" width="14.9" height="14.9"/>
		</g>
	</g>
	<g>
		<g>
			<rect x="227.5" y="227.5" class="computer" width="14.9" height="14.9"/>
		</g>
	</g>
	<g>
		<g>
			<rect x="227.5" y="227.5" class="computer" width="14.9" height="14.9"/>
		</g>
	</g>
	<g>
		<g>
			<rect x="208.9" y="227.5" class="computer" width="52.2" height="14.9"/>
		</g>
	</g>
	<g>
		<g>
			<rect x="220.1" y="227.5" class="computer" width="29.8" height="14.9"/>
		</g>
	</g>
	<g>
		<g>
			<rect x="208.9" y="227.5" class="computer" width="52.2" height="14.9"/>
		</g>
	</g>
	<g>
		<g>
			<rect x="220.1" y="227.5" class="computer" width="29.8" height="14.9"/>
		</g>
	</g>
</svg>
