<?xml version="1.0" encoding="utf-8"?>
<!-- Generator: Adobe Illustrator 24.2.3, SVG Export Plug-In . SVG Version: 6.00 Build 0)  -->
<svg version="1.1" id="Capa_1"
	xmlns="http://www.w3.org/2000/svg"
	xmlnsXlink="http://www.w3.org/1999/xlink" x="0px" y="0px" viewBox="0 0 470 470" style="enable-background:new 0 0 470 470;" xmlSpace="preserve">
	<style type="text/css">
	.dslr-camera{fill:none;stroke:#FFFFFF;stroke-width:3;stroke-miterlimit:10;}
	</style>
	<g>
		<g>
			<path class="dslr-camera" d="M213.2,115.1c0.7,0,1.5-0.1,2.2-0.4c23.4-8.3,60.4-8.3,81-0.1c3.4,1.3,7.3-0.3,8.8-3.8
			c1.3-3.4-0.3-7.3-3.8-8.8c-23.9-9.6-63.7-9.7-90.4-0.1c-3.5,1.3-5.3,5.1-4.1,8.6C207.8,113.3,210.4,115.1,213.2,115.1L213.2,115.1
			z"/>
		</g>
		<g>
			<path class="dslr-camera" d="M284.1,277.4l-33.8,33.8c-2.6,2.6-2.6,6.9,0,9.5c1.3,1.3,3,2,4.7,2c1.7,0,3.4-0.6,4.7-2l33.8-33.8
			c2.6-2.6,2.6-6.9,0-9.5C291,274.8,286.7,274.8,284.1,277.4L284.1,277.4z"/>
		</g>
		<g>
			<path class="dslr-camera" d="M277.5,246.4c-2.6-2.6-6.9-2.6-9.5,0l-54.7,54.7c-2.6,2.6-2.6,6.9,0,9.5c1.3,1.3,3,2,4.7,2
			c1.7,0,3.4-0.6,4.7-2l54.7-54.7C280.2,253.2,280.2,249,277.5,246.4L277.5,246.4z"/>
		</g>
		<g>
			<path class="dslr-camera" d="M256,185.6c-56.7,0-102.9,46.1-102.9,102.9c0,56.7,46.1,102.9,102.9,102.9s102.9-46.1,102.9-102.9
			S312.8,185.6,256,185.6L256,185.6z M256,377.8c-49.3,0-89.5-40.1-89.5-89.5s40.1-89.5,89.5-89.5s89.5,40.1,89.5,89.5
			S305.3,377.8,256,377.8z"/>
		</g>
		<g>
			<path class="dslr-camera" d="M430.2,139.3l-79-19.3c0,0,0,0-0.1,0c-9-27.5-19.4-50.9-28.7-66.1c-0.4-0.5-0.7-1.2-1.1-1.8
			c-3-5.3-7.6-13.3-19.3-13.3H210c-11.7,0-16.3,8-19.3,13.3c-0.4,0.6-0.7,1.2-1.1,1.8c-9.5,15.7-20.2,39.8-29.4,68.1l-29.3,3.2
			l-1.8-21c-0.6-7.4-7.3-13-14.7-12.4L53.2,97c-7.4,0.6-13,7.2-12.4,14.6l2,23.3l-12.4,1.3c-14.2,1.7-24.6,12.4-24.6,25.4v20.6
			v188.7v25.2c0,14,11.4,25.3,25.3,25.3h173.4c16,6.3,33.4,9.7,51.7,9.7c18.3,0,35.6-3.4,51.7-9.7h66.7c3.7,0,6.7-3,6.7-6.7
			s-3-6.7-6.7-6.7h-40.6c24.1-15.7,43.2-38.4,54.2-65.3c1.1,0.1,2.2,0.2,3.3,0.2c22.2,0,40.2-18,40.2-40.2
			c0-20.4-15.3-37.3-35.1-39.9c-4.1-22.4-13.4-43-26.6-60.4c-2.9-23.3-7.9-46.3-14.1-67.4l70.2,17.1l1.1,0.3
			c8.8,2.1,15,3.7,18.4,7.3c3.7,3.9,5.3,11.6,5.3,24.9v211.5c0,6.5-5.4,11.9-11.9,11.9h-33.4c-3.7,0-6.7,3-6.7,6.7s3,6.7,6.7,6.7
			h33.4c14,0,25.3-11.4,25.3-25.3V184.6C464.2,149.2,452.6,144.7,430.2,139.3L430.2,139.3z M171.6,130.7c0.1-0.3,0.2-0.6,0.3-0.9
			c9-28.8,19.8-53.4,29.2-69c0.4-0.6,0.8-1.3,1.2-2c3-5.3,4.2-6.5,7.8-6.5h92.1c3.6,0,4.7,1.3,7.8,6.5c0.4,0.6,0.8,1.3,1.2,2
			c9.2,15.3,19.9,39.2,28.7,67.3c0.1,0.2,0.1,0.4,0.2,0.6c5.4,17.3,10.2,36.1,13.6,55.4c-25.5-23.9-59.8-38.6-97.5-38.6
			c-37.7,0-71.9,14.7-97.5,38.6C161.9,165.6,166.4,147.4,171.6,130.7L171.6,130.7z M54.3,110.4L54.3,110.4L54.3,110.4l61.4-5.2
			c0,0,0.1,0,0.1,0.1l1.8,21.4l-61.4,6.8L54.3,110.4C54.2,110.4,54.2,110.4,54.3,110.4L54.3,110.4z M31.1,408
			c-6.5,0-11.9-5.4-11.9-11.9v-18.4H65c10.4,0,18.9-8.5,18.9-18.9v-69.2c0-3.7-3-6.7-6.7-6.7c-3.7,0-6.7,3-6.7,6.7v69.2
			c0,3-2.4,5.5-5.5,5.5H19.1V189H65c3,0,5.5,2.4,5.5,5.5v64.1c0,3.7,3,6.7,6.7,6.7c3.7,0,6.7-3,6.7-6.7v-64.1
			c0-10.4-8.5-18.9-18.9-18.9H19.1v-13.9c0-7.3,6.5-11.3,12.6-11.9L156,136c-6,20.9-10.9,43.5-13.8,66.4
			c-18.2,23.9-28.9,53.7-28.9,86.1c0,50.1,25.9,94.1,64.9,119.6L31.1,408z M256,417.7c-71.3,0-129.3-58-129.3-129.3
			s58-129.3,129.3-129.3s129.3,58,129.3,129.3S327.4,417.7,256,417.7z M418.1,302.6c0,14.3-11.3,26-25.3,26.8c3.9-13,6-26.8,6-41
			c0-3.9-0.2-7.8-0.4-11.6C409.7,279.9,418.1,290.3,418.1,302.6z"/>
		</g>
	</g>
</svg>
