<?xml version="1.0" encoding="utf-8"?>
<!-- Generator: Adobe Illustrator 24.2.3, SVG Export Plug-In . SVG Version: 6.00 Build 0)  -->
<svg version="1.1" id="Capa_1"
	xmlns="http://www.w3.org/2000/svg"
	xmlnsXlink="http://www.w3.org/1999/xlink" x="0px" y="0px" viewBox="0 0 470 470" style="enable-background:new 0 0 470 470;" xmlSpace="preserve">
	<style type="text/css">
	.energy{fill:none;stroke:#FFFFFF;stroke-width:3;stroke-miterlimit:10;}
	</style>
	<path class="energy" d="M351.3,166.7l-90.7,21.8l44.3-170.2c3.8-14.8-14.2-24.2-22.3-11.7L105.8,282c-6.7,10.3,2,24.2,13.3,21.2
	l80.8-21.8l-44.2,170.3c-3.8,14.6,13.9,24.1,22.1,11.9l186.3-275.4C370.9,178.1,362.5,164,351.3,166.7L351.3,166.7z M198.5,386.9
	l31.3-120.7c2.6-10.1-5.7-19.6-15-17.1l-69.2,18.7l115-179L230.7,203c-2.6,10,5.4,19.4,14.7,17.2l78.6-18.9L198.5,386.9z"/>
	<path class="energy" d="M388.6,392.8l-18.8-23.5l36.7-9.7c7.2-1.9,12-9.1,10.7-16c-1.3-7-8.2-11-15.4-9.1l-57.6,15.2
	c-11.7,3.1-12.9,12.8-8.2,21.3l18.7,23.4l-37.6,10.2c-7.2,1.9-11.9,9.1-10.6,16c1.3,6.9,8.2,11,15.4,9l58.3-15.7
	C389.8,411.4,394.3,400,388.6,392.8L388.6,392.8z"/>
	<path class="energy" d="M90.9,44.2c-6.7-2.3-13.6,1.6-15.5,8.8l-15.6,58.3c-2.5,9.5,4.9,19.3,14.4,17.7l29.3-4.9l-9.9,37.2
	c-1.9,7.2,1.9,14.9,8.6,17.2s13.6-1.6,15.5-8.8l15.6-58.3c2.6-9.7-5.2-19.3-14.3-17.7l-29.4,4.9l9.9-37.2
	C101.4,54.3,97.5,46.5,90.9,44.2z"/>
</svg>
