<?xml version="1.0" encoding="utf-8"?>
<!-- Generator: Adobe Illuflash-rator 24.2.3, SVG Export Plug-In . SVG Version: 6.00 Build 0)  -->
<svg version="1.1" id="Layer_1"
	xmlns="http://www.w3.org/2000/svg"
	xmlnsXlink="http://www.w3.org/1999/xlink" x="0px" y="0px" viewBox="0 0 470 470" flash-yle="enable-background:new 0 0 470 470;" xmlSpace="preserve">
	<style type="text/css">
	.flash{fill:none;stroke:#FFFFFF;stroke-width:2.0536;stroke-miterlimit:10;}
	</style>
	<g>
		<g>
			<g>
				<path class="flash" d="M234.7,120.9c-1.2-2.3-2.9-3.5-5.3-3.5h-68.9L228.8,9.3c1.2-1.8,1.2-4.1,0-5.8c-1.2-1.7-2.9-2.9-5.2-2.9
				h-93.5c-2.3,0-4.1,1.2-5.3,2.9L37.2,178.7c-1.2,1.8-1.2,4.1,0,5.8c1.2,1.7,3.5,2.9,5.3,2.9h60.2L37.2,343.4c-1.2,2.3,0,5.3,2.3,7
				c0.6,0.6,1.8,0.6,2.9,0.6c1.8,0,3.5-0.6,4.7-1.8l186.9-222C235.2,125.5,235.8,123.2,234.7,120.9z M62.9,311.8l53.7-128.5
				c0.6-1.8,0.6-3.5-0.6-5.3c-1.2-1.2-2.9-2.3-4.7-2.3H51.8l81.8-163.5h79.5l-69,108c-1.2,1.8-1.2,4.1,0,5.8
				c1.2,1.7,2.9,2.9,5.3,2.9h67.8L62.9,311.8z"/>
			</g>
		</g>
		<g>
			<g>
				<path class="flash" d="M303.9,285.3c-0.9-1.9-2.4-2.8-4.2-2.8h-55.2l54.7-86.6c0.9-1.4,0.9-3.3,0-4.7s-2.3-2.4-4.2-2.4h-74.9
				c-1.9,0-3.3,0.9-4.2,2.4l-70.2,140.4c-0.9,1.4-0.9,3.3,0,4.7s2.8,2.4,4.2,2.4h48.2l-52.4,125c-0.9,1.9,0,4.2,1.9,5.6
				c0.5,0.5,1.4,0.5,2.4,0.5c1.4,0,2.8-0.5,3.7-1.4l149.8-177.9C304.3,289,304.8,287.1,303.9,285.3z M166.3,438.3l43.1-103
				c0.5-1.4,0.5-2.8-0.5-4.2c-0.9-0.9-2.4-1.9-3.7-1.9h-47.7l65.6-131.1h63.7l-55.3,86.6c-0.9,1.4-0.9,3.3,0,4.7
				c0.9,1.4,2.4,2.4,4.2,2.4h54.3L166.3,438.3z"/>
			</g>
		</g>
		<g>
			<g>
				<path class="flash" d="M433.7,110.4c-0.7-1.4-1.8-2.1-3.2-2.1h-41.8l41.4-65.5c0.7-1.1,0.7-2.5,0-3.5s-1.7-1.8-3.2-1.8h-56.6
				c-1.4,0-2.5,0.7-3.2,1.8l-53.1,106.2c-0.7,1.1-0.7,2.5,0,3.5s2.1,1.8,3.2,1.8h36.5l-39.6,94.5c-0.7,1.4,0,3.2,1.4,4.2
				c0.4,0.4,1.1,0.4,1.8,0.4c1.1,0,2.1-0.4,2.8-1.1l113.3-134.5C434.1,113.2,434.4,111.8,433.7,110.4z M329.7,226.1l32.6-77.8
				c0.4-1.1,0.4-2.1-0.4-3.2c-0.7-0.7-1.8-1.4-2.8-1.4H323l49.6-99.1h48.1L378.9,110c-0.7,1.1-0.7,2.5,0,3.5c0.7,1,1.8,1.8,3.2,1.8
				h41.1L329.7,226.1z"/>
			</g>
		</g>
	</g>
</svg>
