<?xml version="1.0" encoding="utf-8"?>
<!-- Generator: Adobe Illustrator 24.2.3, SVG Export Plug-In . SVG Version: 6.00 Build 0)  -->
<svg version="1.1" id="Capa_1"
	xmlns="http://www.w3.org/2000/svg"
	xmlnsXlink="http://www.w3.org/1999/xlink" x="0px" y="0px" viewBox="0 0 470 470" style="enable-background:new 0 0 470 470;" xmlSpace="preserve">
	<style>
	.light-bulb{fill: none;}
	</style>
	<g>
		<path class="light-bulb" d="M239.4,105.8c11.2,0,20.2-7.9,20.2-17.5V17.5c0-9.7-9-17.5-20.2-17.5c-11.2,0-20.2,7.9-20.2,17.5v70.6
		C219.2,97.9,228.2,105.8,239.4,105.8z"/>
		<path class="light-bulb" d="M142.9,111.9l17.8,27c2.5,3.7,7.9,5,12.1,2.9c4.2-2.1,5.9-6.9,3.3-10.6c0,0,0-0.1-0.1-0.1l-17.8-27
		c-2.5-3.7-7.9-5-12.1-2.9C141.9,103.4,140.3,108.1,142.9,111.9C142.8,111.9,142.9,111.9,142.9,111.9z"/>
		<path class="light-bulb" d="M20.8,137.9L20.8,137.9l54.1,27.5c7.4,3.7,16.9,1.6,21.2-5c4.3-6.4,1.9-14.9-5.7-18.6c0,0-0.2,0-0.2-0.2l-53.8-27.4
		c-7.4-3.7-16.9-1.6-21.2,5C10.9,125.6,13.5,134.1,20.8,137.9z"/>
		<path class="light-bulb" d="M108.1,241.4c0-4.5-4.2-8.3-9.5-8.3h-38c-5.3,0-9.5,3.7-9.5,8.3s4.2,8.3,9.5,8.3h38C103.8,249.8,108.1,246,108.1,241.4z"/>
		<path class="light-bulb" d="M85.1,307.6C85.1,307.6,85.1,307.8,85.1,307.6l-51.7,26.7c-7.1,3.6-9.7,11.7-5.6,18s13.2,8.6,20.3,5c0,0,0.2,0,0.2-0.2
		l51.5-26.5c7.1-3.6,9.7-11.7,5.6-18C101.5,306.4,92.4,304.1,85.1,307.6z"/>
		<path class="light-bulb" d="M448,333.4L448,333.4l-56.2-28.6c-7.7-3.8-17.6-1.7-22,5.1c-4.5,6.8-2,15.4,5.9,19.2c0,0,0.2,0,0.2,0.2l55.9,28.4
		c7.7,3.8,17.6,1.7,22-5.1C458.3,346.1,456.1,337.6,448,333.4z"/>
		<path class="light-bulb" d="M423.1,232.4h-41.7c-5.8,0-10.4,4-10.4,9.1c0,5,4.6,9.1,10.4,9.1h41.7c5.8,0,10.4-4,10.4-9.1
		C433.5,236.4,428.9,232.4,423.1,232.4z"/>
		<path class="light-bulb" d="M390.5,180.2c2.7,0,5.1-0.7,7.5-1.7l51.4-26c7-3.5,9.7-11.5,5.6-17.6c-4.1-6.2-13.2-8.4-20.2-4.9c0,0-0.2,0-0.2,0.2
		l-51.4,26c-7,3.5-9.5,11.5-5.4,17.6C380.4,177.7,385.1,180.2,390.5,180.2z"/>
		<path class="light-bulb" d="M306.3,141.8L306.3,141.8c4.3,2.1,10,0.9,12.6-2.9l0,0l18.5-28.2c2.5-3.8,1.1-8.8-3.3-11c-4.5-2.1-10-0.9-12.6,2.9
		c0,0,0,0.1-0.1,0.1l-18.6,28.1C300.4,134.5,301.8,139.5,306.3,141.8z"/>
		<path class="light-bulb" d="M254,343.3c4,0,7.3-2.8,7.3-6.3v-70h14.5c16.1,0,29.1-11.4,29.1-25.5S291.9,216,275.8,216c-16.1,0-29.1,11.4-29.1,25.5
		v12.7h-14.5v-12.7c0-14.1-13-25.5-29.1-25.5S174,227.4,174,241.5s13,25.4,29.1,25.4h14.5v70c0,3.5,3.2,6.3,7.3,6.3
		c4,0,7.3-2.8,7.3-6.3v-70h14.5v70C246.7,340.4,250,343.3,254,343.3z M261.2,241.4c0-7,6.6-12.7,14.5-12.7s14.5,5.7,14.5,12.7
		s-6.6,12.7-14.5,12.7h-14.5V241.4z M217.6,254.2h-14.5c-8,0-14.5-5.7-14.5-12.7s6.6-12.7,14.5-12.7s14.5,5.7,14.5,12.7V254.2z"/>
		<path class="light-bulb" d="M245.1,139.8c-64.2-2.7-118.7,40.6-121.9,96.8c-1.7,32.2,14,63.1,42.4,83.6c5,3.5,8.2,8.8,8.3,14.5v14.9
		c0,8,5.9,15.2,14.5,17.9v7.5c0,4.7,2,9.2,5.7,12.7c-7.6,7.2-7.6,18.3,0,25.5c-8.1,7.8-7.5,19.8,1.4,26.9c4,3.2,9.3,5,14.7,5
		c3.9,0.1,7.2-2.7,7.3-6.1c0-1.4-0.5-2.7-1.3-3.8c-0.3-0.4-0.5-0.8-0.8-1.1c-0.6-0.5-1.3-0.9-2-1.2c-0.2-0.1-0.5-0.2-0.6-0.3
		c-0.7-0.3-1.5-0.4-2.3-0.4c-0.1,0-0.2,0-0.2,0c-4,0-7.3-2.8-7.3-6.3c0-3.5,3.2-6.3,7.3-6.3h29.2c4,0,7.3-2.8,7.3-6.3
		c0-3.5-3.2-6.3-7.3-6.3h-29.1c-4,0-7.3-2.8-7.3-6.3s3.2-6.3,7.3-6.3h29.1c4,0,7.3-2.8,7.3-6.3c0-3.5-3.2-6.3-7.3-6.3h-29.1
		c-4,0-7.3-2.8-7.3-6.3v-6.6h36.4c4,0,7.3-2.8,7.3-6.3c0-3.5-3.2-6.3-7.3-6.3h-43.6c-4,0-7.3-2.8-7.3-6.3v-15
		c-0.1-9.6-5-18.5-13.6-24.4c-43.4-31.2-49.8-87.4-14-125.3c20.5-21.7,51.4-33.7,83.6-32.4c53.7,2.8,95.9,41.4,96.8,88.4
		c0.3,27.1-13.6,52.8-37.9,69.7c-8.5,6.2-13.2,15.2-13.1,24.7v14.2c0,3.5-3.2,6.3-7.3,6.3h-21.8c-4,0-7.3,2.8-7.3,6.3
		c0,3.5,3.2,6.3,7.3,6.3h14.5v6.3c0,3.5-3.2,6.3-7.3,6.3h-7.3c-4,0-7.3,2.8-7.3,6.3c0,3.5,3.2,6.3,7.3,6.3h7.3c4,0,7.3,2.8,7.3,6.3
		c0,3.5-3.2,6.3-7.3,6.3h-7.3c-4,0-7.3,2.8-7.3,6.3s3.2,6.3,7.3,6.3h7.3c4,0,7.3,2.8,7.3,6.3c0,3.5-3.2,6.3-7.3,6.3h-36.4
		c-4,0-7.3,2.8-7.3,6.3c0,3.5,3.2,6.3,7.3,6.3H260c-4,9.9-16.5,15.1-27.9,11.6c-3.4-1.1-6.6-2.9-9-5.3c-2.6-2.7-7.3-2.8-10.3-0.6
		c-3,2.3-3.2,6.3-0.6,9c13.2,13.1,36.2,14.3,51.2,2.7c6.2-4.8,10.3-11.3,11.7-18.5c11.4-3.1,17.8-13.7,14.1-23.7
		c-0.9-2.7-2.5-5.1-4.7-7.2c7.6-7.2,7.6-18.3,0-25.5c3.6-3.5,5.7-8,5.7-12.7V367c8.7-2.7,14.5-9.8,14.5-17.9v-14.2
		c-0.1-5.7,2.7-11.1,7.8-14.9c27.6-19.4,43.5-48.7,43.2-79.8C354.7,187,306.6,143,245.1,139.8z"/>
	</g>
</svg>
