<?xml version="1.0" encoding="utf-8"?>
<!-- Generator: Adobe Illustrator 24.2.3, SVG Export Plug-In . SVG Version: 6.00 Build 0)  -->
<svg version="1.1" id="Capa_1"
	xmlns="http://www.w3.org/2000/svg"
	xmlnsXlink="http://www.w3.org/1999/xlink" x="0px" y="0px" viewBox="0 0 470 252.5" style="enable-background:new 0 0 470 252.5;" xmlSpace="preserve">
	<style type="text/css">
	.music{fill:none;stroke:#FFFFFF;stroke-width:3.1707;stroke-miterlimit:10;}
	</style>
	<g>
		<path class="music" d="M327.6,95.2h-85.7l-18.1-35.4c-2.2-4.3-6.9-6.7-11.8-6c-4.8,0.7-8.6,4.4-9.5,9.2l-8.1,49.1l-7.7,46.5l-6-45.9
		L167.5,11.3c-0.6-5.1-4.9-9.2-10.2-9.6c-5.3-0.4-10.2,2.7-11.8,7.8l-33.8,106.3l-10.1,32l-5.1-31.3l-7.7-46.3
		c-0.9-4.8-4.8-8.6-9.7-9.2c-4.9-0.6-9.7,2-11.7,6.5l-18.9,41.6H12.9c-6.3,0-11.3,5-11.3,11.1c0,6.2,5.1,11.1,11.3,11.1h42.9
		c4.5,0,8.5-2.6,10.3-6.6l3.2-7l3.2-7.1l1.2,6.9L86.9,198c0.9,5.1,5.1,8.9,10.3,9.3c5.2,0.3,10-2.8,11.6-7.8l26.9-84.7l15.9-50.2
		l6.4,49.1l16.1,123.6c0.7,5.4,5.4,9.6,11,9.7c0.1,0,0.1,0,0.2,0c5.5,0,10.2-4,11.2-9.3l20.9-126.6l1.8-10.8l5.3,10.5l0.2,0.5
		c1.9,3.8,5.9,6.1,10.1,6.1h92.7c6.3,0,11.3-5,11.3-11.1C338.9,100.1,333.8,95.2,327.6,95.2z"/>
	</g>
	<path class="music" d="M245.3,190c19.5,0,24.8-27.3,36.2-26.7c20.1,1,16.6,51.8,30.6,50.5c13.6-1.2,17-50.4,28.8-50.4s17.5,49,30.2,49
	c12.5,0,12.5-45.9,27.8-46.2c12-0.2,15.9,33.2,28.5,32.2c16.5,0,13.5-21.9,29.5-16.3"/>
</svg>
