<?xml version="1.0" encoding="utf-8"?>
<!-- Generator: Adobe Illustrator 24.2.3, SVG Export Plug-In . SVG Version: 6.00 Build 0)  -->
<svg version="1.1" id="Capa_1"
	xmlns="http://www.w3.org/2000/svg"
	xmlnsXlink="http://www.w3.org/1999/xlink" x="0px" y="0px" viewBox="0 0 470 470" style="enable-background:new 0 0 470 470;" xmlSpace="preserve">
	<style type="text/css">
	.music{fill:none;stroke:#FFFFFF;stroke-width:3.1707;stroke-miterlimit:10;}
	</style>
	<g>
		<path class="music" d="M327.6,95.2h-85.7l-18.1-35.4c-2.2-4.3-6.9-6.7-11.8-6c-4.8,0.7-8.6,4.4-9.5,9.2l-8.1,49.1l-7.7,46.5l-6-45.9
		L167.5,11.3c-0.6-5.1-4.9-9.2-10.2-9.6c-5.3-0.4-10.2,2.7-11.8,7.8l-33.8,106.3l-10.1,32l-5.1-31.3l-7.7-46.3
		c-0.9-4.8-4.8-8.6-9.7-9.2c-4.9-0.6-9.7,2-11.7,6.5l-18.9,41.6H12.9c-6.3,0-11.3,5-11.3,11.1c0,6.2,5.1,11.1,11.3,11.1h42.9
		c4.5,0,8.5-2.6,10.3-6.6l3.2-7l3.2-7.1l1.2,6.9L86.9,198c0.9,5.1,5.1,8.9,10.3,9.3c5.2,0.3,10-2.8,11.6-7.8l26.9-84.7l15.9-50.2
		l6.4,49.1l16.1,123.6c0.7,5.4,5.4,9.6,11,9.7c0.1,0,0.1,0,0.2,0c5.5,0,10.2-4,11.2-9.3l20.9-126.6l1.8-10.8l5.3,10.5l0.2,0.5
		c1.9,3.8,5.9,6.1,10.1,6.1h92.7c6.3,0,11.3-5,11.3-11.1C338.9,100.1,333.8,95.2,327.6,95.2z"/>
	</g>
	<g>
		<path class="music" d="M454.3,289.7H349l-22.3-41.6c-2.8-5-8.5-7.9-14.5-7c-5.9,0.9-10.6,5.2-11.7,10.8l-10,57.8l-9.4,54.7l-7.3-53.9
		L257.5,191c-0.8-6-6-10.8-12.6-11.3c-6.5-0.5-12.6,3.2-14.5,9.1l-41.5,125l-12.4,37.6l-6.3-36.8l-9.4-54.4
		c-1-5.7-5.9-10.1-11.9-10.8s-11.9,2.3-14.4,7.6l-23.2,48.9H67.6c-7.7,0-13.9,5.9-13.9,13.1c0,7.3,6.3,13.1,13.9,13.1h52.7
		c5.5,0,10.5-3.1,12.7-7.8l3.9-8.3l3.9-8.4l1.4,8.1l16.2,94.6c1,6,6.3,10.5,12.7,11c6.4,0.4,12.3-3.3,14.3-9.1l33-99.5l19.5-59
		l7.9,57.8l19.8,145.3c0.9,6.4,6.7,11.3,13.5,11.5c0.1,0,0.1,0,0.3,0c6.8,0,12.6-4.7,13.8-11l25.7-148.8l2.2-12.7l6.5,12.3l0.3,0.6
		c2.4,4.4,7.2,7.1,12.4,7.1h113.8c7.7,0,13.9-5.9,13.9-13.1C468.2,295.5,461.9,289.7,454.3,289.7z"/>
	</g>
	<path class="music" d="M251.3,162.8c19.5,0,24.8-27.3,36.2-26.7c20.1,1,16.6,51.8,30.6,50.5c13.6-1.2,17-50.4,28.8-50.4
	s17.5,49,30.2,49c12.5,0,12.5-45.9,27.8-46.2c12-0.2,15.9,33.2,28.5,32.2c16.5,0,13.5-21.9,29.5-16.3"/>
	<path class="music" d="M3.6,445.2c18.1,0,23-23.6,33.5-23.1c18.6,0.8,15.4,44.7,28.4,43.6c12.6-1.1,15.7-43.5,26.7-43.5
	c10.9,0,16.2,42.3,28,42.3c11.6,0,11.6-39.7,25.8-39.9c11.1-0.2,14.7,28.7,26.4,27.8c15.3,0,12.5-18.9,27.3-14.1"/>
</svg>
