<?xml version="1.0" encoding="utf-8"?>
<!-- Generator: Adobe Illupaint-pallete-rator 24.2.3, SVG Export Plug-In . SVG Version: 6.00 Build 0)  -->
<svg version="1.1" id="Capa_1"
	xmlns="http://www.w3.org/2000/svg"
	xmlnsXlink="http://www.w3.org/1999/xlink" x="0px" y="0px" viewBox="0 0 470 470" paint-pallete-yle="enable-background:new 0 0 470 470;" xmlSpace="preserve">
	<style type="text/css">
	.paint-pallete{fill:none;stroke:#FFFFFF;stroke-width:2.7303;stroke-miterlimit:10;}
	</style>
	<g>
		<g>
			<g>
				<circle class="paint-pallete" cx="309.5" cy="216.8" r="9.1"/>
			</g>
		</g>
		<g>
			<g>
				<path class="paint-pallete" d="M311,255.8c-5-0.7-9.6,2.7-10.4,7.6c-2.5,16.8-16.7,30.8-38,37.2c-22.8,7-54.3,4.6-73.6-16.4
				c-3.4-3.7-9.2-3.9-12.8-0.5c-3.7,3.4-3.9,9.2-0.5,12.8c11.2,12.1,26.3,20.4,43.8,23.9c6.2,1.3,12.6,1.8,19,1.8
				c10,0,20-1.5,29.5-4.4c28.2-8.6,47.1-28.1,50.6-52C319.5,261.1,316,256.6,311,255.8z"/>
			</g>
		</g>
		<g>
			<g>
				<path class="paint-pallete" d="M437.5,175.3c-16.6-19.2-39.4-31.6-66.9-36.6c26.3-17.7,49-35.4,65.2-50.9c24.7-23.5,32.9-40,26-52
				c-7.6-13.3-29.9-13.2-69.8,0.3C358.3,47.5,316.2,67.4,273.6,92c-7.4,4.3-14.7,8.6-21.8,13c-5.3-14.9-1.8-32,9.8-46.8
				c8.7-11.1,10.7-25.2,5.1-36.8C261,9.3,248.1,2,232.4,2H232C176.4,2,122.1,23.9,79.1,63.7C35.9,103.5,9.5,156.3,4.7,212.2
				c-5.8,67.3,15.7,131.3,60.6,180.2c44,48.1,106.5,75.6,171.4,75.6c34.9,0,67.7-6.4,97.5-19c27.2-11.6,51.3-27.9,71.8-49
				c18.9-19.4,33.9-41.8,44.4-66.4c10-23.5,15.5-48.3,15.8-71.9C466.7,227.4,456.8,197.6,437.5,175.3z M253,125.8
				c9.6-6.1,19.7-12.1,29.9-18C322.2,85,361.5,66.3,393.3,55c35-12.4,49.4-11.6,52.8-10c-0.3,2.1-2.9,11.6-25.9,32.8
				c-19.2,17.7-47.2,38.5-79,58.5c-10,6.4-20.5,12.7-31,18.7c-14.6,8.4-29.1,16.3-43.3,23.5c-2.8-8.3-6.5-16.4-10.9-24
				c-4.3-7.5-9.3-14.5-14.8-20.9C244.9,131,248.9,128.3,253,125.8z M250.2,186.6c-25.7,12.2-49.2,21.5-68.1,26.8
				c-1-4.7-2.7-9.3-5.2-13.5c-2.3-4-5.2-7.6-8.6-10.7c14.1-13.6,33.9-29.4,57.3-45.5c5.5,6.1,10.2,12.7,14.3,19.8
				C244.2,170.9,247.7,178.6,250.2,186.6z M447.9,261.5c-1.3,90.6-82.4,188.3-211.2,188.3c-59.8,0-117.4-25.4-158.1-69.7
				C37.3,335,17.4,275.9,22.8,213.7C32,107,125.8,20.2,232,20.2h0.4c8.7,0,15.3,3.4,18.1,9.2c2.5,5.4,1.5,11.9-3,17.6
				c-16.4,20.8-20.5,46.4-11.3,67.9c-4.9,3.2-9.6,6.3-14.3,9.5c0,0,0,0-0.1,0c-28.9,19.6-53.4,39-69.6,55.3
				c-12.4-4.2-25.8-3-37.4,3.6c-18.9,10.9-43.8,61.8-48.5,71.9c-1.3,2.7-1.2,5.8,0.4,8.5c1.5,2.5,4.2,4.3,7.2,4.6
				c5,0.4,19.3,1.5,35.2,1.5c19.3,0,41-1.5,51.3-7.5c11.2-6.5,19-17.3,21.8-29.8c22.3-5.8,51.5-17.3,83.1-32.7
				c17.7-8.6,35.9-18.3,54.1-28.9c9.2-5.4,18.4-10.8,27.2-16.4c0.1,0,0.1,0,0.2,0C422.4,156.6,448.7,211.2,447.9,261.5z
				 M164.8,224.4c-0.5,9.2-5.6,17.4-13.7,21.9c-8.6,5-38.1,5.6-62.4,4.6c11.2-21.6,26.6-46.9,35.1-51.8c8.1-4.7,17.9-4.9,26.3-0.5
				c4.6,2.4,8.4,6,11,10.6C163.9,213.7,165.2,219.1,164.8,224.4z"/>
			</g>
		</g>
		<g>
			<g>
				<path class="paint-pallete" d="M163.9,58.3c-20.1,0-36.4,16.3-36.4,36.4s16.3,36.4,36.4,36.4s36.4-16.3,36.4-36.4S184,58.3,163.9,58.3z
				 M163.9,112.9c-10,0-18.2-8.2-18.2-18.2s8.2-18.2,18.2-18.2s18.2,8.2,18.2,18.2S173.9,112.9,163.9,112.9z"/>
			</g>
		</g>
		<g>
			<g>
				<path class="paint-pallete" d="M118.4,302.8c-20.1,0-36.4,16.3-36.4,36.4c0,20.1,16.3,36.4,36.4,36.4s36.4-16.3,36.4-36.4
				C154.8,319.1,138.5,302.8,118.4,302.8z M118.4,357.4c-10,0-18.2-8.2-18.2-18.2c0-10,8.2-18.2,18.2-18.2s18.2,8.2,18.2,18.2
				C136.6,349.2,128.4,357.4,118.4,357.4z"/>
			</g>
		</g>
		<g>
			<g>
				<path class="paint-pallete" d="M209.4,357.4c-20.1,0-36.4,16.3-36.4,36.4c0,20.1,16.3,36.4,36.4,36.4s36.4-16.3,36.4-36.4
				C245.8,373.7,229.5,357.4,209.4,357.4z M209.4,412c-10,0-18.2-8.2-18.2-18.2c0-10,8.2-18.2,18.2-18.2s18.2,8.2,18.2,18.2
				C227.6,403.8,219.4,412,209.4,412z"/>
			</g>
		</g>
		<g>
			<g>
				<path class="paint-pallete" d="M318.6,339.2c-20.1,0-36.4,16.3-36.4,36.4c0,20.1,16.3,36.4,36.4,36.4s36.4-16.3,36.4-36.4
				C355,355.5,338.7,339.2,318.6,339.2z M318.6,393.8c-10,0-18.2-8.2-18.2-18.2c0-10,8.2-18.2,18.2-18.2c10,0,18.2,8.2,18.2,18.2
				C336.8,385.6,328.7,393.8,318.6,393.8z"/>
			</g>
		</g>
		<g>
			<g>
				<path class="paint-pallete" d="M391.4,248.2c-20.1,0-36.4,16.3-36.4,36.4s16.3,36.4,36.4,36.4c20.1,0,36.4-16.3,36.4-36.4
				S411.5,248.2,391.4,248.2z M391.4,302.8c-10,0-18.2-8.2-18.2-18.2c0-10,8.2-18.2,18.2-18.2c10,0,18.2,8.2,18.2,18.2
				C409.6,294.6,401.5,302.8,391.4,302.8z"/>
			</g>
		</g>
	</g>
</svg>
