<?xml version="1.0" encoding="utf-8"?>
<!-- Generator: Adobe Illustrator 24.2.3, SVG Export Plug-In . SVG Version: 6.00 Build 0)  -->
<svg version="1.1" id="Artboard_30"
	xmlns="http://www.w3.org/2000/svg"
	xmlnsXlink="http://www.w3.org/1999/xlink" x="0px" y="0px" viewBox="0 0 470 470" style="enable-background:new 0 0 470 470;" xmlSpace="preserve">
	<style type="text/css">
	.pen-tablet{fill:none;stroke:#FFFFFF;stroke-width:2.8076;stroke-miterlimit:10;}
	</style>
	<g>
		<path class="pen-tablet" d="M440.9,115.2H339.8V62.8c0-12.4-10.1-22.5-22.5-22.5s-22.5,10.1-22.5,22.5v52.4H29.1
		c-14.4,0-26.2,11.8-26.2,26.2v262c0,14.4,11.8,26.2,26.2,26.2h411.8c14.4,0,26.2-11.8,26.2-26.2v-262
		C467.1,127,455.3,115.2,440.9,115.2z M295.7,283.3l14.2,28.4v5.7c0,12.4-10.1,22.5-22.5,22.5c-4.1,0-7.5-3.4-7.5-7.5v-7.5
		c0-12.4-10.1-22.5-22.5-22.5h-11.2c-6.2,0-11.2-5-11.2-11.2c0-14.4-11.8-26.2-26.2-26.2h-33.7v15h33.7c6.2,0,11.2,5,11.2,11.2
		c0,14.4,11.8,26.2,26.2,26.2h11.2c4.1,0,7.5,3.4,7.5,7.5v7.5c0,12.4,10.1,22.5,22.5,22.5c20.6,0,37.4-16.8,37.4-37.4v-5.7
		l14.2-28.4c0.5-1,0.8-2.2,0.8-3.3V160.1h71.1c6.2,0,11.2,5,11.2,11.2v202.1c0,6.2-5,11.2-11.2,11.2H104c-6.2,0-11.2-5-11.2-11.2
		V171.4c0-6.2,5-11.2,11.2-11.2h190.9v119.8C294.9,281.1,295.2,282.2,295.7,283.3z M309.9,62.8c0-4.1,3.4-7.5,7.5-7.5
		c4.1,0,7.5,3.4,7.5,7.5v215.4l-7.5,15l-7.5-15V62.8z M452.1,403.5c0,6.2-5,11.2-11.2,11.2H29.1c-6.2,0-11.2-5-11.2-11.2v-262
		c0-6.2,5-11.2,11.2-11.2h265.8v15H104c-14.4,0-26.2,11.8-26.2,26.2v202.1c0,14.4,11.8,26.2,26.2,26.2h307
		c14.4,0,26.2-11.8,26.2-26.2V171.4c0-14.4-11.8-26.2-26.2-26.2h-71.1v-15h101.1c6.2,0,11.2,5,11.2,11.2V403.5z"/>
		<path class="pen-tablet" d="M47.8,250c-12.4,0-22.5,10.1-22.5,22.5s10.1,22.5,22.5,22.5s22.5-10.1,22.5-22.5S60.2,250,47.8,250z
		 M47.8,279.9c-4.1,0-7.5-3.4-7.5-7.5c0-4.1,3.4-7.5,7.5-7.5s7.5,3.4,7.5,7.5C55.3,276.6,52,279.9,47.8,279.9z"/>
		<path class="pen-tablet" d="M25.4,212.5h44.9v15H25.4V212.5z"/>
		<path class="pen-tablet" d="M25.4,317.4h44.9v15H25.4V317.4z"/>
		<path class="pen-tablet" d="M25.4,347.3h44.9v15H25.4V347.3z"/>
		<path class="pen-tablet" d="M25.4,182.6h44.9v15H25.4V182.6z"/>
	</g>
</svg>
