<?xml version="1.0" encoding="utf-8"?>
<!-- Generator: Adobe Illusea-waves-rator 24.2.3, SVG Export Plug-In . SVG Version: 6.00 Build 0)  -->
<svg version="1.1" id="Capa_1"
	xmlns="http://www.w3.org/2000/svg"
	xmlnsXlink="http://www.w3.org/1999/xlink" x="0px" y="0px" viewBox="0 0 470 470" sea-waves-yle="enable-background:new 0 0 470 470;" xmlSpace="preserve">
	<style type="text/css">
	.sea-waves{fill:none;stroke:#FFFFFF;stroke-width:3.4054;stroke-miterlimit:10;}
	</style>
	<g>
		<path class="sea-waves" d="M404.9,136.7c-16.8,0-25.3-7.8-32.9-14.8c-6.8-6.2-12.1-11.1-23.7-11.1c-11.6,0-16.9,4.9-23.7,11.1
		c-7.5,6.9-16.1,14.8-32.9,14.8s-25.3-7.8-32.9-14.8c-6.8-6.2-12.1-11.1-23.7-11.1c-11.5,0-16.9,4.9-23.7,11.1
		c-7.5,6.9-16.1,14.8-32.9,14.8s-25.3-7.8-32.9-14.8c-6.8-6.2-12.1-11.1-23.7-11.1c-11.5,0-16.9,4.9-23.7,11.1
		c-7.6,6.9-16.1,14.8-32.9,14.8s-25.3-7.8-32.9-14.8c-6.8-6.2-12.1-11.1-23.7-11.1c-3.7,0-6.8-3.1-6.8-6.8s3.1-6.8,6.8-6.8
		c16.8,0,25.3,7.8,32.9,14.8c6.8,6.2,12.1,11.1,23.7,11.1c11.5,0,16.9-4.9,23.7-11.1c7.6-6.9,16.1-14.8,32.9-14.8S147,105,154.6,112
		c6.8,6.2,12.1,11.1,23.7,11.1c11.5,0,16.9-4.9,23.7-11.1c7.5-6.9,16.1-14.8,32.9-14.8s25.3,7.8,32.9,14.8
		c6.8,6.2,12.1,11.1,23.7,11.1c11.5,0,16.9-4.9,23.7-11.1c7.6-6.9,16.1-14.8,32.9-14.8c16.8,0,25.3,7.8,32.9,14.8
		c6.8,6.2,12.1,11.1,23.7,11.1c11.5,0,16.9-4.9,23.7-11.1c7.6-6.9,16.1-14.8,32.9-14.8c3.7,0,6.8,3.1,6.8,6.8s-3.1,6.8-6.8,6.8
		c-11.5,0-16.9,4.9-23.7,11.1C430.2,128.9,421.7,136.7,404.9,136.7z"/>
	</g>
	<g>
		<path class="sea-waves" d="M404.9,431.8c-16.8,0-25.3-7.8-32.9-14.8c-6.8-6.2-12.1-11.1-23.7-11.1c-11.6,0-16.9,4.9-23.7,11.1
		c-7.5,6.9-16.1,14.8-32.9,14.8s-25.3-7.8-32.9-14.8c-6.8-6.2-12.1-11.1-23.7-11.1c-11.5,0-16.9,4.9-23.7,11.1
		c-7.5,6.9-16.1,14.8-32.9,14.8s-25.3-7.8-32.9-14.8c-6.8-6.2-12.1-11.1-23.7-11.1c-11.5,0-16.9,4.9-23.7,11.1
		c-7.6,6.9-16.1,14.8-32.9,14.8s-25.3-7.8-32.9-14.8C25.3,410.8,20,406,8.4,406c-3.7,0-6.8-3.1-6.8-6.8s3.1-6.8,6.8-6.8
		c16.8,0,25.3,7.8,32.9,14.8c6.8,6.2,12.1,11.1,23.7,11.1c11.5,0,16.9-4.9,23.7-11.1c7.6-6.9,16.1-14.8,32.9-14.8
		s25.3,7.8,32.9,14.8c6.8,6.2,12.1,11.1,23.7,11.1c11.5,0,16.9-4.9,23.7-11.1c7.5-6.9,16.1-14.8,32.9-14.8s25.3,7.8,32.9,14.8
		c6.8,6.2,12.1,11.1,23.7,11.1c11.5,0,16.9-4.9,23.7-11.1c7.6-6.9,16.1-14.8,32.9-14.8c16.8,0,25.3,7.8,32.9,14.8
		c6.8,6.2,12.1,11.1,23.7,11.1c11.5,0,16.9-4.9,23.7-11.1c7.6-6.9,16.1-14.8,32.9-14.8c3.7,0,6.8,3.1,6.8,6.8s-3.1,6.8-6.8,6.8
		c-11.5,0-16.9,4.9-23.7,11.1C430.2,424,421.7,431.8,404.9,431.8z"/>
	</g>
	<g>
		<path class="sea-waves" d="M417.2,195.7c-13.6,0-20.5-7.8-26.7-14.8c-5.5-6.2-9.9-11.1-19.2-11.1s-13.7,4.9-19.2,11.1
		c-6.1,6.9-13.1,14.8-26.7,14.8s-20.5-7.8-26.7-14.8c-5.5-6.2-9.9-11.1-19.2-11.1c-9.3,0-13.7,4.9-19.2,11.1
		c-6.1,6.9-13.1,14.8-26.7,14.8c-13.6,0-20.5-7.8-26.7-14.8c-5.5-6.2-9.9-11.1-19.2-11.1c-9.3,0-13.7,4.9-19.2,11.1
		c-6.2,6.9-13.1,14.8-26.7,14.8s-20.5-7.8-26.7-14.8c-5.5-6.2-9.9-11.1-19.2-11.1c-3,0-5.5-3.1-5.5-6.8c0-3.7,2.5-6.8,5.5-6.8
		c13.6,0,20.5,7.8,26.7,14.8c5.5,6.2,9.9,11.1,19.2,11.1c9.3,0,13.7-4.9,19.2-11.1c6.2-6.9,13.1-14.8,26.7-14.8
		c13.6,0,20.5,7.8,26.7,14.8c5.5,6.2,9.9,11.1,19.2,11.1c9.3,0,13.7-4.9,19.2-11.1c6.1-6.9,13.1-14.8,26.7-14.8s20.5,7.8,26.7,14.8
		c5.5,6.2,9.9,11.1,19.2,11.1c9.3,0,13.7-4.9,19.2-11.1c6.2-6.9,13.1-14.8,26.7-14.8s20.5,7.8,26.7,14.8c5.5,6.2,9.9,11.1,19.2,11.1
		c9.3,0,13.7-4.9,19.2-11.1c6.2-6.9,13.1-14.8,26.7-14.8c3,0,5.5,3.1,5.5,6.8c0,3.7-2.5,6.8-5.5,6.8c-9.3,0-13.7,4.9-19.2,11.1
		C437.8,187.9,430.9,195.7,417.2,195.7z"/>
	</g>
	<g>
		<path class="sea-waves" d="M335,254.8c-13.9,0-20.9-7.8-27.2-14.8c-5.6-6.2-10-11.1-19.6-11.1s-14,4.9-19.6,11.1
		c-6.2,6.9-13.3,14.8-27.2,14.8c-13.9,0-20.9-7.8-27.2-14.8c-5.6-6.2-10-11.1-19.6-11.1c-9.5,0-14,4.9-19.6,11.1
		c-6.2,6.9-13.3,14.8-27.2,14.8c-13.9,0-20.9-7.8-27.2-14.8c-5.6-6.2-10-11.1-19.6-11.1c-9.5,0-14,4.9-19.6,11.1
		c-6.3,6.9-13.3,14.8-27.2,14.8s-20.9-7.8-27.2-14.8c-5.6-6.2-10-11.1-19.6-11.1c-3.1,0-5.6-3.1-5.6-6.8c0-3.7,2.5-6.8,5.6-6.8
		c13.9,0,20.9,7.8,27.2,14.8c5.6,6.2,10,11.1,19.6,11.1c9.5,0,14-4.9,19.6-11.1c6.3-6.9,13.3-14.8,27.2-14.8s20.9,7.8,27.2,14.8
		c5.6,6.2,10,11.1,19.6,11.1c9.5,0,14-4.9,19.6-11.1c6.2-6.9,13.3-14.8,27.2-14.8s20.9,7.8,27.2,14.8c5.6,6.2,10,11.1,19.6,11.1
		c9.5,0,14-4.9,19.6-11.1c6.3-6.9,13.3-14.8,27.2-14.8s20.9,7.8,27.2,14.8c5.6,6.2,10,11.1,19.6,11.1c9.5,0,14-4.9,19.6-11.1
		c6.3-6.9,13.3-14.8,27.2-14.8c3.1,0,5.6,3.1,5.6,6.8c0,3.7-2.5,6.8-5.6,6.8c-9.5,0-14,4.9-19.6,11.1
		C355.9,246.9,348.9,254.8,335,254.8z"/>
	</g>
	<g>
		<path class="sea-waves" d="M417,313.8c-13.7,0-20.6-7.8-26.8-14.8c-5.5-6.2-9.9-11.1-19.3-11.1s-13.8,4.9-19.3,11.1
		c-6.1,6.9-13.1,14.8-26.8,14.8c-13.7,0-20.6-7.8-26.8-14.8c-5.5-6.2-9.9-11.1-19.3-11.1c-9.3,0-13.8,4.9-19.3,11.1
		c-6.1,6.9-13.1,14.8-26.8,14.8s-20.6-7.8-26.8-14.8c-5.5-6.2-9.9-11.1-19.3-11.1c-9.3,0-13.8,4.9-19.3,11.1
		c-6.2,6.9-13.1,14.8-26.8,14.8s-20.6-7.8-26.8-14.8c-5.5-6.2-9.9-11.1-19.3-11.1c-3.1,0-5.5-3.1-5.5-6.8c0-3.7,2.5-6.8,5.5-6.8
		c13.7,0,20.6,7.8,26.8,14.8c5.5,6.2,9.9,11.1,19.3,11.1c9.3,0,13.8-4.9,19.3-11.1c6.2-6.9,13.1-14.8,26.8-14.8s20.6,7.8,26.8,14.8
		c5.5,6.2,9.9,11.1,19.3,11.1c9.3,0,13.8-4.9,19.3-11.1c6.1-6.9,13.1-14.8,26.8-14.8s20.6,7.8,26.8,14.8c5.5,6.2,9.9,11.1,19.3,11.1
		c9.3,0,13.8-4.9,19.3-11.1c6.2-6.9,13.1-14.8,26.8-14.8c13.7,0,20.6,7.8,26.8,14.8c5.5,6.2,9.9,11.1,19.3,11.1
		c9.3,0,13.8-4.9,19.3-11.1c6.2-6.9,13.1-14.8,26.8-14.8c3.1,0,5.5,3.1,5.5,6.8c0,3.7-2.5,6.8-5.5,6.8c-9.3,0-13.8,4.9-19.3,11.1
		C437.6,305.9,430.7,313.8,417,313.8z"/>
	</g>
	<g>
		<path class="sea-waves" d="M330.6,372.8c-13.7,0-20.7-7.8-26.9-14.8c-5.6-6.2-9.9-11.1-19.4-11.1c-9.5,0-13.8,4.9-19.4,11.1
		c-6.1,6.9-13.2,14.8-26.9,14.8c-13.7,0-20.7-7.8-26.9-14.8c-5.6-6.2-9.9-11.1-19.4-11.1c-9.4,0-13.8,4.9-19.4,11.1
		c-6.1,6.9-13.2,14.8-26.9,14.8s-20.7-7.8-26.9-14.8c-5.6-6.2-9.9-11.1-19.4-11.1c-9.4,0-13.8,4.9-19.4,11.1
		c-6.2,6.9-13.2,14.8-26.9,14.8S32.4,365,26.2,358c-5.6-6.2-9.9-11.1-19.4-11.1c-3.1,0-5.6-3.1-5.6-6.8s2.5-6.8,5.6-6.8
		c13.7,0,20.7,7.8,26.9,14.8c5.6,6.2,9.9,11.1,19.4,11.1c9.4,0,13.8-4.9,19.4-11.1c6.2-6.9,13.2-14.8,26.9-14.8s20.7,7.8,26.9,14.8
		c5.6,6.2,9.9,11.1,19.4,11.1c9.4,0,13.8-4.9,19.4-11.1c6.1-6.9,13.2-14.8,26.9-14.8s20.7,7.8,26.9,14.8c5.6,6.2,9.9,11.1,19.4,11.1
		c9.4,0,13.8-4.9,19.4-11.1c6.2-6.9,13.2-14.8,26.9-14.8s20.7,7.8,26.9,14.8c5.6,6.2,9.9,11.1,19.4,11.1c9.4,0,13.8-4.9,19.4-11.1
		c6.2-6.9,13.2-14.8,26.9-14.8c3.1,0,5.6,3.1,5.6,6.8s-2.5,6.8-5.6,6.8c-9.4,0-13.8,4.9-19.4,11.1
		C351.2,365,344.3,372.8,330.6,372.8z"/>
	</g>
</svg>
