<?xml version="1.0" encoding="utf-8"?>
<!-- Generator: Adobe Illusettings-rator 24.2.3, SVG Export Plug-In . SVG Version: 6.00 Build 0)  -->
<svg version="1.1" id="Layer_1"
	xmlns="http://www.w3.org/2000/svg"
	xmlnsXlink="http://www.w3.org/1999/xlink" x="0px" y="0px" viewBox="0 0 470 470" settings-yle="enable-background:new 0 0 470 470;" xmlSpace="preserve">
	<style type="text/css">
	.settings{fill:none;stroke:#FFFFFF;stroke-width:2.7266;stroke-miterlimit:10;}
	</style>
	<g>
		<g>
			<g>
				<path class="settings" d="M301.2,337.3c-4.9-2.9-9.9-5.9-14.9-8.8c1.2-10.1,1.2-20.3,0-30.3c5-2.9,10.1-5.9,14.9-8.8
				c8.2-4.9,11.6-15.4,7.9-24.2l0,0l-10.6-25.8c-3.6-8.8-13.5-13.8-22.7-11.5c-5.5,1.4-11.2,2.8-16.8,4.4
				c-6.3-7.9-13.5-15.1-21.4-21.4c1.5-5.6,3-11.3,4.4-16.8c2.3-9.3-2.6-19.1-11.5-22.7l-25.8-10.7c-8.8-3.6-19.3-0.3-24.2,7.9
				c-2.9,4.9-5.9,9.9-8.8,14.9c-10.1-1.2-20.3-1.2-30.3,0c-2.9-5.1-5.9-10.1-8.8-14.9c-4.9-8.2-15.4-11.6-24.2-7.9l-25.8,10.7
				c-8.8,3.6-13.8,13.5-11.5,22.7c1.4,5.5,2.8,11.2,4.4,16.8c-7.9,6.3-15.1,13.5-21.4,21.4c-5.6-1.5-11.3-3-16.8-4.4
				c-9.3-2.3-19.1,2.6-22.7,11.5L3.9,265.4c-3.6,8.8-0.3,19.3,7.9,24.2c4.9,2.9,9.9,5.9,14.9,8.8c-1.2,10.1-1.2,20.3,0,30.3
				c-5,2.9-10.1,5.8-14.9,8.8c-8.2,4.9-11.6,15.4-7.9,24.2l10.7,25.8c3.6,8.8,13.5,13.8,22.7,11.5c5.5-1.4,11.2-2.8,16.8-4.4
				c6.3,7.9,13.5,15.1,21.4,21.4c-1.5,5.6-3,11.3-4.4,16.8c-2.3,9.3,2.6,19.1,11.5,22.7l25.8,10.7c2.4,1,4.9,1.5,7.4,1.5
				c6.7,0,13.2-3.5,16.8-9.5c2.9-4.8,5.9-9.9,8.8-14.9c10.1,1.2,20.3,1.2,30.3,0c2.9,5,5.8,10,8.8,14.9c4.9,8.2,15.4,11.6,24.2,7.9
				l25.8-10.7c8.8-3.6,13.8-13.5,11.5-22.7c-1.4-5.5-2.8-11.1-4.4-16.8c7.9-6.3,15.1-13.5,21.4-21.4c5.6,1.5,11.3,3,16.8,4.4
				c9.3,2.3,19.1-2.6,22.7-11.5l10.7-25.8C312.9,352.7,309.5,342.3,301.2,337.3z M279.7,378.3c-5.3-1.4-10.7-2.7-16.1-4.2
				c-7.6-2.1-15.6,0.6-20.4,6.8c-5.5,7.1-12,13.5-19.1,19.1c-6.2,4.8-8.8,12.8-6.8,20.4c1.5,5.5,2.8,10.8,4.2,16.1l-23.7,9.8
				c-2.8-4.7-5.6-9.5-8.5-14.4c-3.9-6.8-11.5-10.6-19.3-9.6c-8.9,1.1-18,1.1-27,0c-7.8-1-15.4,2.8-19.3,9.6
				c-2.8,4.8-5.6,9.6-8.5,14.4l-23.7-9.8c1.4-5.3,2.7-10.7,4.2-16.1c2.1-7.6-0.6-15.6-6.8-20.4c-7.1-5.5-13.5-11.9-19.1-19.1
				c-4.8-6.2-12.8-8.8-20.4-6.8c-5.4,1.5-10.8,2.8-16.1,4.2l-9.8-23.7c4.7-2.8,9.5-5.6,14.4-8.5c6.8-3.9,10.6-11.5,9.6-19.3
				c-1.1-8.9-1.1-18,0-27c1-7.8-2.8-15.4-9.6-19.3c-4.8-2.8-9.6-5.6-14.4-8.5l9.9-23.6c5.3,1.4,10.7,2.7,16.1,4.2
				c7.6,2.1,15.6-0.6,20.4-6.8c5.5-7.1,12-13.5,19.1-19.1c6.2-4.8,8.8-12.8,6.8-20.4c-1.5-5.4-2.8-10.8-4.2-16.1l23.7-9.8
				c2.8,4.6,5.6,9.5,8.5,14.4c3.9,6.8,11.5,10.6,19.3,9.6c8.9-1.1,18-1.1,27,0c7.8,1,15.4-2.8,19.3-9.6c2.8-4.8,5.6-9.6,8.5-14.4
				l23.7,9.8c-1.4,5.3-2.7,10.7-4.2,16.1c-2.1,7.6,0.6,15.6,6.8,20.4c7.1,5.5,13.5,11.9,19.1,19.1c4.8,6.2,12.8,8.8,20.4,6.8
				c5.4-1.5,10.8-2.8,16.1-4.2l9.8,23.7c-4.7,2.8-9.5,5.6-14.4,8.5c-6.8,3.9-10.6,11.5-9.6,19.3c1.1,8.9,1.1,18,0,27
				c-1,7.8,2.8,15.4,9.6,19.3c4.8,2.7,9.6,5.6,14.4,8.5L279.7,378.3z"/>
			</g>
		</g>
		<g>
			<g>
				<path class="settings" d="M222.2,286.3L222.2,286.3c-15-36.2-56.6-53.4-92.8-38.4c-36.2,15-53.4,56.6-38.4,92.8
				c7.3,17.5,20.9,31.2,38.4,38.4c8.7,3.6,18,5.5,27.2,5.5s18.4-1.8,27.2-5.5C219.9,364.1,237.1,322.4,222.2,286.3z M175.7,359.8
				c-12.4,5.1-26,5.1-38.4,0c-12.4-5.1-22-14.7-27.2-27.2c-10.5-25.5,1.6-55,27.2-65.5c6.3-2.6,12.7-3.8,19.1-3.8
				c19.7,0,38.4,11.6,46.4,31C213.4,319.8,201.3,349.2,175.7,359.8z"/>
			</g>
		</g>
		<g>
			<g>
				<path class="settings" d="M453.7,93.9c-3.6-0.5-7.3-1.1-11-1.5c-1.9-6.3-4.4-12.3-7.5-18c2.3-3,4.5-6,6.7-8.9
				c4.8-6.5,4.1-15.7-1.6-21.4l-14.5-14.4c-5.7-5.7-15-6.5-21.4-1.6c-2.9,2.2-5.9,4.5-8.9,6.7c-5.7-3.1-11.8-5.6-18-7.5
				c-0.5-3.7-1-7.5-1.5-11c-1.2-8-8.2-14-16.4-14h-20.4c-8.1,0-15.1,6-16.4,14c-0.5,3.6-1.1,7.3-1.5,11c-6.3,1.9-12.3,4.4-18,7.5
				c-3-2.3-5.9-4.5-8.9-6.7c-6.5-4.8-15.7-4.1-21.4,1.6L258.7,44c-5.7,5.7-6.5,15-1.6,21.4c2.2,2.9,4.5,5.9,6.7,8.9
				c-3.1,5.7-5.6,11.8-7.5,18c-3.7,0.5-7.5,1-11,1.5c-8,1.2-14,8.2-14,16.4v20.4c0,8.1,6,15.1,14,16.4c3.6,0.5,7.3,1.1,11,1.5
				c1.9,6.3,4.4,12.3,7.5,18c-2.3,3-4.5,6-6.7,8.9c-4.8,6.5-4.1,15.7,1.6,21.4l14.4,14.4c5.7,5.7,15,6.5,21.4,1.6
				c2.9-2.2,5.9-4.5,8.9-6.7c5.7,3.1,11.8,5.6,18,7.5c0.5,3.7,1,7.5,1.5,11c1.2,8,8.2,14,16.4,14h20.4c8.1,0,15.1-6,16.4-14
				c0.5-3.6,1.1-7.3,1.5-11c6.3-1.9,12.3-4.4,18-7.5c3,2.3,5.9,4.5,8.9,6.7c6.5,4.8,15.7,4.1,21.4-1.6l14.4-14.4
				c5.7-5.7,6.5-15,1.6-21.4c-2.2-2.9-4.5-5.9-6.7-8.9c3.1-5.7,5.6-11.8,7.5-18c3.7-0.5,7.5-1,11-1.5c8-1.2,14-8.2,14-16.4v-20.4
				C467.7,102.2,461.7,95.2,453.7,93.9z M447.9,127.8c-3.3,0.5-6.6,0.9-9.9,1.4c-6.6,0.8-12,5.5-13.8,11.9c-1.7,6.1-4.2,12-7.3,17.5
				c-3.3,5.8-2.8,12.9,1.3,18.2c2.1,2.6,4.1,5.4,6.1,8l-10.4,10.4c-2.6-2-5.4-4-8-6.1c-5.3-4.1-12.5-4.5-18.2-1.3
				c-5.5,3.2-11.5,5.6-17.5,7.3c-6.4,1.7-11.1,7.2-11.9,13.8c-0.5,3.4-0.9,6.6-1.4,9.9h-14.6c-0.5-3.3-0.9-6.6-1.4-9.9
				c-0.8-6.6-5.5-12-11.9-13.8c-6.1-1.7-12-4.2-17.5-7.3c-5.8-3.3-12.9-2.8-18.2,1.3c-2.6,2.1-5.4,4.1-8,6.1l-10.6-10.2
				c2-2.6,4-5.4,6.1-8c4.1-5.3,4.5-12.5,1.3-18.2c-3.2-5.5-5.6-11.5-7.3-17.5c-1.7-6.4-7.2-11.1-13.8-11.9c-3.4-0.5-6.6-0.9-9.9-1.4
				v-14.8c3.3-0.5,6.6-0.9,9.9-1.4c6.6-0.8,12-5.5,13.8-11.9c1.7-6.1,4.2-12,7.3-17.5c3.3-5.8,2.8-12.9-1.3-18.2
				c-2.1-2.6-4.1-5.4-6.1-8l10.4-10.5c2.6,2,5.4,4,8,6.1c5.3,4.1,12.5,4.5,18.2,1.3c5.5-3.2,11.5-5.6,17.5-7.3
				c6.4-1.7,11.1-7.2,11.9-13.8c0.5-3.4,0.9-6.6,1.4-9.9h14.8c0.5,3.3,0.9,6.6,1.4,9.9c0.8,6.6,5.5,12,11.9,13.8
				c6.1,1.7,12,4.2,17.5,7.3c5.8,3.3,12.9,2.7,18.2-1.3c2.6-2.1,5.4-4.1,8-6.1L424.2,56c-2,2.6-4,5.4-6.1,8
				c-4.1,5.3-4.5,12.5-1.3,18.2c3.2,5.5,5.6,11.5,7.3,17.5c1.7,6.4,7.2,11.1,13.8,12c3.4,0.5,6.6,0.9,9.9,1.4L447.9,127.8
				L447.9,127.8z"/>
			</g>
		</g>
		<g>
			<g>
				<path class="settings" d="M349.5,78.3c-23.3,0-42.2,18.9-42.2,42.2s18.9,42.2,42.2,42.2s42.2-18.9,42.2-42.2S372.8,78.3,349.5,78.3z
				 M349.5,143.9c-12.9,0-23.4-10.5-23.4-23.4S336.6,97,349.5,97s23.4,10.5,23.4,23.4C372.9,133.4,362.4,143.9,349.5,143.9z"/>
			</g>
		</g>
	</g>
</svg>
