<?xml version="1.0" encoding="utf-8"?>
<!-- Generator: Adobe Illushakespeare-rator 24.2.3, SVG Export Plug-In . SVG Version: 6.00 Build 0)  -->
<svg version="1.1" id="Layer_1"
	xmlns="http://www.w3.org/2000/svg"
	xmlnsXlink="http://www.w3.org/1999/xlink" x="0px" y="0px" viewBox="0 0 470 470" shakespeare-yle="enable-background:new 0 0 470 470;" xmlSpace="preserve">
	<style type="text/css">
	.shakespeare{fill:none;stroke:#FFFFFF;stroke-width:2.7492;stroke-miterlimit:10;}
	</style>
	<g>
		<path class="shakespeare" d="M52.4,381.6c-4.3,10.4-23.2,58.1-15.2,82.1c0.9,2.7,3.1,4.6,5.9,5.1c2.7,0.5,5.6-0.4,7.4-2.5
		c1.8-2.1,2.5-5,1.6-7.6c-5-14.9,6.8-52.4,15.4-72.5c0.5-1,0.6-2,0.6-3c0-36.3,0-36.3,29.5-73.2c13.4-16.8,15.8-38.5,7.5-62.6
		c10.4,5.2,21.2,9.8,32.1,13.8c1.8,5.5,1.8,11.5-0.2,17c-1.9,3.8-0.4,8.5,3.5,10.4c0.1,0.1,9.5,4.9,3.8,21.8c-0.9,2.4-0.5,5,0.9,7.1
		c1.5,2.1,3.8,3.3,6.3,3.3c1.6,0,3-0.5,4.2-1.4c0.1,0,7.9-4,33.7-2.9c-0.1,1.3,0,2.7,0,4c-11.8,0-23.4,4-32.4,11.6
		c-2.7,2.7-4.9,5.7-6.7,9.1c-7.4-3.1-15.7-3.8-23.6-2.1c-13.8,3.3-25.5,14.2-34.6,32.6c-1.9,3.8-0.4,8.5,3.5,10.4s8.5,0.4,10.4-3.5
		c7-13.9,15.1-22.2,24.1-24.4c5.4-1.2,11.1-0.5,16,2.1c-0.1,1.1-0.3,2-0.3,3.2c0,4.3,3.5,7.8,7.8,7.8c4.3,0,7.8-3.5,7.8-7.8
		c-0.4-6,1.8-11.8,6-16c7.1-5.3,15.9-7.9,24.7-7.4c0.4,1.2,0.8,2.4,1.4,3.5c1.3,2.5,3.8,4.1,6.5,4.3c2.7,0.2,5.4-1.2,7-3.5
		s1.7-5.3,0.5-7.8c-5.1-10.4-1.5-27.4,0.5-33.1c0.6-1.9,0.5-4.1-0.5-6c-5.7-11.5-14.8-33.4-14.8-43.3c0.1-2.7,1.5-5.1,3.7-6.7
		c1.2-0.9,2.7-1.6,4.1-1.7c0,0.2,0,0.5,0,0.7c0.3,6.2,1.6,12.3,4.1,18.1c0.1,0.2,0.1,0.4,0.2,0.5c0.6,1.6,1.4,3.4,2.1,5
		c0.1,0.2,0.2,0.4,0.3,0.5c4.9,10.3,11.2,19.7,18.9,28c2.4,3.7,1.5,22.7-1.9,40c0,0.1,0,0.2,0,0.4c0,0.1-0.1,0.2-0.1,0.4
		c-6.9,62.1-52.8,63.3-54.7,63.3c-3.2,0-6,1.9-7.2,4.9c-13.7,34.4-56.1,42-56.5,42.1c-4.2,0.7-7,4.8-6.2,9c0.7,4.2,4.7,7.1,8.9,6.4
		c3.7-0.7,7.3-1.6,10.9-2.7c-0.4,2.4,0.2,4.8,1.5,6.8c1.6,2.4,4.3,3.8,7.2,3.9c2.6,0,5-1.3,6.5-3.5c1.5-2.2,1.7-4.9,0.7-7.3
		c0.7-2.6,1.6-5.1,2.7-7.6c15.9-7.9,29-20.8,36.9-36.7c23.4-3.3,43.6-18,54.2-39c20.5-2,40.6-7.6,59.2-16.6
		c5.2-2.2,10.4-4.2,15.8-6.2c0.8,0,1.6,0,2.5,0c17.9,0,49.1-3.7,63.8-18c15.5-14.1,29.1-30.2,40-48.1c4.4-5.5,6-12.7,4.1-19.5
		c-0.9-2.7-2.6-5.2-4.7-7.1c16.9-19.9,25.8-45.3,25.2-71.3c0-63.9,0-114.4-74.9-147.6l-15.2-6.8c-60.2-27.3-93.4-42.2-153.8-27
		c-41.6,10.4-57.3,25.4-68.7,36.3c-4.6,5.1-10.2,9.3-16.4,12.1c-0.5,0.2-0.9,0.4-1.3,0.5c-15.5,5.1-21.3,22.9-16.4,49
		c-3.5,2.5-6.8,5.2-9.8,8.2c-6,5.1-9.8,12.5-10.3,20.3c0.2,4.6,0.8,9.1,1.9,13.6c0.4,1.6,0.6,3.2,1,4.9c0,0.1,0,0.3,0.1,0.4
		c0.6,3.3,1,6.7,1,10.1c-0.1,7.1-2,16.6-16.4,27.4c-10.2,7.6-14.3,15.5-12.3,23.5c3.8,14.7,28,20,37.7,21.4c0.5,0.3,1.1,0.6,1.7,1
		c10.4,18.7,18.8,44.4,2.7,64.7C53.4,340.1,52.4,342.1,52.4,381.6z M191.6,301.1c-10-0.6-20.1-0.4-30,0.9c0.5-8.5-2.6-17-8.5-23.1
		c0.9-4.2,1.2-8.4,0.7-12.7c9,1.8,18.1,2.9,27.1,3.4c3.2,9.7,7,19.2,11.5,28.4C192.1,298.8,191.8,299.9,191.6,301.1z M228.8,272.9
		c18.3,2,35.8,5.7,44.4,14.3c3.9,3.7,8.6,6.4,13.7,8c-5.5,4.1-11.4,7.7-17.6,10.7c-8.3,3.5-17.3,5-26.3,4.6
		c0.5-11.1-0.7-21.5-5.7-26.5C234.2,280.5,231.3,276.8,228.8,272.9L228.8,272.9z M301.2,336.3c-0.5,0.2-1,0.4-1.5,0.6
		c-0.4,0.1-0.6,0.2-0.9,0.4c-5.6,2.1-11.1,4.3-16.6,6.6c-14.8,7-30.6,11.9-46.7,14.8c2-6.8,3.4-13.7,4.1-20.8
		c0.7-3.5,1.4-7.5,2-11.7c11.9,0.6,23.8-1.5,34.7-6.1c12.4-5.8,23.5-13.8,32.7-23.8c1.3-1.5,2.7-2.8,4.1-4.2
		c4.2-4.1,8-8.7,11.1-13.7c3.7-6.7,10.3-11.2,17.9-12.1c2.2-0.2,4.4,0.2,6.4,1.1c-0.6,1.9-2.2,5.9-5.5,13.2l-0.2,0.4
		c0,0.1-0.1,0.2-0.2,0.3c-1.2,2.6-2.4,5.2-3.7,7.9C330.1,308.6,320.9,329.1,301.2,336.3z M397.1,277.3c-10.4,17-23.3,32.3-38,45.6
		c-8.2,6.2-18.1,10.2-28.5,11.3c9.4-11.7,17-24.8,22.6-38.8c0.8-1.7,1.6-3.5,2.4-5.2c9.5-2.7,18.9-5.8,28-9.3
		c4-2.2,7.9-4.8,11.5-7.6c1.1-0.8,2.2-1.8,3.4-2.8c0.4,0.3,0.6,0.6,0.8,1C399.7,272,399.4,273.9,397.1,277.3z M107.7,71.3
		c6.8,4.7,9.8,13.3,7.3,21.2c-1.4,5.5-5,7.3-12,7.8C101.6,91,100.3,75.5,107.7,71.3z M93,223.5c-0.3-0.2-0.5-0.4-0.8-0.5
		c-2.8-1.6-4.6-2.7-4.6-2.7c-0.7-0.5-1.6-0.7-2.5-0.9l6-4.9c3.3-2.7,3.8-7.6,1-10.9c-2.7-3.3-7.6-3.8-10.9-1.1l-14.8,12.1
		c-4.7-1.9-7.9-3.9-8.2-5.3c0,0,0.3-2.5,6.5-7.1c8.2-5.8,14.8-13.6,19.1-22.7c7.2,7.2,11.8,8.6,15.3,8.6c8.2-0.7,15.3-5.8,18.8-13.2
		c3.5-6.5,7.5-20.1-4.5-37.9c-3.5-6.7-10.4-10.9-18-10.9c-4.1,0.4-8,1.9-11.2,4.7c1.3-2.5,2.9-4.7,4.9-6.6c3-2.9,6.2-5.6,9.8-8
		c9.1-0.1,26.4-1.2,31.1-19.8c3.4-11.5,0.4-23.9-7.8-32.7c3.8-2.8,7.3-6,10.6-9.3c10.8-10.3,24.2-23.1,61.8-32.4
		c55.2-13.7,84.7-0.5,143.6,25.9l15.3,6.9c65.6,29.1,65.6,70.7,65.6,133.3c0.7,25.5-9.3,50-27.7,67.7l0,0c-2.1,2-4.2,3.8-6,5.2
		c-2.7,2.1-5.4,4-8.2,5.7c-0.6,0.3-5.9,2.3-13.7,4.9c0.6-1.7,1-3.6,1.1-5.5c-0.6-7.1-6-13-13-14.4c-10.9-3.3-28-0.6-40.3,17.9
		c-2.5,3.9-5.3,7.5-8.6,10.7c-0.6,0.6-1.3,1.3-1.9,1.9c-6-0.2-11.8-2.3-16.5-6.1c-10.2-10.2-26.8-15-45.2-17.7
		c17.6-6,31.8-19.2,39.1-36.4c2.1-5.2,8.4-21.1-0.5-30.4c-10.4-11-32.2-3.6-51.4,2.9l-4.7,1.6c-18.5,6.1-38.7-13.6-38.9-13.7
		c-3-2.9-8-2.9-10.9,0.1c-3,3-3,7.9-0.1,10.9c1.1,1.1,27.1,26.8,54.8,17.5l4.8-1.6c7.8-2.7,31.5-10.7,35-7c0,0,1.7,2.8-2.7,13.9
		c-8.4,21.1-30.6,29.1-46.6,32.3c-0.5-1.9-0.8-3.9-0.8-6c0.2-4.5-1.5-8.8-4.5-12c-2.9-2.8-6.9-4.4-10.9-4.3
		c-12.9,0.6-23.3,11.2-23.6,24.1c0,1,0.2,2.1,0.3,3.2c-7.3-0.5-14.6-1.5-21.7-3c-3.2-0.8-6.4-1.7-9.8-2.9c-4.5-1.5-9.2-3.3-13.7-5.1
		l9.9-8.1c2.2-1.7,3.2-4.6,2.7-7.3s-2.3-5-4.9-6c-2.6-1-5.6-0.5-7.7,1.3l-16,13.1c-2.9-1.4-5.7-2.7-8.2-4l7.1-5.7
		c3.4-2.7,3.8-7.6,1.2-11c-2.7-3.4-7.6-3.8-11-1.2L93,223.5z M86.6,152.3c4.9-8.5,8.7-10.7,9.6-10.8c0.7,0,2.2,1,4.1,4
		c5,5.8,6.6,13.7,4.2,20.9c-1,2.5-2.8,4.6-5.1,5.9c-4.7-3.6-8.8-7.9-12.2-12.7C87.3,157.1,87,154.7,86.6,152.3z"/>
		<path class="shakespeare" d="M178.5,173.4c3,0,6-0.5,9-1.4c25.9-8.6,28.8-19,28.8-23c-0.5-13-8.2-24.7-19.9-30.4c-4-2.7-7.6-6-10.5-9.8
		c-6.1-7-13-14.8-23.5-15.2c-8.5,0.3-16.5,4.2-21.9,10.8c-11.5,11.7-12.8,30.1-3,43.3C146.3,162.4,161.5,171.9,178.5,173.4z
		 M151.5,115.4c2.6-3.2,6.1-5.4,10.2-6.2h0.1c3.6,0.1,8,5.1,12.2,9.9c4.2,5.4,9.3,10,15.3,13.5c6,2.9,10.3,8.6,11.2,15.2
		c-5,4.6-11.3,7.9-18,9.4c-9.1,3-24.3-5.4-31.8-17.7C144.9,132.4,145.3,122.1,151.5,115.4L151.5,115.4z"/>
		<path class="shakespeare" d="M353.4,85.8c36.8,17.6,35.6,84.3,35.6,85c-0.1,4.3,3.3,7.9,7.6,8h0.2c4.2,0,7.7-3.4,7.8-7.6
		c0.1-3.1,1.6-77.5-44.4-99.4c-2.5-1.2-5.5-1-7.8,0.5c-2.3,1.6-3.6,4.3-3.4,7.1C349.2,82.1,350.9,84.6,353.4,85.8z"/>
	</g>
</svg>
