<?xml version="1.0" encoding="utf-8"?>
<!-- Generator: Adobe Illuskateboarding-rator 24.2.3, SVG Export Plug-In . SVG Version: 6.00 Build 0)  -->
<svg version="1.1" id="Capa_1"
	xmlns="http://www.w3.org/2000/svg"
	xmlnsXlink="http://www.w3.org/1999/xlink" x="0px" y="0px" viewBox="0 0 470 470" skateboarding-yle="enable-background:new 0 0 470 470;" xmlSpace="preserve">
	<style type="text/css">
	.skateboarding{fill:none;stroke:#FFFFFF;stroke-width:2.7015;stroke-miterlimit:10;}
	</style>
	<g>
		<path class="skateboarding" d="M465.5,304.1l-11.8-6.3c-7.6,14.3-22.5,23.2-38.7,23.2H252.1l89.1-115c12.4-12.7,12.3-33.1-0.3-45.7l-9.9-9.9
		l-46.2-46.2L187.6,7l-9.5,9.5l95,95c-0.8,3.3-4.3,11.7-18.7,26.1c-11.2,11.2-21.2,15.7-26.1,17.4L81.5,8L72,17.4l146.8,146.8
		l-33.5,95.9c-9.8,4.2-38.3,18-42.9,39.8c-1.5,7.1-0.4,14.1,3.4,21H54.9c-16.2,0-31-8.9-38.7-23.2l-11.8,6.3c9,17,25.8,28.1,44.7,30
		v29.5c-16.9,8.9-28.5,26.6-28.5,47c0,29.2,23.8,53,53,53s53-23.8,53-53c0-18-9.1-34-22.8-43.6l19.1-32.6h225L367,367
		c-13.8,9.6-22.8,25.5-22.8,43.6c0,29.2,23.8,53,53,53c29.2,0,53-23.8,53-53c0-20.4-11.6-38.1-28.5-47v-29.6
		C440.2,331.8,456.6,320.7,465.5,304.1z M113.3,410.5c0,21.9-17.8,39.7-39.7,39.7S34,432.4,34,410.5s17.8-39.7,39.7-39.7
		S113.3,388.7,113.3,410.5z M92,360.8c-5.7-2.1-11.9-3.3-18.3-3.3c-3.8,0-7.5,0.4-11.1,1.2v-24.4h44.9L92,360.8z M162,321
		c-5.7-6.4-7.9-12.3-6.7-18.2c3.2-15.1,28.2-27.8,37.6-31.4l2.9-1.1l5.9-16.7l14.3,3.6l3.2-13l-13.2-3.3l5.2-14.8l14.5,3.6l3.2-13
		l-13.3-3.3l5.2-14.8l14.7,3.7l3.2-13l-13.5-3.4l6.3-18c6.2-2,18.7-7.3,32.4-21c10.6-10.6,16.4-19,19.5-25.2l38.1,38.1
		c1.2,1.2,1.9,2.8,1.9,4.5c0,1.7-0.7,3.3-1.9,4.5l-0.3,0.3l-60.2,77.9l10.6,8.2l59.7-77.3c1.2-1.3,2.3-2.8,3.1-4.3
		c4.2,7.3,3.2,16.9-3,23.1l-0.3,0.3L235.2,321L162,321z M363.4,334.3h44.9v24.4c-3.6-0.8-7.3-1.2-11.1-1.2c-6.4,0-12.6,1.2-18.3,3.3
		L363.4,334.3z M436.9,410.5c0,21.9-17.8,39.7-39.7,39.7s-39.7-17.8-39.7-39.7s17.8-39.7,39.7-39.7S436.9,388.7,436.9,410.5z"/>
		<path class="skateboarding" d="M73.7,390.5c-11.1,0-20.1,9-20.1,20.1s9,20.1,20.1,20.1s20.1-9,20.1-20.1S84.7,390.5,73.7,390.5z M73.7,417.2
		c-3.7,0-6.7-3-6.7-6.7c0-3.7,3-6.7,6.7-6.7s6.7,3,6.7,6.7C80.3,414.2,77.3,417.2,73.7,417.2z"/>
		<path class="skateboarding" d="M377.2,410.5c0,11.1,9,20.1,20.1,20.1s20.1-9,20.1-20.1s-9-20.1-20.1-20.1S377.2,399.5,377.2,410.5z
		 M403.9,410.5c0,3.7-3,6.7-6.7,6.7c-3.7,0-6.7-3-6.7-6.7c0-3.7,3-6.7,6.7-6.7C400.9,403.9,403.9,406.9,403.9,410.5z"/>
		<path class="skateboarding" d="M278.8,154.9l9.5-9.5l17.8,17.8l-9.5,9.5L278.8,154.9z"/>
		<path class="skateboarding" d="M172.2,295.1h13.4v13.4h-13.4V295.1z"/>
		<path class="skateboarding" d="M313.4,265.7h62.4v13.4h-62.4V265.7z"/>
		<path class="skateboarding" d="M415.9,265.7h13.4v13.4h-13.4V265.7z"/>
		<path class="skateboarding" d="M389.2,265.7h13.4v13.4h-13.4V265.7z"/>
		<path class="skateboarding" d="M432,238.1h13.4v13.4H432V238.1z"/>
		<path class="skateboarding" d="M358,238.1h60.6v13.4H358V238.1z"/>
		<path class="skateboarding" d="M449.8,210.4h13.4v13.4h-13.4L449.8,210.4z"/>
		<path class="skateboarding" d="M384.8,210.4h51.7v13.4h-51.7V210.4z"/>
		<path class="skateboarding" d="M228.2,289.4l8.2-10.6L247,287l-8.2,10.6L228.2,289.4z"/>
		<path class="skateboarding" d="M244.8,268l8.2-10.6l10.6,8.2l-8.2,10.6L244.8,268z"/>
	</g>
</svg>
