<?xml version="1.0" encoding="utf-8"?>
<!-- Generator: Adobe Illuskull-rator 24.2.3, SVG Export Plug-In . SVG Version: 6.00 Build 0)  -->
<svg version="1.1" id="Capa_1"
	xmlns="http://www.w3.org/2000/svg"
	xmlnsXlink="http://www.w3.org/1999/xlink" x="0px" y="0px" viewBox="0 0 470 470" skull-yle="enable-background:new 0 0 470 470;" xmlSpace="preserve">
	<style type="text/css">
	.skull{fill:none;stroke:#FFFFFF;stroke-width:6.108;stroke-miterlimit:10;}
	</style>
	<g>
		<path class="skull" d="M215.3,216.2c-5.1-29-54.9-31.7-64.8-32h-0.3c-9.9,0-28,4.8-33.3,23c-3.5,11.9-1.5,32.2,9,48
		c7.6,11.5,18.4,18.4,31,19.9c1.9,0.2,3.8,0.3,5.6,0.3c14,0,27.6-6.1,38.2-17.3C212.4,246,217.8,230.3,215.3,216.2z M186.2,244.4
		c-7.6,8-17.3,12-26.9,10.8c-6.7-0.8-12.3-4.5-16.6-11.1c-7-10.7-8.3-25-6.4-31.3c2.3-7.9,12.7-8.5,14-8.5
		c17.6,0.5,43.7,6.2,45.3,15.3C196.9,227.3,193.2,237,186.2,244.4z"/>
		<path class="skull" d="M320.8,184.2h-0.3c-9.9,0.3-59.7,3-64.8,32c-2.5,14.1,3,29.8,14.5,42.1c10.6,11.2,24.2,17.3,38.2,17.3
		c1.9,0,3.8-0.1,5.6-0.3c12.7-1.5,23.4-8.4,31-19.9c10.5-15.8,12.4-36.2,9-48C348.8,189.1,330.7,184.2,320.8,184.2z M328.4,244.2
		c-4.3,6.5-9.9,10.3-16.6,11.1c-9.5,1.1-19.3-2.8-26.9-10.8c-7-7.4-10.7-17.1-9.4-24.7c1.6-9.1,27.7-14.8,45.3-15.3
		c1.3,0.1,11.7,0.7,14,8.5C336.6,219.2,335.4,233.5,328.4,244.2z"/>
		<path class="skull" d="M247.4,309.8c-0.3-0.7-0.7-2.1-1.1-3.4c-0.2-0.8-0.5-1.7-0.9-2.7l0-6.6l-6.8-1c-0.9-0.3-1.9-0.4-3.2-0.4
		c-1.4,0-2.5,0.1-3.5,0.5l-6.6,1.2v6.4c-0.4,1-0.7,1.9-0.9,2.7c-0.4,1.3-0.8,2.6-0.8,2.7l-24.2,42.3c-4.2,7.4-5.6,15.6-3.9,23.3
		c2.5,11.3,10.6,17.9,21.7,17.9c0.1,0,0.2,0,0.3,0c6.1-0.1,11.9-2.1,16.7-6c0.5-0.4,1.6-0.4,2.2,0c4.8,3.9,10.6,5.9,16.7,6
		c0.1,0,0.2,0,0.3,0c11.1,0,19.2-6.7,21.7-17.9c1.7-7.6,0.3-15.9-3.9-23.3L247.4,309.8z M255.5,370.3c-0.3,1.3-0.7,1.9-0.8,2
		c0,0-0.4,0-1.4,0.2c-1.6,0-3.1-0.6-4.4-1.6c-7.9-6.3-19.3-6.3-27.2,0c-1.3,1-2.8,1.6-4.4,1.6c-1-0.2-1.4-0.2-1.4-0.2
		c-0.1-0.1-0.5-0.7-0.8-2c-0.6-2.7,0-6,1.7-8.9l18.5-32.3l18.5,32.3v0C255.5,364.4,256.1,367.6,255.5,370.3z"/>
		<path class="skull" d="M89.5,133.3c4.7-2.9,6.2-9.1,3.2-13.9c-2.9-4.7-9.1-6.1-13.9-3.2c-16,10-24.9,23.7-24.9,38.7
		c0,15,8.8,28.7,24.9,38.7c1.7,1,3.5,1.5,5.3,1.5c3.4,0,6.6-1.7,8.6-4.7c2.9-4.7,1.5-10.9-3.2-13.9c-9.9-6.2-15.4-13.8-15.4-21.6
		C74.1,147.1,79.6,139.4,89.5,133.3z"/>
		<path class="skull" d="M380.5,176.5c-4.7,2.9-6.2,9.1-3.2,13.9c1.9,3.1,5.2,4.7,8.6,4.7c1.8,0,3.6-0.5,5.3-1.5
		c16-10,24.9-23.7,24.9-38.7c0-15-8.8-28.7-24.9-38.7c-4.7-2.9-10.9-1.5-13.9,3.2c-2.9,4.7-1.5,10.9,3.2,13.9
		c9.9,6.2,15.4,13.8,15.4,21.6S390.4,170.4,380.5,176.5z"/>
		<path class="skull" d="M455,297.3c-0.7-3-1.8-5.9-3-8.6c-0.3-0.6-0.5-1.2-0.8-1.8c-1.3-2.6-2.8-5.1-4.6-7.4c-0.3-0.3-0.6-0.6-0.8-1
		c-1.7-2-3.5-3.8-5.5-5.5c-0.5-0.4-0.9-0.8-1.3-1.1c-2.2-1.7-4.6-3.2-7.2-4.5c-0.2-0.1-0.4-0.3-0.6-0.4l2.7-7.7
		c22.3-84.9,14.4-150.5-23.4-194.9C352.3-3.8,245.1,3,233,4C220.9,3,113.8-3.8,55.7,64.4c-37.8,44.4-45.7,110-23.3,195.3l2.8,9.4
		c-0.4,0.2-0.7,0.5-1,0.8c-1.7,1.1-3.4,2.4-4.9,3.7c-0.5,0.4-0.9,0.8-1.4,1.2c-1.9,1.8-3.6,3.7-5.1,5.8c-0.3,0.5-0.6,0.9-0.9,1.4
		c-1.2,1.8-2.3,3.6-3.2,5.6c-0.3,0.7-0.6,1.3-0.9,2c-1.1,2.5-2,5-2.6,7.8c-3.7,16.1,1.2,32.2,13,43c-0.6,9.5-0.1,28,10.6,41.4
		c6.9,8.7,17.1,13.7,29.4,14.5l5.4,0.4c34.7,2.2,40.9,2.6,40.9,29.8v21c0,10.6,8.6,19.2,19.2,19.2h202.9c10.6,0,19.2-8.6,19.2-19.2
		v-21c0-27.2,6.2-27.6,40.9-29.8l5.4-0.4c12.3-0.8,22.5-5.9,29.4-14.5c10.7-13.4,11.2-31.9,10.6-41.4
		C453.8,329.5,458.8,313.4,455,297.3z M432.7,335l-7.2-7.2l-4.9,3.6l0.9,6c0.9,5.7,1.5,22.5-5.9,31.7c-3.4,4.3-8.3,6.5-15,7
		l-5.4,0.4c-33.4,2.1-59.7,3.8-59.7,49.9v20.1h-30.2v-20.1c0-5.6-4.5-10.1-10.1-10.1s-10.1,4.5-10.1,10.1v20.1h-20.1v-20.1
		c0-5.6-4.5-10.1-10.1-10.1s-10.1,4.5-10.1,10.1v20.1H225v-20.1c0-5.6-4.5-10.1-10.1-10.1c-5.6,0-10.1,4.5-10.1,10.1v20.1h-20.1
		v-20.1c0-5.6-4.5-10.1-10.1-10.1c-5.6,0-10.1,4.5-10.1,10.1v20.1h-30.2v-20.1c0-46.1-26.4-47.8-59.7-49.9l-5.4-0.3
		c-6.7-0.4-11.6-2.7-15-7c-7.4-9.2-6.8-26-5.9-31.7l-0.3-6.8l-4.8-3.6c-9.2-7-10.6-17.6-8.8-25.2c0.5-2.2,1.3-4.3,2.3-6.2
		c0.3-0.6,0.7-1.1,1.1-1.7c0.8-1.2,1.6-2.4,2.6-3.4c0.5-0.6,1.1-1.1,1.7-1.6c1-0.9,2.1-1.7,3.2-2.4c0.7-0.4,1.3-0.8,2-1.1
		c1.8-0.8,3.6-1.6,5.6-2c18.5-3.7,31-10.3,37.1-19.6c3.8-5.7,5.1-12.4,3.9-19.3v-29.2c0-5.6-4.5-10.1-10.1-10.1
		c-5.6,0-10.1,4.5-10.1,10.1v30.2l0.2,2.1c0.6,2.7-0.1,4.2-0.8,5.2c-1.3,1.9-5.7,6.4-19.3,9.9l-2.5-8.3
		c-20.5-78.1-14-137.6,19.2-176.7C124.4,14.6,231,24,232.1,24.1l1,0.1l1-0.1c1-0.1,107.7-9.5,161.1,53.4
		c33.3,39.1,39.7,98.6,19.5,175.9l-2.9,8c-10.5-3.2-14.1-7-15.3-8.7c-0.7-1.1-1.4-2.6-0.8-5.2l0.2-32.2c0-5.6-4.5-10.1-10.1-10.1
		s-10.1,4.5-10.1,10.1v29.2c-1.2,7,0.2,13.6,3.9,19.3c4.8,7.3,13.4,12.8,25.6,16.7l-0.1,0.4l11.1,2.5l0.6,0.1
		c0.4,0.1,0.7,0.3,1.1,0.4c1.9,0.5,3.8,1,5.4,1.9c1.8,1,3.4,2.2,4.9,3.6c0.1,0.1,0.3,0.2,0.5,0.4c1.2,1.2,2.1,2.6,3.1,4.1
		c0.3,0.5,0.7,0.9,1,1.4c1.1,2,2,4.3,2.5,6.7c1.8,7.6,0.4,18.2-8.8,25.2L432.7,335z"/>
	</g>
</svg>
