<?xml version="1.0" encoding="utf-8"?>
<!-- Generator: Adobe Illusunset-rator 24.2.3, SVG Export Plug-In . SVG Version: 6.00 Build 0)  -->
<svg version="1.1" id="Layer_1"
	xmlns="http://www.w3.org/2000/svg"
	xmlnsXlink="http://www.w3.org/1999/xlink" x="0px" y="0px" viewBox="0 0 470 470" sunset-yle="enable-background:new 0 0 470 470;" xmlSpace="preserve">
	<style type="text/css">
	.sunset{fill:none;stroke:#FFFFFF;stroke-width:2.4142;stroke-miterlimit:10;}
	</style>
	<g>
		<path class="sunset" d="M266.2,297.3c0,43,34.9,77.9,77.9,77.9c43,0,77.9-34.9,77.9-77.9c0-43-34.9-77.9-77.9-77.9
		C301,219.5,266.2,254.3,266.2,297.3z M344,235c34.4,0,62.3,27.9,62.3,62.3s-27.9,62.3-62.3,62.3s-62.3-27.9-62.3-62.3
		C281.8,262.9,309.6,235.1,344,235z"/>
		<path class="sunset" d="M299.5,453.1h89v15.6h-89V453.1z"/>
		<path class="sunset" d="M266.2,421.9h155.7v15.6H266.2V421.9z"/>
		<path class="sunset" d="M94.8,421.9h15.6v15.6H94.8V421.9z"/>
		<path class="sunset" d="M48.1,437.5h15.6v15.6H48.1V437.5z"/>
		<path class="sunset" d="M95.6,378.1c40.7-70.8,66.2-149.3,74.9-230.5l72.4,72c1.4,1.4,3.4,2.3,5.5,2.3c0.4,0,0.8,0,1.3-0.1
		c2.5-0.4,4.6-2,5.7-4.2c14.7-29.3,8.9-64.7-14.3-87.9l-6.4-6.4h54.8c4.3,0,7.8-3.5,7.8-7.8c0-0.8-0.1-1.7-0.4-2.5
		C286.6,82,257.5,61,224.7,61h-10.1l38.9-39.1c3-3,3-8,0-11c-0.6-0.6-1.3-1.1-2-1.4c-29.3-14.7-64.7-9-87.9,14.3l-7.4,7.4
		c-2.4,2.4-4.7,5-6.8,7.8c-2-2.7-4.3-5.3-6.7-7.8l-7.4-7.4C112,0.5,76.6-5.2,47.3,9.4c-3.8,1.9-5.4,6.6-3.5,10.4
		c0.4,0.7,0.9,1.4,1.4,2L84.2,61H74c-32.8,0-61.9,20.9-72.2,52c-1.4,4.1,0.8,8.5,4.9,9.9c0.8,0.3,1.6,0.4,2.5,0.4h54.7l-6.4,6.4
		c-23.2,23.1-28.9,58.6-14.3,87.9c1.1,2.2,3.2,3.8,5.7,4.2c0.4,0.1,0.8,0.1,1.3,0.1c2.1,0,4-0.8,5.5-2.3l67.4-67
		c-8.4,74.6-36.5,145.7-81.4,205.8c-10.5-2.7-21.1-4.9-31.8-6.5l-4.9-0.5l-1.6,15.5l4.5,0.4c7.8,1.1,15.5,2.7,23.2,4.5
		c-1.6,2-3.1,3.9-4.7,5.9l11.9,10c59.8-71.1,95.5-159.5,101.9-252.2l9-8.9l6.7,6.7c-8.2,99.2-42.2,194.5-98.7,276.4l12.8,8.9
		c6.1-8.7,12-17.8,17.6-27.1c36.4,17.4,68.6,42.6,94.2,73.8l12-9.9c-15.2-18.4-32.5-34.9-51.7-49.1h326.4v-15.6H119.2
		C111.5,386.1,103.7,382,95.6,378.1z M245.5,200.2l-82.3-81.8c21-6.3,43.8-0.6,59.4,14.9l7.4,7.4C245.7,156.2,251.6,179,245.5,200.2
		z M277.6,107.7h-64.5c-15-7.1-32-9.2-48.2-5.8c11.3-15.9,29.7-25.4,49.2-25.4h10.5C246.7,76.6,267,88.5,277.6,107.7z M167.1,42.1
		l7.4-7.4c15.6-15.6,38.4-21.5,59.5-15.4l-46.2,46.4c-15,5.5-27.8,15.6-36.8,28.9C147.5,75.6,153.4,55.9,167.1,42.1L167.1,42.1z
		 M124.2,34.7l7.4,7.4c3.5,3.5,6.5,7.5,9,11.8c-3.5,8.2-5.5,17-6,25.9c-7-6.1-15-10.9-23.7-14.1L64.7,19.3
		C85.8,13.2,108.6,19.1,124.2,34.7L124.2,34.7z M74,76.6h10.5c19.6,0,37.9,9.4,49.3,25.4c-16.3-3.4-33.2-1.4-48.2,5.8H21.1
		C31.7,88.5,52,76.6,74,76.6L74,76.6z M53.1,200.2c-6.1-21.2-0.2-43.9,15.4-59.5l7.4-7.4c11.2-11.2,26.4-17.4,42.2-17.4
		c5.8,0,11.6,0.8,17.3,2.5L53.1,200.2z"/>
	</g>
</svg>
