<?xml version="1.0" encoding="utf-8"?>
<!-- Generator: Adobe Illustrator 24.2.3, SVG Export Plug-In . SVG Version: 6.00 Build 0)  -->
<svg version="1.1" id="Layer_1"
	xmlns="http://www.w3.org/2000/svg"
	xmlnsXlink="http://www.w3.org/1999/xlink" x="0px" y="0px" viewBox="0 0 470 470" style="enable-background:new 0 0 470 470;" xmlSpace="preserve">
	<style type="text/css">
	.surfing{fill:none;stroke:#FFFFFF;stroke-width:2.7379;stroke-miterlimit:10;}
	</style>
	<g>
		<g>
			<path class="surfing" d="M459.5,354.6c-6.1,0-9-2.1-13.4-5.2c-5.4-3.8-12-8.5-24-8.5s-18.6,4.7-24,8.5c-4.4,3.1-7.3,5.2-13.4,5.2
			c-6.1,0-9-2.1-13.4-5.2c-5.4-3.8-12-8.5-24-8.5c-11.9,0-18.6,4.7-24,8.5c-4.4,3.1-7.3,5.2-13.4,5.2c-6.1,0-9-2.1-13.4-5.2
			c-5.4-3.8-12-8.5-24-8.5s-18.6,4.7-24,8.5c-4.4,3.1-7.3,5.2-13.4,5.2c-29.3,0-52.2-8.6-68-25.6c-16-17.2-23.9-42.9-22.5-72.7
			c0.7-0.6,1.4-1.2,2-1.8c4.3-4.4,6.8-9.9,7.5-16.1c6.8,0.5,13.6-0.9,19.6-4.4c9.4-5.4,15.1-14.8,15.1-25.1
			c0-25-31.9-48.8-72.6-54.1c-17.1-2.3-42.6-2-66.9,11.9c-23.2,13.3-39.2,35.6-47.4,66.2c-0.2,0.8-0.3,1.6-0.3,2.4v52.7v0.2v171.6
			c0,5,4.1,9.1,9.1,9.1h449c5,0,9.1-4.1,9.1-9.1v-95.8C468.6,358.6,464.5,354.6,459.5,354.6L459.5,354.6z M153.6,341.3
			c19.1,20.6,47.2,31.5,81.4,31.5c11.9,0,18.6-4.7,24-8.5c4.4-3.1,7.3-5.2,13.4-5.2s9,2.1,13.4,5.2c5.4,3.8,12,8.5,24,8.5
			s18.6-4.7,24-8.5c4.4-3.1,7.3-5.2,13.4-5.2c6.1,0,9,2.1,13.4,5.2c5.4,3.8,12,8.5,24,8.5s18.6-4.7,24-8.5c4.4-3.1,7.3-5.2,13.4-5.2
			c6.1,0,9,2.1,13.4,5.2c3.8,2.7,8.3,5.9,14.9,7.5v35.7c-1.7-0.9-3.3-2-5.1-3.3c-5.3-3.8-12-8.5-23.9-8.5c-11.9,0-18.6,4.7-23.9,8.5
			c-4.4,3.1-7.3,5.2-13.3,5.2c-6.1,0-9-2.1-13.3-5.2c-5.3-3.8-12-8.5-23.9-8.5s-18.6,4.7-23.9,8.5c-4.4,3.1-7.3,5.2-13.3,5.2
			s-9-2.1-13.3-5.2c-5.3-3.8-12-8.5-23.9-8.5c-11.9,0-18.6,4.7-23.9,8.5c-4.4,3.1-7.3,5.2-13.3,5.2c-6.1,0-9-2.1-13.3-5.2
			c-5.3-3.8-12-8.5-23.9-8.5c-11.9,0-18.6,4.7-23.9,8.5c-4.4,3.1-7.3,5.2-13.3,5.2s-9-2.1-13.3-5.2c-5.3-3.8-12-8.5-23.9-8.5
			s-18.6,4.7-23.9,8.5c-4.4,3.1-7.3,5.2-13.3,5.2s-9-2.1-13.3-5.2c-5.3-3.8-12-8.5-23.9-8.5s-18.6,4.7-23.9,8.5
			c-1.9,1.3-3.4,2.4-5.1,3.3v-99c3.9,1.9,8.1,3,12.5,3.5c0.3,15.3,3.1,41.1,27.8,65.8c1.8,1.8,4.1,2.7,6.5,2.7
			c2.3,0,4.7-0.9,6.5-2.7c3.6-3.6,3.6-9.3,0-12.9c-20.9-20.9-22.4-42.4-22.5-55.4c8.7-3.3,15.5-9.5,19.2-17.1
			c5.2,1.8,10.4,2.6,15.3,2.5c2,14.3,5,31.4,15.5,48.4c1.7,2.8,4.7,4.3,7.8,4.3c1.6,0,3.3-0.4,4.8-1.4c4.3-2.6,5.6-8.3,3-12.6
			c-9.1-14.8-11.4-30.2-13.3-43.9c1.5-1,3-2,4.4-3.3c6.7-6,10.6-14.5,11.2-23.1c2.8,0.2,5.5,0.2,8-0.1
			C126.2,294.7,135.8,322.1,153.6,341.3L153.6,341.3z M113.6,172.6c32.5,4.3,56.8,22.6,56.8,36c0,5.3-4.1,8.3-5.9,9.3
			c-5,2.9-11,2.8-16.3-0.2c-3.2-1.9-7.3-1.6-10.2,0.7s-4.2,6.2-3.1,9.8c1.2,4.2,2,9.8-1.4,13.3c-4,4.1-13.4,4.9-23.8,1.9
			c-3.4-1-7,0.1-9.3,2.8c-2.3,2.6-2.9,6.4-1.5,9.6c2.4,5.6,0.7,12.8-4.1,17.1c-6.1,5.4-15.9,5-26.8-1.2c-2.8-1.6-6.2-1.6-9,0
			c-2.8,1.6-4.5,4.5-4.6,7.7c-0.2,7.9-7,12.4-12.9,13.8c-6.9,1.7-16,0.4-21.8-8v-35.4c5.8-3,16.4-5.7,27.3,1.4
			c4.2,2.8,9.9,1.6,12.6-2.6c2.8-4.2,1.6-9.9-2.6-12.6c-12.7-8.3-25.3-8.7-35.3-6.2c2.8-8.4,6.3-15.6,10.2-21.8
			c7.3-5.3,27.3-14,47.9-0.5c4.2,2.8,9.9,1.6,12.6-2.6c2.8-4.2,1.6-9.9-2.6-12.6c-10.5-6.9-21-9.8-30.7-10.2
			C80.6,170.1,103.7,171.3,113.6,172.6L113.6,172.6z M19.6,450.4v-23.7c7-1.5,11.7-4.9,15.7-7.7c4.4-3.1,7.3-5.2,13.3-5.2
			c6.1,0,9,2.1,13.3,5.2c5.3,3.8,12,8.5,23.9,8.5s18.6-4.7,23.9-8.5c4.4-3.1,7.3-5.2,13.3-5.2c6.1,0,9,2.1,13.3,5.2
			c5.3,3.8,12,8.5,23.9,8.5c11.9,0,18.6-4.7,23.9-8.5c4.4-3.1,7.3-5.2,13.3-5.2c6.1,0,9,2.1,13.3,5.2c5.3,3.8,12,8.5,23.9,8.5
			s18.6-4.7,23.9-8.5c4.4-3.1,7.3-5.2,13.3-5.2c6.1,0,9,2.1,13.3,5.2c5.3,3.8,12,8.5,23.9,8.5s18.6-4.7,23.9-8.5
			c4.4-3.1,7.3-5.2,13.3-5.2c6.1,0,9,2.1,13.3,5.2c5.3,3.8,12,8.5,23.9,8.5s18.6-4.7,23.9-8.5c4.4-3.1,7.3-5.2,13.3-5.2
			c6.1,0,9,2.1,13.3,5.2c4,2.8,8.7,6.2,15.7,7.7v23.7H19.6z"/>
			<path class="surfing" d="M203,98.7l31,15.3c2.2,1.1,4.3,1.7,6.1,2.2l19.8,5.6l1.8,35.2l-25.3,20.2c-0.2,0.2-0.4,0.3-0.6,0.5
			c-5.9,5.6-9,13.5-8.4,21.6l1.6,49.9l-28.2,7.6c-14.6,3.9-23.3,18.9-19.4,33.5c3.3,12.2,14.4,20.3,26.5,20.3c2.3,0,4.7-0.3,7.1-0.9
			l12.3-3.3c3.4,12.2,11,23.6,22.8,25.3c0.9,0.1,1.8,0.2,2.8,0.2c5.5,0,12.8-2.2,20.6-11c6.2-7,12.3-17.7,18.2-31.8l143.2-38.4
			c11.7-3.1,21.6-10.7,27.7-21.3c6.1-10.6,7.7-22.9,4.6-34.6c-0.6-2.3-2.2-4.3-4.3-5.5c-2.1-1.2-4.6-1.5-6.9-0.9l-49.7,13.3
			c-0.1-0.2-0.2-0.4-0.4-0.6l-22.4-33.2c-0.1-0.2-0.2-0.3-0.4-0.5c-2.8-3.9-6.5-7-10.9-9c-0.3-0.2-0.7-0.3-1.1-0.4l-23.8-7.5
			l0.6-3.6l1.4,0.5c4.7,1.9,9.8,3.5,15.6,2.8l32-3.9c15-1.8,25.7-15.5,23.9-30.5c-0.9-7.3-4.5-13.7-10.3-18.2
			c-5.8-4.5-12.9-6.5-20.2-5.6l-23.5,2.9l-23.5-11.1c-0.1-0.1-0.2-0.1-0.3-0.2c11-8.3,18.1-21.5,18.1-36.4
			c0-25.2-20.5-45.6-45.6-45.6S269.8,21.8,269.8,47c0,7.3,1.7,14.2,4.8,20.4c-6.4-1.3-12.9-2.7-19.9-4.1l-27.6-13.6
			c-6.5-3.2-14-3.7-20.9-1.4c-6.9,2.3-12.5,7.2-15.7,13.8c-3.2,6.5-3.7,14-1.4,20.9C191.5,89.9,196.4,95.5,203,98.7L203,98.7z
			 M245.6,198.5c0-0.1,0-0.2,0-0.4c-0.2-2.6,0.7-5.2,2.6-7l1.3-1l14.6,18.3l1,31.1l-18,4.8L245.6,198.5z M282.3,210.7l29.7-14.3
			l30.7,9l7.6,11.3l-67.3,18L282.3,210.7z M252.6,313.5c-2.3-0.3-5.8-5.1-7.8-11.9l23.8-6.4C260.5,310.5,254.5,313.8,252.6,313.5z
			 M446.7,220.2c-3.7,6.4-9.6,10.9-16.6,12.8l-220,58.9c-2.3,0.6-4.8,0.3-6.9-0.9c-2.1-1.2-3.6-3.2-4.3-5.5
			c-1.3-4.9,1.6-9.9,6.5-11.2l244.9-65.6C450,212.7,448.7,216.6,446.7,220.2L446.7,220.2z M368.6,178.4l19,28.2l-18.6,5L358.5,196
			l6.6-20.9c1.3,0.7,2.4,1.7,3.2,2.9C368.4,178.1,368.5,178.3,368.6,178.4L368.6,178.4z M347.7,169.6l-5.2,16.6l-28.7-8.4
			c-2.2-0.6-4.5-0.4-6.5,0.5l-31.7,15.3l-12-15l10.8-8.7l61.5-4.2L347.7,169.6z M315.5,19.6c15.1,0,27.4,12.3,27.4,27.4
			s-12.3,27.4-27.4,27.4S288.1,62.1,288.1,47S300.4,19.6,315.5,19.6z M206.9,70.2c1.1-2.2,2.9-3.8,5.2-4.6s4.8-0.6,6.9,0.5
			l28.7,14.1c0.7,0.4,1.5,0.6,2.2,0.8c28.8,5.8,50.9,10.7,78.7,17l3.3,0.7c0,0,0.1,0,0.1,0c0.9,0.2,1.8,0.5,2.5,0.9
			c0.2,0.1,0.4,0.2,0.6,0.3l26.2,12.3c1.6,0.7,3.3,1,5,0.8l26.1-3.2c2.4-0.3,4.8,0.4,6.7,1.9c1.9,1.5,3.1,3.7,3.4,6.1
			c0.6,5-3,9.5-8,10.2l-32,3.9c-1.6,0.2-3.7-0.5-6.6-1.6l-11.9-4.8c-2.6-1-5.5-0.8-7.9,0.5c-2.4,1.4-4.1,3.7-4.5,6.5l-2.5,15.5
			l-49.6,3.4l-1.9-37.1c-0.2-3.9-2.9-7.3-6.6-8.3L245,98.6c-1.1-0.3-2.2-0.6-2.9-1l-31-15.3c-2.2-1.1-3.8-2.9-4.6-5.2
			C205.7,74.8,205.9,72.4,206.9,70.2L206.9,70.2z"/>
		</g>
	</g>
</svg>
