<?xml version="1.0" encoding="utf-8"?>
<!-- Generator: Adobe Illusurf-rator 24.2.3, SVG Export Plug-In . SVG Version: 6.00 Build 0)  -->
<svg version="1.1" id="Capa_1"
	xmlns="http://www.w3.org/2000/svg"
	xmlnsXlink="http://www.w3.org/1999/xlink" x="0px" y="0px" viewBox="0 0 470 470" surf-yle="enable-background:new 0 0 470 470;" xmlSpace="preserve">
	<style type="text/css">
	.surf{fill:none;stroke:#FFFFFF;stroke-width:2.7379;stroke-miterlimit:10;}
	</style>
	<g>
		<path class="surf" d="M455.8,1.6c-1.4-0.1-34.3-2.5-82,10.1c-43.6,11.5-108.6,38.2-170.8,100.4C90.1,225,21.1,363.8,2.6,403.6
		c-4.2,9,2.4,19.4,12.4,19.4c2.9,0,18.8-0.2,36.2-4.4c-4.2,17.4-4.4,33.3-4.4,36.2c0,9.9,10.3,16.6,19.4,12.4
		c39.9-18.5,178.7-87.5,291.6-200.4c62.2-62.2,88.9-127.2,100.4-170.8c12.5-47.7,10.2-80.6,10.1-82C467.9,7.6,462.6,2.2,455.8,1.6
		L455.8,1.6z M37.9,393.4c27.2-54.6,90.1-167.7,184.5-262c54.1-54.1,123.9-91.8,197.6-100.8L70.3,380.3
		C63.3,387.3,50.1,391.3,37.9,393.4L37.9,393.4z M338.6,247.6c-94.4,94.4-207.5,157.3-262.1,184.5c2.1-12.1,6.1-25.3,13.1-32.4
		L439.4,50C434,93.5,413.5,172.7,338.6,247.6L338.6,247.6z"/>
	</g>
</svg>
