<?xml version="1.0" encoding="utf-8"?>
<!-- Generator: Adobe Illustrator 24.2.3, SVG Export Plug-In . SVG Version: 6.00 Build 0)  -->
<svg version="1.1" id="Layer_1"
	xmlns="http://www.w3.org/2000/svg"
	xmlnsXlink="http://www.w3.org/1999/xlink" x="0px" y="0px" viewBox="0 0 470 470" style="enable-background:new 0 0 470 470;" xmlSpace="preserve">
	<style type="text/css">
	.tools{fill:none;stroke:#FFFFFF;stroke-width:2.7301;stroke-miterlimit:10;}
	</style>
	<g>
		<g>
			<path class="tools" d="M289.5,198.2c-12.1-12.1-23.3-19.6-35.3-23.6c-8.7-2.9-15.6-9.8-18.4-18.4c-4-12-11.5-23.3-23.6-35.3
			l-103-103c-21.3-21.3-58.6-21.4-80,0L17.9,29.3C7.2,40,1.4,54.2,1.4,69.4c0,15.1,5.9,29.3,16.5,39.9l103,103
			c12.1,12.1,23.3,19.6,35.3,23.6c8.7,2.9,15.6,9.8,18.4,18.4c4,12,11.5,23.3,23.9,35.7c4.5,4.5,10.5,6.8,16.4,6.8
			c5.9,0,11.8-2.3,16.3-6.8l58.7-58.7C299,222.2,299,207.6,289.5,198.2z M276.3,217.5l-58.7,58.7c-1.5,1.5-3.8,1.4-5.6-0.4
			c-9.9-9.9-15.9-18.7-18.9-27.8c-4.8-14.4-16.3-25.9-30.7-30.7c-9-3-17.9-9-27.7-18.9l-103-103c-7-7-10.9-16.3-10.9-26.3
			c0-9.9,3.9-19.2,10.9-26.2L43,31.7c7-7,16.3-10.9,26.3-10.9c9.9,0,19.2,3.9,26.2,10.9l103,103c9.9,9.9,15.9,18.7,18.9,27.7
			c4.8,14.4,16.3,25.9,30.7,30.7c9.1,3,17.9,9,28.2,19.3C277.7,213.8,277.7,216.1,276.3,217.5z"/>
		</g>
	</g>
	<g>
		<g>
			<path class="tools" d="M466.3,433.8l-33.5-66.9c-5-9.9-14.9-16.1-26.1-16.1h-13.1L280,237.2c-3.8-3.8-9.9-3.8-13.7,0
			s-3.8,9.9,0,13.7l116.5,116.5c1.8,1.8,4.3,2.8,6.9,2.8h17.1c3.7,0,7,2.1,8.7,5.4l30.3,60.7l-9.5,9.5l-60.7-30.3
			c-3.3-1.6-5.4-5-5.4-8.7v-17.1c0-2.6-1-5-2.9-6.9L250.9,266.3c-3.8-3.8-9.9-3.8-13.7,0s-3.8,9.9,0,13.7l113.7,113.6v13.1
			c0,11.1,6.2,21.1,16.1,26l66.9,33.5c1.4,0.7,2.9,1,4.3,1c2.5,0,5-1,6.9-2.9l19.4-19.4C467.4,442.1,468.1,437.6,466.3,433.8z"/>
		</g>
	</g>
	<g>
		<g>
			<path class="tools" d="M467.1,92.6c-0.2-3.3-2.5-6.5-5.4-8.2c-3-1.6-6.7-1.6-9.6,0.2l-53.1,31.9c-16.1-8.3-26.7-24-28.4-41.8
			l59.3-35.6c2.7-1.6,4.5-4.5,4.7-7.6c0.2-3.2-1.1-6.2-3.6-8.2C413.6,9.2,393,1.6,371.4,1.4c-23.7-0.2-49,10.8-67.6,30.6
			c-21.7,23.1-31.7,46-30.7,69.9c0.6,13.1-5.3,26.9-16.2,37.7l-27.9,27.9c-3.8,3.8-3.8,9.9,0,13.7c5.3,5.3,11.9,9.4,19,11.7
			c9.1,3,17.9,9,28.2,19.3c1.2,1.2,1.2,4,0,5.2l-14.8,14.8c-3.8,3.8-3.8,9.9,0,13.7l9.7,9.7c1.9,1.9,4.4,2.8,6.9,2.8s5-1,6.9-2.9
			l63.2-63.2c7.9,2,15,2.9,22.2,2.9c26.6,0,52.4-11.1,70.6-30.5C459.4,145.4,468.7,119.6,467.1,92.6z M426.7,151.7
			c-14.8,15.7-34.9,24.4-56.5,24.4c-6.9,0-13.9-1.2-22.2-3.7c-3.5-1-7.1-0.1-9.7,2.4l-41.7,41.7c0.4-6.5-1.9-13.2-7.1-18.4
			c-12.1-12.1-23.3-19.6-35.3-23.6c-1.1-0.4-2.3-0.8-3.3-1.3l19.9-19.9c14.7-14.7,22.6-33.7,21.8-52.3c-0.8-18.7,7.3-36.5,25.4-55.8
			c14.8-15.8,34.8-24.9,53.1-24.4c12.5,0.2,24.6,3.4,35.6,9.5L355.5,61c-2.9,1.8-4.7,4.9-4.7,8.3c0,27.6,15.4,52.5,40.1,64.9l4.1,2
			c3,1.5,6.5,1.3,9.3-0.4l42.7-25.6C444.7,125.8,437.7,140.1,426.7,151.7z"/>
		</g>
	</g>
	<g>
		<g>
			<path class="tools" d="M255.8,271.2l-9.7-9.7c-3.8-3.8-9.9-3.8-13.7,0l-14.8,14.8c-1.5,1.5-3.8,1.4-5.6-0.4
			C202,266,196,257.2,193,248.1c-2.4-7.1-6.4-13.7-11.7-19c-3.8-3.8-9.9-3.8-13.7,0l-29.3,29.3c-9.6,9.6-23.8,13.9-39.9,14.8
			c-53.5,0-97.1,43.5-97.1,97.1c0,3.4,0.4,6.7,0.9,9.9l0.3,2.3c0.4,3.2,2.4,6.1,5.4,7.5c3,1.4,6.4,1.3,9.2-0.4l62.3-37.4
			c16.1,8.3,26.7,24,28.4,41.8l-64.9,39c-2.8,1.7-4.6,4.7-4.7,7.9c-0.1,3.3,1.4,6.4,4.1,8.3c16.6,11.8,35.9,18.1,56,18.1
			c0.1,0,0.1,0,0.1,0c24.1,0,48.5-11.3,66.8-31c21.4-22.9,31.3-45.6,30.2-69.4c-0.6-13.2,5.3-27,16.2-37.8l44.1-44.1
			C259.6,281.1,259.6,274.9,255.8,271.2z M197.9,315.3c-14.7,14.7-22.7,33.8-21.9,52.4c0.8,18.6-7.2,36.2-25,55.4
			c-14.7,15.8-33.9,24.9-52.6,24.9c0,0-0.1,0-0.1,0c-10.8,0-21.4-2.3-31.2-6.7l55.8-33.5c2.9-1.8,4.7-4.9,4.7-8.3
			c0-27.6-15.4-52.5-40.1-64.9l-4.1-2c-3-1.5-6.5-1.3-9.3,0.4l-53,31.8c2.9-40.2,36.5-72,77.7-72c0.1,0,0.2,0,0.3,0
			c21,0,39.8-7.3,53-20.4l21.2-21.2c0.5,1.1,1,2.2,1.3,3.3c4,12,11.5,23.3,23.9,35.7c4.9,4.9,11.4,7.2,18,6.7L197.9,315.3z"/>
		</g>
	</g>
</svg>
