<?xml version="1.0" encoding="utf-8"?>
<!-- Generator: Adobe Illustrator 24.2.3, SVG Export Plug-In . SVG Version: 6.00 Build 0)  -->
<svg version="1.1" id="Capa_1"
	xmlns="http://www.w3.org/2000/svg"
	xmlnsXlink="http://www.w3.org/1999/xlink" x="0px" y="0px" viewBox="0 0 470 470" style="enable-background:new 0 0 470 470;" xmlSpace="preserve">
	<style type="text/css">
	.zigzag-lines-inside{fill:none;stroke:#FFFFFF;stroke-width:1.7553;stroke-miterlimit:10;}
	</style>
	<g>
		<path class="zigzag-lines-inside" d="M3.7,469.5c0.7,0,1.4-0.3,2-0.9l51.1-52.5c1.1-1.1,1.1-3,0-4.1L9.7,363.8l49.2-50.5c1.1-1.1,1.1-3,0-4.1
		L12,261l49.4-50.7c1.1-1.1,1.1-3,0-4.1l-47.1-48.3l49.2-50.5c1.1-1.1,1.1-3,0-4.1L14.9,53.5c-1.1-1.1-2.9-1.1-4,0
		c-1.1,1.1-1.1,3,0,4.1l46.5,47.8L8.3,155.8c-1.1,1.1-1.1,3,0,4.1c0.1,0.1,0.2,0.1,0.3,0.2c0.1,0.1,0.2,0.3,0.3,0.4l46.5,47.8
		L6.2,258.7c-0.7,0.7-0.9,1.7-0.7,2.6c0,0.8,0.3,1.5,0.8,2.1l46.5,47.8L3.7,361.7c-1.1,1.1-1.1,3,0,4.1c0.1,0.1,0.2,0.1,0.3,0.2
		c0.1,0.1,0.1,0.3,0.3,0.4l46.5,47.8L1.7,464.5c-1.1,1.1-1.1,3,0,4.1C2.2,469.3,3,469.5,3.7,469.5z"/>
		<path class="zigzag-lines-inside" d="M71.2,417.8c0.7,0,1.4-0.3,2-0.9l51.1-52.5c1.1-1.1,1.1-3,0-4.1L77.2,312l49.2-50.5c1.1-1.1,1.1-3,0-4.1
		l-46.9-48.1l49.4-50.7c1.1-1.1,1.1-3,0-4.1l-47.1-48.3l49.2-50.5c1.1-1.1,1.1-3,0-4.1L82.4,1.7c-1.1-1.1-2.9-1.1-4,0
		c-1.1,1.1-1.1,3,0,4.1l46.5,47.8L75.8,104c-1.1,1.1-1.1,3,0,4.1c0.1,0.1,0.2,0.1,0.3,0.2c0.1,0.1,0.2,0.3,0.3,0.4l46.5,47.8
		l-49.1,50.4c-0.7,0.7-0.9,1.7-0.7,2.6c0,0.8,0.3,1.5,0.8,2.1l46.5,47.8l-49.1,50.4c-1.1,1.1-1.1,3,0,4.1c0.1,0.1,0.2,0.1,0.3,0.2
		c0.1,0.1,0.1,0.3,0.3,0.4l46.5,47.8l-49.1,50.4c-1.1,1.1-1.1,3,0,4.1C69.7,417.5,70.4,417.8,71.2,417.8z"/>
		<path class="zigzag-lines-inside" d="M206.1,417.8c0.7,0,1.4-0.3,2-0.9l51.1-52.5c1.1-1.1,1.1-3,0-4.1L212.2,312l49.2-50.5c1.1-1.1,1.1-3,0-4.1
		l-46.9-48.1l49.4-50.7c1.1-1.1,1.1-3,0-4.1l-47.1-48.3l49.2-50.5c1.1-1.1,1.1-3,0-4.1L217.3,1.7c-1.1-1.1-2.9-1.1-4,0
		c-1.1,1.1-1.1,3,0,4.1l46.5,47.8L210.7,104c-1.1,1.1-1.1,3,0,4.1c0.1,0.1,0.2,0.1,0.3,0.2c0.1,0.1,0.2,0.3,0.3,0.4l46.5,47.8
		l-49.1,50.4c-0.7,0.7-0.9,1.7-0.7,2.6c0,0.8,0.3,1.5,0.8,2.1l46.5,47.8l-49.1,50.4c-1.1,1.1-1.1,3,0,4.1c0.1,0.1,0.2,0.1,0.3,0.2
		c0.1,0.1,0.1,0.3,0.3,0.4l46.5,47.8l-49.1,50.4c-1.1,1.1-1.1,3,0,4.1C204.7,417.5,205.4,417.8,206.1,417.8z"/>
		<path class="zigzag-lines-inside" d="M341.1,417.8c0.7,0,1.4-0.3,2-0.9l51.1-52.5c1.1-1.1,1.1-3,0-4.1L347.1,312l49.2-50.5c1.1-1.1,1.1-3,0-4.1
		l-46.9-48.1l49.4-50.7c1.1-1.1,1.1-3,0-4.1l-47.1-48.3l49.2-50.5c1.1-1.1,1.1-3,0-4.1L352.3,1.7c-1.1-1.1-2.9-1.1-4,0
		c-1.1,1.1-1.1,3,0,4.1l46.5,47.8L345.7,104c-1.1,1.1-1.1,3,0,4.1c0.1,0.1,0.2,0.1,0.3,0.2c0.1,0.1,0.2,0.3,0.3,0.4l46.5,47.8
		l-49.1,50.4c-0.7,0.7-0.9,1.7-0.7,2.6c0,0.8,0.3,1.5,0.8,2.1l46.5,47.8l-49.1,50.4c-1.1,1.1-1.1,3,0,4.1c0.1,0.1,0.2,0.1,0.3,0.2
		c0.1,0.1,0.1,0.3,0.3,0.4l46.5,47.8l-49.1,50.4c-1.1,1.1-1.1,3,0,4.1C339.6,417.5,340.4,417.8,341.1,417.8z"/>
		<path class="zigzag-lines-inside" d="M138.6,469.5c0.7,0,1.4-0.3,2-0.9l51.1-52.5c1.1-1.1,1.1-3,0-4.1l-47.1-48.3l49.2-50.5c1.1-1.1,1.1-3,0-4.1
		L146.9,261l49.4-50.7c1.1-1.1,1.1-3,0-4.1l-47.1-48.3l49.2-50.5c1.1-1.1,1.1-3,0-4.1l-48.5-49.8c-1.1-1.1-2.9-1.1-4,0
		c-1.1,1.1-1.1,3,0,4.1l46.5,47.8l-49.1,50.4c-1.1,1.1-1.1,3,0,4.1c0.1,0.1,0.2,0.1,0.3,0.2c0.1,0.1,0.2,0.3,0.3,0.4l46.5,47.8
		l-49.1,50.4c-0.7,0.7-0.9,1.7-0.7,2.6c0,0.8,0.3,1.5,0.8,2.1l46.5,47.8l-49.1,50.4c-1.1,1.1-1.1,3,0,4.1c0.1,0.1,0.2,0.1,0.3,0.2
		c0.1,0.1,0.1,0.3,0.3,0.4l46.5,47.8l-49.1,50.4c-1.1,1.1-1.1,3,0,4.1C137.2,469.3,137.9,469.5,138.6,469.5z"/>
		<path class="zigzag-lines-inside" d="M273.6,469.5c0.7,0,1.4-0.3,2-0.9l51.1-52.5c1.1-1.1,1.1-3,0-4.1l-47.1-48.3l49.2-50.5c1.1-1.1,1.1-3,0-4.1
		L281.9,261l49.4-50.7c1.1-1.1,1.1-3,0-4.1l-47.1-48.3l49.2-50.5c1.1-1.1,1.1-3,0-4.1l-48.5-49.8c-1.1-1.1-2.9-1.1-4,0
		c-1.1,1.1-1.1,3,0,4.1l46.5,47.8l-49.1,50.4c-1.1,1.1-1.1,3,0,4.1c0.1,0.1,0.2,0.1,0.3,0.2c0.1,0.1,0.2,0.3,0.3,0.4l46.5,47.8
		l-49.1,50.4c-0.7,0.7-0.9,1.7-0.7,2.6c0,0.8,0.3,1.5,0.8,2.1l46.5,47.8l-49.1,50.4c-1.1,1.1-1.1,3,0,4.1c0.1,0.1,0.2,0.1,0.3,0.2
		c0.1,0.1,0.1,0.3,0.3,0.4l46.5,47.8l-49.1,50.4c-1.1,1.1-1.1,3,0,4.1C272.1,469.3,272.9,469.5,273.6,469.5z"/>
		<path class="zigzag-lines-inside" d="M408.6,469.5c0.7,0,1.4-0.3,2-0.9l51.1-52.5c1.1-1.1,1.1-3,0-4.1l-47.1-48.3l49.2-50.5c1.1-1.1,1.1-3,0-4.1
		L416.8,261l49.4-50.7c1.1-1.1,1.1-3,0-4.1l-47.1-48.3l49.2-50.5c1.1-1.1,1.1-3,0-4.1l-48.5-49.8c-1.1-1.1-2.9-1.1-4,0
		c-1.1,1.1-1.1,3,0,4.1l46.5,47.8l-49.1,50.4c-1.1,1.1-1.1,3,0,4.1c0.1,0.1,0.2,0.1,0.3,0.2c0.1,0.1,0.2,0.3,0.3,0.4l46.5,47.8
		l-49.1,50.4c-0.7,0.7-0.9,1.7-0.7,2.6c0,0.8,0.3,1.5,0.8,2.1l46.5,47.8l-49.1,50.4c-1.1,1.1-1.1,3,0,4.1c0.1,0.1,0.2,0.1,0.3,0.2
		c0.1,0.1,0.1,0.3,0.3,0.4l46.5,47.8l-49.1,50.4c-1.1,1.1-1.1,3,0,4.1C407.1,469.3,407.8,469.5,408.6,469.5z"/>
	</g>
</svg>
