<?xml version="1.0" encoding="utf-8"?>
<!-- Generator: Adobe Illustrator 24.2.3, SVG Export Plug-In . SVG Version: 6.00 Build 0)  -->
<svg version="1.1" id="Capa_1"
	xmlns="http://www.w3.org/2000/svg"
	xmlnsXlink="http://www.w3.org/1999/xlink" x="0px" y="0px" viewBox="0 0 470 127.1" style="enable-background:new 0 0 470 127.1;" xmlSpace="preserve">
	<style type="text/css">
	.zigzag-moustache{fill:none;stroke:#FFFFFF;stroke-width:3.122;stroke-miterlimit:10;}
	</style>
	<g>
		<g>
			<path class="zigzag-moustache" d="M404.8,12c-7.9-9.2-21.7-7.1-29.9,0C353,31,332.3,51.4,311.5,71.6c-21.3-19.2-41.3-39.7-61.9-59.6
			c-4.1-4-8.7-5.7-13.2-5.9c-0.5,0-1,0-1.4,0c-0.5,0-1,0-1.4,0c-4.5,0.2-9,2-13.2,5.9c-20.6,19.9-40.6,40.5-61.9,59.6
			C137.7,51.4,117,31,95.1,12c-8.2-7.1-22-9.2-29.9,0C46,34.2,27.1,56.6,7.3,78.3c-18.4,20.1,11.5,50.1,29.9,29.9
			c15.3-16.7,30.1-33.9,44.8-51.1c20.6,19,40.5,38.8,60.7,58.2c8.9,8.5,20.9,7.5,29.9,0c21.9-18.2,42-38.4,62.3-58.3
			c20.2,20,40.3,40.1,62.3,58.3c9,7.5,21,8.5,29.9,0c20.3-19.4,40.1-39.2,60.7-58.2c14.7,17.2,29.5,34.4,44.8,51.1
			c18.5,20.2,48.3-9.8,29.9-29.9C442.9,56.6,424,34.2,404.8,12z"/>
		</g>
	</g>
</svg>
