<?xml version="1.0" encoding="utf-8"?>
<!-- Generator: Adobe Illuthoki-out-creamrator 23.0.3, SVG Export Plug-In . SVG Version: 6.00 Build 0)  -->
<svg version="1.1" id="Layer_1" xmlnsvectornator="http://vectornator.io"
	 xmlns="http://www.w3.org/2000/svg" xmlnsXlink="http://www.w3.org/1999/xlink" x="0px" y="0px" viewBox="0 0 595.3 595"
	 style="enable-background:new 0 0 595.3 595;" xmlSpace="preserve">
<style type="text/css">
	.thoki-out-cream0{fill-rule:evenodd;clip-rule:evenodd;fill:none;stroke:#E3E1E4;stroke-width:4;stroke-miterlimit:10;stroke-opacity:0.9978;}
</style>
<g vectornatorlayername="Layer 1">
	<g>
		<path class="thoki-out-cream0" d="M304.5,39.6c-50.4-0.3-85.5,25.2-120.9,43.8c25.3,41.6,37.6,42,38.8,68.9c1.6,37.2-67,11-67,11
			s-7.1-30.4-12.1-63.7c-2.4,0.6-4.8,1.2-7.2,1.6c-82.8,14-95.8,139.9-95.8,231c0,6.6,0.5,12.3,1.2,17.7c15-7.3,32.8-5.6,43.5,14.2
			c0-0.5-4.9-28.4-4.9-32.5c0-96,34-99.1,89.4-132.1c13.9-8.3,28.1-10.6,41.9-9.8c4.9,0.3,9.8,1,14.6,1.9c0.5,0.1,1,0.2,1.6,0.3
			c3.3,0.7,6.4,1.5,9.6,2.3c3.5,0.9,6.6,1.8,9.9,2.9c7.5,2.3,14.7,4.7,21.2,6.7c4.9,1.5,9.4,2.6,13.6,3.3c2.8,0.5,5.6,0.9,8.1,0.8
			c1.8-0.1,3.5-0.4,5.1-0.8c0.5-0.1,1-0.3,1.5-0.5c1.1-0.4,2.2-1,3.1-1.6c0.4-0.3,0.8-0.5,1.2-0.8c1.3-1.1,2.5-2.3,3.6-3.9
			c16.2,19.1,39.1-1.1,70.1-7.5c2.8-0.6,5.7-1,8.6-1.4c11.8-1.3,24.7,0,38.8,6.2c56.2,24.9,97.2,38.4,104.5,101.5
			c2.9,25.4-4.5,65.6-4.5,66c13.2-18.8,27.6-21.9,38.9-16.4c1-5.1,1.6-10.5,1.6-16.3c0-95.8,5.7-220.3-81.4-232.8
			c-6.8-1-13.9-3.1-21.1-5.7c-5,35.5-13,69.5-13,69.5s-68.6,26.3-67-11c1.2-28.3,14.6-27,42.6-75.3C388.1,60.1,349.5,40,304.5,39.6z
			 M229.6,343c-23.2,21-60.1,31.5-75.5,44.4c-23.2-12.9-28.3,26.3-40.3,33.2c-12.4-12.3-16.3-9.7-20.5-4
			c10.2,9.1,18.4,21.5,20.6,44.5c3.3,33.9,32.8,49.3,69,58.9c18.4,4.9,42.6-42.5,58-34.3c28.4,15.1,27.5-4.2,35.1-4.1
			c8,0.1,8.3,15.3,18.2,17.9c2.7,0.7,6.1-14.7,10.5-14.7c3.7-2.2,7.5,13,11.5,12.6s10.9-18.7,15.2-18.2c4.2,0.4,1.6,14.3,6,15.9
			c3,1.1,12.1-1.8,19-6.5c5.1-3.5,8.4-9.4,10-7c8.7,13.2,33.6,32.8,53.3,26.5c33-10.5,59.6-23.3,63.1-47c2-14.1,11.5-25.4,23-36.6
			c-1.7-2.5-3.3-5-4.7-7c-4.3-6-7.8-8.1-14,3.1c-13.8-2-13.6-52.2-38.9-33c-31.4-19.4-68-31.8-85.5-44.6
			c48.8,63.5-37.7,74.9-58.1,107.5C286.9,419.6,214.3,410.9,229.6,343z"/>
		<path class="thoki-out-cream0" d="M83.1,295.1c18,18,37.4,4.8,37.4,4.8s5.1-19.7,19.7-37.2s29.4-27.2,29.4-27.2s-4.6-28.2-22.7-25.3
			C132,219,115.5,227.8,99,249.8C82.3,271.9,82.9,294.9,83.1,295.1z"/>
		<path class="thoki-out-cream0" d="M525.3,302.2c-17,10.7-38.5,2.1-38.5,2.1s-0.9-19-13.2-34.2c-14.3-17.7-32.9-33.1-32.9-33.1
			s5.3-24.8,23.4-21.9c19.2,7.8,42.3,22.6,52.2,42.1C531.1,286.8,525.5,302.1,525.3,302.2z"/>
		<path class="thoki-out-cream0" d="M192.1,199.3c0,0,58.7-7.9,85.2,19.6c7.5,7.8,6.5,62.9,6.5,62.9s-3.5-9.9-8.3-23.9
			c-9.9-28.8-27.3-67.4-106.1-23.8C163.5,206.2,192.1,199.3,192.1,199.3z"/>
		<path class="thoki-out-cream0" d="M416.2,201.5c0,0-55.6-11.9-82.2,15.6c-7.9,8.2-12,66.1-12,66.1s5.5-11.3,12-25.9
			c10.8-24.3,27.8-65.4,106.6-21.8C446.6,207.7,416.2,201.5,416.2,201.5z"/>
		<path class="thoki-out-cream0" d="M297.6,431.6c-20.9-6.7-64.3-59.2-55.6-78.4c2.2-4.8,9.6,5.2,14.9,4.3C264.9,400.7,281.3,418.3,297.6,431.6z"
			/>
		<path class="thoki-out-cream0" d="M310.2,431.6c20.9-6.7,60-58.9,51.3-78.1c-2.2-4.8-9.6,5.2-14.9,4.3C338.6,401,326.5,418.3,310.2,431.6z"/>
		<path class="thoki-out-cream0" d="M245,347.6c5-13.4,8.9-30.8,22.9-28.7c9.9,1.5,31.2-33.2,31-4.9c-3.5,1.6-37.6,5.7-39.6,40.7
			C251.8,352.2,247.5,348,245,347.6z"/>
		<path class="thoki-out-cream0" d="M358.6,347.6c-5-13.4-8.9-30.8-22.9-28.7c-9.9,1.5-26.3-33.2-26.3-4.9c3.5,1.6,33,5.7,35,40.7
			C351.9,352.2,356.2,348,358.6,347.6z"/>
		<path class="thoki-out-cream0" d="M400,218.3c-39.1-6.6-66.3,34.6-50.1,65c16.1,30.3,31.9,65.3,71.3,65.1c39.4-0.2,78.5-31.6,62.4-61.9
			C467.3,256.1,439.1,224.9,400,218.3z"/>
		<path class="thoki-out-cream0" d="M208.5,217.8c39.1-6.6,66.3,34.6,50.1,65s-38.1,64-77.4,63.7c-39.4-0.2-72.3-30.2-56.2-60.6
			C141.2,255.6,169.5,224.4,208.5,217.8z"/>
		<path class="thoki-out-cream0" d="M382,314.7c20.3-43.7,58.1-23.8,68.2,0c-7.2-35.4-33.1-46-33.1-46S393,263.6,382,314.7z"/>
		<path class="thoki-out-cream0" d="M154.1,313.7c20.3-43.7,58.1-23.8,68.2,0c-7.2-35.4-33.1-46-33.1-46S165.1,262.5,154.1,313.7z"/>
		<path class="thoki-out-cream0" d="M229.6,325c10.8-9.3,21.9-15.6,53.3-41.9c4.4-3.7,20.6-32.3,21.5-47.5c0.5,15.8,9.1,41.6,17.6,47.5
			c23.3,16.1,39.7,30.1,51.6,40.6c-11.9-4.6-12.7-5.5-28.6-8c-7.6-7.8-11.1-16.4-19.5-13.4c-7.2-2.5-21.2-17.4-21.2-24.6
			c0,8-15.5,21.1-23.8,25c-10.2-3.3-18,4.2-23.9,15.6C246.3,316,242,320,229.6,325z"/>
		<path class="thoki-out-cream0" d="M104.5,237.1c0,0-45.9,31.7-49.1,62.1c20.9,10.5,13.1,26.6,29.3,63.9C69.7,276.2,104.5,237.1,104.5,237.1z"/>
		<path class="thoki-out-cream0" d="M500,237.1c0,0,47.8,31.8,51,62.1c-20.9,10.5-13.1,26.6-29.3,63.9c7.3-35.6,6.5-62,2.7-81.2
			C517.8,248.8,500,237.1,500,237.1z"/>
		<path class="thoki-out-cream0" d="M120.9,423.2c0,0,42.3,57.2,71.3,69.8c29,12.6,23.7-26.3,37.5-23.7c13.8,2.6,20.4,13.5,31.7,11.4
			c11.4-2.1,0.4-18.2,13.6-18.2c7.9,0,12.8,21.3,18.3,28.6c2.8-3.5,9.1-18.6,11.4-18.4c2.4,0.2,8.6,13.4,11.2,17.2
			c4.4-7.4,6.1-27.3,18.1-27.3c10.1,0,4,18.6,13.8,18.9s4.9-11.3,14.9-11.8c9-0.5,22.9,35.3,51.4,22.8s66.2-68.7,67.1-69.4
			c-21.6-10.8-19.9-26.2-33-28c-26.2-3.5-29.1-11.3-80.9-47.5c65.3,63.6-42.3,75.3-62.7,108.2c-19.5-32.9-114.6-44-78.4-109.4
			c-25.8,22.7-45.9,45.2-63.1,46.7C145.2,394.9,139.7,413.6,120.9,423.2z"/>
		<path class="thoki-out-cream0" d="M212.1,376.7c-12.8,9.1-23.2,27.8-46.3,27.8c-21.6,0-20.9,16.7-34.3,18.6c21.1,18.6,40.3,52.2,57.4,57.6
			c17,5.4,22.6-19.7,22.6-19.7s-0.7-23.6,19.4-0.6c-5-24.2-2.3-24.4-2.3-24.4s21.8,18.1,36,23.6c-6.4-10.3-25-24.4-25-24.4
			s43.4,14.8,65.3,27.2C272.7,424.8,188.8,428.5,212.1,376.7z M304.7,462.6c21.9-12.4,60.9-27.2,60.9-27.2s-18.6,14.1-25,24.4
			c14.2-5.5,36-23.6,36-23.6s2.6,0.3-2.3,24.4c20-23,19.4,0.6,19.4,0.6s5.6,25.1,22.6,19.7s36.3-39,57.4-57.6
			c-13.5-1.9-12.7-18.6-34.3-18.6c-23.1,0-33.5-18.7-46.3-27.8C416.2,428.5,336.7,424.8,304.7,462.6z"/>
		<path class="thoki-out-cream0" d="M373.7,323.7c-6.2-3.9-43.3-31.9-51.6-40.4c3.3-4.7,13.4-13,19.6-27.4c6.2-14.6,17-24.1,17-24.1
			s-14.8,36.1-8.6,50.1C360.4,305.4,369.1,314.9,373.7,323.7z"/>
		<path class="thoki-out-cream0" d="M229.6,325c-0.1,0.1,40.4-28.8,54.3-42.9L267,252.9c0,0-2.7-13.5-25.3-28.6c22.6,18.9,24.9,43.7,17.5,57.6
			C250.7,297.5,242.3,311.9,229.6,325z"/>
		<path class="thoki-out-cream0" d="M453.5,14.4c-11.8,27.7-22,47.5-30.9,62.7c-28,48.3-41.4,46.9-42.6,75.3c-1.6,37.2,67,11,67,11s8-34,13-69.5
			C465.2,57,467.2,18.5,453.5,14.4z"/>
		<path class="thoki-out-cream0" d="M148.9,14.4c-14.4,4.3-11.4,46.8-5.6,85.3c5,33.3,12.1,63.7,12.1,63.7s68.6,26.3,67-11
			c-1.2-27-13.5-27.3-38.8-68.9C173.9,67.6,162.5,46.2,148.9,14.4z"/>
		<path class="thoki-out-cream0" d="M225.9,191.6c0.5,0.1,1.1,0.2,1.6,0.3C226.9,191.8,226.4,191.7,225.9,191.6z M237,194.2
			c3.4,0.9,6.7,1.8,9.9,2.9C243.7,196.1,240.5,195.2,237,194.2z M300.9,204.1c-0.4,0.3-0.8,0.6-1.2,0.8
			C300.1,204.6,300.5,204.4,300.9,204.1z M296.5,206.5c-0.5,0.2-1,0.4-1.5,0.5C295.5,206.9,296,206.7,296.5,206.5z M281.8,207.1
			c2.8,0.5,5.6,0.9,8.1,0.8C287.4,207.9,284.6,207.5,281.8,207.1z"/>
		<path class="thoki-out-cream0" d="M304.5,39.6c-50.4-0.3-85.5,25.2-120.9,43.8c25.3,41.6,37.6,42,38.8,68.9c1.6,37.2-67,11-67,11
			s-7.1-30.4-12.1-63.7c-2.4,0.6-4.8,1.2-7.2,1.6c-82.8,14-95.8,139.9-95.8,231c0,6.6,0.5,12.3,1.2,17.7
			c-26.3,12.8-44.2,53.2-1.2,72.8c39.5,18,46.7,2.3,53.1-6.2c4.2-5.6,8.1-8.2,20.5,4c12-6.9,17.1-46.1,40.3-33.2
			c15.3-12.9,52.3-23.3,75.5-44.4c-15.3,67.9,57.3,76.6,75.1,107.5c20.4-32.6,106.9-44,58.1-107.5c17.5,12.8,54.1,25.2,85.5,44.6
			c25.3-19.2,25.2,31,38.9,33c8.2-14.9,11.7-6.3,18.6,3.9c1.6,2.4,3.2,4.8,5.4,7c7.6,8.1,19.2,13.6,39.8,3.4
			c42.9-26.1,33.2-74.9,9.9-86.3c1-5.1,1.6-10.5,1.6-16.3c0-95.8,5.7-220.3-81.4-232.8c-6.8-1-13.9-3.1-21.1-5.7
			c-5,35.5-13,69.5-13,69.5s-68.6,26.3-67-11c1.2-28.3,14.6-27,42.6-75.3C388.1,60.1,349.5,40,304.5,39.6z M304.7,316.7
			c9.5,4.4,17.4,28.9,37,41.1c-11.2,11.1-7.6,40.1-19.6,46.7c-12.6,6.6-12.4,22.5-17.6,30.7c-5-7.1-10.5-25.1-20.6-30.7
			c-11.9-6.6-8.2-34.7-22.3-45.4C283.9,344.8,293.5,321.1,304.7,316.7z"/>
		<path class="thoki-out-cream0" d="M422,521.2c-10.8,3.4-23.7,11.9-39.9,11.9c-15.5,0-15.2-9.2-23.4,0c-4.1,4.6-18.7-21.8-24.6-20.5
			c-5.9,1.2-7.2,23.9-12,24.7c-4,0.7-13.8-19.5-17.4-18.2c-5.4,1.9-9.5,13.4-13.7,16c-9-4.3-7.8-27.2-19-21.6
			c-8.6,4.3-13.3,25.8-27,13.3c-9.4-8.6-31.9-7.7-52.9,0c-3.9,15.4-7.7,33.7,25.4,42.7c17.2,4.7,77.7-9.6,96.2,11.1
			c23.7-20.7,85.1-3.7,111.1-11.1C470.3,556.4,440.6,533.1,422,521.2z"/>
	</g>
</g>
</svg>
