<?xml version="1.0" encoding="utf-8"?>
<!-- Generator: Adobe Illustrator 23.0.3, SVG Export Plug-In . SVG Version: 6.00 Build 0)  -->
<svg version="1.1" id="Layer_1" xmlns="http://www.w3.org/2000/svg" xmlns:xlink="http://www.w3.org/1999/xlink" x="0px" y="0px"
	 viewBox="0 0 2500 2430" style="enable-background:new 0 0 2500 2430;" xml:space="preserve">
<style type="text/css">
	.st0{fill:#E3E1E4;}
</style>
<path class="st0" d="M1219.9,1.7c-4.7,0.2-22.3,1.7-39.3,3C968.3,20.4,752.9,99,576.4,225.1c-58.4,41.6-104.5,80.7-155.9,132.1
	C125.1,652.9,3.4,1076,95.7,1487c37.8,168.6,118.5,338.3,225.6,474.7c168,214.3,398.2,365.3,656.5,430.7
	c105.1,26.8,192.4,37.6,302.7,37.6c108.7,0,188.8-9.8,292.5-35c148.9-36.5,279.7-96.6,410.6-188.2
	c125.3-87.9,241.9-211.1,325.6-343.9c107.9-171.6,169.3-361.1,184.4-569c3.2-43.8,1.3-152.1-3.4-196.7
	c-9.3-88.6-33.1-205.4-46.9-229.8c-5.5-9.6-21-21.9-32.5-25.9c-4-1.3-13-2.3-20.2-2.3c-31.9,0-58.6,26.5-58.6,57.8
	c0,7.4,3.4,25.3,8.3,44.6c42.1,163.5,45.5,343.2,9.6,507.2c-45.9,210.1-148.3,395.3-302.7,547.1c-72,70.7-141.5,123-231.3,174.4
	c-209.6,120-470.2,165.5-714.7,124.7c-185.6-30.8-346.8-102.2-500-221.3c-72-56.1-159.7-148.5-214.1-225.8
	c-93.9-133.4-152.9-274-183.5-437.3c-15.5-83.3-20.8-193.7-13.6-283.5c11-136.4,45.2-262.9,103.2-382.9
	c26.8-55.9,43.3-85,75.4-133.2c65.4-99,152.1-191.6,247.9-265.1c112.4-86.4,245.7-152.1,380.6-187.3c72.9-19.1,131-28.7,205-34
	c267.4-19.1,527.4,57.8,739.1,219c15.7,11.9,32.3,24.9,36.7,28.9l8.1,7l-3.2,8.9c-16.4,45.9-4.2,103,30.2,142.9
	c17.6,20.4,49.5,39.5,76.5,45.9c18.5,4.5,50.5,4.5,69.2,0c47.4-11.3,91.5-51.8,105.6-96.9c15.7-50.3,6.6-100-25.7-140.4
	c-35.7-44.6-97.1-64.6-153.8-49.7l-12.3,3.2l-17.4-14.4c-70.7-59.3-156.3-114.1-246.4-157.6c-146.1-70.7-292.9-108.7-460-118.9
	C1316.4,0.4,1240.5,0,1219.9,1.7L1219.9,1.7z"/>
<path class="st0" d="M1094.2,700.5c-22.5,58.2-71.4,185.6-109,283.1c-37.6,97.5-114.7,297.8-171.4,445
	c-56.5,147.2-103.4,268.3-103.9,269.1c-0.6,1.1,59,1.7,132.3,1.7h133.6l7.9-21.9c4.5-11.9,20.2-53.9,34.8-93.5l26.8-71.6h200.5
	c159.7,0,200.5-0.6,199.9-2.8c-2.1-5.7-34.8-99.2-52.2-149.1l-18.7-53.1l-132.7-1.1l-132.5-1.1l86.2-237.7
	c51.8-142.7,86.9-236.2,87.5-234.1c0.8,1.9,35.3,99.8,76.7,217.5c41.4,117.7,109.8,311.4,151.9,430.5l76.2,216.6l133,0.6
	c73.1,0.2,133,0,133-0.4s-17.2-45.7-38.4-100.2c-21.2-54.8-66.7-172.7-101.1-262.1c-34.4-89.4-73.1-189.7-86-223
	c-12.7-33.3-35-91.1-49.5-128.5c-14.4-37.4-52-135.3-83.9-217.7s-59.7-154.8-62-161l-4-11h-294.2L1094.2,700.5z"/>
</svg>
