<?xml version="1.0" encoding="utf-8"?>
<!-- Generator: Adobe Illustrator 23.0.3, SVG Export Plug-In . SVG Version: 6.00 Build 0)  -->
<svg version="1.1" id="Layer_1" xmlns="http://www.w3.org/2000/svg" xmlns:xlink="http://www.w3.org/1999/xlink" x="0px" y="0px"
	 viewBox="0 0 370 200" style="enable-background:new 0 0 370 200;" xml:space="preserve">
<style type="text/css">
	.st0{fill:#E3E1E4;}
</style>
<g transform="translate(0.000000,200.000000) scale(0.100000,-0.100000)">
	<path class="st0" d="M169,1353c-15-2-45-20-68-39l-41-36v31c0,28-3,31-30,31H0v-245V850h29h29l4,178c3,164,5,180,26,214
		c32,51,96,76,152,59c65-19,70-40,70-261V850h30h30v171c0,137,3,178,16,205c30,62,104,96,167,75c57-19,61-35,65-253l4-198h24h24
		l1,123c1,126,3,135,14,56c13-102,96-176,205-186c51-5,67-2,115,22c65,31,102,79,121,158c12,52,12,52,13-60s1-113,25-113h24l4,173
		c4,200,12,226,88,265c53,27,84,28,130,4c55-27,60-46,60-254V850h30h30l1,98c0,95,1,96,13,55c32-101,88-151,181-160
		c68-7,137,17,179,61l29,31l-7-55c-12-92-38-138-92-162c-84-36-190-12-219,50c-7,16-19,22-42,22c-31,0-32-1-22-30
		c26-73,131-120,240-106c75,9,129,42,159,96c22,40,25,60,30,180c4,106,7,126,13,95c22-105,98-172,207-182c50-5,67-2,113,21
		c54,26,97,74,112,124c6,22,9,19,30-26c46-98,153-143,268-111c46,13,110,68,127,110l13,31l24-51c30-63,74-91,151-98
		c111-10,202,40,217,119c15,81-38,131-178,166c-91,24-124,43-133,78c-15,61,51,112,130,99c54-8,85-29,102-71c11-26,20-34,40-34
		c24,0,26,3,20,33c-8,41-35,77-76,101c-46,27-163,28-209,1c-39-23-71-77-71-120c1-72,52-112,183-140s169-86,101-155
		c-21-22-33-25-93-25s-73,3-96,25c-15,14-34,40-41,58c-10,22-21,32-37,32c-21,0-22,4-22,93c-1,74-5,100-22,133
		c-32,60-83,100-144,113c-110,24-207-18-252-108l-25-51l-10,28c-13,38-68,99-106,119c-42,22-160,22-202,0c-48-25-100-91-117-150
		l-15-52l-1,103c-1,102-1,102-26,102c-23,0-25-4-25-41v-41l-28,29c-43,47-89,66-157,66c-105,0-175-53-200-152l-12-44l-6,52
		c-11,97-68,144-173,145c-55,0-67-4-113-37l-51-37v30c0,25-4,30-25,30h-25l-1-112c-1-112-1-113-13-58c-16,75-49,125-103,157
		c-38,22-58,26-117,26c-78,0-115-14-157-60c-37-39-58-83-68-145l-9-53l-1,73c0,40-7,87-15,106c-40,96-182,112-264,30
		c-27-27-37-32-43-22c-5,7-9,16-9,20s-12,16-28,26C283,1349,214,1361,169,1353z M990,1285c15-8,39-31,52-52c20-33,23-51,23-134
		c0-87-2-99-27-136c-34-52-86-77-148-71c-95,9-150,83-150,200c0,36,5,80,11,99c15,44,65,97,104,109C892,1311,952,1304,990,1285z
		 M1826,1291c51-23,81-71,96-148c36-194-147-331-273-204c-42,41-59,91-59,171C1591,1258,1705,1346,1826,1291z M2300,1285
		c15-8,39-31,52-52c20-33,23-51,23-128c0-103-18-151-69-188c-45-32-138-31-184,1c-54,39-67,74-67,182c0,85,3,99,25,130
		c13,19,31,41,40,47C2161,1311,2243,1314,2300,1285z M2702,1300c115-32,158-226,76-346c-32-47-79-67-140-62c-97,10-151,83-151,204
		c0,98,30,159,93,192C2629,1313,2648,1315,2702,1300z"/>
	<path class="st0" d="M3445,1356c-5-3-22-7-37-10c-37-8-95-61-119-107c-49-97-45-225,10-309c65-102,239-121,329-37
		c21,19,62,87,62,102c0,3-14,5-30,5c-23,0-33-6-39-23c-13-34-66-75-106-83c-101-19-187,48-196,151l-4,40l194,3l193,2l-6,43
		c-17,107-53,169-116,202C3553,1349,3464,1363,3445,1356z M3550,1288c48-25,74-62,84-120l7-38h-164h-165l8,34c13,57,50,107,94,127
		C3468,1315,3497,1315,3550,1288z"/>
</g>
</svg>
