<?xml version="1.0" encoding="utf-8"?>
<!-- Generator: Adobe Illustrator 23.0.3, SVG Export Plug-In . SVG Version: 6.00 Build 0)  -->
<svg version="1.1" id="st_x5F_cc_x5F_app_x5F_RGB.svg"
	 xmlns="http://www.w3.org/2000/svg" xmlns:xlink="http://www.w3.org/1999/xlink" x="0px" y="0px" viewBox="0 0 713 813"
	 style="enable-background:new 0 0 713 813;" xml:space="preserve">
<style type="text/css">
	.st0{fill:none;}
	.st1{fill-rule:evenodd;clip-rule:evenodd;fill:#E3E1E4;}
</style>
<g>
	<rect x="48.1" y="106.5" class="st0" width="616.8" height="599.9"/>
</g>
<g>
	<path class="st1" d="M20.1,78.5v656h672.8v-656H20.1z M48.1,106.5h616.8v599.9H48.1V106.5z"/>
</g>
<path class="st1" d="M191.1,523.7c-2-1.4-2.8-3.4-2.8-5.9v-44.3c0-1.4,2-2.8,3.6-1.4c20.7,14.3,45.1,20.7,68.4,20.7
	c33.6,0,47.7-17.7,47.7-37.6c0-17.7-8.7-32-41.2-51l-16.5-8.7c-47.7-26.9-61.4-54.1-61.4-88.9c0-47.1,32.8-85.2,94.8-85.2
	c27.2,0,47.7,4.2,59.2,10.7c2.2,0.8,2.8,2.2,2.8,5v41.8c0,2-2,3.4-3.6,2c-14.3-9.3-35.6-13.7-57.2-13.7c-35.6,0-47.1,20.5-47.1,36.4
	c0,17.7,8.7,30.6,40.6,48.2l14.9,7.8c52.7,29.2,66.2,57.5,66.2,92c0,51.3-37.6,86.9-98.4,86.9C232.9,538.5,208.2,533.5,191.1,523.7z
	 M512.1,527.9c0,2.2-0.8,4.2-3.4,5c-9.8,3.6-20.5,5.6-34.2,5.6c-35,0-54.9-18.5-54.9-62V350.4h-26.6c-2.2,0-2.8-0.8-2.8-3.4v-37
	c0-2.2,0.6-3.6,3.4-3.6h26.6c0.6-16.3,2.2-44.3,4.2-53.3c0-3.4,1.4-4.2,3.4-4.5l41.8-5.6c2-0.6,3.4,0,3.4,2.2
	c-0.8,13.5-1.4,36.2-2,61.1h40.6c2.2,0,3.4,0.8,3.4,3.4v37.8c0,2.2-1.4,2.8-3.4,2.8h-40.9v117.5c0,19.1,6.4,27.5,23.5,27.5
	c5.6,0,10.1-0.6,15.7-2c1.4-0.6,2.8,0.6,2.8,2.8v31.7H512.1z"/>
</svg>
