<?xml version="1.0" encoding="utf-8"?>
<!-- Generator: Adobe Illustrator 23.0.3, SVG Export Plug-In . SVG Version: 6.00 Build 0)  -->
<svg version="1.1" id="Capa_1" xmlns="http://www.w3.org/2000/svg" xmlns:xlink="http://www.w3.org/1999/xlink" x="0px" y="0px"
	 viewBox="0 0 712 331" style="enable-background:new 0 0 712 331;" xml:space="preserve">
<style type="text/css">
	.st0{fill:#E3E1E4;}
</style>
<g>
	<g>
		<path class="st0" d="M646.6,103.6c4.5,1.9,8.9,5.1,12.8,9.6c3.2,3.8,5.1,8.3,6.4,14c0.6,3.8,1.3,8.9,1.3,16v69.6h-29.4v-70.2
			c0-4.5-0.6-7.7-1.9-10.2c-3.2-4.5-8.3-7-14.7-7c-7.7,0-13.4,3.2-16.6,10.2c-1.3,3.2-2.6,7.7-2.6,12.8V214h-28.7v-66.4
			c0-6.4-0.6-11.5-1.9-14c-2.6-5.7-7.7-8.3-14.7-8.3c-8.3,0-13.4,2.6-16.6,7.7c-1.3,3.2-2.6,7.7-2.6,13.4v66.4H508V103.6h28.7v16
			c3.8-5.7,7-9.6,10.2-12.1c5.7-4.5,12.8-6.4,21.7-6.4c8.3,0,15.3,1.9,20.4,5.7c4.5,3.2,7,7.7,9.6,13.4c3.8-6.4,8.3-11.5,14-14
			c5.7-3.2,12.8-4.5,19.8-4.5C637,101,642.1,101.6,646.6,103.6z"/>
		<path class="st0" d="M140.2,89.5H75.7v31.9h65.1V147H75.7v38.3h65.1v26.8H45V63.3h95.2V89.5z"/>
		<path class="st0" d="M493.9,89.5h-64.5v31.9h65.1V147h-65.1v38.3h65.1v26.8h-95.8V63.3h95.2V89.5z"/>
		<path class="st0" d="M198.9,214L151,99.1h31.9l31.3,81.1l30-81.1h30.7l-44.7,112.4l-21.7,56.2h-31.3L198.9,214z"/>
		<path class="st0" d="M353.4,104.2c7.7,3.2,14,8.9,19.2,16.6c4.5,6.4,7.7,14,8.9,23c0.6,5.1,1.3,12.1,0.6,21.7h-80.5
			c0.6,10.9,4.5,18.5,11.5,23c4.5,2.6,9.6,3.8,16,3.8c6.4,0,12.1-1.9,16-5.1c1.9-1.9,4.5-4.5,5.7-7.7h29.4
			c-0.6,6.4-4.5,13.4-10.9,19.8c-9.6,10.9-23.6,16-41.5,16c-14.7,0-27.5-4.5-39-13.4c-11.5-8.9-16.6-23.6-16.6-44.1
			c0-19.2,5.1-33.8,15.3-44.1c10.2-10.2,23-15.3,39.6-15.3C336.8,99.1,345.8,101,353.4,104.2z M310,129.1c-3.8,4.5-6.4,9.6-7.7,17.2
			h49.8c-0.6-7.7-3.2-13.4-7.7-17.2c-4.5-3.8-10.2-5.7-17.2-5.7C320.2,122.7,314.5,124.6,310,129.1z"/>
	</g>
</g>
</svg>
