<?xml version="1.0" encoding="utf-8"?>
<!-- Generator: Adobe Illustrator 23.0.3, SVG Export Plug-In . SVG Version: 6.00 Build 0)  -->
<svg version="1.1" id="Layer_1" xmlns="http://www.w3.org/2000/svg" xmlns:xlink="http://www.w3.org/1999/xlink" x="0px" y="0px"
	 viewBox="0 0 787 360.8" style="enable-background:new 0 0 787 360.8;" xml:space="preserve">
<style type="text/css">
	.st0{fill:#E3E1E4;}
</style>
<g>
	<path class="st0" d="M461.9,186.3c-1.1-0.2-4.7-0.8-5.8-1c-5.8-1-10.7-2.4-10.7-8.2c0-5,5.2-7.3,11.8-7.3c9.7,0,18.2,4.4,19.2,4.9
		l5.3-14c-2-1.1-10.7-5.7-24.3-5.7c-12.5,0-27.7,6.5-27.7,22.8c0,14.6,10.4,19.3,20.5,21c1.4,0.3,5.8,1,7,1.2
		c6.7,1.1,10.5,3.6,10.5,8.1c0,5.6-5.3,8.2-13.3,8.2c-12.8,0-20.3-3.8-22.4-4.7l-5.9,13.7c1.8,1,10.6,5.9,27.6,5.9
		c16.5,0,29.8-8.2,29.8-23.4C483.1,193.7,473.6,188.3,461.9,186.3 M512.3,129.5l-15.6,8.7v18.3h-8.2v14.9h8.2v32.3
		c0,13.8,5.7,26.2,25.7,26.2h6.3v-15h-2.3c-9.8,0-14-5.7-14-13.4v-30.1h17.9v-14.9h-17.9L512.3,129.5L512.3,129.5z M634.4,170.2
		c6.1,0,12.4,2.8,14.2,9.5l14.2-5.4c-4-14-17-19.3-28.5-19.3c-20.6,0-28.9,12.8-28.9,25.2v25.8c0,12.4,8.3,25.2,28.9,25.2
		c11.5,0,24.5-5.3,28.5-19.3l-14.2-5.4c-1.9,6.7-8.1,9.5-14.2,9.5c-10.6,0-13.4-5.8-13.4-12.4v-21C621,176,623.8,170.2,634.4,170.2
		 M701.2,189.4l29.2-33h-19.2l-25.1,28.8v-55.7h-15.6v100.4h15.6v-23.4l5.1-5.8l22.4,29.2h18.8L701.2,189.4z"/>
	<path class="st0" d="M574,172.5h-16.3c-2.6,0-4.7,2.1-4.7,4.7v17.6h-16v-17.6c0-11.4,9.3-20.7,20.7-20.7l0,0h16.3L574,172.5
		L574,172.5z M560.7,213.8H577c2.6,0,4.7-2.1,4.7-4.7v-17.6h16v17.6c0,11.4-9.3,20.7-20.7,20.7h-16.3V213.8z M295.7,156.4h17.9v14.9
		h-17.9v30.2c0,7.7,4.1,13.4,14,13.4h2.3v15h-6.3c-20,0-25.7-12.4-25.7-26.2v-32.3h-26.3v30.2c0,7.7,4.1,13.4,14,13.4h2.3v15h-6.3
		c-20,0-25.7-12.4-25.7-26.2v-32.3h-7.9v-14.9h7.9v-18.3l15.6-8.7v26.9h26.3v-18.3l15.6-8.7V156.4z M127,155c-4.9,0-10,1-14.5,2.9
		v-28.4H96.9v100.4h15.6v-57.4c3.1-2,7.7-3.2,12.1-3.2c9.8,0,14.4,5.5,14.4,13.5v47h15.6v-49.2C154.7,165.9,144,155,127,155
		 M206.2,215.3c-3,1.6-6.7,2.5-10.5,2.5c-11.7,0-16-5.9-16-14.1v-47.2h-15.6v47.5c0,18.5,10.7,27.4,29.8,27.4c9.1,0,19.2-2.3,28-6.1
		v-68.8h-15.6V215.3L206.2,215.3z M67.7,186.3c-1.1-0.2-4.7-0.8-5.8-1c-5.8-1-10.7-2.4-10.7-8.2c0-5,5.2-7.3,11.8-7.3
		c9.7,0,18.2,4.4,19.2,4.9l5.3-14c-2-1.1-10.7-5.7-24.3-5.7c-12.5,0-27.7,6.5-27.7,22.8c0,14.6,10.4,19.3,20.5,21
		c1.4,0.3,5.8,1,7,1.2c6.7,1.1,10.4,3.6,10.4,8.1c0,5.6-5.3,8.2-13.2,8.2c-12.8,0-20.3-3.8-22.5-4.7l-5.9,13.7
		c1.8,1,10.5,5.9,27.6,5.9c16.5,0,29.8-8.2,29.8-23.4C88.9,193.7,79.4,188.3,67.7,186.3 M378.3,180.2c0-13.4-10.2-25.2-28.7-25.2
		c-20.9,0-28.9,13.1-28.9,25.2v24.4c0,16.9,10.8,26.7,28.9,26.7c16,0,24.3-9.3,26.8-14.8l-13.2-7.9c-1.1,3.3-6.3,7.8-13.5,7.8
		c-9.7,0-13.4-5.4-13.4-12.2l-0.1-4h42L378.3,180.2L378.3,180.2z M362.7,187.6h-26.3v-5.4c0-6,3-12.4,13.3-12.4
		c9.9,0,13.1,6.2,13.1,12.1V187.6z M388.3,180.3v49.6h15.6v-48.3c0-4.2,2.4-11.4,13.9-11.4c1.8,0,5.9,0.5,7.2,0.8v-15.1
		c-1.4-0.3-4.6-0.8-8-0.8C397.1,155,388.3,167.4,388.3,180.3"/>
	<path class="st0" d="M745,156.4v1.6h-3.1v8.5h-1.6v-8.5h-3.1v-1.6C737.2,156.4,745,156.4,745,156.4z M747.6,166.5H746v-10.1h1.9
		l2.8,6.6l2.8-6.6h1.9v10.1h-1.6v-4.6l0.3-2.7h-0.1l-0.8,2.4l-1.6,3.6H750l-1.7-3.6l-0.8-2.4h-0.1l0.3,2.8L747.6,166.5z"/>
</g>
</svg>
