<?xml version="1.0" ?><!DOCTYPE svg  PUBLIC '-//W3C//DTD SVG 1.1//EN'  'http://www.w3.org/Graphics/SVG/1.1/DTD/svg11.dtd'><svg enable-background="new 0 0 512 512" id="Layer_1" version="1.1" viewBox="0 0 512 512" xml:space="preserve" xmlns="http://www.w3.org/2000/svg" xmlns:xlink="http://www.w3.org/1999/xlink"><circle cx="256" cy="256" fill="#E3021B" id="ellipse" r="256"/><path d="M164.4,238.2c-8.6-12.1-21.7-19.7-42.2-19.7c-29.2,0-46.3,18-46.2,37.4  c0,19.3,16.3,37.5,46.2,37.5c18.3,0,32.1-7.6,39.4-17.3l-1.4-4.4c-5.3,8.6-14.8,14.3-25.7,14.3c-16.7,0-30.2-13.4-30.1-30.1  c-0.1-16.8,13.5-30,30.1-30c6.2,0,11.3,1.5,15.8,4.3l-15.8,25.6L164.4,238.2z M287.9,231.3c-1.6,0-3.1,0.4-4.6,1l-17.5,8.3  c-0.8-5.3-5.4-9.3-10.8-9.3c-1.6,0-3.1,0.4-4.5,0.9l-21.1,10h14.6v49.3H266l0-43.8c0-3,2.5-5.5,5.5-5.5c3,0,5.5,2.5,5.5,5.5v43.8h22  v-49.3C299,236.2,294,231.3,287.9,231.3z M198.7,232.7l-25.8,9.5h28.5l4.9,17.4c-5.2-4.1-11.6-6-18.8-6c-10.1,0-22.7,7.8-22.8,19.6  c0,11.8,12.7,19.7,22.7,19.7c11.2,0,20.3-5.2,24.8-11.7l2.8,10.4h21.9l-13.1-46.8C221.9,236.8,211.7,227.8,198.7,232.7z   M198.4,284.5c-6.2,0-11.2-5-11.2-11.2c0-6.2,5-11.2,11.2-11.2s11.2,5,11.2,11.2C209.6,279.5,204.6,284.5,198.4,284.5z M337.3,231.4  c-17.2,0-31.1,13.9-31.1,31c0,17.1,13.9,31,31.1,31c17.2,0,31.1-13.9,31.1-31C368.4,245.2,354.5,231.4,337.3,231.4z M344.6,288.7  c-3.6,1-7.2-1-8.1-4.6l-11-39.9c-1-3.7,1.1-7.2,4.6-8.2c3.7-1,7.3,1.1,8.2,4.6l10.9,39.9C350.2,284.1,348.3,287.7,344.6,288.7z   M425,231.4c-1.6,0-3.1,0.5-4.6,1l-17.5,8.3c-0.8-5.2-5.4-9.3-10.8-9.3c-1.6,0-3.1,0.4-4.5,0.9l-21.1,10h14.6v49.3H403l0-43.8  c0-3,2.5-5.5,5.5-5.5c3,0,5.5,2.5,5.5,5.5l0,43.8h22v-49.3C436,236.3,431,231.4,425,231.4z" fill="#FFFFFF" id="logo"/></svg>