<?xml version="1.0" encoding="utf-8"?>
<!-- Generator: Adobe Illustrator 23.0.3, SVG Export Plug-In . SVG Version: 6.00 Build 0)  -->
<svg version="1.1" id="Layer_1" xmlns="http://www.w3.org/2000/svg" xmlns:xlink="http://www.w3.org/1999/xlink" x="0px" y="0px"
	 viewBox="0 0 512 512" style="enable-background:new 0 0 512 512;" xml:space="preserve">
<style type="text/css">
	.st0{fill:#E3E1E4;}
</style>
<g id="Computer-Engineer-Gear-Monitor-Construction">
	<path class="st0" d="M248,96h40v16h-40V96z"/>
	<path class="st0" d="M416,240v80H256v-24.8c0-22.1-13-42.1-33.2-51.1L184,226.8v-11.4c14.8-8.6,25.6-22.8,29.9-39.4h2.1
		c13.3,0,24-10.7,24-24s-10.7-24-24-24v-1.4c12.4-4.3,19-17.9,14.7-30.4c-2.4-7-8-12.5-15.1-14.8c-1.5-12.5-7.1-24-16-32.9
		c-6.5-6.6-14.7-11.4-23.6-14V32c0-8.8-7.2-16-16-16h-16c-8.8,0-16,7.2-16,16v2.4c-21.4,6.3-37,24.8-39.6,47
		C75.9,85.5,69.1,99,73.2,111.5c2.3,7.1,7.8,12.6,14.8,15.1v1.4c-13.3,0-24,10.7-24,24s10.7,24,24,24h2.1
		c4.3,16.6,15.1,30.7,29.9,39.4v11.4l-38.8,17.3c-20.2,9-33.2,29-33.2,51.1V320H32V136c0-13.2,10.8-24,24-24V96
		c-22.1,0-40,17.9-40,40v224c0,22.1,17.9,40,40,40h103l-6,48h-9c-13.3,0-24,10.7-24,24s10.7,24,24,24h160c13.3,0,24-10.7,24-24
		s-10.7-24-24-24h-9l-6-48h103c22.1,0,40-17.9,40-40V240H416z M88,160c-4.4,0-8-3.6-8-8s3.6-8,8-8V160z M192,272
		c1.3,0,2.7-0.3,3.8-1c2-1.1,3.4-2.9,3.9-5.1l3.3-13.1l13.2,5.8c14.4,6.4,23.8,20.7,23.8,36.6V320h-57.6l-12.2-54.8l19.2,6.4
		C190.3,271.8,191.1,272,192,272L192,272z M188.2,246.2l-1.9,7.5l-12.6-4.2l-3-5.8l5.5-2.7L188.2,246.2z M224,152c0,4.4-3.6,8-8,8
		v-16C220.4,144,224,147.6,224,152z M176,51.4c4.6,2,8.8,4.8,12.3,8.3c5.6,5.5,9.4,12.6,10.9,20.2H176L176,51.4z M144,32h16v48h-16
		V32z M128,51.4V80h-23.2C107.4,67.3,116.1,56.6,128,51.4z M88,104c0-4.4,3.6-8,8-8h112c4.4,0,8,3.6,8,8s-3.6,8-8,8H96
		C91.6,112,88,108.4,88,104z M104,160v-32h96v32c0,26.5-21.5,48-48,48S104,186.5,104,160z M147.3,278.2c2.7,2.4,6.7,2.4,9.4,0
		L166,320h-28L147.3,278.2z M145.8,254.4l3.2-6.4h6.1l3.2,6.4l-6.2,6.3L145.8,254.4z M158.1,232h-12.2l-9.9-5v-5.1
		c10.5,2.8,21.5,2.8,32,0v5.1L158.1,232z M127.8,240.9l5.5,2.7l-3,5.8l-12.6,4.2l-1.9-7.5L127.8,240.9z M64,295.2
		c0-15.8,9.3-30.1,23.8-36.6l13.2-5.8l3.3,13.1c0.5,2.2,2,4,3.9,5.1c1.2,0.6,2.5,1,3.8,1c0.9,0,1.7-0.2,2.6-0.4l19.2-6.4L121.6,320
		H64L64,295.2z M304,464c4.4,0,8,3.6,8,8s-3.6,8-8,8H144c-4.4,0-8-3.6-8-8s3.6-8,8-8H304z M169,448l6-48H273l6,48H169z M416,360
		c0,13.2-10.8,24-24,24H56c-13.2,0-24-10.8-24-24v-24h384V360z"/>
	<path class="st0" d="M368,352h16v16h-16V352z"/>
	<path class="st0" d="M120,144h16v16h-16V144z"/>
	<path class="st0" d="M168,144h16v16h-16V144z"/>
	<path class="st0" d="M489.1,120.1l-21.5-3.1c-1.5-4.5-3.3-8.9-5.4-13.1l13-17.3c2.4-3.2,2.1-7.6-0.7-10.5l-22.6-22.6
		c-2.8-2.8-7.3-3.1-10.4-0.7l-17.3,13c-4.2-2.2-8.6-4-13.1-5.4l-3.1-21.5c-0.6-3.9-3.9-6.9-7.9-6.9h-32c-4,0-7.4,2.9-7.9,6.9
		L357,60.3c-4.5,1.4-8.9,3.3-13.1,5.4l-17.3-13c-3.2-2.4-7.6-2.1-10.4,0.7l-22.6,22.6c-2.8,2.8-3.1,7.3-0.7,10.5l13,17.3
		c-2.2,4.2-4,8.6-5.4,13.1l-21.5,3.1c-3.9,0.6-6.9,3.9-6.9,7.9v32c0,4,2.9,7.4,6.9,7.9l21.5,3.1c1.5,4.5,3.3,8.9,5.4,13.1l-13,17.3
		c-2.4,3.2-2.1,7.6,0.7,10.5l22.6,22.6c2.8,2.8,7.3,3.1,10.4,0.7l17.3-13c4.2,2.2,8.6,4,13.1,5.4l3.1,21.5c0.6,3.9,3.9,6.9,7.9,6.9
		h32c4,0,7.4-2.9,7.9-6.9l3.1-21.5c4.5-1.4,8.9-3.3,13.1-5.4l17.3,13c3.2,2.4,7.6,2.1,10.4-0.7l22.6-22.6c2.8-2.8,3.1-7.3,0.7-10.5
		l-13-17.3c2.2-4.2,4-8.6,5.4-13.1l21.5-3.1c3.9-0.6,6.9-3.9,6.9-7.9v-32C496,124,493.1,120.6,489.1,120.1L489.1,120.1z M480,153.1
		l-19.7,2.8c-3.2,0.5-5.8,2.8-6.6,5.9c-1.7,6.6-4.3,13-7.8,18.9c-1.7,2.8-1.5,6.3,0.5,8.9l11.9,15.9l-12.8,12.8l-15.9-11.9
		c-2.6-1.9-6.1-2.1-8.9-0.5c-5.9,3.5-12.2,6.1-18.8,7.8c-3.1,0.8-5.5,3.4-6,6.6l-2.8,19.7h-18.1l-2.8-19.7c-0.5-3.2-2.8-5.8-6-6.6
		c-6.6-1.7-13-4.3-18.8-7.8c-2.8-1.7-6.3-1.5-8.9,0.5l-15.9,11.9l-12.8-12.8l11.9-15.9c1.9-2.6,2.1-6.1,0.5-8.9
		c-3.5-5.9-6.1-12.2-7.8-18.9c-0.8-3.1-3.4-5.5-6.6-5.9l-19.7-2.8v-18.1l19.7-2.8c3.2-0.5,5.8-2.8,6.6-5.9c1.7-6.6,4.3-13,7.8-18.9
		c1.7-2.8,1.5-6.3-0.5-8.9l-11.9-15.9l12.8-12.8l15.9,11.9c2.6,1.9,6.1,2.1,8.9,0.5c5.9-3.5,12.2-6.1,18.8-7.8
		c3.1-0.8,5.5-3.4,6-6.6l2.8-19.7h18.1l2.8,19.7c0.5,3.2,2.8,5.8,6,6.6c6.6,1.7,13,4.3,18.8,7.8c2.8,1.7,6.3,1.5,8.9-0.5l15.9-11.9
		l12.8,12.8l-11.9,15.9c-1.9,2.6-2.1,6.1-0.5,8.9c3.5,5.9,6.1,12.2,7.8,18.9c0.8,3.1,3.4,5.5,6.6,5.9l19.7,2.8V153.1z"/>
	<path class="st0" d="M384,96c-26.5,0-48,21.5-48,48s21.5,48,48,48s48-21.5,48-48C432,117.5,410.5,96,384,96z M384,176
		c-17.7,0-32-14.3-32-32s14.3-32,32-32s32,14.3,32,32S401.7,176,384,176z"/>
	<path class="st0" d="M288,256h64v16h-64V256z"/>
	<path class="st0" d="M288,288h64v16h-64V288z"/>
</g>
</svg>
