<?xml version="1.0" encoding="utf-8"?>
<!-- Generator: Adobe Illustrator 23.0.3, SVG Export Plug-In . SVG Version: 6.00 Build 0)  -->
<svg version="1.1" id="Layer_1" xmlns="http://www.w3.org/2000/svg" xmlns:xlink="http://www.w3.org/1999/xlink" x="0px" y="0px"
	 viewBox="0 0 512 512" style="enable-background:new 0 0 512 512;" xml:space="preserve">
<style type="text/css">
	.st0{fill:#E3E1E4;}
</style>
<g>
	<path class="st0" d="M446.5,419.2v-24c14-10.1,22.2-26.3,22.2-43.8c0-16.9-8-33-21.3-43.1c-3-2.3-7-2.7-10.4-1
		c-3.4,1.7-5.6,5.1-5.6,9v25.1c0,0.3-0.2,0.4-0.2,0.4h-20.7c-0.1,0-0.2-0.1-0.2-0.4v-25.1c0-3.8-2.1-7.3-5.5-9
		c-3.4-1.7-7.4-1.3-10.4,1c-12.2,9.2-19.9,23.4-21.1,38.7l-83.1-28c-4.9-1.6-8.1-6.2-8.1-11.3v0c29.4-16.5,49.9-47,52.6-82.3
		c13.9-0.2,25.5-12.2,25.5-26.1c0-7.6-3.4-14.8-9-19.7c2-4,3.2-8.6,3.2-13.3c0-13.9-9.5-25.6-22.4-28.9v-33
		c0-36.3-24.4-67.7-58.9-77C272.6,12.2,260.1,0,244.8,0h-26.8c-15.3,0-27.8,12.2-28.4,27.4c-34.5,9.3-58.9,40.7-58.9,77v33
		c-12.9,3.3-22.4,15-22.4,28.9c0,4.8,1.1,9.3,3.2,13.3c-5.6,4.9-9,12-9,19.7c0,13.9,11.5,25.9,25.5,26.1
		c2.7,35.3,23.3,65.7,52.6,82.3v0c0,5.1-3.3,9.7-8.1,11.3l-84.4,28.4c-27.3,9.3-44.3,33.9-44.8,62.4v94.7c0,4.1,3.4,7.5,7.5,7.5h0
		c4.1,0,7.5-3.4,7.5-7.5v-94.7c0.3-17.2,8.8-33.5,23.5-42.8l21.6,24.1c7.2,8.1,11.2,18.5,11.2,29.3v84.1c0,4.1,3.4,7.5,7.5,7.5
		s7.5-3.4,7.5-7.5v-23h94.3v23c0,4.1,3.4,7.5,7.5,7.5s7.5-3.4,7.5-7.5v-23h94.3v23c0,4.1,3.4,7.5,7.5,7.5s7.5-3.4,7.5-7.5v-84.1
		c0-10.8,4-21.2,11.2-29.3l17.6-19.6c3.7,9.4,10,17.6,18.4,23.7v21.6c-11.6-1.3-22.1,7.3-22.1,19.1v57.1c0,10.5,8.6,19.1,19.1,19.1
		h41.3c19.3,0,34.9-15.7,34.9-34.9v-25.4C468.6,436.9,459.4,424.3,446.5,419.2L446.5,419.2z M345.2,199.3c0,5.7-4.5,10.6-10.2,11.1
		v-16.1c2.3-0.9,4.4-2,6.4-3.3C343.8,193.1,345.2,196.1,345.2,199.3L345.2,199.3z M127.6,210.4c-5.7-0.4-10.2-5.4-10.2-11.1
		c0-3.3,1.4-6.3,3.8-8.4c2,1.4,4.1,2.5,6.4,3.3V210.4z M123.3,166.3c0-8.2,6.7-14.9,14.8-14.9c0.1,0,99.5,0,99.6,0
		c4.1,0,7.5-3.4,7.5-7.5s-3.4-7.5-7.5-7.5h-92.1v-32c0-28.1,18-52.6,43.9-61.4v45c0,4.1,3.4,7.5,7.5,7.5s7.5-3.4,7.5-7.5V28.4
		c0-7.4,6-13.4,13.4-13.4h26.8c7.4,0,13.4,6,13.4,13.4V88c0,4.1,3.4,7.5,7.5,7.5s7.5-3.4,7.5-7.5v-45c25.9,8.8,43.9,33.3,43.9,61.4
		v32h-44.3c-4.1,0-7.5,3.4-7.5,7.5s3.4,7.5,7.5,7.5c0.1,0,51.8,0,51.8,0c8.2,0,14.9,6.7,14.9,14.9c0,8.2-6.7,14.9-14.9,14.9H138.1
		C129.9,181.2,123.3,174.6,123.3,166.3L123.3,166.3z M142.6,217.3v-21.1H320v21.1c0,48.9-39.8,88.7-88.7,88.7
		S142.6,266.2,142.6,217.3L142.6,217.3z M194.8,314.4c11.4,4.3,23.7,6.7,36.6,6.7s25.2-2.4,36.6-6.7c2.3,9,9.1,16.3,18.3,19.2
		c-15.3,12.7-34.8,19.8-54.9,19.8s-39.5-7.1-54.9-19.8C185.6,330.6,192.5,323.4,194.8,314.4L194.8,314.4z M231.2,433.4
		c-10-9.2-19.1-19.3-27.1-30.2c-2.5-3.3-7.1-4.1-10.5-1.6s-4.1,7.1-1.6,10.5c9.3,12.7,20,24.4,31.8,34.9v19.6h-94.3v-46.2
		c0-14.5-5.3-28.5-15-39.3l-18.4-20.5l61-20.5c4,14.2,9.3,28,16,41.1c1.9,3.7,6.5,5.1,10.1,3.3c3.7-1.9,5.2-6.4,3.3-10.1
		c-3.6-7.2-6.9-14.5-9.6-22.1c16.2,10.3,35.1,16,54.6,16c19.1,0,37.8-5.5,53.8-15.5c-5.2,13.1-11.5,25.6-19,37.6
		C256.3,406,244.6,420.5,231.2,433.4L231.2,433.4z M348.2,381.1c-9.7,10.8-15,24.8-15,39.3v46.2h-94.4v-19.7
		c15.4-14.4,28.8-30.7,40-48.5c11.4-18.2,20.3-37.8,26.6-58.3l61.2,20.6L348.2,381.1z M388.1,351.4c0-8.2,2.6-16.2,7.2-22.7v12.8
		c0,8.5,6.8,15.4,15.2,15.4h20.7c8.4,0,15.2-6.9,15.2-15.4v-12.9c4.7,6.5,7.2,14.4,7.2,22.8c0,13-6.3,25.1-17,32.3
		c-3.3,2.2-5.3,5.9-5.3,9.9v23.1h-21.2v-23.1c0-4-2-7.7-5.3-9.9C394.4,376.5,388.1,364.4,388.1,351.4L388.1,351.4z M453.6,477.1
		c0,11-8.9,19.9-19.9,19.9h-41.3c-2.2,0-4.1-1.8-4.1-4.1v-57.1c0-2.2,1.8-4.1,4.1-4.1h41.3c11,0,19.9,8.9,19.9,19.9V477.1z
		 M249.3,279.5c3.4-2.4,4.2-7.1,1.8-10.5c-2.4-3.4-7.1-4.2-10.5-1.8c-1.5,1-4.5,2.8-8.6,3c-4.7,0.2-8.1-1.8-9.8-3
		c-3.4-2.4-8.1-1.6-10.5,1.8c-2.4,3.4-1.6,8.1,1.8,10.5c3.1,2.2,9.4,5.7,17.9,5.7C238.8,285.3,245.7,282,249.3,279.5L249.3,279.5z
		 M187.5,204.7c-4.1,0-7.5,3.4-7.5,7.5v15.5c0,4.1,3.4,7.5,7.5,7.5s7.5-3.4,7.5-7.5v-15.5C195,208,191.6,204.7,187.5,204.7z
		 M275.2,235.2c4.1,0,7.5-3.4,7.5-7.5v-15.5c0-4.1-3.4-7.5-7.5-7.5s-7.5,3.4-7.5,7.5v15.5C267.7,231.8,271.1,235.2,275.2,235.2z"/>
</g>
</svg>
