<?xml version="1.0" encoding="utf-8"?>
<!-- Generator: Adobe Illustrator 23.0.3, SVG Export Plug-In . SVG Version: 6.00 Build 0)  -->
<svg version="1.1" id="Layer_1" xmlns="http://www.w3.org/2000/svg" xmlns:xlink="http://www.w3.org/1999/xlink" x="0px" y="0px"
	 viewBox="0 0 512 512" style="enable-background:new 0 0 512 512;" xml:space="preserve">
<style type="text/css">
	.st0{fill:#E3E1E4;}
</style>
<g>
	<g>
		<path class="st0" d="M335,212c-2.7-3.4-7.7-3.9-11.1-1.2c-5.1,4.1-10.8,4.6-13,4.6c-6.6,0-11.3-3.2-13-4.6
			c-3.4-2.7-8.4-2.2-11.1,1.2c-2.7,3.4-2.2,8.4,1.2,11.1c3.7,3,11.7,8.1,22.9,8.1c4.8,0,14.2-1.1,22.9-8.1
			C337.2,220.4,337.7,215.4,335,212z"/>
	</g>
</g>
<g>
	<g>
		<path class="st0" d="M359.5,175.2h-5.3c-4.4,0-7.9,3.5-7.9,7.9c0,4.4,3.5,7.9,7.9,7.9h5.3c4.4,0,7.9-3.5,7.9-7.9
			C367.4,178.8,363.8,175.2,359.5,175.2z"/>
	</g>
</g>
<g>
	<g>
		<path class="st0" d="M267.6,175.2h-5.3c-4.4,0-7.9,3.5-7.9,7.9c0,4.4,3.5,7.9,7.9,7.9h5.3c4.4,0,7.9-3.5,7.9-7.9
			C275.5,178.8,272,175.2,267.6,175.2z"/>
	</g>
</g>
<g>
	<g>
		<path class="st0" d="M491.9,338.3v-81.2c0-17.2-14-31.1-31.1-31.1h-46.4c-4.9,0-8.7,4.6-7.8,9.4l6.2,32.8h-67
			c11.6-3.6,22.7-9.1,32.7-16.1c9.9-6.9,18.7-15.4,26-25c4.7-6.2,8.8-12.8,12.2-19.8c3.9,1.8,8.1,2.8,12.4,2.8c16,0,29-13,29-29
			s-13-29-29-29c-0.2,0-0.4,0-0.6,0c0-0.4,0-0.7,0-1.1h13.3c4.4,0,7.9-3.5,7.9-7.9v-21.1c0-4.4-3.5-7.9-7.9-7.9h-15
			c-8-45.3-42.4-82.2-86.9-93.5V7.9c0-4.4-3.5-7.9-7.9-7.9h-42.2c-4.4,0-7.9,3.5-7.9,7.9v12.6C237.4,31.8,203,68.7,195,114h-15
			c-4.4,0-7.9,3.5-7.9,7.9V143c0,4.4,3.5,7.9,7.9,7.9h13.3c0,0.4,0,0.7,0,1.1c-0.2,0-0.4,0-0.6,0c-16,0-29,13-29,29s13,29,29,29
			c4.4,0,8.6-1,12.4-2.8c5.7,11.7,13.4,22.5,22.7,31.7c8.6,8.5,18.4,15.8,29.2,21.3c6.1,3.2,12.5,5.8,19.1,7.8h-60.1
			c-16.4,0-31.1,10.2-36.9,25.3h-133c-13.1,0-23.8,10.7-23.8,23.8v85.5c0,4.4,3.5,7.9,7.9,7.9s7.9-3.5,7.9-7.9v-64.2h199.5v123.9H38
			V445c0-4.4-3.5-7.9-7.9-7.9s-7.9,3.5-7.9,7.9v17.4H9c-4.4,0-7.9,3.5-7.9,7.9v17.9c0,13.1,10.7,23.8,23.8,23.8h225.9
			c0.2,0,0.5,0,0.7,0c0.1,0,0.2,0,0.4,0h105.6c4.4,0,7.9-3.5,7.9-7.9c0-4.4-3.5-7.9-7.9-7.9h-84.2c0.9-2.5,1.4-5.1,1.4-7.9v-17.9
			c0-4.4-3.5-7.9-7.9-7.9h-13.2V317.2c0-13.1-10.7-23.8-23.8-23.8h-32.7c4.4-5.8,11.4-9.5,19-9.5h57.2l10.8,41.3l-10.4,125.3
			c-0.2,2.7,0.9,5.2,3,6.9l29.6,23.2c2.8,2.2,6.9,2.2,9.8,0l29.6-23.2c2.1-1.6,3.2-4.2,3-6.9l-10.4-125.3l10.8-41.3h67.1l10.4,54.6
			c-10.1,2.7-17.6,12-17.6,22.9v59.1c0,12.2,9.3,22.3,21.1,23.6v51.9h-30.1c-4.4,0-7.9,3.5-7.9,7.9s3.5,7.9,7.9,7.9h38
			c4.4,0,7.9-3.5,7.9-7.9v-12.9c4.5,2.5,9.7,4,15.3,4c15.7,0,28.8-11.5,30.8-26.9c0.2-0.7,0.3-1.4,0.3-2.1V444
			c10.8-2.2,19-11.8,19-23.3v-59.1C510.9,350.1,502.8,340.5,491.9,338.3z M258.6,478.2v10c0,4.4-3.6,7.9-7.9,7.9H24.8
			c-4.4,0-7.9-3.6-7.9-7.9v-10H258.6z M229.6,309.3c0.5,0,1.1,0.1,1.6,0.2c3.6,0.7,6.3,3.9,6.3,7.8v5.5H38v-5.5c0-3.8,2.7-7,6.3-7.8
			c0.5-0.1,1-0.2,1.6-0.2H229.6z M407.5,188.1v-31.9c1.8-0.7,3.5-1.4,5.2-2.1c0,0.5,0,1.1,0,1.6C412.8,167,410.9,177.9,407.5,188.1z
			 M429.1,167.9c7.3,0,13.2,5.9,13.2,13.2s-5.9,13.2-13.2,13.2c-2.3,0-4.5-0.6-6.4-1.7c2.6-7.9,4.4-16.1,5.3-24.6
			C428.4,167.9,428.7,167.9,429.1,167.9z M339.9,36.9c35.7,10.6,63.2,40.5,70.7,77.1h-70.7V36.9z M297.7,15.8h26.4V114h-26.4V15.8z
			 M192.7,194.2c-7.3,0-13.2-5.9-13.2-13.2s5.9-13.2,13.2-13.2c0.4,0,0.8,0,1.2,0.1c0.9,8.5,2.7,16.8,5.3,24.6
			C197.1,193.7,194.9,194.2,192.7,194.2z M214.3,188.1c-3.4-10.2-5.3-21.1-5.3-32.4c0-0.5,0-1.1,0-1.6c1.7,0.7,3.5,1.4,5.2,2.1
			V188.1z M187.9,135.1v-5.3h42.8c4.4,0,7.9-3.5,7.9-7.9c0-4.4-3.5-7.9-7.9-7.9h-19.5c7.5-36.6,35-66.5,70.7-77.1V114h-17.4
			c-4.4,0-7.9,3.5-7.9,7.9s3.5,7.9,7.9,7.9h169.4v5.3H187.9z M371.7,151c-19.7,4.9-40,7.4-60.8,7.4c-20.7,0-41-2.5-60.8-7.4H371.7z
			 M310.9,464.5l-21.3-16.7l9.6-115.2h23.4l9.6,115.2L310.9,464.5z M323.8,316.7H298l-8.5-32.7h42.8L323.8,316.7z M310.9,257.6
			c-32.9,0-62.1-15.6-80.8-39.9v-56c26,8.2,53.1,12.4,80.8,12.4s54.8-4.2,80.8-12.4v56C373,241.9,343.7,257.6,310.9,257.6z
			 M460.8,241.7c8.4,0,15.3,6.9,15.3,15.3c0,8.4-6.9,15.3-15.3,15.3s-15.3-6.9-15.3-15.3S452.4,241.7,460.8,241.7z M445.5,284.2
			c4.5,2.6,9.7,4,15.3,4s10.8-1.5,15.3-4v53.7h-30.6V284.2z M423.9,241.7h9.8c-2.6,4.5-4,9.7-4,15.3v15L423.9,241.7z M476.1,464.8
			c0,0.2-0.1,0.4-0.1,0.5c-0.7,7.9-7.3,13.9-15.2,13.9c-8,0-14.5-6-15.2-13.9c0-0.2,0-0.4-0.1-0.5v-20.4h30.6L476.1,464.8
			L476.1,464.8z M495.1,420.7c0,4.4-3.6,7.9-7.9,7.9h-54.9c-4.2,0-7.6-3.3-7.9-7.4h17.4c4.4,0,7.9-3.5,7.9-7.9s-3.5-7.9-7.9-7.9
			h-17.4v-5.3h17.4c4.4,0,7.9-3.5,7.9-7.9s-3.5-7.9-7.9-7.9h-17.4V379h17.4c4.4,0,7.9-3.5,7.9-7.9s-3.5-7.9-7.9-7.9h-17.4v-1.6
			c0-4.4,3.6-7.9,7.9-7.9h54.9c4.4,0,7.9,3.6,7.9,7.9V420.7z"/>
	</g>
</g>
<g>
	<g>
		<path class="st0" d="M199,432.8H76v-72.3c0-4.4-3.5-7.9-7.9-7.9s-7.9,3.5-7.9,7.9v80.2c0,4.4,3.5,7.9,7.9,7.9H199
			c4.4,0,7.9-3.5,7.9-7.9C206.9,436.4,203.4,432.8,199,432.8z"/>
	</g>
</g>
<g>
	<g>
		<path class="st0" d="M195.9,365.2c-3.2-2.9-8.2-2.7-11.2,0.5l-17.1,18.8l-15.7-7.9c-2.9-1.5-6.4-1-8.8,1.2l-15,13.5l-15.8-19
			c-3.7-4.4-11-3.4-13.3,1.9L84.1,408c-2.2,5.1,1.6,11.1,7.2,11.1c3.1,0,6-1.8,7.3-4.7l9.6-22l12.9,15.5c2.8,3.4,8.1,3.8,11.4,0.8
			l17.1-15.4l16.3,8.1c3.2,1.6,7,0.9,9.4-1.8l21.1-23.2C199.3,373.2,199.1,368.1,195.9,365.2z"/>
	</g>
</g>
</svg>
