<?xml version="1.0" encoding="utf-8"?>
<!-- Generator: Adobe Illustrator 23.0.3, SVG Export Plug-In . SVG Version: 6.00 Build 0)  -->
<svg version="1.1" id="Layer_1" xmlns="http://www.w3.org/2000/svg" xmlns:xlink="http://www.w3.org/1999/xlink" x="0px" y="0px"
	 viewBox="0 0 188.2 65.5" style="enable-background:new 0 0 188.2 65.5;" xml:space="preserve">
<style type="text/css">
	.st0{clip-path:url(#SVGID_2_);}
	.st1{clip-path:url(#SVGID_4_);}
	.st2{clip-path:url(#SVGID_6_);}
	.st3{clip-path:url(#SVGID_8_);}
	.st4{clip-path:url(#SVGID_10_);}
	.st5{clip-path:url(#SVGID_12_);}
	.st6{clip-path:url(#SVGID_14_);}
	.st7{clip-path:url(#SVGID_16_);}
	.st8{clip-path:url(#SVGID_18_);}
	.st9{clip-path:url(#SVGID_20_);}
	.st10{clip-path:url(#SVGID_22_);}
	.st11{clip-path:url(#SVGID_24_);}
	.st12{clip-path:url(#SVGID_26_);}
	.st13{clip-path:url(#SVGID_28_);}
	.st14{clip-path:url(#SVGID_30_);}
	.st15{clip-path:url(#SVGID_32_);}
	.st16{clip-path:url(#SVGID_34_);}
	.st17{clip-path:url(#SVGID_36_);}
	.st18{clip-path:url(#SVGID_38_);}
	.st19{clip-path:url(#SVGID_40_);}
	.st20{clip-path:url(#SVGID_42_);}
	.st21{clip-path:url(#SVGID_44_);}
	.st22{fill:#007DC3;}
	.st23{fill:#E3E1E4;}
	.st24{fill:#A7A9AC;}
	.st25{clip-path:url(#SVGID_46_);fill:#E3E1E4;}
</style>
<g id="surface1">
	<g>
		<defs>
			<rect id="SVGID_1_" x="5" y="1" width="41" height="37"/>
		</defs>
		<clipPath id="SVGID_2_">
			<use xlink:href="#SVGID_1_"  style="overflow:visible;"/>
		</clipPath>
		<g class="st0">
			<g>
				<defs>
					<path id="SVGID_3_" d="M4.6,38.4c0,0,0.8-9.3,8.8-16.2c6.7-5.7,15-8.6,21.4-12.7c6.5-4.1,11-8.4,11-8.4l0.4,0.2
						c0,0-0.5,3.8-3.7,9.4c-1.6,2.9-5.2,7.9-13.5,11.1l-1.9,4.9c-3.6,1.5-9.2,3.3-9.2,3.3l-4.5-0.6C10.1,30.3,4.6,38.4,4.6,38.4"/>
				</defs>
				<clipPath id="SVGID_4_">
					<use xlink:href="#SVGID_3_"  style="overflow:visible;"/>
				</clipPath>
				<g class="st1">
					<g>
						<defs>
							<path id="SVGID_5_" d="M4.6,38.4c0,0,0.8-9.3,8.8-16.2c6.7-5.7,15-8.6,21.4-12.7c6.5-4.1,11-8.4,11-8.4l0.4,0.2
								c0,0-0.5,3.8-3.7,9.4c-1.6,2.9-5.2,7.9-13.5,11.1l-1.9,4.9c-3.6,1.5-9.2,3.3-9.2,3.3l-4.5-0.6C10.1,30.3,4.6,38.4,4.6,38.4"
								/>
						</defs>
						<clipPath id="SVGID_6_">
							<use xlink:href="#SVGID_5_"  style="overflow:visible;"/>
						</clipPath>
						<g class="st2">
							<g>
								<defs>
									<path id="SVGID_7_" d="M23.4,59.1l41.5-37.4L27.6-19.7l-41.5,37.4L23.4,59.1z M23.3,59.2L23.3,59.2l-37.2-41.5l-0.1,0.1
										L23.3,59.2z M64.9,21.8l0.1-0.1L27.7-19.7l-0.1,0.1L64.9,21.8z"/>
								</defs>
								<clipPath id="SVGID_8_">
									<use xlink:href="#SVGID_7_"  style="overflow:visible;"/>
								</clipPath>
								<g class="st3">
									<g transform="matrix(0.2,0,0,-0.2,4.6,38.44)">
										
											<image style="overflow:visible;enable-background:new    ;" width="209" height="187" id="image5" xlink:href="73C986E82C91B642.png"  transform="matrix(0.2 0 0 -0.2 4.6 38.44)">
										</image>
									</g>
								</g>
							</g>
						</g>
					</g>
				</g>
			</g>
		</g>
	</g>
	<g>
		<defs>
			<rect id="SVGID_9_" x="3" y="26" width="23" height="38"/>
		</defs>
		<clipPath id="SVGID_10_">
			<use xlink:href="#SVGID_9_"  style="overflow:visible;"/>
		</clipPath>
		<g class="st4">
			<g>
				<defs>
					<path id="SVGID_11_" d="M26.4,36.1L17.8,26C17.4,26.5-2.8,41.3,4.5,49.6c1.5,1.6,7,8.2,8.5,9.9c1.5,1.7,3.4,3.1,5.4,4.1
						c-0.6-0.8-1.4-2.4-1-6.1C18.3,48.6,24.7,38.6,26.4,36.1"/>
				</defs>
				<clipPath id="SVGID_12_">
					<use xlink:href="#SVGID_11_"  style="overflow:visible;"/>
				</clipPath>
				<g class="st5">
					<g>
						<defs>
							<path id="SVGID_13_" d="M26.4,36.1L17.8,26C17.4,26.5-2.8,41.3,4.5,49.6c1.5,1.6,7,8.2,8.5,9.9c1.5,1.7,3.4,3.1,5.4,4.1
								c-0.6-0.8-1.4-2.4-1-6.1C18.3,48.6,24.7,38.6,26.4,36.1"/>
						</defs>
						<clipPath id="SVGID_14_">
							<use xlink:href="#SVGID_13_"  style="overflow:visible;"/>
						</clipPath>
						<g class="st6">
							<g>
								<defs>
									<path id="SVGID_15_" d="M21.1,68.4L40.4,51L11.1,18.5L-8.2,35.9L21.1,68.4z M13.4,75.4l7.7-7L-8.2,35.9l-7.7,7L13.4,75.4z
										 M40.4,51l4.7-4.2L15.8,14.3l-4.7,4.2L40.4,51z"/>
								</defs>
								<clipPath id="SVGID_16_">
									<use xlink:href="#SVGID_15_"  style="overflow:visible;"/>
								</clipPath>
								<g class="st7">
									<g transform="matrix(0.2,0,0,-0.2,2.8,63.64)">
										
											<image style="overflow:visible;enable-background:new    ;" width="118" height="188" id="image8" xlink:href="73C986E82C91B646.png"  transform="matrix(0.2 0 0 -0.2 2.8 63.64)">
										</image>
									</g>
								</g>
							</g>
						</g>
					</g>
				</g>
			</g>
		</g>
	</g>
	<g>
		<defs>
			<rect id="SVGID_17_" x="3" y="46" width="16" height="18"/>
		</defs>
		<clipPath id="SVGID_18_">
			<use xlink:href="#SVGID_17_"  style="overflow:visible;"/>
		</clipPath>
		<g class="st8">
			<g>
				<defs>
					<path id="SVGID_19_" d="M2.9,45.7c0,1.3,0.5,2.7,1.6,3.9c1.5,1.6,7,8.2,8.5,9.9c1.5,1.7,3.5,3.3,6,4.3L2.9,45.7"/>
				</defs>
				<clipPath id="SVGID_20_">
					<use xlink:href="#SVGID_19_"  style="overflow:visible;"/>
				</clipPath>
				<g class="st9">
					<g>
						<defs>
							<path id="SVGID_21_" d="M2.9,45.7c0,1.3,0.5,2.7,1.6,3.9c1.5,1.6,7,8.2,8.5,9.9c1.5,1.7,3.5,3.3,6,4.3L2.9,45.7"/>
						</defs>
						<clipPath id="SVGID_22_">
							<use xlink:href="#SVGID_21_"  style="overflow:visible;"/>
						</clipPath>
						<g class="st10">
							<g>
								<defs>
									<path id="SVGID_23_" d="M17.8,64.9l1.3-1.2L2.9,45.7l-1.3,1.2L17.8,64.9z M10.1,71.9l7.8-7L1.6,46.8l-7.8,7L10.1,71.9z
										 M19.1,63.7l8.9-8L11.7,37.7l-8.9,8L19.1,63.7z"/>
								</defs>
								<clipPath id="SVGID_24_">
									<use xlink:href="#SVGID_23_"  style="overflow:visible;"/>
								</clipPath>
								<g class="st11">
									<g transform="matrix(0.1,0,0,-0.1,2.8,63.84)">
										
											<image style="overflow:visible;enable-background:new    ;" width="162" height="181" id="image11" xlink:href="73C986E82C91B646.png"  transform="matrix(0.1 0 0 -0.1 2.8 63.84)">
										</image>
									</g>
								</g>
							</g>
						</g>
					</g>
				</g>
			</g>
		</g>
	</g>
	<g>
		<defs>
			<path id="SVGID_25_" d="M24.4,23.1h0.3v0.1L24.4,23.1L24.4,23.1z M24.2,23.2h0.6v0.1h-0.6V23.2z M23.9,23.3h1v0.1h-1V23.3z
				 M23.7,23.4H25v0.1L23.7,23.4L23.7,23.4z M23.5,23.5h1.6v0.1h-1.6V23.5z M23.2,23.6h1.9v0.1L23.2,23.6L23.2,23.6z M23,23.7h2.2
				v0.1H23V23.7z M22.7,23.8h2.6v0.1h-2.6V23.8z M22.5,23.9h2.9V24L22.5,23.9L22.5,23.9z M22.3,24h3.2v0.1h-3.2V24z M22,24.1h3.6
				v0.1L22,24.1L22,24.1z M21.8,24.2h3.9v0.1h-3.9V24.2z M21.5,24.3h4.3v0.1h-4.3V24.3z M21.3,24.4h4.6v0.1L21.3,24.4L21.3,24.4z
				 M21.2,24.5h4.7v0.1h-4.7V24.5z M21.1,24.6H26v0.1L21.1,24.6L21.1,24.6z M21.1,24.7h5v0.1h-5V24.7z M21.1,24.8h5.1v0.1h-5.1V24.8
				z M21.1,24.9h5.2V25L21.1,24.9L21.1,24.9z M21.1,25h5.3v0.1h-5.3V25z M21.1,25.1h5.4v0.1L21.1,25.1L21.1,25.1z M21.1,25.2h5.5
				v0.1h-5.5V25.2z M21,25.3h5.6v0.1H21V25.3z M21,25.4h5.7v0.1L21,25.4L21,25.4z M21,25.5h5.8v0.1H21V25.5z M21,25.6h5.9v0.1
				L21,25.6L21,25.6z M21,25.7h6v0.1h-6V25.7z M21,25.8h6.1v0.1H21V25.8z M21,25.9h6.2V26L21,25.9L21,25.9z M21,26h6.3v0.1H21V26z
				 M20.9,26.1h6.4v0.1L20.9,26.1L20.9,26.1z M20.9,26.2h6.5v0.1h-6.5V26.2z M20.9,26.3h6.6v0.1h-6.6V26.3z M20.9,26.4h6.7v0.1
				L20.9,26.4L20.9,26.4z M20.9,26.5h6.8v0.1h-6.8V26.5z M20.9,26.6h6.9v0.1L20.9,26.6L20.9,26.6z M20.9,26.7h7v0.1h-7V26.7z
				 M20.9,26.8H28v0.1h-7.1V26.8z M20.8,26.9H28V27L20.8,26.9L20.8,26.9z M20.8,27h7.3v0.1h-7.3V27z M20.8,27.1h7.4v0.1L20.8,27.1
				L20.8,27.1z M20.8,27.2h7.5v0.1h-7.5V27.2z M20.8,27.3h7.6v0.1h-7.6V27.3z M20.8,27.4h7.7v0.1L20.8,27.4L20.8,27.4z M20.8,27.5
				h7.8v0.1h-7.8V27.5z M20.8,27.6h7.9v0.1L20.8,27.6L20.8,27.6z M20.7,27.7h8v0.1h-8V27.7z M20.7,27.8h8.1v0.1h-8.1V27.8z
				 M20.7,27.9h8.2V28L20.7,27.9L20.7,27.9z M20.7,28H29v0.1h-8.3V28z M20.7,28.1h8.4v0.1L20.7,28.1L20.7,28.1z M20.7,28.2h8.5v0.1
				h-8.5V28.2z M20.7,28.3h8.6v0.1h-8.6V28.3z M20.7,28.4h8.7v0.1L20.7,28.4L20.7,28.4z M20.6,28.5h8.8v0.1h-8.8V28.5z M20.6,28.6
				h8.9v0.1L20.6,28.6L20.6,28.6z M20.6,28.7h9v0.1h-9V28.7z M20.6,28.8h9.1v0.1h-9.1V28.8z M20.6,28.9h9.2V29L20.6,28.9L20.6,28.9z
				 M20.6,29h9.3v0.1h-9.3V29z M20.6,29.1H30v0.1L20.6,29.1L20.6,29.1z M20.6,29.2h9.5v0.1h-9.5V29.2z M20.5,29.3h9.6v0.1h-9.6V29.3
				z M20.5,29.4h9.7v0.1L20.5,29.4L20.5,29.4z M20.5,29.5h9.8v0.1h-9.8V29.5z M20.5,29.6h9.9v0.1L20.5,29.6L20.5,29.6z M20.5,29.7
				h10v0.1h-10V29.7z M20.5,29.8h10.1v0.1H20.5V29.8z M20.5,29.9h10.2V30L20.5,29.9L20.5,29.9z M20.5,30h10.3v0.1H20.5V30z
				 M20.4,30.1h10.4v0.1L20.4,30.1L20.4,30.1z M20.4,30.2h10.5v0.1H20.4V30.2z M20.4,30.3H31v0.1H20.4V30.3z M20.4,30.4h10.7v0.1
				L20.4,30.4L20.4,30.4z M20.4,30.5h10.8v0.1H20.4V30.5z M20.4,30.6h10.9v0.1L20.4,30.6L20.4,30.6z M20.4,30.7h11v0.1h-11V30.7z
				 M20.4,30.8h11.1v0.1H20.4V30.8z M20.3,30.9h11.2V31L20.3,30.9L20.3,30.9z M20.3,31h11.3v0.1H20.3V31z M20.3,31.1h11.4v0.1
				L20.3,31.1L20.3,31.1z M20.3,31.2h11.5v0.1H20.3V31.2z M20.3,31.3h11.6v0.1H20.3V31.3z M20.3,31.4H32v0.1L20.3,31.4L20.3,31.4z
				 M20.3,31.5h11.8v0.1H20.3V31.5z M20.3,31.6h11.9v0.1L20.3,31.6L20.3,31.6z M20.2,31.7h12v0.1h-12V31.7z M20.2,31.8h12.1v0.1
				H20.2V31.8z M20.2,31.9h12.2V32L20.2,31.9L20.2,31.9z M20.2,32h12.3v0.1H20.2V32z M20.2,32.1h12.4v0.1L20.2,32.1L20.2,32.1z
				 M20.2,32.2h12.5v0.1H20.2V32.2z M20.2,32.3h12.6v0.1H20.2V32.3z M20.2,32.4h12.7v0.1L20.2,32.4L20.2,32.4z M20.1,32.5H33v0.2
				H20.1V32.5z M20.1,32.7h13v0.1h-13V32.7z M20.1,32.8h13.1v0.1H20.1V32.8z M20.1,32.9h13.2V33L20.1,32.9L20.1,32.9z M20.1,33h13.3
				v0.3H20.1V33z M20,33.3h13.3v0.3H20V33.3z M20,33.6h13.2v0.3H20V33.6z M20,33.9h13.1V34L20,33.9L20,33.9z M19.9,34h13.2v0.2H19.9
				V34z M19.9,34.2H33v0.3H19.9V34.2z M19.9,34.5h13v0.3h-13V34.5z M19.8,34.8h13v0.3h-13V34.8z M19.8,35.1h12.9v0.3H19.8V35.1z
				 M19.8,35.4h12.8v0.2H19.8V35.4z M19.7,35.6h12.9v0.1L19.7,35.6L19.7,35.6z M19.7,35.7h12.8V36H19.7V35.7z M19.7,36h12.7v0.4
				H19.7V36z M19.6,36.4h12.7v0.3H19.6V36.4z M19.6,36.7h12.6V37H19.6V36.7z M19.6,37h12.5v0.2H19.6V37z M19.5,37.2h12.6v0.1H19.5
				V37.2z M19.5,37.3H32v0.4H19.5V37.3z M19.5,37.7h12.4V38H19.5V37.7z M19.4,38h12.4v0.4H19.4V38z M19.4,38.4h12.3v0.3H19.4V38.4z
				 M19.4,38.7h12.2v0.1H19.4V38.7z M19.3,38.8h12.3v0.3H19.3V38.8z M19.3,39.1h12.2v0.4H19.3V39.1z M19.3,39.5h12.1v0.1H19.3V39.5z
				 M19.2,39.6h12.2v0.3H19.2V39.6z M19.2,39.9h12.1v0.4H19.2V39.9z M19.2,40.3h12v0.1h-12V40.3z M19.1,40.4h12.1v0.3H19.1V40.4z
				 M19.1,40.7h12v0.4h-12V40.7z M19.1,41.1H31v0.1L19.1,41.1L19.1,41.1z M19,41.2h12v0.3H19V41.2z M19,41.5h11.9v0.4H19V41.5z
				 M19,41.9h11.8V42L19,41.9L19,41.9z M18.9,42h11.9v0.4H18.9V42z M18.9,42.4h11.8v0.3H18.9V42.4z M18.8,42.7h11.9v0.2H18.8V42.7z
				 M18.8,42.9h11.8v0.5H18.8V42.9z M18.8,43.4h11.7v0.1L18.8,43.4L18.8,43.4z M18.7,43.5h11.8v0.4H18.7V43.5z M18.7,43.9h11.7v0.4
				H18.7V43.9z M18.6,44.3h11.8v0.2H18.6V44.3z M18.6,44.5h11.7v0.6H18.6V44.5z M18.5,45.1h11.7v0.6H18.5V45.1z M18.5,45.7h11.6v0.2
				H18.5V45.7z M18.4,45.9h11.7v0.6H18.4V45.9z M18.4,46.5H30v0.2H18.4V46.5z M18.3,46.7H30v0.7H18.3V46.7z M18.3,47.4h11.6v0.1
				L18.3,47.4L18.3,47.4z M18.2,47.5h11.7v0.8H18.2V47.5z M18.1,48.3h11.8v0.5H18.1V48.3z M18.1,48.8h11.7v0.3H18.1V48.8z M18,49.1
				h11.8v0.8H18V49.1z M17.9,49.9h11.9v0.7H17.9V49.9z M17.8,50.6h12v0.1L17.8,50.6L17.8,50.6z M35.2,51.2h0.3v0.1h-0.3V51.2z
				 M17.8,50.7h12.1v0.7H17.8V50.7z M35,51.3h0.6v0.1H35V51.3z M34.8,51.4h0.9v0.1L34.8,51.4L34.8,51.4z M34.5,51.5h1.3v0.1h-1.3
				V51.5z M34.2,51.6h1.7v0.1L34.2,51.6L34.2,51.6z M34,51.7h2v0.1h-2V51.7z M33.7,51.8h2.4v0.1h-2.4V51.8z M33.3,51.9h2.9V52
				L33.3,51.9L33.3,51.9z M17.7,51.4h12.2V52H17.7V51.4z M33,52h3.3v0.1H33V52z M17.7,52H30v0.2H17.7V52z M32.7,52.1h3.6v0.1
				L32.7,52.1L32.7,52.1z M32.2,52.2h4.2v0.1h-4.2V52.2z M31.6,52.3h4.9v0.1h-4.9V52.3z M30.9,52.4h5.7v0.1L30.9,52.4L30.9,52.4z
				 M17.6,52.2H30v0.3H17.6V52.2z M17.6,52.5h19.1v0.1H17.6V52.5z M17.6,52.6h19.2v0.1L17.6,52.6L17.6,52.6z M17.6,52.7h19.3v0.1
				H17.6V52.7z M17.6,52.8H37V53H17.6V52.8z M17.5,53h19.6v0.1H17.5V53z M17.5,53.1h19.7v0.1L17.5,53.1L17.5,53.1z M17.5,53.2h19.8
				v0.1H17.5V53.2z M17.5,53.3h19.9v0.1H17.5V53.3z M17.5,53.4h20v0.1L17.5,53.4L17.5,53.4z M17.5,53.5h20.1v0.1H17.5V53.5z
				 M17.5,53.6h20.2v0.1L17.5,53.6L17.5,53.6z M17.5,53.7h20.3v0.1H17.5V53.7z M17.4,53.8h20.4v0.1H17.4V53.8z M17.4,53.9h20.5V54
				L17.4,53.9L17.4,53.9z M17.4,54H38v0.1H17.4V54z M17.4,54.1h20.7v0.1L17.4,54.1L17.4,54.1z M17.4,54.2h20.8v0.1H17.4V54.2z
				 M17.5,54.3h20.8v0.1H17.5V54.3z M17.6,54.4h20.8v0.1L17.6,54.4L17.6,54.4z M17.7,54.5h20.8v0.1H17.7V54.5z M17.8,54.6h20.7v0.1
				L17.8,54.6L17.8,54.6z M17.9,54.7h20.7v0.1H17.9V54.7z M18,54.8h20.7v0.1H18V54.8z M18.1,54.9h20.7V55L18.1,54.9L18.1,54.9z
				 M18.2,55h20.7v0.1H18.2V55z M18.2,55.1H39v0.1L18.2,55.1L18.2,55.1z M18.3,55.2h20.8v0.1H18.3V55.2z M18.4,55.3h20.8v0.1H18.4
				V55.3z M18.5,55.4h20.8v0.1L18.5,55.4L18.5,55.4z M18.6,55.5h20.7v0.1H18.6V55.5z M18.7,55.6h20.7v0.1L18.7,55.6L18.7,55.6z
				 M18.8,55.7h20.7v0.1H18.8V55.7z M18.9,55.8h20.7v0.1H18.9V55.8z M18.9,55.9h20.8V56L18.9,55.9L18.9,55.9z M19,56h20.8v0.1H19V56
				z M19.1,56.1h20.8v0.1L19.1,56.1L19.1,56.1z M19.2,56.2H40v0.1H19.2V56.2z M19.3,56.3H40v0.1H19.3V56.3z M19.4,56.4h20.7v0.1
				L19.4,56.4L19.4,56.4z M19.5,56.5h20.7v0.1H19.5V56.5z M19.6,56.6h20.7v0.1L19.6,56.6L19.6,56.6z M19.7,56.7h20.7v0.1H19.7V56.7z
				 M19.7,56.8h20.8v0.1H19.7V56.8z M19.8,56.9h20.8V57L19.8,56.9L19.8,56.9z M19.9,57h20.8v0.1H19.9V57z M20,57.1h20.8v0.1L20,57.1
				L20,57.1z M20.1,57.2h20.7v0.1H20.1V57.2z M20.2,57.3h20.7v0.1H20.2V57.3z M20.3,57.4H41v0.1L20.3,57.4L20.3,57.4z M20.4,57.5
				h20.7v0.1H20.4V57.5z M20.5,57.6h20.7v0.1L20.5,57.6L20.5,57.6z M20.5,57.7h20.8v0.1H20.5V57.7z M20.6,57.8h20.8v0.1H20.6V57.8z
				 M20.7,57.9h20.8V58L20.7,57.9L20.7,57.9z M20.8,58h20.7v0.1H20.8V58z M20.9,58.1h20.7v0.1L20.9,58.1L20.9,58.1z M21,58.2h20.7
				v0.1H21V58.2z M21.1,58.3h20.7v0.1H21.1V58.3z M21.2,58.4h20.7v0.1L21.2,58.4L21.2,58.4z M21.2,58.5H42v0.1H21.2V58.5z
				 M21.3,58.6h20.8v0.1L21.3,58.6L21.3,58.6z M21.4,58.7h20.8v0.1H21.4V58.7z M21.5,58.8h20.8v0.1H21.5V58.8z M21.6,58.9h20.7V59
				L21.6,58.9L21.6,58.9z M21.7,59h20.7v0.1H21.7V59z M21.8,59.1h20.7v0.1L21.8,59.1L21.8,59.1z M21.9,59.2h20.7v0.1H21.9V59.2z
				 M22,59.3h20.7v0.1H22V59.3z M22,59.4h20.8v0.1L22,59.4L22,59.4z M22.1,59.5h20.8v0.1H22.1V59.5z M22.2,59.6H43v0.1L22.2,59.6
				L22.2,59.6z M22.3,59.7H43v0.1H22.3V59.7z M22.4,59.8h20.7v0.1H22.4V59.8z M22.5,59.9h20.7V60L22.5,59.9L22.5,59.9z M22.6,60
				h20.7v0.1H22.6V60z M22.7,60.1h20.7v0.1L22.7,60.1L22.7,60.1z M22.8,60.2h20.7v0.1H22.8V60.2z M22.8,60.3h20.8v0.1H22.8V60.3z
				 M22.9,60.4h20.8v0.1L22.9,60.4L22.9,60.4z M23,60.5h20.8v0.1H23V60.5z M23.1,60.6h20.7v0.1L23.1,60.6L23.1,60.6z M23.2,60.7
				h20.7v0.1H23.2V60.7z M23.3,60.8H44v0.1H23.3V60.8z M23.4,60.9H44V61L23.4,60.9L23.4,60.9z M23.5,61H44v0.1H23.5V61z M23.6,61.1
				H44v0.2H23.6V61.1z M23.7,61.3H44v0.1H23.7V61.3z M23.8,61.4H44v0.1L23.8,61.4L23.8,61.4z M23.9,61.5h19.9v0.1H23.9V61.5z
				 M24,61.6h19.6v0.1L24,61.6L24,61.6z M24.1,61.7h19.3v0.1H24.1V61.7z M24.2,61.8h19v0.1h-19V61.8z M24.3,61.9h18.6V62L24.3,61.9
				L24.3,61.9z M24.3,62h18.4v0.1H24.3V62z M24.4,62.1h18.1v0.1L24.4,62.1L24.4,62.1z M24.5,62.2h17.8v0.1H24.5V62.2z M24.6,62.3H42
				v0.1H24.6V62.3z M24.7,62.4h17.1v0.1L24.7,62.4L24.7,62.4z M24.8,62.5h16.8v0.1H24.8V62.5z M24.9,62.6h16.4v0.1L24.9,62.6
				L24.9,62.6z M25,62.7h16.1v0.1H25V62.7z M25.1,62.8h15.8v0.1H25.1V62.8z M25.1,62.9h15.5V63L25.1,62.9L25.1,62.9z M25.2,63h15.2
				v0.1H25.2V63z M25.3,63.1h14.9v0.1L25.3,63.1L25.3,63.1z M25.4,63.2h14.5v0.1H25.4V63.2z M25.5,63.3h14.1v0.1H25.5V63.3z
				 M25.6,63.4h13.6v0.1L25.6,63.4L25.6,63.4z M25.7,63.5h13.2v0.1H25.7V63.5z M25.8,63.6h12.8v0.1L25.8,63.6L25.8,63.6z M25.9,63.7
				h12.4v0.1H25.9V63.7z M25.9,63.8H38v0.1H25.9V63.8z M26,63.9h11.7V64L26,63.9L26,63.9z M26.1,64h11.3v0.1H26.1V64z M26.2,64.1
				h10.9v0.1L26.2,64.1L26.2,64.1z M26.3,64.2h10.5v0.1H26.3V64.2z M26.4,64.3h10.1v0.1H26.4V64.3z M26.5,64.4h9.7v0.1L26.5,64.4
				L26.5,64.4z M26.6,64.5h9.2v0.1h-9.2V64.5z M26.6,64.6h8.6v0.1L26.6,64.6L26.6,64.6z M26.7,64.7h8v0.1h-8V64.7z M26.8,64.8h7.4
				v0.1h-7.4V64.8z M26.9,64.9h6.8V65L26.9,64.9L26.9,64.9z M27,65h6.2v0.1H27V65z M27.1,65.1h5.5v0.1L27.1,65.1L27.1,65.1z
				 M27.2,65.2h4.9v0.1h-4.9V65.2z M27.3,65.3h4v0.1h-4V65.3z M27.4,65.4h2.7v0.1L27.4,65.4L27.4,65.4z"/>
		</defs>
		<clipPath id="SVGID_26_">
			<use xlink:href="#SVGID_25_"  style="overflow:visible;"/>
		</clipPath>
		<g class="st12">
			<g>
				<defs>
					<path id="SVGID_27_" d="M35.4,51.3c-1.9,0.9-3.8,1.4-5.5,1.3c-1-6.2,2.1-15.9,3.4-19.4l-8.8-10c-1.2,0.5-2.4,1-3.4,1.4
						l-3.7,29.6l10,11.3l0.3,0c5.2,0.1,11-1.4,16.4-4.3L35.4,51.3"/>
				</defs>
				<clipPath id="SVGID_28_">
					<use xlink:href="#SVGID_27_"  style="overflow:visible;"/>
				</clipPath>
				<g class="st13">
					<g>
						<defs>
							<path id="SVGID_29_" d="M42.8,70.5L55,33l-36.9-12L5.9,58.5L42.8,70.5z M41.8,73.5l1-3l-36.9-12l-1,3L41.8,73.5z M55,33
								l1.9-5.9L20,15.2l-1.9,5.9L55,33z"/>
						</defs>
						<clipPath id="SVGID_30_">
							<use xlink:href="#SVGID_29_"  style="overflow:visible;"/>
						</clipPath>
						<g class="st14">
							<g transform="matrix(0.2,0,0,-0.2,17.4,65.54)">
								
									<image style="overflow:visible;enable-background:new    ;" width="135" height="212" id="image14" xlink:href="73C986E82C91B642.png"  transform="matrix(0.2 0 0 -0.2 17.4 65.54)">
								</image>
							</g>
						</g>
					</g>
				</g>
			</g>
		</g>
	</g>
	<g>
		<defs>
			<path id="SVGID_31_" d="M35.3,51.2h0.2v0.1h-0.2V51.2z M35,51.3h0.6v0.1H35V51.3z M34.8,51.4h0.9v0.1L34.8,51.4L34.8,51.4z
				 M34.6,51.5h1.2v0.1h-1.2V51.5z M34.4,51.6h1.5v0.1L34.4,51.6L34.4,51.6z M34.1,51.7H36v0.1h-1.9V51.7z M33.9,51.8h2.2v0.1h-2.2
				V51.8z M33.7,51.9h2.5V52L33.7,51.9L33.7,51.9z M33.4,52h2.8v0.1h-2.8V52z M33.2,52.1h3.1v0.1L33.2,52.1L33.2,52.1z M32.9,52.2
				h3.5v0.1h-3.5V52.2z M32.7,52.3h3.8v0.1h-3.8V52.3z M32.4,52.4h4.2v0.1L32.4,52.4L32.4,52.4z M32.2,52.5h4.5v0.1h-4.5V52.5z
				 M31.9,52.6h4.9v0.1L31.9,52.6L31.9,52.6z M31.6,52.7h5.3v0.1h-5.3V52.7z M31.4,52.8h5.5v0.1h-5.5V52.8z M31.1,52.9H37V53
				L31.1,52.9L31.1,52.9z M30.8,53h6.3v0.1h-6.3V53z M30.5,53.1h6.7v0.1L30.5,53.1L30.5,53.1z M30.2,53.2h7.1v0.1h-7.1V53.2z
				 M29.9,53.3h7.5v0.1h-7.5V53.3z M29.6,53.4h7.9v0.1L29.6,53.4L29.6,53.4z M29.3,53.5h8.3v0.1h-8.3V53.5z M28.9,53.6h8.8v0.1
				L28.9,53.6L28.9,53.6z M28.6,53.7h9.1v0.1h-9.1V53.7z M28.3,53.8h9.5v0.1h-9.5V53.8z M27.9,53.9h10V54L27.9,53.9L27.9,53.9z
				 M27.5,54H38v0.1H27.5V54z M27.1,54.1h11v0.1L27.1,54.1L27.1,54.1z M17.4,54.1h0.2v0.1L17.4,54.1L17.4,54.1z M17.4,54.2h0.3v0.1
				h-0.3V54.2z M26.7,54.2h11.5v0.1H26.7V54.2z M17.5,54.3h0.4v0.1h-0.4V54.3z M26.3,54.3h12v0.1h-12V54.3z M17.6,54.4H18v0.1
				L17.6,54.4L17.6,54.4z M25.8,54.4h12.6v0.1L25.8,54.4L25.8,54.4z M17.7,54.5h0.5v0.1h-0.5V54.5z M25.3,54.5h13.1v0.1H25.3V54.5z
				 M17.8,54.6h0.6v0.1L17.8,54.6L17.8,54.6z M24.8,54.6h13.7v0.1L24.8,54.6L24.8,54.6z M17.9,54.7h0.6v0.1h-0.6V54.7z M24.3,54.7
				h14.3v0.1H24.3V54.7z M18,54.8h0.7v0.1H18V54.8z M23.6,54.8h15.1v0.1H23.6V54.8z M22.8,54.9h16V55L22.8,54.9L22.8,54.9z
				 M18.1,54.9h0.7V55L18.1,54.9L18.1,54.9z M18.1,55H19v0.1h-0.9V55z M22,55h16.9v0.1H22V55z M18.2,55.1h0.9v0.1L18.2,55.1
				L18.2,55.1z M20.8,55.1H39v0.1L20.8,55.1L20.8,55.1z M18.3,55.2h20.8v0.1H18.3V55.2z M18.4,55.3h20.8v0.1H18.4V55.3z M18.5,55.4
				h20.7v0.1L18.5,55.4L18.5,55.4z M18.6,55.5h20.7v0.1H18.6V55.5z M18.7,55.6h20.7v0.1L18.7,55.6L18.7,55.6z M18.8,55.7h20.7v0.1
				H18.8V55.7z M18.8,55.8h20.8v0.1H18.8V55.8z M18.9,55.9h20.8V56L18.9,55.9L18.9,55.9z M19,56h20.8v0.1H19V56z M19.1,56.1h20.8
				v0.1L19.1,56.1L19.1,56.1z M19.2,56.2h20.7v0.1H19.2V56.2z M19.3,56.3H40v0.1H19.3V56.3z M19.4,56.4h20.7v0.1L19.4,56.4
				L19.4,56.4z M19.5,56.5h20.7v0.1H19.5V56.5z M19.6,56.6h20.7v0.1L19.6,56.6L19.6,56.6z M19.6,56.7h20.8v0.1H19.6V56.7z
				 M19.7,56.8h20.8v0.1H19.7V56.8z M19.8,56.9h20.8V57L19.8,56.9L19.8,56.9z M19.9,57h20.8v0.1H19.9V57z M20,57.1h20.7v0.1L20,57.1
				L20,57.1z M20.1,57.2h20.7v0.1H20.1V57.2z M20.2,57.3h20.7v0.1H20.2V57.3z M20.3,57.4H41v0.1L20.3,57.4L20.3,57.4z M20.4,57.5
				h20.7v0.1H20.4V57.5z M20.4,57.6h20.8v0.1L20.4,57.6L20.4,57.6z M20.5,57.7h20.8v0.1H20.5V57.7z M20.6,57.8h20.8v0.1H20.6V57.8z
				 M20.7,57.9h20.8V58L20.7,57.9L20.7,57.9z M20.8,58h20.7v0.1H20.8V58z M20.9,58.1h20.7v0.1L20.9,58.1L20.9,58.1z M21,58.2h20.7
				v0.1H21V58.2z M21.1,58.3h20.7v0.1H21.1V58.3z M21.2,58.4h20.7v0.1L21.2,58.4L21.2,58.4z M21.2,58.5H42v0.1H21.2V58.5z
				 M21.3,58.6h20.8v0.1L21.3,58.6L21.3,58.6z M21.4,58.7h20.8v0.1H21.4V58.7z M21.5,58.8h20.7v0.1H21.5V58.8z M21.6,58.9h20.7V59
				L21.6,58.9L21.6,58.9z M21.7,59h20.7v0.1H21.7V59z M21.8,59.1h20.7v0.1L21.8,59.1L21.8,59.1z M21.9,59.2h20.7v0.1H21.9V59.2z
				 M21.9,59.3h20.8v0.1H21.9V59.3z M22,59.4h20.8v0.1L22,59.4L22,59.4z M22.1,59.5h20.8v0.1H22.1V59.5z M22.2,59.6H43v0.1
				L22.2,59.6L22.2,59.6z M22.3,59.7H43v0.1H22.3V59.7z M22.4,59.8h20.7v0.1H22.4V59.8z M22.5,59.9h20.7V60L22.5,59.9L22.5,59.9z
				 M22.6,60h20.7v0.1H22.6V60z M22.7,60.1h20.7v0.1L22.7,60.1L22.7,60.1z M22.7,60.2h20.8v0.1H22.7V60.2z M22.8,60.3h20.8v0.1H22.8
				V60.3z M22.9,60.4h20.8v0.1L22.9,60.4L22.9,60.4z M23,60.5h20.7v0.1H23V60.5z M23.1,60.6h20.7v0.1L23.1,60.6L23.1,60.6z
				 M23.2,60.7h20.7v0.1H23.2V60.7z M23.3,60.8H44v0.1H23.3V60.8z M23.4,60.9H44V61L23.4,60.9L23.4,60.9z M23.5,61H44v0.1H23.5V61z
				 M23.5,61.1H44v0.1L23.5,61.1L23.5,61.1z M23.6,61.2H44v0.1H23.6V61.2z M23.7,61.3H44v0.1H23.7V61.3z M23.8,61.4H44v0.1
				L23.8,61.4L23.8,61.4z M23.9,61.5h19.9v0.1H23.9V61.5z M24,61.6h19.6v0.1L24,61.6L24,61.6z M24.1,61.7h19.3v0.1H24.1V61.7z
				 M24.2,61.8h19v0.1h-19V61.8z M24.2,61.9H43V62L24.2,61.9L24.2,61.9z M24.3,62h18.4v0.1H24.3V62z M24.4,62.1h18.1v0.1L24.4,62.1
				L24.4,62.1z M24.5,62.2h17.8v0.1H24.5V62.2z M24.6,62.3H42v0.1H24.6V62.3z M24.7,62.4h17.1v0.1L24.7,62.4L24.7,62.4z M24.8,62.5
				h16.8v0.1H24.8V62.5z M24.9,62.6h16.4v0.1L24.9,62.6L24.9,62.6z M25,62.7h16.1v0.1H25V62.7z M25,62.8h15.9v0.1H25V62.8z
				 M25.1,62.9h15.5V63L25.1,62.9L25.1,62.9z M25.2,63h15.2v0.1H25.2V63z M25.3,63.1h14.9v0.1L25.3,63.1L25.3,63.1z M25.4,63.2h14.5
				v0.1H25.4V63.2z M25.5,63.3h14.1v0.1H25.5V63.3z M25.6,63.4h13.7v0.1L25.6,63.4L25.6,63.4z M25.7,63.5H39v0.1H25.7V63.5z
				 M25.8,63.6h12.8v0.1L25.8,63.6L25.8,63.6z M25.8,63.7h12.5v0.1H25.8V63.7z M25.9,63.8H38v0.1H25.9V63.8z M26,63.9h11.7V64
				L26,63.9L26,63.9z M26.1,64h11.3v0.1H26.1V64z M26.2,64.1h10.9v0.1L26.2,64.1L26.2,64.1z M26.3,64.2h10.5v0.1H26.3V64.2z
				 M26.4,64.3h10.1v0.1H26.4V64.3z M26.5,64.4h9.7v0.1L26.5,64.4L26.5,64.4z M26.6,64.5h9.2v0.1h-9.2V64.5z M26.6,64.6h8.7v0.1
				L26.6,64.6L26.6,64.6z M26.7,64.7h8v0.1h-8V64.7z M26.8,64.8h7.4v0.1h-7.4V64.8z M26.9,64.9h6.8V65L26.9,64.9L26.9,64.9z M27,65
				h6.2v0.1H27V65z M27.1,65.1h5.6v0.1L27.1,65.1L27.1,65.1z M27.2,65.2h5v0.1h-5V65.2z M27.3,65.3h4.1v0.1h-4.1V65.3z M27.3,65.4
				h2.9v0.1L27.3,65.4L27.3,65.4z"/>
		</defs>
		<clipPath id="SVGID_32_">
			<use xlink:href="#SVGID_31_"  style="overflow:visible;"/>
		</clipPath>
		<g class="st15">
			<g>
				<defs>
					<path id="SVGID_33_" d="M35.4,51.3c-3.5,1.6-9.4,3.9-16.2,4l-1.8-1.1l10,11.3l0.3,0c5.2,0.1,11-1.4,16.4-4.3L35.4,51.3"/>
				</defs>
				<clipPath id="SVGID_34_">
					<use xlink:href="#SVGID_33_"  style="overflow:visible;"/>
				</clipPath>
				<g class="st16">
					<g>
						<defs>
							<path id="SVGID_35_" d="M35,73.9l11.5-10.3L27.3,42.3L15.9,52.6L35,73.9z M29.4,78.9l5.6-5L15.9,52.6l-5.6,5L29.4,78.9z
								 M46.5,63.6l4.9-4.4L32.3,37.9l-4.9,4.4L46.5,63.6z"/>
						</defs>
						<clipPath id="SVGID_36_">
							<use xlink:href="#SVGID_35_"  style="overflow:visible;"/>
						</clipPath>
						<g class="st17">
							<g transform="matrix(0.1,0,0,-0.1,17.4,65.54)">
								
									<image style="overflow:visible;enable-background:new    ;" width="269" height="143" id="image17" xlink:href="73C986E82C91B642.png"  transform="matrix(0.1 0 0 -0.1 17.4 65.54)">
								</image>
							</g>
						</g>
					</g>
				</g>
			</g>
		</g>
	</g>
	<g>
		<defs>
			<rect id="SVGID_37_" x="29" y="6" width="38" height="49"/>
		</defs>
		<clipPath id="SVGID_38_">
			<use xlink:href="#SVGID_37_"  style="overflow:visible;"/>
		</clipPath>
		<g class="st18">
			<g>
				<defs>
					<path id="SVGID_39_" d="M62.2,16.1c-1.5-1.7-7.2-8.3-8.8-10.1L28.8,41.3c0,0.1,8.4,9.7,8.4,9.7c3.6,4.1,9,5.1,13.1,4
						c3.4-0.9,5.8-2.9,6.9-4C67.4,39.4,69.8,24.7,62.2,16.1"/>
				</defs>
				<clipPath id="SVGID_40_">
					<use xlink:href="#SVGID_39_"  style="overflow:visible;"/>
				</clipPath>
				<g class="st19">
					<g>
						<defs>
							<path id="SVGID_41_" d="M62.2,16.1c-1.5-1.7-7.2-8.3-8.8-10.1L28.8,41.3c0,0.1,8.4,9.7,8.4,9.7c3.6,4.1,9,5.1,13.1,4
								c3.4-0.9,5.8-2.9,6.9-4C67.4,39.4,69.8,24.7,62.2,16.1"/>
						</defs>
						<clipPath id="SVGID_42_">
							<use xlink:href="#SVGID_41_"  style="overflow:visible;"/>
						</clipPath>
						<g class="st20">
							<g>
								<defs>
									<path id="SVGID_43_" d="M52.8,68.1L84,39.9L42.4-6.2L11.2,21.9L52.8,68.1z M45.8,74.3l6.9-6.3L11.2,21.9l-6.9,6.3
										L45.8,74.3z M84,39.9l7.3-6.6L49.8-12.9l-7.3,6.6L84,39.9z"/>
								</defs>
								<clipPath id="SVGID_44_">
									<use xlink:href="#SVGID_43_"  style="overflow:visible;"/>
								</clipPath>
								<g class="st21">
									<g transform="matrix(0.2,0,0,-0.2,28.8,55.44)">
										
											<image style="overflow:visible;enable-background:new    ;" width="190" height="247" id="image20" xlink:href="73C986E82C91B64E.png"  transform="matrix(0.2 0 0 -0.2 28.8 55.44)">
										</image>
									</g>
								</g>
							</g>
						</g>
					</g>
				</g>
			</g>
		</g>
	</g>
	<path class="st22" d="M43.1,8.7c-2.1,3.9-5.1,8.6-12.8,12c-0.5,0.2-1,0.4-1.5,0.6c-1.4,2.7-3.9,8.7-2.4,14.9
		c2.1,8.5,9.9,10.1,15.1,8.7c3.4-0.9,5.8-2.9,6.9-4c10.2-11.6,12.6-26.4,5-34.9c-1.9-2.2-4.4-3.8-7.2-4.8C46,2.1,44.8,5.6,43.1,8.7"
		/>
	<path class="st22" d="M8.8,47.4c0.9-8.8,7.3-18.9,9-21.4c-0.7,0.3-1.4,0.6-2,1C7.4,31.4,5.2,37.4,5.2,37.4s1.1-4.7,3.3-8.3
		c0.4-0.6,2.6-5.4,9.6-9.8C24.9,15,29.3,13.9,36.6,9c5.8-3.9,8.7-7,9.4-7.8C36.7-2,23.9,1.3,13.6,10.4C0,22.4-4.1,39.8,4.4,49.4
		c1.5,1.7,3.4,3.1,5.4,4.1C9.2,52.8,8.5,51.1,8.8,47.4"/>
	<path class="st22" d="M29.9,52.5c-3.1-0.2-7.2-2.6-8.6-9.4c-1.3-6.2,2-16.3,3.3-19.9c-1.2,0.5-2.3,0.9-3.3,1.4
		C20,26.9,14,38.1,15.1,48.1c0.5,4.7,2.6,6.7,4,7.5c5.2,0.1,10.9-1.4,16.4-4.3C33.4,52.2,31.6,52.6,29.9,52.5"/>
	<path class="st23" d="M83.7,32.8c0,4,1.6,6.4,5,6.4c2.9,0,4.9-2.3,4.9-6.6c0-1.1-0.1-2.1-0.4-3c-1.1-3.2-3.9-3.3-4.5-3.3
		C86.1,26.3,83.7,28.1,83.7,32.8z M100.9,32.6c0,5.8-3.4,12.4-12.3,12.4c-9.3,0-12.1-6.9-12.1-12.1c0-6.5,4-12.3,12.3-12.3
		C97.7,20.6,100.9,27.1,100.9,32.6"/>
	<path class="st23" d="M105.9,36.3c0.6,1,1.2,1.8,3.2,2.5c0.9,0.3,2.1,0.5,3.2,0.5c0.6,0,3.4-0.1,3.4-1.7c0-0.2,0-1-1.3-1.4
		c-0.8-0.3-5-1-5.9-1.3c-2.1-0.6-6.2-1.8-6.2-6.7c0-1,0.2-2,0.6-2.9c1.5-3.4,5.3-4.7,9.4-4.7c2.6,0,5,0.5,6.9,1.5
		c1.7,0.8,2.6,1.7,3.4,2.6l-4.5,3.8c-0.4-0.4-0.7-1-1.7-1.5c-1.3-0.6-3.1-0.8-4.2-0.8c-1.2,0-2.6,0.3-2.6,1.5c0,1.1,1.2,1.4,3.1,1.7
		c5.1,0.9,10.1,1.8,10.1,7.4c0,2.4-1,4.1-2,5.1c-2.9,2.9-7.5,2.9-8.7,2.9c-1.7,0-3.5-0.2-5.3-0.7c-3.6-1-5.3-3.1-6.3-4.3L105.9,36.3
		"/>
	<path class="st23" d="M124.9,44.2h7.2V21.4h-7.2V44.2z"/>
	<path class="st24" d="M140,37.5c-2.5-0.6-5.5-1.3-5.5-4.4c0-2.8,2.4-4.5,5.9-4.5c2.9,0,6,1.4,6.5,5l-2.8,0.4c0-0.9-0.1-1.7-1.1-2.5
		c-1-0.8-2.2-0.9-2.9-0.9c-2,0-3,1.2-3,2.2c0,1.5,1.6,1.9,3.7,2.4l1.5,0.4c1.8,0.4,5.1,1.2,5.1,4.4c0,2.5-2.2,4.8-6.4,4.8
		c-1.7,0-3.5-0.4-4.7-1.2c-0.5-0.4-2-1.6-2.3-4.1l2.9-0.4c0,0.7,0,2,1.1,3c0.9,0.8,2,0.9,3.1,0.9c2.3,0,3.6-0.9,3.6-2.5
		c0-1.7-1.3-2.1-3.2-2.4L140,37.5"/>
	<path class="st24" d="M160.4,34.4c-0.6-3-2.5-3.9-4.3-3.9c-3.5,0-4.8,2.7-4.8,6.2c0,3.2,1.3,5.8,4.7,5.8c4.3,0,4.6-4.5,4.6-6
		C160.6,35.6,160.5,34.9,160.4,34.4z M155.9,44.6c-5.3,0-7.5-3.9-7.5-7.9c0-3.4,1.7-8.2,7.6-8.2c5,0,7.4,3.9,7.3,8.1
		C163.3,41.2,160.6,44.6,155.9,44.6"/>
	<path class="st24" d="M169,29h2.9v2.1H169v13.1h-2.5V31.1H164V29h2.6l0-3.1c0-1.3,0.1-4.3,3.9-4.3c0.7,0,1.4,0.1,1.9,0.2v2
		c-0.5-0.1-1.1-0.1-1.4-0.1c-1.9,0-1.9,1.5-1.9,2.7V29"/>
	<path class="st24" d="M178.3,29h2.8v2.1h-2.8v8.7c0,1.8,0,2.6,1.1,2.6c0.5,0,1.2-0.2,1.7-0.4v2.1c-0.5,0.1-1.5,0.3-2.5,0.3
		c-3,0-3-1.5-2.9-3.5v-9.9h-2.4V29h2.4v-4.8h2.6V29"/>
	<g>
		<defs>
			<rect id="SVGID_45_" x="182" y="38" width="6.2" height="7"/>
		</defs>
		<clipPath id="SVGID_46_">
			<use xlink:href="#SVGID_45_"  style="overflow:visible;"/>
		</clipPath>
		<path class="st25" d="M185.5,41.4c0.4,0,0.7,0,0.7-0.5c0-0.4-0.3-0.4-0.7-0.4H185v0.9H185.5z M185,43.1h-0.5v-3h1.1
			c0.7,0,1.1,0.3,1.1,0.9c0,0.5-0.3,0.8-0.8,0.8l0.9,1.3h-0.5l-0.8-1.3H185V43.1z M185.5,43.8c1.2,0,2.1-0.9,2.1-2.2
			c0-1.2-0.9-2.2-2.1-2.2c-1.2,0-2.1,0.9-2.1,2.2C183.4,42.8,184.3,43.8,185.5,43.8z M182.9,41.6c0-1.5,1.2-2.6,2.7-2.6
			c1.4,0,2.6,1.1,2.6,2.6c0,1.5-1.2,2.6-2.6,2.6C184.1,44.2,182.9,43.1,182.9,41.6"/>
	</g>
</g>
</svg>
