<?xml version="1.0" encoding="utf-8"?>
<!-- Generator: Adobe Illustrator 23.0.3, SVG Export Plug-In . SVG Version: 6.00 Build 0)  -->
<svg version="1.1" id="Layer_1" xmlns="http://www.w3.org/2000/svg" xmlns:xlink="http://www.w3.org/1999/xlink" x="0px" y="0px"
	 viewBox="0 0 480 480" style="enable-background:new 0 0 480 480;" xml:space="preserve">
<style type="text/css">
	.st0{fill:#78B9EB;}
	.st1{fill:#1A6FB0;}
	.st2{fill:#FFFFFF;}
</style>
<path class="st0" d="M248,48c0-22.1-53.7-40-120-40S8,25.9,8,48s53.7,40,120,40S248,70.1,248,48z"/>
<path class="st0" d="M424,376h-28.1l2.9-2.9c16-15.9,18.7-40.9,6.5-59.9c-12.2-19-36-26.9-57.1-19c-20.7-34.2-63.6-47.6-100.2-31.5
	c-15,6.6-27.6,17.6-36.2,31.5c-21.1-7.9-44.9,0-57.1,19c-12.2,19-9.5,43.9,6.5,59.9l2.9,2.9H136c-26.5,0-48,21.5-48,48
	s21.5,48,48,48h288c26.5,0,48-21.5,48-48S450.5,376,424,376z M240,360v-8h-56v40h56v40h-56h56v-40h-56v-40h56V360z M312,432h-48v-80
	h56v80H312l16,16L312,432z M400,432h-56v-80v80H400z"/>
<path class="st0" d="M320,352h-56v80h48l-16-16l16,16h8V352z"/>
<g>
	<path class="st1" d="M352,344h-8c-4.4,0-8,3.6-8,8v80c0,4.4,3.6,8,8,8h56c4.4,0,8-3.6,8-8v-8h-56V344z"/>
	<path class="st1" d="M328,432v-80c0-4.4-3.6-8-8-8h-56c-4.4,0-8,3.6-8,8v80c0,4.4,3.6,8,8,8h44.7l13.7,13.7l11.3-11.3l-6.7-6.7
		C327.6,434.6,328,433.3,328,432z M272,424v-64h40v60.7l-10.3-10.3l-11.3,11.3l2.3,2.3H272z"/>
	<path class="st1" d="M240,344h-56c-4.4,0-8,3.6-8,8v48h56v24h-56v8c0,4.4,3.6,8,8,8h56c4.4,0,8-3.6,8-8v-48h-56v-24h56v-8
		C248,347.6,244.4,344,240,344z"/>
	<path class="st2" d="M424,368h-11.1c11.7-19.4,10.6-43.9-2.9-62.1c-13.4-18.2-36.5-26.5-58.5-21c-16.4-23.2-43.1-37-71.5-36.9
		c-8.1,0-16.2,1.2-24,3.4V48c0-31.5-64.4-48-128-48S0,16.5,0,48v240c0,31.5,64.4,48,128,48c3.8,0,7.5-0.1,11.4-0.2
		c-0.7,11.3,1.9,22.5,7.7,32.2H136c-30.9,0-56,25.1-56,56s25.1,56,56,56h288c30.9,0,56-25.1,56-56S454.9,368,424,368z M128,16
		c68.4,0,112,19,112,32s-43.6,32-112,32S16,61,16,48S59.6,16,128,16z M16,72.5C39,88,83.7,96,128,96s89-8,112-23.5V128
		c0,13-43.6,32-112,32S16,141,16,128V72.5z M16,152.5C39,168,83.7,176,128,176s89-8,112-23.5V208c0,13-43.6,32-112,32S16,221,16,208
		V152.5z M142.9,319.6c-5.1,0.2-10.1,0.4-14.9,0.4c-68.4,0-112-19-112-32v-55.5C39,248,83.7,256,128,256s89-8,112-23.5v25.1
		c-12.5,6.4-23.3,15.8-31.5,27.3C180.9,277.8,152.5,292.8,142.9,319.6z M424,464H136c-22.1,0-40-17.9-40-40s17.9-40,40-40h28.1
		c3.3,0,6.2-1.9,7.4-4.9c1.2-3,0.6-6.5-1.8-8.7l-2.9-2.9c-13.3-13.3-15.6-34-5.4-49.8c10.2-15.8,30-22.4,47.6-15.8
		c3.6,1.3,7.6,0,9.6-3.3c13-21.4,36.3-34.5,61.4-34.5s48.3,13.1,61.4,34.5c2,3.2,6,4.6,9.6,3.3c17.6-6.6,37.4,0,47.6,15.8
		c10.2,15.8,7.9,36.6-5.4,49.8l-2.9,2.9c-2.3,2.3-3,5.7-1.8,8.7c1.2,3,4.2,5,7.4,4.9H424c22.1,0,40,17.9,40,40S446.1,464,424,464z"
		/>
</g>
</svg>
