<?xml version="1.0" encoding="utf-8"?>
<!-- Generator: Adobe Illuthokiman-markerrator 23.0.3, SVG Export Plug-In . SVG Version: 6.00 Build 0)  -->
<svg version="1.1" id="Layer_1" xmlns="http://www.w3.org/2000/svg" xmlnsXlink="http://www.w3.org/1999/xlink" x="0px" y="0px"
	 viewBox="0 0 65.4 72.8" style="enable-background:new 0 0 65.4 72.8;" xmlSpace="preserve">
<style type="text/css">
	.thokiman-marker0{fill-rule:evenodd;clip-rule:evenodd;fill:#656464;}
	.thokiman-marker1{fill-rule:evenodd;clip-rule:evenodd;fill:#B7B7B7;}
	.thokiman-marker2{fill:#F90047;}
	.thokiman-marker3{fill:#3F4249;}
	.thokiman-marker4{fill-rule:evenodd;clip-rule:evenodd;fill:#078F68;}
	.thokiman-marker5{fill-rule:evenodd;clip-rule:evenodd;}
	.thokiman-marker6{fill-rule:evenodd;clip-rule:evenodd;fill:#3D3D3D;}
	.thokiman-marker7{fill-rule:evenodd;clip-rule:evenodd;fill:#797978;}
	.thokiman-marker8{fill-rule:evenodd;clip-rule:evenodd;fill:#6E6E6C;}
	.thokiman-marker9{fill-rule:evenodd;clip-rule:evenodd;fill:#6F6200;}
	.thokiman-marker10{fill-rule:evenodd;clip-rule:evenodd;fill:#9A8907;}
	.thokiman-marker11{fill-rule:evenodd;clip-rule:evenodd;fill:#ECD109;}
	.thokiman-marker12{fill-rule:evenodd;clip-rule:evenodd;fill:#656565;}
	.thokiman-marker13{fill-rule:evenodd;clip-rule:evenodd;fill:#7F7F7F;}
	.thokiman-marker14{fill-rule:evenodd;clip-rule:evenodd;fill:#A0A0A0;}
	.thokiman-marker15{fill-rule:evenodd;clip-rule:evenodd;fill:#575757;}
	.thokiman-marker16{fill-rule:evenodd;clip-rule:evenodd;fill:#4F4F4F;}
	.thokiman-marker17{fill-rule:evenodd;clip-rule:evenodd;fill:#676767;}
	.thokiman-marker18{fill-rule:evenodd;clip-rule:evenodd;fill:#747473;}
	.thokiman-marker19{fill-rule:evenodd;clip-rule:evenodd;fill:#5B5B5B;}
	.thokiman-marker20{fill-rule:evenodd;clip-rule:evenodd;fill:#474747;}
	.thokiman-marker21{fill-rule:evenodd;clip-rule:evenodd;fill:#838383;}
	.thokiman-marker22{fill-rule:evenodd;clip-rule:evenodd;fill:#696969;}
	.thokiman-marker23{fill-rule:evenodd;clip-rule:evenodd;fill:#4C4C4C;}
	.thokiman-marker24{fill-rule:evenodd;clip-rule:evenodd;fill:#FDDE01;}
	.thokiman-marker25{fill-rule:evenodd;clip-rule:evenodd;fill:#195554;}
	.thokiman-marker26{fill-rule:evenodd;clip-rule:evenodd;fill:#38AEAC;}
	.thokiman-marker27{fill-rule:evenodd;clip-rule:evenodd;fill:#51FFFC;}
	.thokiman-marker28{fill-rule:evenodd;clip-rule:evenodd;fill:#525252;}
	.thokiman-marker29{fill-rule:evenodd;clip-rule:evenodd;fill:#505050;}
	.thokiman-marker30{fill:#FFDC64;}
	.thokiman-marker31{fill:#FFC850;}
</style>
<g>
	<path class="thokiman-marker0" d="M19.5,45.6c0,0,4.1,5.9,4.5,6.9c0.5,1.1,2.6,0.3,3.4,0.7c0.9,0.3,1.8,0.5,2.7,0.6c0.6-0.5,3.3-0.2,3.3-0.2
		s0.2-0.7-0.3-0.6c-0.2,0.2-0.6,0.1-0.7-0.1c-0.4,0.3-0.4,0-0.6-0.3c-0.4,0.4-1.4,0.1-1.7-0.3c-0.5,0.5-1.5,0.2-1.9-0.5
		c-0.9,0.6-2.1-0.2-2.4-0.9c-0.6-0.1-0.8,0.7-1.7-0.1c-0.3,0.1,0.2-1.8,0.1-1.6C24.1,49.5,19.5,45.6,19.5,45.6z"/>
	<path class="thokiman-marker1" d="M23,49c-0.1,0-0.1-0.1-0.1-0.1l0,0c0-0.1,0-0.1,0-0.2l0,0c0.1,0,0.4,0.1,0.4,0.1v0.1C23.2,49,23.1,49.1,23,49z
		"/>
	<path class="thokiman-marker1" d="M23.6,50.3c-0.1-0.1-0.2-0.2-0.1-0.4l0,0c0.1-0.1,0.4,0.1,0.5,0.2v0.1C23.9,50.3,23.7,50.4,23.6,50.3z"/>
	<path class="thokiman-marker1" d="M24.5,51.8c-0.2-0.1-0.3-0.3-0.2-0.5c0.2-0.1,0.7,0.1,0.8,0.3l0,0C25,51.8,24.7,51.9,24.5,51.8z"/>
	<path class="thokiman-marker1" d="M26.7,52.3c-0.4-0.2-0.6-0.5-0.5-0.8c0.2-0.1,1.3,0.3,1.4,0.5c0,0,0,0,0,0.1s-0.1,0.1-0.2,0.2l0,0
		c-0.1,0-0.1,0.1-0.2,0.1h-0.1C27.1,52.4,26.9,52.3,26.7,52.3z"/>
	<path class="thokiman-marker1" d="M28.9,52.8c-0.3-0.1-0.4-0.4-0.4-0.7c0.2-0.1,1,0.2,1.2,0.4C29.5,52.8,29.2,52.9,28.9,52.8z"/>
	<path class="thokiman-marker1" d="M30.7,53c-0.2-0.1-0.3-0.3-0.2-0.5l0,0c0.2-0.1,0.6,0.1,0.7,0.2l-0.1,0.1c0,0.1-0.1,0.1-0.1,0.1
		C31,53,30.9,53.1,30.7,53z"/>
	<path class="thokiman-marker1" d="M32.1,53.3c-0.1-0.1-0.2-0.2-0.1-0.4l0,0c0.1-0.1,0.4,0.1,0.5,0.2v0.1C32.4,53.2,32.2,53.3,32.1,53.3z"/>
	<path class="thokiman-marker1" d="M32.7,53.3c-0.1-0.1-0.1-0.2-0.1-0.3l0,0c0.1-0.1,0.4,0,0.4,0.2c0,0,0,0,0,0.1C33,53.3,32.9,53.3,32.7,53.3z"
		/>
	<path class="thokiman-marker1" d="M33.5,53c0-0.1-0.2-0.2-0.3-0.1c-0.1,0,0,0.2,0.1,0.3C33.4,53.2,33.6,53.1,33.5,53z"/>
	<path class="thokiman-marker0" d="M46.6,44.9c0,0-3.3,6.7-3.7,7.7c-0.5,1.1-2.6,0.3-3.4,0.7c-0.9,0.3-1.8,0.5-2.7,0.6c-0.6-0.5-3.3-0.2-3.3-0.2
		s-0.2-0.7,0.3-0.6c0.2,0.2,0.6,0.1,0.7-0.1c0.4,0.3,0.4,0,0.6-0.3c0.4,0.4,1.4,0.1,1.7-0.3c0.5,0.5,1.5,0.2,1.9-0.5
		c0.9,0.6,2.1-0.2,2.4-0.9c0.6-0.1,0.8,0.7,1.7-0.1c0.3,0.1,1.1-2.5,1.2-2.3C44.5,48.4,46.6,44.9,46.6,44.9z"/>
	<path class="thokiman-marker1" d="M43.9,49.4C44,49.4,44,49.3,43.9,49.4L43.9,49.4c0.1-0.2,0.1-0.2,0.1-0.3l0,0c-0.1,0-0.4,0.1-0.4,0.1v0.1
		C43.7,49.4,43.8,49.5,43.9,49.4z"/>
	<path class="thokiman-marker1" d="M43.5,50.6c0.1-0.1,0.2-0.2,0.1-0.4l0,0c-0.1-0.1-0.4,0.1-0.5,0.2v0.1C43.2,50.6,43.3,50.7,43.5,50.6z"/>
	<path class="thokiman-marker1" d="M42.4,51.6c0.2-0.1,0.3-0.3,0.2-0.5c-0.2-0.1-0.7,0.1-0.8,0.3l0,0C41.9,51.6,42.2,51.7,42.4,51.6z"/>
	<path class="thokiman-marker1" d="M40.3,52.3c0.4-0.2,0.6-0.5,0.5-0.8c-0.2-0.1-1.3,0.3-1.4,0.5c0,0,0,0,0,0.1s0.1,0.1,0.2,0.2l0,0
		c0.1,0,0.1,0.1,0.2,0.1h0.1C40,52.4,40.1,52.3,40.3,52.3z"/>
	<path class="thokiman-marker1" d="M38.2,52.8c0.3-0.1,0.4-0.4,0.4-0.7c-0.2-0.1-1,0.2-1.2,0.4C37.5,52.8,37.9,52.9,38.2,52.8z"/>
	<path class="thokiman-marker1" d="M36.3,53c0.2-0.1,0.3-0.3,0.2-0.5l0,0c-0.2-0.1-0.6,0.1-0.7,0.2l0.1,0.1c0,0.1,0.1,0.1,0.1,0.1
		C36,53,36.2,53.1,36.3,53z"/>
	<path class="thokiman-marker1" d="M35,53.3c0.1-0.1,0.2-0.2,0.1-0.4l0,0c-0.1-0.1-0.4,0.1-0.5,0.2v0.1C34.7,53.2,34.9,53.3,35,53.3z"/>
	<path class="thokiman-marker1" d="M34.3,53.3c0.1-0.1,0.2-0.2,0.1-0.3l0,0c-0.1-0.1-0.4,0-0.4,0.2c0,0,0,0,0,0.1C34.1,53.3,34.2,53.3,34.3,53.3z
		"/>
	<path class="thokiman-marker1" d="M33.5,53c0-0.1,0.2-0.2,0.3-0.1c0.1,0,0,0.2-0.1,0.3C33.7,53.2,33.5,53.1,33.5,53z"/>
</g>
<g transform="translate(0 -1028.4)">
	<path class="thokiman-marker2" d="M33.1,1071.7c-4.9,0-8.8,4-8.8,8.8c0,1.6,0.4,3,1.1,4.3c0.1,0.2,0.2,0.4,0.4,0.6l7.3,12.8l7.3-12.8
		c0.1-0.2,0.2-0.3,0.3-0.5l0.1-0.1c0.7-1.3,1.1-2.7,1.1-4.3C41.9,1075.7,38,1071.7,33.1,1071.7z M33.1,1076.1c2.4,0,4.4,2,4.4,4.4
		s-2,4.4-4.4,4.4s-4.4-2-4.4-4.4C28.7,1078.1,30.6,1076.1,33.1,1076.1z"/>
	<path class="thokiman-marker3" d="M33.1,1075c-3.1,0-5.5,2.5-5.5,5.5c0,3.1,2.5,5.5,5.5,5.5c3.1,0,5.5-2.5,5.5-5.5S36.1,1075,33.1,1075z
		 M33.1,1077.2c1.8,0,3.3,1.5,3.3,3.3s-1.5,3.3-3.3,3.3s-3.3-1.5-3.3-3.3S31.2,1077.2,33.1,1077.2z"/>
</g>
<g>
	<path class="thokiman-marker4" d="M12.1,31.8c-2-1-3.8-1.6-6-2.2c-0.8-0.2-3.4-1.2-3.4-1.2s5.5-0.3,6.5-0.2c0.6,0.1,1.2,0.1,1.9,0.3
		c0.2,0.1,0.9,0.2,0.6,0.2c-1,0-5.7-5-5.7-5s5,1.1,6.2,1.6c0.3,0.1,0.7,0.5,0.9,0.3s-1-1.5-1.2-1.6c-0.6-0.7-4.2-6-4.2-6
		s5.1,3.2,5.9,3.7c0.1,0.1,1.2,1,1.2,0.9s-4.2-10.5-4.2-10.5s4.3,5,5.1,6.2c0.4,0.6,1.1,1.7,1.4,1.6c0.4-0.2-0.7-2.6-0.8-2.7
		c-0.4-1.2-1.6-9.8-1.6-9.8s5.5,9.3,6.3,9.3c0.4,0,0.1-2.6,0-2.9c-0.4-2.3-0.4-10.4-0.4-10.4s3.1,7.5,3.5,9.9
		c0.1,0.6,0.3,1.2,0.4,1.8c0.1,0.4,0,1.2,0.4,1.2c0.4-0.1,0.3-3.1,0.3-3.6c0-1.3,1.4-11.1,1.4-11.1s3.9,12.1,4,12.2
		c0.8,0.5,1-1.6,1.1-2.1c0.4-2.8,3.5-9.9,3.5-9.9s1.3,8.7,1.5,10.1c0.1,0.7,0.1,2.3,1.2,2.5c1.2,0.2,1.5-2.4,1.7-2.9
		c1-2.6,5.9-9.7,6.2-9.5c0,0-4.6,11.5-3.9,12.5c0.2,0.4,2-1.7,3.2-2.7c1.2-1.1,8.6-4.2,8.6-4.2S46,18.5,46.2,19.5
		c0,0.2,0.3,0,0.4-0.1c1-0.5,1.8-1.2,2.6-1.8c2.3-1.5,9.9-3.2,9.9-3.2s-9.5,11.1-9.5,12.5c0,0.2,0.4-0.1,0.5-0.2
		c0.9-0.5,1.4-1.4,2.2-1.9c1.3-0.8,8.4-3.1,8.4-3.1s-5,4.8-7,6.6c-0.9,0.8-2.6,1.9-2.4,2.2c0.1,0.1,2.4-0.7,2.8-0.9
		c1.5-0.4,9.4,0.6,9.4,0.6s-4.4,1.2-6.5,1.4c-4,0.2-7.2,1-11.1,1.8"/>
	<path class="thokiman-marker0" d="M31.2,9.2h2.4C45.4,9.2,55,17.6,55,27.9l0,0c0,10.3-9.6,18.7-21.4,18.7h-2.4c-11.8,0-21.4-8.4-21.4-18.7l0,0
		C9.8,17.5,19.4,9.2,31.2,9.2z"/>
	<path class="thokiman-marker5" d="M27,10.9c-9.5,0-17.2,7.6-17.2,17.1l1.9,4.4l0,0c0.1,0,0.1,0,0.2,0c0.1,0,0.2,0.1,0.2,0.1c1.2-0.6,2.6-1,4.1-1
		h15.6c0.2,0,0.4,0,0.5,0V11.8C30.8,11.2,28.9,10.9,27,10.9z"/>
	<path class="thokiman-marker6" d="M32.1,50.4c0,0.2-0.2-0.7-0.7,0c-0.3-0.5-0.2-0.8-0.6-0.4c-0.9-0.5-0.8-1.8-1.7-0.4c-0.5,0.2-0.9-1.9-1.9-0.6
		c-0.6-0.3-1.1-2.5-2.5-0.7c-0.6-0.5-0.4-1.7-1.5-0.4c-0.3,0.4-0.5-1.9-1.6-0.3c-0.5-0.4-0.3-1.4-1.3-0.5c-0.2,0.2-2.5-3.6-3.2-4.3
		c-0.3-0.3-1.5,0.2-1.2,2.5c-0.5,1.4-4.3-8.1-4.6-15.7c-0.2-5.2,2.1-9.4,4.8-8.8c1.2-4.3,3.6-0.4,5.3-0.5c2.1-0.2,4.6-1.9,6.9-2.3
		c2.2-0.4,4.1-0.2,4.1-0.2v32.7C32.5,50.4,32.1,50.4,32.1,50.4z"/>
	<path class="thokiman-marker7" d="M23.5,21.8c-3.5,0-6.3,3.3-6.3,7.4s2.8,7.4,6.3,7.4c0,0,4.5-0.2,5.6-2.2c-0.9,1.5-5.1,2.6-6.6,1.1
		c0,0-3.1-2.5-3.1-5.8c0-2.1,1.3-4.5,2.6-4.3c1.1,0.2,1.5-1.6,2.6-1.6c0,0-0.1,0.4,1.3,1.9c1.3,1.5,4,0.8,4,4.1c0,0.2,0,0.3,0,0.4
		c0-0.3,0.1-0.6,0.1-1c0-2.4,0.4-5.4-1.1-6.8c-1.1-0.9-3.7-0.6-5.2-0.6L23.5,21.8L23.5,21.8L23.5,21.8z"/>
	<path class="thokiman-marker8" d="M19.9,25.4c-0.6,0.3-1.2,0.8-1.7,1.3c-1.2,1.2-1.8,2.8-1.8,4.7c0,3.8,3,6.8,6.5,6.8c0,0,3.4-0.1,4.5-1.3
		c-0.8,0.4-3.2,0.7-3.2,0.7c-3.5,0-6.2-3.7-6.2-7.5C18.1,28.2,18.7,26.7,19.9,25.4z"/>
	<path class="thokiman-marker9" d="M24,26.2h0.2c2,0,3.6,1.6,3.6,3.6l0,0c0,2-1.6,3.6-3.6,3.6H24c-2,0-3.6-1.6-3.6-3.6l0,0
		C20.4,27.8,22,26.2,24,26.2z"/>
	<path class="thokiman-marker10" d="M24,26.5h0.2c1.8,0,3.2,1.5,3.2,3.3l0,0c0,1.8-1.5,3.3-3.2,3.3H24c-1.8,0-3.2-1.5-3.2-3.3l0,0
		C20.8,28,22.3,26.5,24,26.5z"/>
	<path class="thokiman-marker11" d="M24.1,26.9h0.2c1.5,0,2.8,1.3,2.8,2.9l0,0c0,1.6-1.3,2.9-2.8,2.9h-0.2c-1.5,0-2.8-1.3-2.8-2.9l0,0
		C21.3,28.2,22.5,26.9,24.1,26.9z"/>
	<path class="thokiman-marker1" d="M19.8,23.3c-0.6,0.3-4,0-3.7-1.9c-0.8,2.9,0.2,5.9,0.2,7.8c0,3.8,3,6.8,6.5,6.8c0,0,3.4-0.1,4.5-1.3
		c-0.8,0.4-3.2,0.7-3.2,0.7c-3.5,0-6.2-3.7-6.2-7.5C18,26,18.7,24.5,19.8,23.3z"/>
	<path class="thokiman-marker0" d="M28.3,25c1.1,1.2,1.7,2.8,1.7,4.5c0,0.2,0,0.3,0,0.5c-0.2,1.3-0.6,2.5-1.3,3.5c-0.2,0.3-1.6-0.6-2.5,0.1
		c0,0-0.2,1.5-1.3,1.5h-0.1c-3.8,0-6.9-3.1-6.9-6.9c0-0.7,0.1-1.3,0.3-1.9c-0.8,1.1-1.3,2.5-1.3,4c0,3.8,3.1,6.9,6.9,6.9h0.1
		c3.8,0,6.9-3.1,6.9-6.9C30.9,28.2,29.9,26.2,28.3,25z"/>
	<path class="thokiman-marker6" d="M23.1,22.7c-1.1,0-2,0.2-2.9,0.7c-0.8,0.8-1.5,1.8-1.8,3c1.2-1.7,3.3-2.9,5.6-2.9h0.1c1.6,0,3.1,0.6,4.3,1.5
		c-1.3-1.4-3.1-2.3-5.1-2.3L23.1,22.7L23.1,22.7z"/>
	<path class="thokiman-marker0" d="M25.5,19.9c-1.2,0-2.6,1.2-3.8,1.7c-1.3,0.6-4.3-2.6-4.5-1.2c0.5-0.5,1.7,1.6,3.2,2c1.8,0.4,3.9-1.1,4.9-1.1
		c0,0,2.1-0.1,3.8,1.3c1.7,1.3,2.5,6.1,2.7,7.4c0,0-0.2-1.5-0.1-2.9c0.2-1.3,0.7-2.4,0.7-2.4c0-1.5-1.5-1.5-2.6-2.5
		S27.1,19.9,25.5,19.9z"/>
	<path class="thokiman-marker5" d="M21.8,28.9c0.1,3.1,3.1,3.3,3.1,3.3s2.9-2.9,0.8-4.5s-1.2,3.1-1.2,3.1S22.3,30.7,21.8,28.9z"/>
	<path class="thokiman-marker6" d="M19.2,25.3c-0.3,0.3-0.6,0.6-0.9,1c-0.2,0.6-0.3,1.2-0.3,1.9c0,1.4,0.4,2.6,1.1,3.7v-5.7
		C19.2,25.9,19.2,25.6,19.2,25.3z"/>
	<path class="thokiman-marker5" d="M32.5,35.9c-0.1,0-0.1,0-0.2,0c-1.7,0.2-3,1.4-3,2.9v3.5c0,0.8,0.4,1.4,1.4,1.4c0,1,0.9,1.4,1.8,1.5V35.9
		L32.5,35.9z"/>
	<path class="thokiman-marker6" d="M11.2,32.5L11.2,32.5c2.3,0,4.1,1.8,4.1,4v4.8c0,2.2-1.8,4-4.1,4l0,0c-2.3,0-2.6-2.7-4.1-4v-4.8
		C8.6,35.1,9,32.5,11.2,32.5z"/>
	<path class="thokiman-marker12" d="M11.5,32.5L11.5,32.5c2.1,0,3.8,1.8,3.8,4v4.8c0,2.2-1.7,4-3.8,4l0,0c-2.1,0-2.5-2.7-3.8-4v-4.8
		C9.1,35.1,9.4,32.5,11.5,32.5z"/>
	<path class="thokiman-marker13" d="M11.9,32.5L11.9,32.5c1.9,0,3.5,1.8,3.5,4v4.8c0,2.2-1.5,4-3.5,4l0,0c-1.9,0-2.2-2.7-3.5-4v-4.8
		C9.7,35.1,9.9,32.5,11.9,32.5z"/>
	<path class="thokiman-marker14" d="M12.3,32.5L12.3,32.5c1.7,0,3,1.8,3,4v4.8c0,2.2-1.3,4-3,4l0,0c-1.7,0-1.9-2.7-3-4v-4.8
		C10.4,35.1,10.6,32.5,12.3,32.5z"/>
	<path class="thokiman-marker1" d="M11.7,32.6L11.7,32.6c2,0,3.5,1.7,3.5,3.9v4.6c0,2.1-1.6,3.9-3.5,3.9l0,0c-2,0-3.7-4.1-0.9-4l-0.1-3.6
		C7.8,37.7,9.7,32.6,11.7,32.6z"/>
	<path class="thokiman-marker6" d="M10.4,33.4c1,0,1.5,1.8,1.5,3.9l0.5,3.8c0,2.1-1.1,3.8-1.1,3.8c-1,0-1.9-4-0.5-3.9l-0.1-3.6
		C9.2,37.6,10.4,33.4,10.4,33.4z"/>
	<path class="thokiman-marker0" d="M14.2,22.1c-0.3,0-0.5,0.2-0.5,0.5c0.1,0.5,0.1,1,0.1,1.4l-0.1,0.2c0.1,0.5,0.1,0.9,0.1,1.2
		c0,0-1.3,2.7-1.7,4.5c0.1,0.2,0.2,0.2,0.4,0.2c1.7,0,0.8,1.8,1.8,1.8s1-1.8,1.8-1.8c-0.4-1.8-1.6-4.7-1.6-4.7
		c0-0.3,0.1-0.7,0.1-1.2c0-0.1-0.1-0.3-0.1-0.3c0-0.4,0.1-1,0.2-1.6C14.5,22.2,14.4,22.1,14.2,22.1z"/>
	<path class="thokiman-marker1" d="M29.1,41.4c-0.1-0.2-1-2.9-0.7-3.6c0.4-0.8-0.3-0.4-0.2-0.5s1.2-1.1,1.1-1c-0.4,0.5-0.4,1-0.3,1.2
		c0.3-0.9,2.2-1.7,3.5-2.9c-0.2,0.6-0.4,0.6-0.9,1c-0.8,0.6-2.1,1.4-2.3,2C28.8,38.6,29.2,41.5,29.1,41.4z"/>
	<path class="thokiman-marker7" d="M32.5,33.2c-0.5,0.2-1.6,0.4-2.2,0.9c-0.2-0.2-0.3-0.3-0.4-0.4c-0.1,0.5-0.7,0.1-0.9,1
		c-0.2,0.7-0.5,0.9-1.2,1.8c-0.1,0.1,1.5-1,1.9-2c0,0-0.1,0.3-0.1,0.5c-0.2,0.7-0.5,0.9-1.2,1.8c-0.1,0.1,1.4-0.9,1.9-1.9
		C29.9,36,31,35.2,31,35.2l-1.5,1c0.7,0.1,1.7-0.8,2.2-1.3C30.7,35.1,32.4,33.6,32.5,33.2z"/>
	<path class="thokiman-marker0" d="M29.1,39.6c0,0,0.3-1.1,0.1-1.4c0.1-0.4,0.7-0.5,1.2-1c0.8-0.7,1.9-1.8,2.1-1.9c-0.4,0.4-1.1,1.7-0.9,2.4
		c-0.1,0-0.1-0.1-0.2-0.4c-0.2-0.1-0.1-0.1-0.4-0.3C31.2,38.7,29.1,39.5,29.1,39.6z"/>
	<path class="thokiman-marker7" d="M29.3,39c0,0,0.3-1.1,0.1-1.4c0.1-0.4,0.6-0.3,1.1-0.7c0.8-0.7,1.8-1.9,2-2c-0.2,0.2-0.1,1.3-0.2,1.8
		c-0.2,0.8-0.6,0.9-0.7,0.1c-0.2-0.1-0.5,0.1-0.8-0.1C31,38.4,29.3,38.9,29.3,39z"/>
	<path class="thokiman-marker1" d="M32.3,45.2c-0.2,0.2-3.5-1.1-3.5-1.4c-0.2-0.8-0.2-1.4-0.2-1.4s-0.4-1.1-0.4-1.6c0-0.3-0.1-3.3-0.1-3.2
		s0.4,3,1.1,4.2c0,0.3,0.2,1.5,0.5,1.5C29.2,44,31.8,45,32.3,45.2z"/>
	<path class="thokiman-marker15" d="M29.4,39.7c0,0,0.6,0.7,0.9,1.1c0.3,0.5-0.2,1.1,0.3,1.6c0,0.2,0.2,1-0.2,1.1c-0.3,0-0.6-0.1-0.8-0.4
		c-0.3-0.5-0.3-1.4-0.3-1.4s0-0.5,0-0.8s0-0.6,0-0.9L29.4,39.7z"/>
	<path class="thokiman-marker6" d="M30.1,40.3c0,0,0.4,0.5,0.6,0.9s-0.2,0.8,0.2,1.3c0,0.2,0.1,0.8-0.1,0.8c-0.6,0-0.7-1.4-0.7-1.4s0-0.4,0-0.6
		s0-0.5,0-0.7V40.3z"/>
	<path class="thokiman-marker16" d="M30.6,40.4c0,0,0.4,0.5,0.6,0.9s-0.2,0.8,0.2,1.3c0,0.2,0.1,0.8-0.1,0.8c-0.6,0-0.7-1.4-0.7-1.4s0-0.4,0-0.6
		s0-0.5,0-0.7V40.4z"/>
	<path class="thokiman-marker17" d="M30.8,40.4c0,0,0.4,0.5,0.6,0.9s-0.2,0.8,0.2,1.3c0,0.2,0.1,0.8-0.1,0.8c-0.6,0-0.7-1.4-0.7-1.4s0-0.4,0-0.6
		s0-0.5,0-0.7V40.4z"/>
	<path class="thokiman-marker18" d="M31.1,40.5c0,0,0.4,0.5,0.6,0.9s-0.2,0.8,0.2,1.3c0,0.2,0.1,0.8-0.1,0.8c-0.6,0-0.7-1.4-0.7-1.4s0-0.4,0-0.6
		c0-0.2,0-0.5,0-0.7V40.5z"/>
	<path class="thokiman-marker14" d="M31.3,40.5c0,0,0.4,0.5,0.6,0.9s-0.2,0.8,0.2,1.3c0,0.2,0.1,0.8-0.1,0.8c-0.6,0-0.7-1.4-0.7-1.4s0-0.4,0-0.6
		c0-0.2,0-0.5,0-0.7V40.5z"/>
	<path class="thokiman-marker1" d="M32.1,42.7l0.2-0.5c0.1,0,0.2,0.1,0.2,0.2V45c0,0.1-0.3-0.2-0.4-0.2L32,45.2c-0.1,0,0-1.6,0-1.7l-0.3-1.1
		C31.7,42.1,32,42.7,32.1,42.7z"/>
	<path class="thokiman-marker0" d="M31.8,37.9l0.4,0.7c0.1,0,0.3-2.4,0.3-2.3V41c0,0.1-0.1,0.2-0.2,0.2L32,42.3c-0.1,0-0.2-1.5-0.6-1.5v-0.4
		C31.4,40.4,31.7,37.9,31.8,37.9z"/>
	<path class="thokiman-marker7" d="M30,34.7c0,0.1,0.5-1,1.1-1s1.4-0.8,1.4-0.8s-0.4,0.2-0.9,0.2c-0.5,0-1,0.5-1.3,1C30.1,34.2,30,34.5,30,34.7z"
		/>
	<path class="thokiman-marker19" d="M30.1,34.2c0,0.1,0.5-1,1.1-1s1.1-0.5,1.2-0.7s-0.2,0.1-0.7,0.1s-1,0.5-1.3,1C30.3,33.8,30.1,34,30.1,34.2z"
		/>
	<path class="thokiman-marker20" d="M30.3,33.6c0,0.1,0.5-1,1.1-1s1-0.5,1-0.5s0.1-0.1-0.5-0.1s-1,0.5-1.3,1C30.5,33.2,30.4,33.5,30.3,33.6z"/>
	<path class="thokiman-marker5" d="M31.5,32.3c0.6,0,1-0.5,1-0.5s0.1-0.1-0.5-0.1s-1.2,0.6-1.4,1.2C30.5,33.2,30.9,32.3,31.5,32.3z"/>
	<path class="thokiman-marker1" d="M31.4,31.2c0.6,0,1,0.5,1,0.5s0.1,0.1-0.5,0.1s-1.2-0.6-1.4-1.2C30.5,30.4,30.8,31.2,31.4,31.2z"/>
	<path class="thokiman-marker21" d="M31.6,30.6c0.6,0.2,0.8,0.7,0.8,0.7s0,0.1-0.5-0.1c-0.5-0.1-1.1-0.9-1-1.5C30.9,29.6,31,30.5,31.6,30.6z"/>
	<path class="thokiman-marker22" d="M31.8,30.6c0.1,0.4,0.5,0.6,0.5,0.6s0.1,0,0-0.4c-0.1-0.4-0.6-0.8-1.1-0.8C31.1,30.1,31.7,30.1,31.8,30.6z"/>
	<path class="thokiman-marker23" d="M31.9,30.2c0.1,0.4,0.5,0.6,0.5,0.6s0.1,0,0-0.4s-0.6-0.8-1.1-0.8C31.2,29.7,31.8,29.7,31.9,30.2z"/>
	<path class="thokiman-marker24" d="M28.1,36.9c-0.5,0.6-2.1,0.8-2.1,1.3c1.3-0.4,1.8-1,1.8-1L28.1,36.9z"/>
	<path class="thokiman-marker1" d="M28.1,36.9c-0.5,0.6-2.1,0.8-2.1,1.3c1.3-0.4,1.8-1,1.8-1L28.1,36.9z"/>
	<path class="thokiman-marker7" d="M28.5,36.3c-0.5,0.6-2.1,0.8-2.1,1.3c1.3-0.4,1.8-1,1.8-1S28.5,36.2,28.5,36.3z"/>
	<path class="thokiman-marker0" d="M17.4,34c0,0.3,0.7,1.5,0.7,1.5s1.7,1.9,3.1,2.5c0.5-0.2,2.9,0.6,2.8,0.5c-0.3-0.4-1.5-0.6-1.9-0.8
		c-1.4-0.7-3.6-2.8-3.6-2.8S19.5,36.6,17.4,34z"/>
	<path class="thokiman-marker7" d="M27,43.8c0,0-0.1-0.2,1.4,2.4c1.1,2,1.4,0.3,2.4,3.7c1-0.8-3.9-7.1-4.3-7.9C26.4,41.9,27,43.8,27,43.8z"/>
	<path class="thokiman-marker1" d="M27.3,43.7c0,0-0.1-0.2,1.4,2.4c1.1,2,1.1,0.4,2.1,3.8c0.2-2.4-3.6-7.2-4.1-8C26.7,41.8,27.3,43.7,27.3,43.7z"
		/>
	<path class="thokiman-marker7" d="M23.7,42c0,0,2.3,1.9,3.3,3.7c0.8,1.5,1.3,1.4,2,3.8c0.7-0.6-3-6.3-3.3-6.9C25.6,42.6,23.7,42,23.7,42z"/>
	<path class="thokiman-marker1" d="M24.9,42c0,0,1.3,1.7,2.3,3.6c0.8,1.5,1,1.5,1.7,4c1.1-1-2.7-6.4-3-7C25.9,42.4,24.9,42,24.9,42z"/>
	<path class="thokiman-marker0" d="M20.5,41c0,0,1.4,2.3,2.4,4.3c0.8,1.6,1,0.2,1.8,2.9c0.8-0.6-2.9-5.6-3.2-6.2C21.5,42,20.5,41,20.5,41z"/>
	<path class="thokiman-marker7" d="M21,41.1c0,0,1.2,2.2,2.3,4.2c0.8,1.6,0.7,0.4,1.5,3c0.9-1.4-2.6-5.7-2.9-6.3C21.8,41.9,21,41.1,21,41.1z"/>
	<path class="thokiman-marker0" d="M19.3,41c0,0,1.3,2.2,2.3,4.1c0.8,1.5,0.9,0.2,1.6,2.7c0.7-0.6-2.7-5.2-3-5.8L19.3,41z"/>
	<path class="thokiman-marker7" d="M19.6,41c0,0,1.3,2.3,2.3,4.2c0.8,1.5,0.6,0.2,1.3,2.7c0.9-1-2.3-5.2-2.6-5.8C20.5,42,19.6,41,19.6,41z"/>
	<path class="thokiman-marker0" d="M18,41.5c0,0,1.2,2,2.1,3.6c0.7,1.3,0.8,0.2,1.5,2.4c0.6-0.5-2.4-4.6-2.7-5.1L18,41.5z"/>
	<path class="thokiman-marker7" d="M18.5,41.4c0,0,1.1,2,2,3.7c0.7,1.3,0.5,0.2,1.1,2.4c1-1.5-2.1-4.6-2.3-5.1C19.2,42.3,18.5,41.4,18.5,41.4z"/>
	<path class="thokiman-marker0" d="M17.3,42c0,0,1.1,1.7,1.8,3.1c0.6,1.1,0.7,0.2,1.3,2c0.5-0.4-2.2-4-2.2-4L17.3,42z"/>
	<path class="thokiman-marker7" d="M17.6,41.7c0,0,1,2,1.8,3.4c0.6,1.1,0.4,0.2,1,2c0.9-0.8-1.8-3.9-2-4.3C18.3,42.7,17.6,41.7,17.6,41.7z"/>
	<path class="thokiman-marker0" d="M27.9,37.6c-0.9,0.9-1.2,1.5-1.8,2.1c-0.1,0.5,0,1,0.5,1.6c0.4,0,1,1.3,1.7,2.2c0.1-0.3-1.3-2.6-1.3-3.6
		c-1,0,0.2-0.9,0.5-1.3C27.4,38.6,28,37.6,27.9,37.6z"/>
	<path class="thokiman-marker1" d="M28,37.5c-0.9,0.9-1,1.5-1.6,2.2c-0.1,0.5,0,1,0.5,1.6c0.4,0,1.7,2.6,1.8,2.2c0.1-0.3-1.5-1.8-1.4-2.8
		c-1,0,0.1-1.7,0.4-2.2C27.7,38.6,28.1,37.5,28,37.5z"/>
	<path class="thokiman-marker7" d="M22.4,41c0,0,1.2-0.1,1.3-0.1c0.2-0.1,0.9-1.1,1.1-1.1c0.4,0.1,0.4,1.2,0.8,1.4c0.1,0.1,1,0.5,1.1,0.5
		S26,42,25.8,42c-0.3,0-0.7-0.7-1.5-0.1c0.5-0.7,0.7-2.1,0.4-2.1C24.5,42.2,22.4,41,22.4,41z"/>
	<path class="thokiman-marker1" d="M12.6,32.8c-0.5,0.5-0.3,2.2,0.7,2.3s1.2,1.3,1.4,1.5c1.2,1.5,3.3,2.6,5.2,3.1c0.4,0.1,4.3-0.6,4.1-0.7
		c-0.2-0.1-2-0.4-3.4-0.6c-0.1,0-0.1-0.1-0.2-0.1c-1.1-0.8-2.3-1.8-2.9-3.1c-0.3-0.5-0.9-2.9-1.3-3.3c-0.1-0.1,1.3,3.7-0.1,2
		c-0.2,0.3,0.3,0.9,0.4,1.2c0.6,1.4,1.6,2.4,2.7,3.1c-0.6-0.1-1-0.1-1.2,0c-0.5,0.2-1.5-1.7-1.7-1.9c-0.2-0.2-0.7-0.8-0.5-1.4
		c0.2-0.6-0.3-1.5-0.6-1.8c-0.2-0.3-0.6,1.4-0.9,1.1C14.3,34.1,12.6,32.8,12.6,32.8z"/>
	<path class="thokiman-marker7" d="M28.3,43.8c0,0,1.7,2.9,2.2,3.4c0.2,0.5,0.8,3.2,0.8,3.2c0.1,0,0.1-1.6,0.1-1.7c0.4-2.7-1.2-3.1-1.4-3.1
		C30.1,45.5,28.3,43.8,28.3,43.8z"/>
	<path class="thokiman-marker1" d="M29.3,44.7c0.4,0.4,1.1,1.8,1.6,2.3c0.2,0.5,0.5,3.2,0.5,3.2c0.1,0,0.5-1.7,0.5-1.7c0.4-2.7-0.9-2.5-1.2-3.5
		c0,0-0.2,0.2-0.5,0.2C29.8,45.1,29.2,44.7,29.3,44.7z"/>
	<path class="thokiman-marker7" d="M32,45.4c-0.1,0.4-0.2,1.7-0.2,1.7s0,1.4,0.1,1.9c0,0.1,0.2,1.4,0.2,1.4c0.1,0,0.2-1.3,0.2-1.3l-0.3-2
		C32,47.1,32,45,32,45.4z"/>
	<path class="thokiman-marker1" d="M32.3,45.9c-0.1,0.4-0.3,1.2-0.3,1.2s0,1.4,0.1,1.9c0,0.1-0.1,1.4,0,1.4c0.1,0,0.4-1.3,0.4-1.3l-0.1-1.9
		C32.4,47.1,32.4,45.5,32.3,45.9z"/>
	<path class="thokiman-marker25" d="M18,17.7c2.1-4.2,5.7-1.3,5-6.7c0.8-0.7,6-5.1,6.1-5.1l-0.3,0.9c-0.1,0.9,0.2,1.7,0.5,2.6
		c1,2.7,2,7.1-1.6,8.4c-2.5,0.9-4.7,0.7-7.2,0.3C20.2,18.1,17.9,18,18,17.7z"/>
	<path class="thokiman-marker26" d="M18.1,17.7c1.9-2.9,5.8-1.2,5.1-4.9c0.7-0.5,5.9-6.9,5.9-6.9l-1.2,4.3c-0.1,0.6,0.7,2.4,0.9,3
		c0.9,1.8,1.3,3.7-1.9,4.5c-2.2,0.6-4.3,0.5-6.6,0.2C20,17.9,18,17.8,18.1,17.7z"/>
	<path class="thokiman-marker27" d="M18.1,17.7c1.8-0.6,7.1-0.9,6.6-4.6C25.3,12.6,29,6,29,6s-1.8,4.9-1.8,5c-0.1,0.6-0.8,1.7-0.6,2.2
		c0.7,1.8-1.5,3.9-1.5,3.9s-3.4,1-5.2,0.7C19.7,17.7,18,17.7,18.1,17.7z"/>
	<path class="thokiman-marker25" d="M12.8,23.5c-0.1,0.2,0.4-5,0.4-6c0.1-2.2,0.9-4.7,2.4-6.4c0.5-0.5,4.9-4.2,5.4-4.7c0.2-0.2-4.5,4.4-4.6,5.7
		c0,2.2,1.5,4.7,0.4,6.7c-0.2,0.4-1.3,1.2-2.2,1.1C13.8,19.8,12.8,23.4,12.8,23.5z"/>
	<path class="thokiman-marker25" d="M17.9,14.5c-0.2-0.3,0.7-3.7,1.1-4.1c0,0,0-0.1,0.1-0.1c0.3,0,0.9,0.7,1.2,0.9c2,1.7-0.2,3-1.8,3.4
		C18.2,14.6,18,14.6,17.9,14.5z"/>
	<path class="thokiman-marker1" d="M18.2,15.2c0,0,1.3-0.2,1.5-0.2c1.1-0.6,2-0.4,2.6-1.7c0.1-0.2,0.3-1.4,0.1-1.4c-0.1,0-0.7,1.1-1.6,2
		C19.8,14.7,18.2,15.2,18.2,15.2z"/>
	<path class="thokiman-marker28" d="M19.3,14.7c0,0,1.3-0.2,1.5-0.3c1.1-0.6,1.7-2.5,1.5-2.5c-0.1,0-0.5,1.2-0.7,1.5
		C20.8,14.3,19.3,14.7,19.3,14.7z"/>
	<path class="thokiman-marker0" d="M12,30c-0.2,0.9-0.2,1.6,0.4,1.6c1.7,0,0.8,1.8,1.8,1.8s1-1.8,1.8-1.8c0.3,0,0.2-0.6,0-1.4
		c-0.8,0-0.8,1.8-1.8,1.8s-0.2-1.8-1.8-1.8C12.2,30.2,12.1,30.1,12,30z"/>
	<path class="thokiman-marker1" d="M14.2,20.6c-0.6,0-0.6,1.1-0.5,2.1c0.1-0.3,0.2-0.5,0.5-0.5c0.2,0,0.4,0.1,0.4,0.3
		C14.7,21.5,14.8,20.6,14.2,20.6z"/>
	<path class="thokiman-marker0" d="M13.6,24.3C13.3,24.9,11.4,29,12,30c0.4-1.8,1.7-4.5,1.7-4.5C13.7,25.2,13.7,24.7,13.6,24.3z"/>
	<path class="thokiman-marker1" d="M14.5,24.3c-0.1,0.5-0.1,0.9-0.1,1.2c0,0,1.2,2.9,1.6,4.7l0,0C16.8,30.2,14.8,25.1,14.5,24.3z"/>
	<path class="thokiman-marker1" d="M13.7,25.5l0.6-1.5h-0.5l-0.1,0.3V25.5z"/>
	<path class="thokiman-marker1" d="M12,30l1.7-4.4h0.6V32c0,0-0.3-1.8-0.8-2.3C12.9,29.2,12,30,12,30z"/>
	<path class="thokiman-marker26" d="M12.8,23.3c0,0.3,1.1-6.1,1.8-7.7c0.3-0.7,0.8-0.2,1.2-0.8c0-0.1,0.6-2.4,0.6-2.4s0.4,2.9,0.4,4.4
		c-0.1,2.2-0.1,2.2-0.3,2.4c-0.6,0.6-1.2-0.5-1.9-0.2C14.4,19,12.8,22.9,12.8,23.3z"/>
	<path class="thokiman-marker27" d="M13.6,21c0,0.2,0.6-3.4,1-3.8c0,0,1.1,0.6,1.1,0c0.8,0.4,0.3-0.8,0.4-1c0.3-0.6,0.1-2.5,0.1-2.5
		s0.6,1.6,0.5,2.5c-0.1,1.4,0.4,1.7-0.5,1.6c-0.2,1.5-0.8,0-1.5,0.2C14.5,18.2,13.6,20.8,13.6,21z"/>
	<path class="thokiman-marker26" d="M18,14.4l1-4.2l0.9,3.2c0,0-0.5-0.4-0.7,0.4c-0.1,0.4-0.4-0.4-0.7-0.1C18.3,14.1,18,14.4,18,14.4z"/>
	<path class="thokiman-marker27" d="M20.9,12.3l-1.6-1.8l0.5,1.9c0,0,0.1-0.3,0.4,0c0.2,0.2,0.1-0.3,0.3-0.3C20.7,12.2,20.9,12.3,20.9,12.3z"/>
	<path class="thokiman-marker7" d="M15.6,35.2c0,0-0.2,1.2-0.2,1.5c0.5,0.5,2.7,2.1,3.3,2.7c0.4,0.4,2.8-0.4,3.1-0.6c0.4,0-3.4,0.2-4.7-0.9
		C16.1,37,15.6,35.2,15.6,35.2z"/>
	<path class="thokiman-marker29" d="M14.5,34.2c-0.1,0.1,0.1,2,0.1,2c0.2,0,0.6-1.1,1.2-1.2c0.2,0-0.4,0.2-0.8-0.1C14.7,34.8,14.6,34.2,14.5,34.2
		z"/>
	<path class="thokiman-marker7" d="M16.8,34.5c0.1-1,0.3,1,1.2,2.1c0.8,1.1,1.8,2.1,1.8,2.1s-1.4-0.9-2.1-1.7s-1.2-1.8-1.2-1.8l-0.3-0.5l1,1.3
		C17.3,36,16.8,34.7,16.8,34.5z"/>
	<path class="thokiman-marker0" d="M16.4,41.1c-0.1,0-0.2,0.1-0.3,0.1c-0.1,1.4-2.4,1.1-2,1.8c0.5,0.9,1.4-0.4,2.1,0.3c0.5-0.6,1.2-1.3,1.5-1.8
		C17.3,41.5,16.9,41.4,16.4,41.1z"/>
	<path class="thokiman-marker24" d="M17.4,40.9C17.4,40.9,17.3,40.9,17.4,40.9C17.3,40.9,17.4,40.9,17.4,40.9L17.4,40.9z M17.1,41
		c-0.2,0-0.4,0.1-0.7,0.2C16.7,41,16.9,41,17.1,41z"/>
	<path class="thokiman-marker1" d="M17.3,40.6c-0.2,0-0.6,0.5-0.9,0.6c0.5,0.3,1.2,0.2,1.5,0.2C18.1,41,17.3,40.6,17.3,40.6z"/>
	<path class="thokiman-marker7" d="M13.7,36.7c-0.3,0-0.6,0.4-0.8,0.7c0,0,0.7,0.4,0.8,0.6c0.1,0.3-0.5,0.5-0.5,0.5c0.2,2.1,1,0.5,1.1,0.5
		c1.1,0.9,1.7,1.5,2.3,1.9c0.3-0.1,0.5-0.2,0.7-0.2c0.1,0,0.2,0,0.2,0h0.1l0,0c0.1,0,0.2,0,0.2,0c0.2,0.1,0.2,0.3,0,0.6
		c1.5,0.1,1.7-1.3,3.8-0.1c1.1,0.7,1.8,3,2.9,3s2.8,4.4,2.8,4.4s-0.4-2.7-1-3.6c-1.1-1.7-3.2-3.6-3.3-3.9c-0.5-0.2-1.3-0.2-1.3-0.3
		c1.6,0,0.6-1.1,1.5-1c1.3,0.3,4.3-2.2,4.3-2.2l-2.8,0.8l-3.3,2.2c0,0-0.8-0.9-1.7-1c-0.5-0.1-1.2,0.6-1.6,0.5
		c-0.7-0.2-2.9-1.7-2.7-3c-0.1,0-0.3,1.2-1.1-0.2C14.1,36.8,13.9,36.7,13.7,36.7z"/>
	<path class="thokiman-marker7" d="M10.6,33.4c0,0-1.6,4.3,0.4,4l0.2,3.6c-2-0.1-1.2,3.9,0.2,3.9c0,0,2.1-1.6,2.1-3.8l-0.4-2.3
		c-0.5-0.4-1-0.8-0.4-0.8c0,0,0.1-0.1,0.2-0.3L12.8,37C12.6,34.8,12,33.4,10.6,33.4z"/>
	<path class="thokiman-marker1" d="M12.9,38c-0.1,0.1-0.2,0.2-0.2,0.2c-0.5,0-0.1,0.3,0.4,0.6L12.9,38z"/>
	<path class="thokiman-marker0" d="M21.1,41l5.5,5.4l-1.1-1.9c0,0-1.8-1.2-2.2-2.2c-0.4-0.9-0.5-0.9-0.5-0.9L21.1,41z"/>
	<path class="thokiman-marker1" d="M27.1,38c0,0-1.6,0.5-2.6,1.3c-1,0.7-1.8,0.8-1.8,0.8l1.8-1.2L27.1,38z"/>
	<path class="thokiman-marker6" d="M32.2,38.5c0,0-0.4,0.2-0.5,0.5c-0.1,0.4-0.2,1.4-0.2,1.4l0.7,1.1V38.5z"/>
	<path class="thokiman-marker7" d="M32.1,42.7L32,44.1l0.1,0.6l0.3-1.9L32.1,42.7z"/>
	<path class="thokiman-marker7" d="M28.6,43.2l-1.5-3.6l0.4-0.8L28.6,43.2z"/>
	<path class="thokiman-marker0" d="M25.2,47.4c-0.5-1.2-1.4-3.1-1.2-2.8c0.6,0.6,1,0.7,1.6,1.5c0.6,0.9,1,1.9,1,1.9S25.4,47.9,25.2,47.4z"/>
	<path class="thokiman-marker7" d="M27.5,48.4c-0.3-0.7-0.8-2-0.7-1.8c0.4,0.4,0.5,0.5,0.9,1c0.4,0.6,0.6,1.2,0.6,1.2S27.7,48.7,27.5,48.4z"/>
	<path class="thokiman-marker7" d="M29.6,49.1c-0.3-0.7-0.8-2-0.7-1.8c0.4,0.4,0.5,0.5,0.9,1c0.4,0.6,0.6,1.2,0.6,1.2S29.7,49.4,29.6,49.1z"/>
	<path class="thokiman-marker1" d="M25.3,47.5c-0.2-1.2-1.5-3.1-1.3-2.8c0.6,0.6,0.7,0.8,1.4,1.7c0.6,0.9,1.1,1.7,1.1,1.7S25.4,48,25.3,47.5z"/>
	<path class="thokiman-marker1" d="M27.6,48.4c-0.1-0.8-0.9-2-0.7-1.8c0.4,0.4,0.4,0.5,0.8,1.1s0.7,1.2,0.7,1.2S27.7,48.8,27.6,48.4z"/>
	<path class="thokiman-marker1" d="M29.7,49.1c-0.1-0.8-0.9-2-0.7-1.8c0.4,0.4,0.4,0.5,0.8,1.1s0.7,1.2,0.7,1.2S29.7,49.4,29.7,49.1z"/>
	<path class="thokiman-marker7" d="M31.1,45.1c0,0,0.1,0.3,0.2,0.5c0.2,0.2,0.4,0.2,0.4,0.2l0.1-0.5L31.1,45.1z"/>
	<path class="thokiman-marker7" d="M29.1,44.3l0.9,0.6c0,0,0.1,0.2,0.3,0.1c0.4,0,0.3-0.2,0.3-0.2L29.1,44.3z"/>
	<path class="thokiman-marker1" d="M20.9,46.9c-0.1,0-0.1,0-0.2,0.1l0,0c0,0.1-0.1,0.1-0.1,0.2l0,0c0.1,0.1,0.4,0.1,0.5,0.1v-0.1
		C21.2,47,21.1,46.9,20.9,46.9z"/>
	<path class="thokiman-marker1" d="M22.3,47.2c-0.2,0-0.3,0.2-0.3,0.3l0,0c0.1,0.1,0.4,0.1,0.5,0.1v-0.1C22.6,47.4,22.4,47.2,22.3,47.2z"/>
	<path class="thokiman-marker1" d="M23.8,47.6c-0.2,0-0.4,0.2-0.4,0.4c0.1,0.1,0.7,0.2,0.9,0.1l0,0C24.2,47.9,24,47.6,23.8,47.6z"/>
	<path class="thokiman-marker1" d="M25.8,48.2c-0.4,0-0.8,0.3-0.8,0.7c0.2,0.2,1.4,0.3,1.6,0.1c0,0,0,0,0-0.1s0-0.2-0.1-0.3c0,0,0,0,0-0.1
		s-0.1-0.1-0.1-0.2l-0.1-0.1C26.2,48.2,26,48.2,25.8,48.2z"/>
	<path class="thokiman-marker1" d="M27.9,49.1c-0.3,0-0.6,0.2-0.7,0.6c0.2,0.2,1.1,0.2,1.3,0.1C28.5,49.4,28.2,49.1,27.9,49.1z"/>
	<path class="thokiman-marker1" d="M29.8,49.5c-0.2,0-0.4,0.2-0.4,0.5l0,0c0.1,0.2,0.7,0.2,0.8,0.1V50c0-0.1,0-0.1,0-0.2
		C30.1,49.7,30,49.5,29.8,49.5z"/>
	<path class="thokiman-marker1" d="M30.9,50.2c-0.2,0-0.3,0.2-0.3,0.3l0,0c0.1,0.1,0.4,0.2,0.5,0.1v-0.1C31.2,50.3,31.1,50.2,30.9,50.2z"/>
	<path class="thokiman-marker1" d="M31.7,50.4c-0.1,0-0.2,0.1-0.2,0.2l0,0c0.1,0.1,0.4,0.2,0.5,0v-0.1C32,50.5,31.8,50.4,31.7,50.4z"/>
	<path class="thokiman-marker1" d="M32.5,50.7c-0.1,0.1-0.3,0.1-0.4,0c-0.1-0.1,0.1-0.2,0.2-0.2C32.4,50.4,32.5,50.6,32.5,50.7z"/>
	<path class="thokiman-marker1" d="M18.1,18c0.2,0.1,1.7,0.7,1.9,0.8c0.5,0.1,1,0.1,1.5,0.1c0.8,0,1.6,0.1,2.3,0c0.1,0,0.7-0.1,0.7-0.1l-0.3,0.1
		c-0.3,0.1-0.6,0.2-1,0.2c-0.5,0-1,0.1-1.4,0.1c-0.6,0-1.1,0-1.6-0.1C20,19,18,17.9,18.1,18z"/>
	<path class="thokiman-marker7" d="M18.1,18c0.2,0.1,1.6,0.9,1.8,1c0.6,0,1,0,1.6,0c0.8,0,1.6,0.1,2.3,0c0.1,0,0.7-0.3,0.7-0.3L24.2,19
		c-0.3,0.1-0.6,0.2-1,0.2c-0.5,0-1,0.1-1.4,0.1c-0.6,0-1.1,0-1.6-0.1C20,19.2,18.1,17.9,18.1,18z"/>
	<path class="thokiman-marker0" d="M18.1,18c0.2,0.1,1.6,1.1,1.8,1.2c0.5,0.1,1,0.1,1.5,0.1c0.8,0,1.6,0.1,2.3,0c0.1,0,0.7-0.5,0.7-0.5l-0.3,0.5
		c-0.3,0.1-0.6,0.2-1,0.2c-0.5,0-1,0.1-1.4,0.1c-0.6,0-1.1,0-1.6-0.1C20,19.4,18,17.9,18.1,18z"/>
	<path class="thokiman-marker0" d="M14.9,20.4c0,0,0.7-0.2,0.8-0.3c0.1,0,0.4-0.3,0.4-0.3s-0.7,0.7-0.8,0.7C15.2,20.5,14.9,20.4,14.9,20.4z"/>
	<path class="thokiman-marker7" d="M17.4,15.9c0,0,0.1,1.3,0,2c0,0.2-0.1,0.3-0.1,0.5c-0.1,0.1-0.2,0.3-0.2,0.3s0.4-0.4,0.4-0.5
		c0.3-0.5,0.3-1.1,0.3-1.7c0-0.2-0.1-0.4-0.2-0.5C17.6,16,17.4,15.9,17.4,15.9z"/>
	<path class="thokiman-marker1" d="M18.1,16.5c0.1-0.4,0.8-0.7,1.1-0.9c0.1-0.1,0.8-0.3,0.8-0.3s-1.3,0.9-1.5,1.1L18,17.1
		C18,17.1,18.1,16.5,18.1,16.5z"/>
	<path class="thokiman-marker7" d="M18.1,16.5c0.1-0.4,0.6-0.8,0.9-1c0.2-0.1,0.9-0.3,0.7-0.2c-0.2,0.1-0.9,0.6-1.1,0.8c0,0-0.5,1.1-0.6,1.1
		C18,17.1,18.1,16.5,18.1,16.5z"/>
	<path class="thokiman-marker0" d="M18,16.5c0-0.4,0.9-1.3,1.2-1.2c0.2,0.1-0.3,0.1-0.4,0.3c-0.1,0.2-0.4,0.5-0.5,0.7c0,0.1-0.3,0.9-0.3,0.9
		C18,17.1,18,16.5,18,16.5z"/>
	<path class="thokiman-marker5" d="M37.9,10.9C47.4,10.9,55,18.6,55,28l-1.9,4.4l0,0c-0.1,0-0.1,0-0.2,0c-0.1,0-0.2,0.1-0.2,0.1
		c-1.2-0.6-2.6-1-4.1-1H32.9c-0.2,0-0.4,0-0.5,0V11.8C34.1,11.2,36,10.9,37.9,10.9z"/>
	<path class="thokiman-marker6" d="M32.8,50.4c0,0.2,0.2-0.7,0.7,0c0.3-0.5,0.2-0.8,0.6-0.4c0.9-0.5,0.8-1.8,1.7-0.4c0.5,0.2,0.9-1.9,1.9-0.6
		c0.6-0.3,1.1-2.5,2.5-0.7c0.6-0.5,0.4-1.7,1.5-0.4c0.3,0.4,0.5-1.9,1.6-0.3c0.5-0.4,0.3-1.4,1.3-0.5c0.2,0.2,2.5-3.6,3.2-4.3
		c0.3-0.3,1.5,0.2,1.2,2.5c0.5,1.4,4.3-8.1,4.6-15.7c0.2-5.2-2.1-9.4-4.8-8.8c-1.2-4.3-3.6-0.4-5.3-0.5c-2.1-0.2-4.6-1.9-6.9-2.3
		c-2.2-0.4-4.1-0.2-4.1-0.2v32.7C32.4,50.4,32.8,50.4,32.8,50.4z"/>
	<path class="thokiman-marker7" d="M41.4,21.8c3.5,0,6.3,3.3,6.3,7.4s-2.8,7.4-6.3,7.4c0,0-4.5-0.2-5.6-2.2c0.9,1.5,5.1,2.6,6.6,1.1
		c0,0,3.1-2.5,3.1-5.8c0-2.1-1.3-4.5-2.6-4.3c-1.1,0.2-1.5-1.6-2.6-1.6c0,0,0.1,0.4-1.3,1.9c-1.3,1.5-4,0.8-4,4.1c0,0.2,0,0.3,0,0.4
		c0-0.3-0.1-0.6-0.1-1c0-2.4-0.4-5.4,1.1-6.8c1.1-0.9,3.7-0.6,5.2-0.6L41.4,21.8L41.4,21.8L41.4,21.8z"/>
	<path class="thokiman-marker8" d="M45,25.4c0.6,0.3,1.2,0.8,1.7,1.3c1.2,1.2,1.8,2.8,1.8,4.7c0,3.8-3,6.8-6.5,6.8c0,0-3.4-0.1-4.5-1.3
		c0.8,0.4,3.2,0.7,3.2,0.7c3.5,0,6.2-3.7,6.2-7.5C46.8,28.2,46.2,26.7,45,25.4z"/>
	<path class="thokiman-marker9" d="M40.8,26.2h-0.2c-2,0-3.6,1.6-3.6,3.6l0,0c0,2,1.6,3.6,3.6,3.6h0.2c2,0,3.6-1.6,3.6-3.6l0,0
		C44.5,27.8,42.8,26.2,40.8,26.2z"/>
	<path class="thokiman-marker10" d="M40.8,26.5h-0.2c-1.8,0-3.2,1.5-3.2,3.3l0,0c0,1.8,1.5,3.3,3.2,3.3h0.2c1.8,0,3.2-1.5,3.2-3.3l0,0
		C44.1,28,42.6,26.5,40.8,26.5z"/>
	<path class="thokiman-marker11" d="M40.8,26.9h-0.2c-1.5,0-2.8,1.3-2.8,2.9l0,0c0,1.6,1.3,2.9,2.8,2.9h0.2c1.5,0,2.8-1.3,2.8-2.9l0,0
		C43.6,28.2,42.3,26.9,40.8,26.9z"/>
	<path class="thokiman-marker1" d="M45,23.3c0.6,0.3,4,0,3.7-1.9c0.8,2.9-0.2,5.9-0.2,7.8c0,3.8-3,6.8-6.5,6.8c0,0-3.4-0.1-4.5-1.3
		c0.8,0.4,3.2,0.7,3.2,0.7c3.5,0,6.2-3.7,6.2-7.5C46.8,26,46.2,24.5,45,23.3z"/>
	<path class="thokiman-marker0" d="M36.5,25c-1.1,1.2-1.7,2.8-1.7,4.5c0,0.2,0,0.3,0,0.5c0.2,1.3,0.6,2.5,1.3,3.5c0.2,0.3,1.6-0.6,2.5,0.1
		c0,0,0.2,1.5,1.3,1.5H40c3.8,0,6.9-3.1,6.9-6.9c0-0.7-0.1-1.3-0.3-1.9c0.8,1.1,1.3,2.5,1.3,4c0,3.8-3.1,6.9-6.9,6.9h-0.1
		c-3.8,0-6.9-3.1-6.9-6.9C33.9,28.2,34.9,26.2,36.5,25z"/>
	<path class="thokiman-marker6" d="M41.8,22.7c1.1,0,2,0.2,2.9,0.7c0.8,0.8,1.5,1.8,1.8,3c-1.2-1.7-3.3-2.9-5.6-2.9h-0.1c-1.6,0-3.1,0.6-4.3,1.5
		c1.3-1.4,3.1-2.3,5.1-2.3L41.8,22.7L41.8,22.7z"/>
	<path class="thokiman-marker0" d="M39.4,19.9c1.2,0,2.6,1.2,3.8,1.7c1.3,0.6,4.3-2.6,4.5-1.2c-0.5-0.5-1.7,1.6-3.2,2c-1.8,0.4-3.9-1.1-4.9-1.1
		c0,0-2.1-0.1-3.8,1.3c-1.7,1.3-2.5,6.1-2.7,7.4c0,0,0.2-1.5,0.1-2.9c-0.2-1.3-0.7-2.4-0.7-2.4c0-1.5,1.5-1.5,2.6-2.5
		C36.1,21.2,37.8,19.9,39.4,19.9z"/>
	<path class="thokiman-marker5" d="M43.1,28.9C43,32,40,32.2,40,32.2s-2.9-2.9-0.8-4.5c2.1-1.6,1.2,3.1,1.2,3.1S42.5,30.7,43.1,28.9z"/>
	<path class="thokiman-marker6" d="M45.6,25.3c0.3,0.3,0.6,0.6,0.9,1c0.2,0.6,0.3,1.2,0.3,1.9c0,1.4-0.4,2.6-1.1,3.7v-5.7
		C45.7,25.9,45.7,25.6,45.6,25.3z"/>
	<path class="thokiman-marker5" d="M32.4,35.9c0.1,0,0.1,0,0.2,0c1.7,0.2,3,1.4,3,2.9v3.5c0,0.8-0.4,1.4-1.4,1.4c0,1-0.9,1.4-1.8,1.5V35.9
		L32.4,35.9z"/>
	<path class="thokiman-marker6" d="M53.7,32.5L53.7,32.5c-2.3,0-4.1,1.8-4.1,4v4.8c0,2.2,1.8,4,4.1,4l0,0c2.3,0,2.6-2.7,4.1-4v-4.8
		C56.2,35.1,55.9,32.5,53.7,32.5z"/>
	<path class="thokiman-marker12" d="M53.4,32.5L53.4,32.5c-2.1,0-3.8,1.8-3.8,4v4.8c0,2.2,1.7,4,3.8,4l0,0c2.1,0,2.5-2.7,3.8-4v-4.8
		C55.8,35.1,55.5,32.5,53.4,32.5z"/>
	<path class="thokiman-marker13" d="M53,32.5L53,32.5c-1.9,0-3.5,1.8-3.5,4v4.8c0,2.2,1.5,4,3.5,4l0,0c1.9,0,2.2-2.7,3.5-4v-4.8
		C55.2,35.1,54.9,32.5,53,32.5z"/>
	<path class="thokiman-marker14" d="M52.6,32.5L52.6,32.5c-1.7,0-3,1.8-3,4v4.8c0,2.2,1.3,4,3,4l0,0c1.7,0,1.9-2.7,3-4v-4.8
		C54.5,35.1,54.2,32.5,52.6,32.5z"/>
	<path class="thokiman-marker1" d="M53.2,32.6L53.2,32.6c-2,0-3.5,1.7-3.5,3.9v4.6c0,2.1,1.6,3.9,3.5,3.9l0,0c2,0,3.7-4.1,0.9-4l0.1-3.6
		C57.1,37.7,55.2,32.6,53.2,32.6z"/>
	<path class="thokiman-marker6" d="M54.5,33.4c-1,0-1.5,1.8-1.5,3.9l-0.5,3.8c0,2.1,1.1,3.8,1.1,3.8c1,0,1.9-4,0.5-3.9l0.1-3.6
		C55.6,37.6,54.5,33.4,54.5,33.4z"/>
	<path class="thokiman-marker0" d="M50.7,22.1c0.3,0,0.5,0.2,0.5,0.5c-0.1,0.5-0.1,1-0.1,1.4l0.1,0.2c-0.1,0.5-0.1,0.9-0.1,1.2
		c0,0,1.3,2.7,1.7,4.5c-0.1,0.2-0.2,0.2-0.4,0.2c-1.7,0-0.8,1.8-1.8,1.8s-1-1.8-1.8-1.8c0.4-1.8,1.6-4.7,1.6-4.7
		c0-0.3-0.1-0.7-0.1-1.2c0-0.1,0.1-0.3,0.1-0.3c0-0.4-0.1-1-0.2-1.6C50.3,22.2,50.5,22.1,50.7,22.1z"/>
	<path class="thokiman-marker1" d="M35.7,41.4c0.1-0.2,1-2.9,0.7-3.6c-0.4-0.8,0.3-0.4,0.2-0.5s-1.2-1.1-1.1-1c0.4,0.5,0.4,1,0.3,1.2
		c-0.3-0.9-2.2-1.7-3.5-2.9c0.2,0.6,0.4,0.6,0.9,1c0.8,0.6,2.1,1.4,2.3,2C36,38.6,35.7,41.5,35.7,41.4z"/>
	<path class="thokiman-marker7" d="M32.4,33.2c0.5,0.2,1.6,0.4,2.2,0.9c0.2-0.2,0.3-0.3,0.4-0.4c0.1,0.5,0.7,0.1,0.9,1c0.2,0.7,0.5,0.9,1.2,1.8
		c0.1,0.1-1.5-1-1.9-2c0,0,0.1,0.3,0.1,0.5c0.2,0.7,0.5,0.9,1.2,1.8c0.1,0.1-1.4-0.9-1.9-1.9c0.4,1.1-0.7,0.3-0.7,0.3l1.5,1
		c-0.7,0.1-1.7-0.8-2.2-1.3C34.1,35.1,32.5,33.6,32.4,33.2z"/>
	<path class="thokiman-marker0" d="M35.8,39.6c0,0-0.3-1.1-0.1-1.4c-0.1-0.4-0.7-0.5-1.2-1c-0.8-0.7-1.9-1.8-2.1-1.9c0.4,0.4,1.1,1.7,0.9,2.4
		c0.1,0,0.1-0.1,0.2-0.4c0.2-0.1,0.1-0.1,0.4-0.3C33.7,38.7,35.8,39.5,35.8,39.6z"/>
	<path class="thokiman-marker7" d="M35.6,39c0,0-0.3-1.1-0.1-1.4c-0.1-0.4-0.6-0.3-1.1-0.7c-0.8-0.7-1.8-1.9-2-2c0.2,0.2,0.1,1.3,0.2,1.8
		c0.2,0.8,0.6,0.9,0.7,0.1c0.2-0.1,0.5,0.1,0.8-0.1C33.9,38.4,35.6,38.9,35.6,39z"/>
	<path class="thokiman-marker1" d="M32.6,45.2c0.2,0.2,3.5-1.1,3.5-1.4c0.2-0.8,0.2-1.4,0.2-1.4s0.4-1.1,0.4-1.6c0-0.3,0.1-3.3,0.1-3.2
		s-0.4,3-1.1,4.2c0,0.3-0.2,1.5-0.5,1.5C35.7,44,33.1,45,32.6,45.2z"/>
	<path class="thokiman-marker15" d="M35.5,39.7c0,0-0.6,0.7-0.9,1.1c-0.3,0.5,0.2,1.1-0.3,1.6c0,0.2-0.2,1,0.2,1.1c0.3,0,0.6-0.1,0.8-0.4
		c0.3-0.5,0.3-1.4,0.3-1.4s0-0.5,0-0.8s0-0.6,0-0.9L35.5,39.7z"/>
	<path class="thokiman-marker6" d="M34.7,40.3c0,0-0.4,0.5-0.6,0.9c-0.2,0.4,0.2,0.8-0.2,1.3c0,0.2-0.1,0.8,0.1,0.8c0.6,0,0.7-1.4,0.7-1.4
		s0-0.4,0-0.6s0-0.5,0-0.7V40.3z"/>
	<path class="thokiman-marker16" d="M34.3,40.4c0,0-0.4,0.5-0.6,0.9c-0.2,0.4,0.2,0.8-0.2,1.3c0,0.2-0.1,0.8,0.1,0.8c0.6,0,0.7-1.4,0.7-1.4
		s0-0.4,0-0.6s0-0.5,0-0.7V40.4z"/>
	<path class="thokiman-marker17" d="M34,40.4c0,0-0.4,0.5-0.6,0.9c-0.2,0.4,0.2,0.8-0.2,1.3c0,0.2-0.1,0.8,0.1,0.8c0.6,0,0.7-1.4,0.7-1.4
		s0-0.4,0-0.6s0-0.5,0-0.7V40.4z"/>
	<path class="thokiman-marker18" d="M33.8,40.5c0,0-0.4,0.5-0.6,0.9c-0.2,0.4,0.2,0.8-0.2,1.3c0,0.2-0.1,0.8,0.1,0.8c0.6,0,0.7-1.4,0.7-1.4
		s0-0.4,0-0.6c0-0.2,0-0.5,0-0.7V40.5z"/>
	<path class="thokiman-marker14" d="M33.6,40.5c0,0-0.4,0.5-0.6,0.9c-0.2,0.4,0.2,0.8-0.2,1.3c0,0.2-0.1,0.8,0.1,0.8c0.6,0,0.7-1.4,0.7-1.4
		s0-0.4,0-0.6c0-0.2,0-0.5,0-0.7V40.5z"/>
	<path class="thokiman-marker1" d="M32.8,42.7l-0.2-0.5c-0.1,0-0.2,0.1-0.2,0.2V45c0,0.1,0.3-0.2,0.4-0.2l0.1,0.4c0.1,0,0-1.6,0-1.7l0.3-1.1
		C33.2,42.1,32.9,42.7,32.8,42.7z"/>
	<path class="thokiman-marker0" d="M33.1,37.9l-0.4,0.7c-0.1,0-0.3-2.4-0.3-2.3V41c0,0.1,0.1,0.2,0.2,0.2l0.3,1.1c0.1,0,0.2-1.5,0.6-1.5v-0.4
		C33.5,40.4,33.2,37.9,33.1,37.9z"/>
	<path class="thokiman-marker7" d="M34.9,34.7c0,0.1-0.5-1-1.1-1s-1.4-0.8-1.4-0.8s0.4,0.2,0.9,0.2s1,0.5,1.3,1C34.7,34.2,34.9,34.5,34.9,34.7z"
		/>
	<path class="thokiman-marker19" d="M34.8,34.2c0,0.1-0.5-1-1.1-1s-1.1-0.5-1.2-0.7c-0.1-0.2,0.2,0.1,0.7,0.1s1,0.5,1.3,1
		C34.6,33.8,34.7,34,34.8,34.2z"/>
	<path class="thokiman-marker20" d="M34.5,33.6c0,0.1-0.5-1-1.1-1s-1-0.5-1-0.5S32.3,32,32.9,32s1,0.5,1.3,1C34.3,33.2,34.5,33.5,34.5,33.6z"/>
	<path class="thokiman-marker5" d="M33.4,32.3c-0.6,0-1-0.5-1-0.5s-0.1-0.1,0.5-0.1c0.5,0,1.2,0.6,1.4,1.2C34.3,33.2,34,32.3,33.4,32.3z"/>
	<path class="thokiman-marker1" d="M33.4,31.2c-0.6,0-1,0.5-1,0.5s-0.1,0.1,0.5,0.1c0.5,0,1.2-0.6,1.4-1.2C34.4,30.4,34,31.2,33.4,31.2z"/>
	<path class="thokiman-marker21" d="M33.2,30.6c-0.6,0.2-0.8,0.7-0.8,0.7s0,0.1,0.5-0.1c0.5-0.1,1.1-0.9,1-1.5C34,29.6,33.8,30.5,33.2,30.6z"/>
	<path class="thokiman-marker22" d="M33,30.6c-0.1,0.4-0.5,0.6-0.5,0.6s-0.1,0,0-0.4s0.6-0.8,1.1-0.8C33.8,30.1,33.1,30.1,33,30.6z"/>
	<path class="thokiman-marker23" d="M32.9,30.2c-0.1,0.4-0.5,0.6-0.5,0.6s-0.1,0,0-0.4s0.6-0.8,1.1-0.8C33.6,29.7,33,29.7,32.9,30.2z"/>
	<path class="thokiman-marker24" d="M36.8,36.9c0.5,0.6,2.1,0.8,2.1,1.3c-1.3-0.4-1.8-1-1.8-1L36.8,36.9z"/>
	<path class="thokiman-marker1" d="M36.8,36.9c0.5,0.6,2.1,0.8,2.1,1.3c-1.3-0.4-1.8-1-1.8-1L36.8,36.9z"/>
	<path class="thokiman-marker7" d="M36.4,36.3c0.5,0.6,2.1,0.8,2.1,1.3c-1.3-0.4-1.8-1-1.8-1S36.3,36.2,36.4,36.3z"/>
	<path class="thokiman-marker0" d="M47.5,34c0,0.3-0.7,1.5-0.7,1.5s-1.7,1.9-3.1,2.5c-0.5-0.2-2.9,0.6-2.8,0.5c0.3-0.4,1.5-0.6,1.9-0.8
		c1.4-0.7,3.6-2.8,3.6-2.8S45.4,36.6,47.5,34z"/>
	<path class="thokiman-marker7" d="M37.9,43.8c0,0,0.1-0.2-1.4,2.4c-1.1,2-1.4,0.3-2.4,3.7c-1-0.8,3.9-7.1,4.3-7.9C38.5,41.9,37.9,43.8,37.9,43.8
		z"/>
	<path class="thokiman-marker1" d="M37.6,43.7c0,0,0.1-0.2-1.4,2.4c-1.1,2-1.1,0.4-2.1,3.8c-0.2-2.4,3.6-7.2,4.1-8C38.2,41.8,37.6,43.7,37.6,43.7
		z"/>
	<path class="thokiman-marker7" d="M41.2,42c0,0-2.3,1.9-3.3,3.7c-0.8,1.5-1.3,1.4-2,3.8c-0.7-0.6,3-6.3,3.3-6.9L41.2,42z"/>
	<path class="thokiman-marker1" d="M39.9,42c0,0-1.3,1.7-2.3,3.6c-0.8,1.5-1,1.5-1.7,4c-1.1-1,2.7-6.4,3-7C39,42.4,39.9,42,39.9,42z"/>
	<path class="thokiman-marker0" d="M44.3,41c0,0-1.4,2.3-2.4,4.3c-0.8,1.6-1,0.2-1.8,2.9c-0.8-0.6,2.9-5.6,3.2-6.2C43.4,42,44.3,41,44.3,41z"/>
	<path class="thokiman-marker7" d="M43.9,41.1c0,0-1.2,2.2-2.3,4.2c-0.8,1.6-0.7,0.4-1.5,3c-0.9-1.4,2.6-5.7,2.9-6.3
		C43.1,41.9,43.9,41.1,43.9,41.1z"/>
	<path class="thokiman-marker0" d="M45.6,41c0,0-1.3,2.2-2.3,4.1c-0.8,1.5-0.9,0.2-1.6,2.7c-0.7-0.6,2.7-5.2,3-5.8L45.6,41z"/>
	<path class="thokiman-marker7" d="M45.3,41c0,0-1.3,2.3-2.3,4.2c-0.8,1.5-0.6,0.2-1.3,2.7c-0.9-1,2.3-5.2,2.6-5.8C44.3,42,45.3,41,45.3,41z"/>
	<path class="thokiman-marker0" d="M46.8,41.5c0,0-1.2,2-2.1,3.6c-0.7,1.3-0.8,0.2-1.5,2.4c-0.6-0.5,2.4-4.6,2.7-5.1C46,42.4,46.8,41.5,46.8,41.5
		z"/>
	<path class="thokiman-marker7" d="M46.4,41.4c0,0-1.1,2-2,3.7c-0.7,1.3-0.5,0.2-1.1,2.4c-1-1.5,2.1-4.6,2.3-5.1C45.6,42.3,46.4,41.4,46.4,41.4z"
		/>
	<path class="thokiman-marker0" d="M47.6,42c0,0-1.1,1.7-1.8,3.1c-0.6,1.1-0.7,0.2-1.3,2c-0.5-0.4,2.2-4,2.2-4L47.6,42z"/>
	<path class="thokiman-marker7" d="M47.3,41.7c0,0-1,2-1.8,3.4c-0.6,1.1-0.4,0.2-1,2c-0.9-0.8,1.8-3.9,2-4.3C46.5,42.7,47.3,41.7,47.3,41.7z"/>
	<path class="thokiman-marker0" d="M36.9,37.6c0.9,0.9,1.2,1.5,1.8,2.1c0.1,0.5,0,1-0.5,1.6c-0.4,0-1,1.3-1.7,2.2c0-0.3,1.5-2.5,1.4-3.5
		c1,0-0.2-0.9-0.5-1.3C37.4,38.6,36.9,37.6,36.9,37.6z"/>
	<path class="thokiman-marker1" d="M36.9,37.5c0.9,0.9,1,1.5,1.6,2.2c0.1,0.5,0,1-0.5,1.6c-0.4,0-1.7,2.6-1.8,2.2c-0.1-0.3,1.5-1.8,1.4-2.8
		c1,0-0.1-1.7-0.4-2.2C37.1,38.6,36.8,37.5,36.9,37.5z"/>
	<path class="thokiman-marker7" d="M42.5,41c0,0-1.2-0.1-1.3-0.1c-0.2-0.1-0.9-1.1-1.1-1.1c-0.4,0.1-0.4,1.2-0.8,1.4c-0.1,0.1-1,0.5-1.1,0.5
		s0.7,0.3,0.9,0.3c0.3,0,0.7-0.7,1.5-0.1c-0.5-0.7-0.7-2.1-0.4-2.1C40.4,42.2,42.5,41,42.5,41z"/>
	<path class="thokiman-marker1" d="M52.3,32.8c0.5,0.5,0.3,2.2-0.7,2.3s-1.2,1.3-1.4,1.5c-1.2,1.5-3.3,2.6-5.2,3.1c-0.4,0.1-4.3-0.6-4.1-0.7
		c0.2-0.1,2-0.4,3.4-0.6c0.1,0,0.1-0.1,0.2-0.1c1.1-0.8,2.3-1.8,2.9-3.1c0.3-0.5,0.9-2.9,1.3-3.3c0.1-0.1-1.3,3.7,0.1,2
		c0.2,0.3-0.3,0.9-0.4,1.2c-0.6,1.4-1.6,2.4-2.7,3.1c0.6-0.1,1-0.1,1.2,0c0.5,0.2,1.5-1.7,1.7-1.9s0.7-0.8,0.5-1.4
		c-0.2-0.6,0.3-1.5,0.6-1.8c0.2-0.3,0.6,1.4,0.9,1.1C50.5,34.1,52.3,32.8,52.3,32.8z"/>
	<path class="thokiman-marker7" d="M36.6,43.8c0,0-1.7,2.9-2.2,3.4c-0.2,0.5-0.8,3.2-0.8,3.2c-0.1,0-0.1-1.6-0.1-1.7c-0.4-2.7,1.2-3.1,1.4-3.1
		C34.8,45.5,36.6,43.8,36.6,43.8z"/>
	<path class="thokiman-marker1" d="M35.6,44.7c-0.4,0.4-1.1,1.8-1.6,2.3c-0.2,0.5-0.5,3.2-0.5,3.2c-0.1,0-0.5-1.7-0.5-1.7
		c-0.4-2.7,0.9-2.5,1.2-3.5c0,0,0.2,0.2,0.5,0.2C35,45.1,35.6,44.7,35.6,44.7z"/>
	<path class="thokiman-marker7" d="M32.9,45.4c0.1,0.4,0.2,1.7,0.2,1.7s0,1.4-0.1,1.9c0,0.1-0.2,1.4-0.2,1.4c-0.1,0-0.2-1.3-0.2-1.3l0.3-2
		C32.9,47.1,32.8,45,32.9,45.4z"/>
	<path class="thokiman-marker1" d="M32.5,45.9c0.1,0.4,0.3,1.2,0.3,1.2s0,1.4-0.1,1.9c0,0.1,0.1,1.4,0,1.4s-0.4-1.3-0.4-1.3l0.1-1.9
		C32.5,47.1,32.5,45.5,32.5,45.9z"/>
	<path class="thokiman-marker25" d="M46.9,17.7c-2.1-4.2-5.7-1.3-5-6.7c-0.8-0.7-6-5.1-6.1-5.1l0.3,0.9c0.1,0.9-0.2,1.7-0.5,2.6
		c-1,2.7-2,7.1,1.6,8.4c2.5,0.9,4.7,0.7,7.2,0.3C44.7,18.1,47,18,46.9,17.7z"/>
	<path class="thokiman-marker26" d="M46.8,17.7c-1.9-2.9-5.8-1.2-5.1-4.9c-0.7-0.5-5.9-6.9-5.9-6.9l1.2,4.3c0.1,0.6-0.7,2.4-0.9,3
		c-0.9,1.8-1.3,3.7,1.9,4.5c2.2,0.6,4.3,0.5,6.6,0.2C44.9,17.9,46.9,17.8,46.8,17.7z"/>
	<path class="thokiman-marker27" d="M46.7,17.7c-1.8-0.6-7.1-0.9-6.6-4.6C39.5,12.6,35.9,6,35.9,6s1.8,4.9,1.8,5c0.1,0.6,0.8,1.7,0.6,2.2
		c-0.7,1.8,1.5,3.9,1.5,3.9s3.4,1,5.2,0.7C45.2,17.7,46.9,17.7,46.7,17.7z"/>
	<path class="thokiman-marker25" d="M52.1,23.5c0.1,0.2-0.4-5-0.4-6c-0.1-2.2-0.9-4.7-2.4-6.4c-0.5-0.5-4.9-4.2-5.4-4.7c-0.2-0.2,4.5,4.4,4.6,5.7
		c0,2.2-1.5,4.7-0.4,6.7c0.2,0.4,1.3,1.2,2.2,1.1C51.1,19.8,52,23.4,52.1,23.5z"/>
	<path class="thokiman-marker25" d="M47,14.5c0.2-0.3-0.7-3.7-1.1-4.1c0,0,0-0.1-0.1-0.1c-0.3,0-0.9,0.7-1.2,0.9c-2,1.7,0.2,3,1.8,3.4
		C46.7,14.6,46.9,14.6,47,14.5z"/>
	<path class="thokiman-marker1" d="M46.7,15.2c0,0-1.3-0.2-1.5-0.2c-1.1-0.6-2-0.4-2.6-1.7c-0.1-0.2-0.3-1.4-0.1-1.4c0.1,0,0.7,1.1,1.6,2
		C45.1,14.7,46.7,15.2,46.7,15.2z"/>
	<path class="thokiman-marker28" d="M45.6,14.7c0,0-1.3-0.2-1.5-0.3c-1.1-0.6-1.7-2.5-1.5-2.5c0.1,0,0.5,1.2,0.7,1.5
		C44.1,14.3,45.6,14.7,45.6,14.7z"/>
	<path class="thokiman-marker0" d="M52.9,30c0.2,0.9,0.2,1.6-0.4,1.6c-1.7,0-0.8,1.8-1.8,1.8s-1-1.8-1.8-1.8c-0.3,0-0.2-0.6,0-1.4
		c0.8,0,0.8,1.8,1.8,1.8s0.2-1.8,1.8-1.8C52.7,30.2,52.8,30.1,52.9,30z"/>
	<path class="thokiman-marker1" d="M50.7,20.6c0.6,0,0.6,1.1,0.5,2.1c-0.1-0.3-0.2-0.5-0.5-0.5c-0.2,0-0.4,0.1-0.4,0.3
		C50.1,21.5,50.1,20.6,50.7,20.6z"/>
	<path class="thokiman-marker0" d="M51.2,24.3c0.3,0.6,2.2,4.7,1.6,5.7c-0.4-1.8-1.7-4.5-1.7-4.5C51.1,25.2,51.2,24.7,51.2,24.3z"/>
	<path class="thokiman-marker1" d="M50.3,24.3c0.1,0.5,0.1,0.9,0.1,1.2c0,0-1.2,2.9-1.6,4.7l0,0C48.1,30.2,50,25.1,50.3,24.3z"/>
	<path class="thokiman-marker1" d="M51.1,25.5L50.5,24l0.6,0.1l0.1,0.3L51.1,25.5z"/>
	<path class="thokiman-marker1" d="M52.8,30l-1.7-4.4h-0.6l0.1,6.4c0,0,0.3-1.8,0.8-2.3C52,29.2,52.8,30,52.8,30z"/>
	<path class="thokiman-marker26" d="M52.1,23.3c0,0.3-1.1-6.1-1.8-7.7c-0.3-0.7-0.8-0.2-1.2-0.8c0-0.1-0.6-2.4-0.6-2.4s-0.4,2.9-0.4,4.4
		c0.1,2.2,0.1,2.2,0.3,2.4c0.6,0.6,1.2-0.5,1.9-0.2C50.5,19,52.1,22.9,52.1,23.3z"/>
	<path class="thokiman-marker27" d="M51.3,21c0,0.2-0.6-3.4-1-3.8c0,0-1.1,0.6-1.1,0c-0.8,0.4-0.3-0.8-0.4-1c-0.3-0.6-0.1-2.5-0.1-2.5
		s-0.6,1.6-0.5,2.5c0.1,1.4-0.4,1.7,0.5,1.6c0.2,1.5,0.8,0,1.5,0.2C50.4,18.2,51.3,20.8,51.3,21z"/>
	<path class="thokiman-marker26" d="M46.9,14.4l-1-4.2L45,13.4c0,0,0.5-0.4,0.7,0.4c0.1,0.4,0.4-0.4,0.7-0.1C46.5,14.1,46.9,14.4,46.9,14.4z"/>
	<path class="thokiman-marker27" d="M43.9,12.3l1.6-1.8L45,12.4c0,0-0.1-0.3-0.4,0c-0.2,0.2-0.1-0.3-0.3-0.3C44.2,12.2,43.9,12.3,43.9,12.3z"/>
	<path class="thokiman-marker7" d="M49.3,35.2c0,0,0.2,1.2,0.2,1.5c-0.5,0.5-2.7,2.1-3.3,2.7c-0.4,0.4-2.8-0.4-3.1-0.6c-0.4,0,3.4,0.2,4.7-0.9
		C48.8,37,49.3,35.2,49.3,35.2z"/>
	<path class="thokiman-marker29" d="M50.3,34.2c0.1,0.1-0.1,2-0.1,2c-0.2,0-0.6-1.1-1.2-1.2c-0.2,0,0.4,0.2,0.8-0.1
		C50.1,34.8,50.3,34.2,50.3,34.2z"/>
	<path class="thokiman-marker7" d="M48.1,34.5c-0.1-1-0.3,1-1.2,2.1c-0.8,1.1-1.8,2.1-1.8,2.1s1.4-0.9,2.1-1.7c0.7-0.8,1.2-1.8,1.2-1.8l0.3-0.5
		l-1,1.3C47.6,36,48.1,34.7,48.1,34.5z"/>
	<path class="thokiman-marker0" d="M48.5,41.1c0.1,0,0.2,0.1,0.3,0.1c0.1,1.4,2.4,1.1,2,1.8c-0.5,0.9-1.4-0.4-2.1,0.3c-0.5-0.6-1.2-1.3-1.5-1.8
		C47.5,41.5,47.9,41.4,48.5,41.1z"/>
	<path class="thokiman-marker24" d="M47.5,40.9L47.5,40.9L47.5,40.9L47.5,40.9z M47.8,41c0.2,0,0.4,0.1,0.7,0.2C48.2,41,48,41,47.8,41z"/>
	<path class="thokiman-marker1" d="M47.6,40.6c0.2,0,0.6,0.5,0.9,0.6c-0.5,0.3-1.2,0.2-1.5,0.2C46.7,41,47.5,40.6,47.6,40.6z"/>
	<path class="thokiman-marker7" d="M51.1,36.7c0.3,0,0.6,0.4,0.8,0.7c0,0-0.7,0.4-0.8,0.6s0.5,0.5,0.5,0.5c-0.2,2.1-1,0.5-1.1,0.5
		c-1.1,0.9-1.7,1.5-2.3,1.9c-0.3-0.1-0.5-0.2-0.7-0.2c-0.1,0-0.2,0-0.2,0h-0.1l0,0c-0.1,0-0.2,0-0.2,0c-0.2,0.1-0.2,0.3,0,0.6
		c-1.5,0.1-1.7-1.3-3.8-0.1c-1.1,0.7-1.8,3-2.9,3c-1.2,0-2.8,4.4-2.8,4.4s0.4-2.7,1-3.6c1.1-1.7,3.2-3.6,3.3-3.9
		c0.5-0.2,1.3-0.2,1.3-0.3c-1.6,0-0.6-1.1-1.5-1c-1.3,0.3-4.3-2.2-4.3-2.2l2.8,0.8l3.3,2.2c0,0,0.8-0.9,1.7-1
		c0.5-0.1,1.2,0.6,1.6,0.5c0.7-0.2,2.9-1.7,2.7-3c0.1,0,0.3,1.2,1.1-0.2C50.8,36.8,51,36.7,51.1,36.7z"/>
	<path class="thokiman-marker7" d="M54.3,33.4c0,0,1.6,4.3-0.4,4L53.7,41c2-0.1,1.2,3.9-0.2,3.9c0,0-2.1-1.6-2.1-3.8l0.4-2.3
		c0.5-0.4,1-0.8,0.4-0.8c0,0-0.1-0.1-0.2-0.3l0.1-0.7C52.2,34.8,52.9,33.4,54.3,33.4z"/>
	<path class="thokiman-marker1" d="M52,38c0.1,0.1,0.2,0.2,0.2,0.2c0.5,0,0.1,0.3-0.4,0.6L52,38z"/>
	<path class="thokiman-marker0" d="M43.7,41l-5.5,5.4l1.1-1.8c0,0,1.8-1.2,2.2-2.2c0.4-0.9,0.5-0.9,0.5-0.9L43.7,41z"/>
	<path class="thokiman-marker1" d="M37.7,38c0,0,1.6,0.5,2.6,1.3c1,0.7,1.8,0.8,1.8,0.8l-1.8-1.2L37.7,38z"/>
	<path class="thokiman-marker6" d="M32.7,38.5c0,0,0.4,0.2,0.5,0.5c0.1,0.4,0.2,1.4,0.2,1.4l-0.7,1.1V38.5z"/>
	<path class="thokiman-marker7" d="M32.8,42.7l0.1,1.4l-0.1,0.6l-0.3-2H32.8z"/>
	<path class="thokiman-marker7" d="M36.2,43.2l1.5-3.6l-0.4-0.8L36.2,43.2z"/>
	<path class="thokiman-marker0" d="M39.7,47.4c0.5-1.2,1.4-3.1,1.2-2.8c-0.6,0.6-1,0.7-1.6,1.5c-0.6,0.9-1,1.9-1,1.9S39.5,47.9,39.7,47.4z"/>
	<path class="thokiman-marker7" d="M37.3,48.4c0.3-0.7,0.8-2,0.7-1.8c-0.4,0.4-0.5,0.5-0.9,1c-0.4,0.6-0.6,1.2-0.6,1.2S37.2,48.7,37.3,48.4z"/>
	<path class="thokiman-marker7" d="M35.3,49.1c0.3-0.7,0.8-2,0.7-1.8c-0.4,0.4-0.5,0.5-0.9,1c-0.4,0.6-0.6,1.2-0.6,1.2S35.2,49.4,35.3,49.1z"/>
	<path class="thokiman-marker1" d="M39.5,47.5c0.2-1.2,1.5-3.1,1.3-2.8c-0.6,0.6-0.7,0.8-1.4,1.7c-0.6,0.9-1.1,1.7-1.1,1.7S39.5,48,39.5,47.5z"/>
	<path class="thokiman-marker1" d="M37.2,48.4c0.1-0.8,0.9-2,0.7-1.8c-0.4,0.4-0.4,0.5-0.8,1.1c-0.4,0.6-0.7,1.2-0.7,1.2S37.2,48.8,37.2,48.4z"/>
	<path class="thokiman-marker1" d="M35.2,49.1c0.1-0.8,0.9-2,0.7-1.8c-0.4,0.4-0.4,0.5-0.8,1.1c-0.4,0.6-0.7,1.2-0.7,1.2S35.1,49.4,35.2,49.1z"/>
	<path class="thokiman-marker7" d="M33.8,45.1c0,0-0.1,0.3-0.2,0.5c-0.2,0.2-0.4,0.2-0.4,0.2l-0.1-0.5L33.8,45.1z"/>
	<path class="thokiman-marker7" d="M35.8,44.3l-0.9,0.6c0,0-0.1,0.2-0.3,0.1c-0.4,0-0.3-0.2-0.3-0.2L35.8,44.3z"/>
	<path class="thokiman-marker1" d="M43.9,46.9c0.1,0,0.1,0,0.2,0.1l0,0c0,0.1,0.1,0.1,0.1,0.2l0,0c-0.1,0.1-0.4,0.1-0.5,0.1v-0.1
		C43.7,47,43.8,46.9,43.9,46.9z"/>
	<path class="thokiman-marker1" d="M42.6,47.2c0.2,0,0.3,0.2,0.3,0.3l0,0c-0.1,0.1-0.4,0.1-0.5,0.1v-0.1C42.3,47.4,42.4,47.2,42.6,47.2z"/>
	<path class="thokiman-marker1" d="M41.1,47.6c0.2,0,0.4,0.2,0.4,0.4c-0.1,0.1-0.7,0.2-0.9,0.1l0,0C40.6,47.9,40.9,47.6,41.1,47.6z"/>
	<path class="thokiman-marker1" d="M39.1,48.2c0.4,0,0.8,0.3,0.8,0.7c-0.2,0.2-1.4,0.3-1.6,0.1c0,0,0,0,0-0.1s0-0.2,0.1-0.3c0,0,0,0,0-0.1
		s0.1-0.1,0.1-0.2l0.1-0.1C38.7,48.2,38.9,48.2,39.1,48.2z"/>
	<path class="thokiman-marker1" d="M37,49.1c0.3,0,0.6,0.2,0.7,0.6c-0.2,0.2-1.1,0.2-1.3,0.1C36.3,49.4,36.6,49.1,37,49.1z"/>
	<path class="thokiman-marker1" d="M35,49.5c0.2,0,0.4,0.2,0.4,0.5l0,0c-0.1,0.2-0.7,0.2-0.8,0.1V50c0-0.1,0-0.1,0-0.2
		C34.7,49.7,34.9,49.5,35,49.5z"/>
	<path class="thokiman-marker1" d="M33.9,50.2c0.2,0,0.3,0.2,0.3,0.3l0,0c-0.1,0.1-0.4,0.2-0.5,0.1v-0.1C33.7,50.3,33.8,50.2,33.9,50.2z"/>
	<path class="thokiman-marker1" d="M33.1,50.4c0.1,0,0.2,0.1,0.2,0.2l0,0c-0.1,0.1-0.4,0.2-0.5,0v-0.1C32.9,50.5,33,50.4,33.1,50.4z"/>
	<path class="thokiman-marker1" d="M32.4,50.7c0.1,0.1,0.3,0.1,0.4,0s-0.1-0.2-0.2-0.2C32.5,50.4,32.4,50.6,32.4,50.7z"/>
	<path class="thokiman-marker1" d="M46.8,18c-0.2,0.1-1.7,0.7-1.9,0.8c-0.5,0.1-1,0.1-1.5,0.1c-0.8,0-1.6,0.1-2.3,0c-0.1,0-0.7-0.1-0.7-0.1
		l0.3,0.1c0.3,0.1,0.6,0.2,1,0.2c0.5,0,1,0.1,1.4,0.1c0.6,0,1.1,0,1.6-0.1C44.8,19,46.8,17.9,46.8,18z"/>
	<path class="thokiman-marker7" d="M46.8,18c-0.2,0.1-1.6,0.9-1.8,1c-0.5,0.1-1,0.1-1.5,0.1c-0.8,0-1.6,0.1-2.3,0c-0.1,0-0.7-0.3-0.7-0.3l0.3,0.3
		c0.3,0.1,0.6,0.2,1,0.2c0.5,0,1,0.1,1.4,0.1c0.6,0,1.1,0,1.6-0.1C44.8,19.2,46.8,17.9,46.8,18z"/>
	<path class="thokiman-marker0" d="M46.8,18c-0.2,0.1-1.6,1.1-1.8,1.2c-0.5,0.1-1,0.1-1.5,0.1c-0.8,0-1.6,0.1-2.3,0c-0.1,0-0.7-0.5-0.7-0.5
		l0.3,0.5c0.3,0.1,0.6,0.2,1,0.2c0.5,0,1,0.1,1.4,0.1c0.6,0,1.1,0,1.6-0.1C44.9,19.4,46.8,17.9,46.8,18z"/>
	<path class="thokiman-marker0" d="M50,20.4c0,0-0.7-0.2-0.8-0.3c-0.1,0-0.4-0.3-0.4-0.3s0.7,0.7,0.8,0.7C49.7,20.5,50,20.4,50,20.4z"/>
	<path class="thokiman-marker7" d="M47.4,15.9c0,0-0.1,1.3,0,2c0,0.2,0.1,0.3,0.1,0.5c0.1,0.1,0.2,0.3,0.2,0.3s-0.4-0.4-0.4-0.5
		C47,17.7,47,17.1,47,16.5c0-0.2,0.1-0.4,0.2-0.5C47.2,16,47.4,15.9,47.4,15.9z"/>
	<path class="thokiman-marker1" d="M46.7,16.5c-0.1-0.4-0.8-0.7-1.1-0.9c-0.1-0.1-0.8-0.3-0.8-0.3s1.3,0.9,1.5,1.1l0.5,0.7
		C46.9,17.1,46.7,16.5,46.7,16.5z"/>
	<path class="thokiman-marker7" d="M46.8,16.5c-0.1-0.4-0.6-0.8-0.9-1c-0.2-0.1-0.9-0.3-0.7-0.2c0.2,0.1,0.9,0.6,1.1,0.8c0,0,0.5,1.1,0.6,1.1
		C46.9,17.1,46.8,16.5,46.8,16.5z"/>
	<path class="thokiman-marker0" d="M46.9,16.5c0-0.4-0.9-1.3-1.2-1.2c-0.2,0.1,0.3,0.1,0.4,0.3c0.1,0.2,0.4,0.5,0.5,0.7c0,0.1,0.3,0.9,0.3,0.9
		C46.9,17.1,46.9,16.5,46.9,16.5z"/>
</g>
<g>
	<g>
		<path class="thokiman-marker30" d="M32.9,63.6l2.4-8.7c0.1-0.2-0.1-0.4-0.2-0.4l-2.3,0.7v-4c0-0.1-0.1-0.2-0.2-0.1L30,57.7
			c-0.1,0.2,0.1,0.4,0.2,0.4l2.5-0.7l-0.1,6C32.7,63.7,32.9,63.8,32.9,63.6z"/>
	</g>
	<path class="thokiman-marker31" d="M31.1,57.3c-0.1,0-0.1-0.1-0.1-0.2l1.8-5.9h-0.1l-2.6,6.6c-0.1,0.2,0.1,0.4,0.2,0.4l2.5-0.7l-0.1,6
		c0,0.1,0,0.1,0.1,0.1l0.6-6.4c0-0.3-0.2-0.6-0.4-0.5L31.1,57.3z"/>
</g>
</svg>
