<svg xmlns="http://www.w3.org/2000/svg"  viewBox="0 0 100 100" width="100px" height="100px"><path fill="#565fa0" d="M69.319,81H30.681C24.23,81,19,75.77,19,69.319V30.681C19,24.23,24.23,19,30.681,19h38.638	C75.77,19,81,24.23,81,30.681v38.638C81,75.77,75.77,81,69.319,81z"/><path fill="#1f212b" d="M69.654,17.921h-39c-7.168,0-13,5.832-13,13v39c0,7.168,5.832,13,13,13h39c7.168,0,13-5.832,13-13	v-39C82.654,23.753,76.822,17.921,69.654,17.921z M80.654,69.921c0,6.065-4.935,11-11,11h-39c-6.065,0-11-4.935-11-11v-39	c0-6.065,4.935-11,11-11h39c6.065,0,11,4.935,11,11V69.921z"/><path fill="#1f212b" d="M77.154,47.921c-0.276,0-0.5,0.224-0.5,0.5v18.663c0,5.424-4.413,9.837-9.837,9.837H33.49	c-5.424,0-9.837-4.413-9.837-9.837V33.758c0-5.424,4.413-9.837,9.837-9.837h33.663c0.276,0,0.5-0.224,0.5-0.5s-0.224-0.5-0.5-0.5	H33.49c-5.976,0-10.837,4.861-10.837,10.837v33.326c0,5.976,4.861,10.837,10.837,10.837h33.326c5.976,0,10.837-4.861,10.837-10.837	V48.421C77.654,48.145,77.43,47.921,77.154,47.921z M77.154,40.921c-0.276,0-0.5,0.224-0.5,0.5v4c0,0.276,0.224,0.5,0.5,0.5	s0.5-0.224,0.5-0.5v-4C77.654,41.145,77.43,40.921,77.154,40.921z M76.654,37.421v2c0,0.276,0.224,0.5,0.5,0.5s0.5-0.224,0.5-0.5v-2	c0-0.276-0.224-0.5-0.5-0.5S76.654,37.145,76.654,37.421z"/><path fill="#f27e97" d="M31.237,69.947c0,0,1.523-6.379,5.046-8.95c4.621-3.372,14.204-3.249,21.494-7.429	c4.581-2.627,9.323-6.169,11.449-11.803c2.721-7.209,1.143-11.711,1.143-11.711s-0.664,4.298-2.094,6.665	c-1.995,3.302-8.781,6.469-14.422,8.337c-3.577,1.184-6.593,1.636-8.818,2.651c-5.427,2.476-10.076,6.912-12.132,11.826	C30.812,64.527,31.237,69.947,31.237,69.947z"/><path fill="#666aad" d="M31.289,69.85c0.475-4.153,1.554-9.061,3.474-11.955c1.901-2.863,4.183-5.114,7.518-6.825	c4.265-2.189,10.346-3.342,16.438-5.123c5.44-1.589,8.802-4.819,10.476-8.793c0.913-2.169,1.215-4.648,1.073-7.356	c-0.566,2.472-1.346,4.814-2.422,6.969c-2.206,2.143-4.895,4.038-8.254,5.586l-15.923,5.335c-4.093,2.18-7.584,5.382-9.837,8.67	c-1.702,3.225-2.733,6.423-2.918,9.587C30.673,68.12,30.827,69.354,31.289,69.85z"/><path fill="#e23855" d="M32.925,65.967c0.833-2.431,2.217-5.974,5.55-8.612c3.113-2.465,8.084-4.002,10.693-4.305	c13.123-1.528,18.123-6.179,19.581-8.61c-2.239,3.43-4.919,6.487-8.576,8.719c-3.992,2.357-8.145,4.059-12.539,4.792	c-3.94,0.456-7.614,1.464-10.909,3.263L32.925,65.967z"/><path fill="#1f212b" d="M32.925,66.273c-0.033,0-0.066-0.005-0.099-0.017c-0.16-0.054-0.245-0.229-0.19-0.388	c0.996-2.905,2.447-6.217,5.649-8.752c3.173-2.512,8.254-4.066,10.848-4.37c0.832-0.097,1.631-0.206,2.397-0.328	c0.163-0.026,0.323,0.087,0.35,0.254c0.026,0.166-0.088,0.324-0.254,0.35c-0.776,0.122-1.582,0.232-2.422,0.332	c-2.523,0.294-7.46,1.804-10.538,4.24c-3.079,2.438-4.484,5.651-5.451,8.472C33.17,66.194,33.052,66.273,32.925,66.273z M53.983,52.594c-0.142,0-0.269-0.1-0.3-0.245c-0.033-0.165,0.073-0.328,0.239-0.361c10.517-2.156,13.807-6.442,14.564-7.703	c0.087-0.146,0.278-0.192,0.42-0.105c0.146,0.087,0.192,0.275,0.105,0.42c-0.79,1.316-4.205,5.783-14.965,7.99	C54.024,52.592,54.005,52.594,53.983,52.594z"/><path fill="#ff991f" d="M33.275,66.186c1.067-3.156,2.713-5.949,6.053-8.21c2.783-1.636,6.317-2.001,9.114-2.053	c2.804-0.051,5.899,0.001,7.967-1.079c-2,1.282-4.573,2.223-7.756,2.8l-10.399,2.651C36.33,61.617,34.745,63.765,33.275,66.186z"/><path fill="#1f212b" d="M33.275,66.339c-0.016,0-0.033-0.002-0.049-0.007c-0.08-0.027-0.124-0.114-0.097-0.195	c0.744-2.201,1.666-3.92,2.902-5.406c0.055-0.066,0.153-0.073,0.215-0.021c0.065,0.054,0.075,0.15,0.021,0.215	c-1.21,1.458-2.115,3.145-2.847,5.309C33.399,66.3,33.339,66.339,33.275,66.339z M36.97,60.076c-0.039,0-0.077-0.015-0.108-0.044	c-0.06-0.059-0.06-0.155-0.001-0.217c0.7-0.708,1.502-1.369,2.382-1.965c2.212-1.3,5.128-1.977,8.924-2.072	c0.084,0.002,0.154,0.065,0.157,0.149s-0.065,0.154-0.149,0.157c-3.742,0.095-6.61,0.757-8.768,2.026	c-0.856,0.579-1.642,1.227-2.328,1.921C37.049,60.061,37.009,60.076,36.97,60.076z"/><path fill="#39c1d7" d="M43.811,50.383c4.665-2.983,11.852-4.053,18.197-9.481c-3.285,2.096-6.609,3.57-9.991,4.103	c-5.001,1.452-9.805,3.005-12.947,5.404c-2.717,2.629-5.145,5.592-7.034,9.175c-1.026,3.017-1.497,6.144-1.428,9.379l0.51,0.407	c0.544-3.391,1.103-6.728,2.141-8.258c1.489-3.046,3.107-5.52,4.893-7.239C39.955,52.333,41.84,51.163,43.811,50.383z"/><path fill="#1f212b" d="M31.291,70.156c-0.012,0-0.023,0-0.035-0.001c-0.168-0.02-0.289-0.171-0.269-0.339	c0.281-2.463,1.188-8.571,3.523-12.089c2.069-3.116,4.495-5.318,7.633-6.929c3.05-1.565,7.016-2.605,11.215-3.707	c1.722-0.453,3.504-0.919,5.278-1.437c2.805-0.82,5.158-2.115,6.991-3.852c0.124-0.116,0.317-0.11,0.433,0.012	c0.116,0.122,0.11,0.316-0.012,0.433c-1.905,1.804-4.34,3.148-7.24,3.995c-1.782,0.521-3.569,0.99-5.295,1.442	c-4.166,1.092-8.1,2.124-11.09,3.659c-3.084,1.582-5.367,3.655-7.403,6.722c-2.262,3.408-3.149,9.402-3.425,11.82	C31.576,70.041,31.444,70.156,31.291,70.156z M66.687,41.451c-0.072,0-0.146-0.026-0.203-0.077	c-0.127-0.113-0.137-0.306-0.026-0.432c1.019-1.148,1.846-2.461,2.454-3.906c0.729-1.73,1.083-3.692,1.083-5.997	c0-0.402-0.011-0.811-0.033-1.223c-0.009-0.169,0.121-0.312,0.289-0.322c0.181-0.015,0.312,0.121,0.322,0.289	c0.023,0.425,0.034,0.843,0.034,1.256c0,2.388-0.369,4.427-1.13,6.234c-0.635,1.507-1.497,2.879-2.562,4.075	C66.855,41.417,66.772,41.451,66.687,41.451z"/><path fill="#1f212b" d="M44.124,50.223c-0.053,0-0.104-0.027-0.132-0.077c-0.042-0.073-0.017-0.166,0.056-0.209	c1.313-0.76,3.035-1.426,5.03-2.2c1.906-0.739,4.065-1.574,6.211-2.641c0.077-0.035,0.168-0.007,0.204,0.069	c0.038,0.076,0.007,0.168-0.069,0.204c-2.158,1.073-4.325,1.912-6.237,2.652c-1.983,0.767-3.696,1.431-4.988,2.179	C44.176,50.215,44.149,50.223,44.124,50.223z M56.444,44.825c-0.054,0-0.106-0.029-0.135-0.081c-0.04-0.075-0.012-0.168,0.062-0.207	c1.935-1.041,3.582-2.151,5.035-3.394c0.064-0.053,0.161-0.048,0.215,0.017c0.054,0.064,0.048,0.16-0.017,0.215	c-1.469,1.256-3.134,2.379-5.089,3.43C56.493,44.819,56.469,44.825,56.444,44.825z"/><path fill="#1f212b" d="M70.37,30.053c0,0,1.578,4.502-1.143,11.711c-2.126,5.634-6.869,9.176-11.449,11.803	c-7.289,4.18-16.873,4.057-21.494,7.429c-3.523,2.57-5.046,8.95-5.046,8.95s-0.425-5.419,1.665-10.416	c2.056-4.914,5.982-9.131,12.132-11.826c2.241-0.982,5.697-1.776,9.274-2.961c5.641-1.868,11.971-4.725,13.966-8.026	C69.705,34.351,70.37,30.053,70.37,30.053 M70.37,28.83c-0.037,0-0.075,0.001-0.113,0.005c-0.559,0.051-1.01,0.476-1.097,1.031	c-0.006,0.04-0.646,4.09-1.933,6.22c-1.485,2.458-6.335,5.191-13.304,7.498c-1.393,0.461-2.756,0.859-4.075,1.244	c-2.081,0.608-3.878,1.132-5.306,1.758c-6.048,2.65-10.463,6.963-12.769,12.475c-2.179,5.208-1.775,10.75-1.757,10.983	c0.046,0.599,0.524,1.077,1.123,1.123c0.033,0.002,0.065,0.004,0.097,0.004c0.56,0,1.056-0.384,1.189-0.938	c0.015-0.06,1.466-5.976,4.578-8.247c2.066-1.508,5.475-2.308,9.083-3.157c3.95-0.929,8.429-1.981,12.297-4.2	c3.995-2.291,9.585-6.073,11.985-12.433c2.846-7.54,1.223-12.347,1.152-12.548C71.351,29.155,70.885,28.83,70.37,28.83L70.37,28.83z"/></svg>