<svg id="Layer_1" enable-background="new 0 0 512 512" height="512" viewBox="0 0 512 512" width="512" xmlns="http://www.w3.org/2000/svg"><g><g><g><g><path d="m404 504.088h-386.5c-5.523 0-10-4.477-10-10v-436.395c0-5.523 4.477-10 10-10h386.5c5.523 0 10 4.477 10 10v436.395c0 5.523-4.477 10-10 10z" fill="#f7d3b7"/></g><g><path d="m404 47.693h-386.5c-5.523 0-10 4.477-10 10v436.395c0 5.523 4.477 10 10 10h305.708v-75.725c0-8.322 6.746-15.068 15.068-15.068h75.724v-355.602c0-5.523-4.477-10-10-10z" fill="#fff2e8"/><g><path d="m404 47.693h-40c5.523 0 10 4.477 10 10v355.602h40v-355.602c0-5.523-4.477-10-10-10z" fill="#ffecde"/></g><path d="m323.208 428.363v75.725l90.792-90.793h-75.725c-8.322 0-15.067 6.746-15.067 15.068z" fill="#ffe4cf"/></g><g><g fill="#6b78e3"><path d="m61.309 88.299c-9.216 0-16.686-7.471-16.686-16.686v-47.839c0-9.216 7.471-16.686 16.686-16.686 9.216 0 16.686 7.471 16.686 16.686v47.839c0 9.215-7.471 16.686-16.686 16.686z"/><path d="m135.936 88.299c-9.216 0-16.686-7.471-16.686-16.686v-47.839c0-9.216 7.471-16.686 16.686-16.686 9.216 0 16.686 7.471 16.686 16.686v47.839c0 9.215-7.47 16.686-16.686 16.686z"/><path d="m210.564 88.299c-9.216 0-16.686-7.471-16.686-16.686v-47.839c0-9.216 7.471-16.686 16.686-16.686 9.216 0 16.686 7.471 16.686 16.686v47.839c0 9.215-7.471 16.686-16.686 16.686z"/><path d="m285.191 88.299c-9.216 0-16.686-7.471-16.686-16.686v-47.839c0-9.216 7.471-16.686 16.686-16.686 9.216 0 16.686 7.471 16.686 16.686v47.839c.001 9.215-7.47 16.686-16.686 16.686z"/></g><g><path d="m360.191 88.299c-9.216 0-16.686-7.471-16.686-16.686v-47.839c0-9.216 7.471-16.686 16.686-16.686 9.216 0 16.686 7.471 16.686 16.686v47.839c.001 9.215-7.47 16.686-16.686 16.686z" fill="#6b78e3"/></g></g></g><g><path d="m504.474 148.733h-58.168l.007 304.567h58.187z" fill="#ffeb17"/><path d="m474.487 148.733h30v304.567h-30z" fill="#f7d600"/><path d="m446.312 453.303 24.63 48.058c1.863 3.636 7.059 3.636 8.923 0l24.63-48.058z" fill="#ffe4cf"/><g><path d="m470.942 501.361c1.863 3.636 7.059 3.636 8.923 0l3.482-6.795h-15.887z" fill="#6b78e3"/></g><path d="m446.306 148.733h58.169v32.667h-58.169z" fill="#6b78e3"/><path d="m474.474 148.733h30v32.667h-30z" fill="#4f5ac2"/><path d="m475.39 105.623c-16.063 0-29.084 13.022-29.084 29.084v14.025h58.169v-14.025c-.001-16.062-13.022-29.084-29.085-29.084z" fill="#ff77b7"/><path d="m475.39 105.623c-5.488 0-10.62 1.522-15 4.164 8.44 5.091 14.084 14.346 14.084 24.921v14.025h30v-14.025c0-16.063-13.021-29.085-29.084-29.085z" fill="#ff5daa"/></g><circle cx="145.833" cy="228.421" fill="#ff8911" r="87"/><circle cx="224.424" cy="307.012" fill="#ffeb17" r="59.848"/></g><g fill="#060606"><path d="m284.522 276.672 81.282-81.281c6.637-6.636-3.668-17.545-10.606-10.606l-79.098 79.096c-9.286-11.107-22.078-19.173-36.658-22.508.583-4.236.891-8.558.891-12.952 0-52.107-42.393-94.5-94.5-94.5s-94.5 42.393-94.5 94.5 42.393 94.5 94.5 94.5c4.394 0 8.716-.308 12.952-.891 3.335 14.579 11.401 27.372 22.508 36.658l-79.097 79.097c-6.934 6.932 3.824 17.389 10.606 10.606l81.282-81.281c9.125 4.625 19.428 7.25 30.339 7.25 37.136 0 67.348-30.212 67.348-67.348 0-10.911-2.624-21.215-7.249-30.34zm-138.689 31.249c-43.836 0-79.5-35.664-79.5-79.5s35.664-79.5 79.5-79.5 79.5 35.664 79.5 79.5c0 3.818-.287 7.569-.81 11.245-.033 0-.066-.002-.1-.002-37.136 0-67.348 30.212-67.348 67.348 0 .033.002.066.003.1-3.675.522-7.426.809-11.245.809zm74.982-53.119c-7.991 22.645-25.956 40.61-48.601 48.601 1.781-25.992 22.609-46.821 48.601-48.601zm-47.382 64.004c29.951-9.164 53.622-32.835 62.786-62.786 11.736 2.714 21.968 9.38 29.221 18.522l-73.485 73.485c-9.143-7.252-15.808-17.485-18.522-29.221zm50.991 40.553c-6.702 0-13.108-1.28-19.003-3.586l67.765-67.765c2.306 5.895 3.586 12.301 3.586 19.003-.001 28.865-23.483 52.348-52.348 52.348z"/><path d="m404 40.193h-19.623v-16.419c0-31.106-48.372-31.192-48.372 0v16.419h-26.628v-16.419c0-31.106-48.372-31.192-48.372 0v16.419h-26.255v-16.419c0-31.106-48.373-31.192-48.373 0v16.419h-26.255v-16.419c0-31.105-48.373-31.192-48.373 0v16.419h-26.254v-16.419c0-31.106-48.372-31.192-48.372 0v16.419h-19.623c-9.649 0-17.5 7.851-17.5 17.5v436.395c0 9.649 7.851 17.5 17.5 17.5h386.5c9.649 0 17.5-7.851 17.5-17.5v-436.395c0-9.649-7.851-17.5-17.5-17.5zm-52.995-16.419c0-11.846 18.372-11.846 18.372 0v47.839c0 11.846-18.372 11.846-18.372 0zm-75 0c0-11.846 18.372-11.846 18.372 0v47.839c0 11.846-18.372 11.846-18.372 0zm-74.628 0c0-11.846 18.373-11.847 18.373 0v47.839c0 11.847-18.373 11.846-18.373 0zm-74.627 0c0-11.847 18.373-11.846 18.373 0v47.839c0 11.846-18.373 11.847-18.373 0zm-74.627 0c0-11.846 18.372-11.846 18.372 0v47.839c0 11.846-18.372 11.846-18.372 0zm-37.123 470.314v-436.395c0-1.378 1.122-2.5 2.5-2.5h19.623v16.419c0 31.106 48.372 31.192 48.372 0v-16.419h26.255v16.419c0 31.106 48.373 31.192 48.373 0v-16.419h26.255v16.419c0 31.105 48.373 31.192 48.373 0v-16.419h26.255v16.419c0 31.106 48.372 31.192 48.372 0v-16.419h26.628v16.419c0 31.106 48.372 31.192 48.372 0v-16.419h19.622c1.378 0 2.5 1.122 2.5 2.5v348.102h-68.225c-12.444 0-22.567 10.124-22.567 22.567v68.225h-298.208c-1.378.001-2.5-1.121-2.5-2.499zm380.894-73.293-65.186 65.186v-57.619c0-4.173 3.395-7.567 7.567-7.567zm8.106 75.793h-62.686l65.186-65.186v62.686c0 1.378-1.122 2.5-2.5 2.5z"/><path d="m512 453.299-.025-304.567v-14.024c0-20.173-16.412-36.584-36.584-36.584s-36.584 16.412-36.584 36.584v14.025l.007 304.567c1.598 1.746 1.873 2.887.825 3.424l24.629 48.059c4.564 8.905 17.708 8.905 22.271 0l24.551-47.906c.571-1.051.91-3.156.91-3.578zm-58.194-318.591c0-11.902 9.683-21.584 21.584-21.584s21.584 9.683 21.584 21.584v6.525h-43.169v-6.525zm0 21.525h43.169l.001 17.667h-43.17zm24.957 330.833h-6.72l-13.462-26.266h33.643zm-24.95-41.266-.006-256.9h43.171l.022 256.9z"/></g></g></svg>