<?xml version="1.0" encoding="utf-8"?>
<!-- Generator: Adobe Illuthokiman-leg-grayrator 23.0.3, SVG Export Plug-In . SVG Version: 6.00 Build 0)  -->
<svg version="1.1" id="Layer_1" xmlnsvectornator="http://vectornator.io"
	 xmlns="http://www.w3.org/2000/svg" xmlnsXlink="http://www.w3.org/1999/xlink" x="0px" y="0px" viewBox="0 0 612 1867.2"
	 style="enable-background:new 0 0 612 1867.2;" xmlSpace="preserve">
<style type="text/css">
	
		.thokiman-leg-gray0{fill-rule:evenodd;clip-rule:evenodd;fill:#404040;fill-opacity:0.9978;stroke:#1F1F1F;stroke-width:0.78;stroke-linecap:round;stroke-linejoin:round;}
	
		.thokiman-leg-gray1{fill-rule:evenodd;clip-rule:evenodd;fill:#BFBFBF;fill-opacity:0.9978;stroke:#1F1F1F;stroke-width:0.78;stroke-linecap:round;stroke-linejoin:round;}
	
		.thokiman-leg-gray2{fill-rule:evenodd;clip-rule:evenodd;fill:#606060;fill-opacity:0.9978;stroke:#1F1F1F;stroke-width:0.78;stroke-linecap:round;stroke-linejoin:round;}
	
		.thokiman-leg-gray3{fill-rule:evenodd;clip-rule:evenodd;fill:#9F9F9F;fill-opacity:0.9978;stroke:#1F1F1F;stroke-width:0.78;stroke-linecap:round;stroke-linejoin:round;}
	
		.thokiman-leg-gray4{fill-rule:evenodd;clip-rule:evenodd;fill:#DFDFDF;fill-opacity:0.9978;stroke:#1F1F1F;stroke-width:0.78;stroke-linecap:round;stroke-linejoin:round;}
	
		.thokiman-leg-gray5{fill-rule:evenodd;clip-rule:evenodd;fill:#808080;fill-opacity:0.9978;stroke:#1F1F1F;stroke-width:0.78;stroke-linecap:round;stroke-linejoin:round;}
</style>
<g vectornatorlayername="Layer 1">
	<path class="thokiman-leg-gray0" d="M174.7,13.1c0,0,90.1,53.8,94.3,117.1c4.2,63.3-33.8,48.6-79.7,75.5c-43.1,25.2-80.2,82.2-86.5,49.7
		C96.4,223,83,147.8,156,100C171.5,30.3,174.7,13.1,174.7,13.1z"/>
	<path class="thokiman-leg-gray1" d="M210.3,385.8c18.4-2.5-51.9-95.2,61.1-139.8c44-31.6,122.3,188.7,122.1,330.3c-0.3,141.6,16.2,228.1-40.3,241
		c-61.4-95.9-121.1,77.4-149.1-26.2C176.1,687.5,93.7,401.6,210.3,385.8z"/>
	<path class="thokiman-leg-gray1" d="M269.8,926.1c44.7,6.5,100.3-4.4,115.7-18.9c0,0,9.8-85.9-29.3-59c-34.9,24.1-69.4-19.3-100.4-1
		C219.5,868.7,225.1,919.7,269.8,926.1z"/>
	<path class="thokiman-leg-gray1" d="M379.5,960c68.6-17.4,21.6,394.3,16,535.1c-32.8,87.1-35.9,72.7-86.2,10.2c-113-140.5,14.8-524.5,14.8-524.5
		S356.9,1037.3,379.5,960z"/>
	<path class="thokiman-leg-gray2" d="M294.4,981.1c9.4,138.4-35.3,44.5-69.2,181.8c-33.9,137.3,132.9,436.7,42,353.3
		c-184.9-169.5-95.3-453.7-18.4-588.2C302.7,995.7,289.8,913.3,294.4,981.1z"/>
	<path class="thokiman-leg-gray3" d="M368.4,1619c34.3,10.5,33.1,26.7,16.5,35.6c-16.6,8.9-39.2-19.8-82.8,0c-31.8-8.2-35.1-26.2-12.8-35.1
		C311.6,1610.6,334.2,1608.5,368.4,1619z"/>
	<path class="thokiman-leg-gray0" d="M309.3,1559c8.9,19.2-45.6,19.5-55,103.8c-6.1,54.4-75.8,6-119.5,6c-21.5-58.2,55.6-56.8,84-82.8
		C247.2,1560.1,300.5,1539.8,309.3,1559z"/>
	<path class="thokiman-leg-gray3" d="M343,1556.2L343,1556.2c-19.8,0-35.8,11.8-35.8,26.4v2.9c0,14.6,16,26.4,35.8,26.4l0,0
		c19.8,0,35.8-11.8,35.8-26.4v-2.9C378.7,1568.1,362.7,1556.2,343,1556.2z"/>
	<path class="thokiman-leg-gray4" d="M448.4,1671.3c13.7,0,42,22.5,52.2,29.5c16,11,2.2,5.1-1.5,11.7c-2.6,4.6-54.7-29-45.6-29.7
		C467.2,1681.8,443.5,1671.3,448.4,1671.3z"/>
	<path class="thokiman-leg-gray4" d="M412.4,1688.7c19,1.4,51.2,27.8,63.2,36.2c18.7,13.1,1.5,5.5-5.7,12c-5.1,4.5-66.8-35.9-54-35.6
		C435.3,1701.6,405.7,1688.2,412.4,1688.7z"/>
	<path class="thokiman-leg-gray4" d="M397,1714.4c15.4,1.4,42.9,25.3,53.1,32.9c15.8,11.9,1.5,5-4,10.7c-3.9,4-56-32.7-45.6-32.4
		C416.2,1726.2,391.5,1713.9,397,1714.4z"/>
	<path class="thokiman-leg-gray4" d="M318.5,1712.9c19-1.1,72.7,40.7,91.5,53.8c29.2,20.3,6.4,9.8,5.4,23.1c-0.7,9.3-94.7-52.6-82.4-54.6
		C351.5,1732.1,311.8,1713.3,318.5,1712.9z"/>
	<path class="thokiman-leg-gray4" d="M278.7,1748.8c12.6,0.1,40-2.5,58.4,6.9c18.7,9.6,28.2,31.5,37.7,36.7c29.3,16.2,4,7.4-3.1,16.9
		c-5,6.6-100.8-43-83.8-43.7C313.4,1764.4,269.7,1748.8,278.7,1748.8z"/>
	<path class="thokiman-leg-gray1" d="M435.3,1661.1c8.1,5.8,1.7,18-8.1,20.5c-9.8,2.5-25.8-4.6-31-10.6c-5.2-6-2.2-11.3,10.2-13.3
		C418.8,1655.6,427.2,1655.4,435.3,1661.1z"/>
	<path class="thokiman-leg-gray3" d="M372.3,1662.6c15.4,7.6,36.4,47.5,14.3,51.5c-22.1,4-93.8-27.6-102.8-35.7c-9-8.1-0.5-15.6,27.1-19.2
		C338.6,1655.7,356.8,1654.9,372.3,1662.6z"/>
	<path class="thokiman-leg-gray3" d="M301.1,1698.7c14.6,11.7,6.1,35.9-9.8,40.6c-15.9,4.7-43.9-9.9-53.6-21.9c-9.8-12.1-5.8-22.5,14.5-26.3
		C272.5,1687.2,286.5,1687,301.1,1698.7z"/>
	<path class="thokiman-leg-gray4" d="M575.3,1741.3c0,0,15.5,11.7,13.5,14.1c-1.9,2.3-11.4-0.9-22.2-6.8c-10.8-5.9-19.8-3.1-21.8-11.2
		c-2.2-8.4-2.4-3.6,3.9-8.9C555,1723.1,575.3,1741.3,575.3,1741.3z"/>
	<path class="thokiman-leg-gray4" d="M572.1,1767.6c0,0,19.7,12.4,16.6,15c-3.2,2.6-15.9-0.7-30-6.8c-14.2-6.1-27.3-2.9-28.8-11.7
		c-1.5-9.2-2.8-3.9,7.1-9.8C546.7,1748.3,572.1,1767.6,572.1,1767.6z"/>
	<path class="thokiman-leg-gray4" d="M553.3,1790.7c0,0,23.3,13.9,19.7,16.8c-3.6,2.9-18.4-0.9-35-7.8c-16.6-6.9-31.7-3.3-33.7-13.2
		c-2.1-10.2-3.3-4.3,7.8-10.9S553.3,1790.7,553.3,1790.7z"/>
	<path class="thokiman-leg-gray4" d="M528.9,1818.8c0,0,26.6,16.6,22.3,20.1c-4.3,3.5-21.5-0.9-40.6-9.1c-19.1-8.2-37-3.8-38.9-15.6
		c-2-12.3-3.7-5.1,9.7-13.2C494.7,1793,528.9,1818.8,528.9,1818.8z"/>
	<path class="thokiman-leg-gray4" d="M474.8,1836.9c0,0,23.1,13.2,19.3,16.1c-3.8,2.9-18.8-0.6-35.5-7.1c-16.7-6.5-32.4-2.8-33.9-12.3
		c-1.6-9.9-3.2-4.1,8.6-10.7C445.1,1816.3,474.8,1836.9,474.8,1836.9z"/>
	<path class="thokiman-leg-gray1" d="M536.8,1720.1c4.3,6.7-1.8,13.1-12,14.6c-10.3,1.5-21.9-13.4-21.9-13.4s8.2-1.7,8.2-8.4
		S532.6,1713.4,536.8,1720.1z"/>
	<path class="thokiman-leg-gray1" d="M518,1743.7c4.3,6.7-1.8,13.1-12,14.6c-10.3,1.5-21.9-13.4-21.9-13.4s8.2-1.7,8.2-8.4
		C492.2,1729.9,513.7,1737,518,1743.7z"/>
	<path class="thokiman-leg-gray1" d="M493,1766c4.3,6.7-1.8,13-12,14.6c-10.3,1.5-21.9-13.4-21.9-13.4s8.2-1.7,8.2-8.4S488.8,1759.3,493,1766z"/>
	<path class="thokiman-leg-gray1" d="M464,1790.5c4.3,6.7-1.8,13-12,14.6c-10.3,1.5-21.9-13.4-21.9-13.4s8.2-1.7,8.2-8.4
		C438.2,1776.6,459.7,1783.8,464,1790.5z"/>
	<path class="thokiman-leg-gray1" d="M422.2,1809.3c4.3,6.7-1.8,13.1-12,14.6c-10.3,1.5-21.9-13.4-21.9-13.4s8.2-1.7,8.2-8.4
		C396.4,1795.4,417.9,1802.6,422.2,1809.3z"/>
	<path class="thokiman-leg-gray5" d="M160.7,173.5C86.4,204.8,23,262.8,23,290.6c0,0,122.8,127.6,137.7,67.3c13.3-53.9,122.6-113.2,139.2-158
		C319.4,147.5,235,142.2,160.7,173.5z"/>
</g>
</svg>
