<?xml version="1.0" encoding="utf-8"?>
<!-- Generator: Adobe Illustrator 23.0.3, SVG Export Plug-In . SVG Version: 6.00 Build 0)  -->
<svg version="1.1" id="Layer_1" xmlns="http://www.w3.org/2000/svg" xmlns:xlink="http://www.w3.org/1999/xlink" x="0px" y="0px"
	 viewBox="0 0 772 763" style="enable-background:new 0 0 772 763;" xml:space="preserve">
<style type="text/css">
	.st0{fill:#E3E1E4;}
</style>
<g transform="translate(1 1)">
	<g>
		<path class="st0" d="M705.5,0.5H62.4C26.4,0.5-2,28.4-2,64.1v635.7c0,35.6,28.4,63.6,64.4,63.6h295.9h154.4h192.9
			c36,0,64.4-27.9,64.4-63.6V64.2C769.9,28.5,741.5,0.5,705.5,0.5z M383.9,738V483.7H281V381.9h102.9v-88.9
			c0-72.5,56.6-133.5,128.6-139.9h115.7v101.8H525.3c-21.9,0-38.5,16.5-38.5,38.2v88.9h128.6v101.8H486.7V738H383.9L383.9,738z
			 M744.1,699.8c0,21.6-16.8,38.2-38.5,38.2h-193V509.2h128.6V356.6H512.6V293c0-7.6,5-12.7,12.8-12.7H654V127.6H511.1
			c-86.3,7.6-153.1,80.2-153.1,165.2v63.6H255.2v152.6h103V738H62.4c-21.9,0-38.5-16.5-38.5-38.2V64.2c0-21.6,16.8-38.2,38.5-38.2
			h643.2c21.9,0,38.5,16.5,38.5,38.2V699.8L744.1,699.8z"/>
	</g>
</g>
</svg>
