<?xml version="1.0" encoding="utf-8"?>
<!-- Generator: Adobe Illustrator 23.0.3, SVG Export Plug-In . SVG Version: 6.00 Build 0)  -->
<svg version="1.1" id="Capa_1" xmlns="http://www.w3.org/2000/svg" xmlns:xlink="http://www.w3.org/1999/xlink" x="0px" y="0px"
	 viewBox="0 0 722 726" style="enable-background:new 0 0 722 726;" xml:space="preserve">
<style type="text/css">
	.st0{fill:#E3E1E4;}
</style>
<g>
	<g>
		<path class="st0" d="M261.2,584c-4.9,1-7.2,3.3-6.6,7.1c0.6,3.8,3.5,5,8.4,3.8c4.9-1.3,7.2-3.4,6.6-6.6
			C268.9,584.8,266.1,583.3,261.2,584z"/>
		<path class="st0" d="M234.4,587.8c-4.9,0-7.5,1.7-7.5,5.1c0,4.1,2.6,5.8,8,5.1c4.9,0,7.5-1.7,7.5-5.1
			C242.6,589,239.7,587.1,234.4,587.8z"/>
		<path class="st0" d="M198,586.3c-1.3,3.4,0.8,5.8,6.1,7.1c4.8,1.8,7.7,1,8.8-2.8c1-3.4-1.2-6-6.1-7.6
			C202.1,581.8,199.3,582.8,198,586.3z"/>
		<path class="st0" d="M681.1,39.5c-26.4-26.7-58-40-95.2-40H136.6c-37.1,0-68.9,13.3-95.2,40S2,98.3,2,135.8v454.4
			c0,37.5,13.2,69.6,39.5,96.3s58.2,40,95.2,40h104.9c6.9,0,12-0.1,15.4-0.7c3.5-0.6,6.9-2.4,10.3-6.1c3.5-3.7,5-9,5-16
			c0-1-0.1-11.6-0.1-32.1c-0.1-20.6-0.1-36.8-0.1-48.8l-10.8,1.8c-6.9,1.3-15.5,1.8-25.9,1.7c-10.5-0.1-21.3-1.3-32.4-3.3
			c-11.4-2-21.6-6.8-31.3-14.3c-9.7-7.4-16.5-17.1-20.7-29.1l-4.8-11c-3.1-7.3-8-15.3-14.7-24.2c-6.7-8.8-13.4-14.7-20.3-18.1
			l-3.2-2.3c-2.2-1.7-4.3-3.4-6.1-5.7c-1.8-2.1-3.2-4.4-4.3-6.6c-1-2.1-0.1-4,2.3-5.4c2.5-1.4,7.1-2.1,13.6-2.1l9.3,1.4
			c6.2,1.3,14,5,23.1,11.4c9.2,6.3,16.7,14.6,22.6,24.5c7.2,13,15.9,22.8,25.9,29.5c10.2,6.8,20.3,10.1,30.6,10.1
			c10.3,0,19.1-0.8,26.7-2.3c7.5-1.7,14.5-4,20.9-7.1c2.7-21.2,10.5-37.5,23-48.8c-17.7-1.8-33.7-4.8-48.1-8.4
			c-14.2-3.8-28.8-10-43.9-18.4c-15.1-8.4-27.7-19.1-37.7-31.7c-10-12.6-18.2-29.1-24.6-49.8c-6.3-20.6-9.7-44.2-9.7-70.9
			c0-38.1,12.3-70.6,37.1-97.5c-11.5-28.7-10.5-60.8,3.2-96.5c9-2.8,22.5-0.7,40.3,6.4c17.8,7.1,30.8,13.3,39,18.3
			s14.9,9.3,19.8,12.7c29.1-8.1,58.9-12.3,89.8-12.3s60.9,4.1,89.8,12.3l17.7-11.4c12.1-7.6,26.5-14.6,43-20.8
			c16.5-6.3,29.2-8.1,37.9-5.1c14.1,35.7,15.2,67.8,3.8,96.5c24.6,26.8,37.1,59.4,37.1,97.5c0,26.8-3.2,50.5-9.7,71.2
			c-6.3,20.7-14.6,37.3-24.7,49.8c-10.2,12.4-22.8,22.8-37.9,31.5c-15.1,8.4-29.8,14.7-43.9,18.4c-14.2,3.8-30.1,6.6-48.1,8.4
			c16.3,14.3,24.3,36.7,24.3,67.1v113c0,5.3,0.8,9.8,2.3,13.1c1.7,3.3,4.1,5.7,7.5,6.8c3.5,1.3,6.3,2,9.2,2.3
			c2.6,0.3,6.3,0.4,11.5,0.4h104.9c37.1,0,68.9-13.3,95.2-40c26.4-26.7,39.5-58.8,39.5-96.3V135.8C720.6,98.3,707.4,66.1,681.1,39.5
			z"/>
		<path class="st0" d="M144.2,528.6c-2.2,1.4-1.8,4.1,1,7.6c3.1,3.1,5.6,3.7,7.5,1.4c2.2-1.4,1.8-4.1-1-7.6
			C148.6,527.2,146,526.6,144.2,528.6z"/>
		<path class="st0" d="M128.7,516.9c-1,2.1,0.1,4.1,3.2,5.7c2.5,1.7,4.5,1.3,6.1-1c1-2.1-0.1-4.1-3.2-5.7
			C131.7,514.9,129.6,515.2,128.7,516.9z"/>
		<path class="st0" d="M158.6,547c-2.7,1.4-2.7,4.4,0,8.4c2.7,4.1,5.4,5.1,8,3.3c2.7-2.1,2.7-5.1,0-9
			C164.1,545.9,161.5,544.9,158.6,547z"/>
		<path class="st0" d="M175,568.4c-2.7,2.4-2.2,5.4,1.8,9c3.8,3.8,6.9,4.3,9.3,1.3c2.5-2.4,1.8-5.4-1.8-9
			C180.7,566.1,177.6,565.6,175,568.4z"/>
	</g>
</g>
<g>
	<g>
		<path class="st0" d="M261.8,583.2c-4.9,1-7.2,3.3-6.6,7c0.6,3.7,3.5,4.9,8.4,3.7c4.9-1.3,7.2-3.4,6.6-6.6
			C269.5,584,266.7,582.5,261.8,583.2z"/>
		<path class="st0" d="M234.9,586.9c-4.9,0-7.6,1.6-7.6,5.1c0,4.1,2.6,5.7,8,5.1c4.9,0,7.6-1.6,7.6-5.1
			C243.1,588.1,240.2,586.3,234.9,586.9z"/>
		<path class="st0" d="M198.3,585.5c-1.3,3.4,0.8,5.7,6.1,7c4.8,1.8,7.7,1,8.9-2.7c1-3.4-1.2-5.9-6.1-7.6
			C202.5,581,199.6,582,198.3,585.5z"/>
		<path class="st0" d="M682.5,44.2c-26.5-26.5-58.2-39.7-95.6-39.7H135.7c-37.2,0-69.2,13.2-95.6,39.7S0.5,102.5,0.5,139.7v450.7
			c0,37.1,13.2,69,39.6,95.5s58.5,39.7,95.6,39.7H241c7,0,12-0.1,15.5-0.7c3.5-0.5,7-2.4,10.3-6c3.5-3.6,5-8.9,5-15.8
			c0-1-0.1-11.5-0.1-31.9c-0.1-20.4-0.1-36.5-0.1-48.4l-10.8,1.8c-7,1.3-15.6,1.8-26.1,1.6c-10.6-0.1-21.4-1.3-32.5-3.3
			c-11.4-2-21.7-6.7-31.5-14.2c-9.7-7.4-16.6-16.9-20.8-28.9l-4.8-10.9c-3.1-7.3-8-15.2-14.8-24c-6.7-8.7-13.4-14.6-20.4-17.9
			l-3.2-2.3c-2.2-1.6-4.3-3.4-6.1-5.6c-1.8-2.1-3.2-4.4-4.3-6.6c-1-2.1-0.1-4,2.3-5.4c2.5-1.4,7.1-2.1,13.7-2.1l9.4,1.4
			c6.2,1.3,14,4.9,23.2,11.3c9.2,6.3,16.8,14.5,22.7,24.3c7.2,12.9,16,22.6,26.1,29.2c10.2,6.7,20.4,10,30.7,10s19.2-0.8,26.8-2.3
			c7.6-1.6,14.5-4,21-7c2.8-21,10.6-37.1,23.1-48.4c-17.8-1.8-33.9-4.7-48.3-8.4c-14.3-3.7-28.9-9.9-44.1-18.2
			c-15.1-8.4-27.9-18.9-37.8-31.4c-10.1-12.5-18.2-28.9-24.7-49.3c-6.4-20.4-9.7-43.8-9.7-70.3c0-37.8,12.4-70,37.2-96.7
			c-11.5-28.5-10.6-60.3,3.2-95.7c9-2.7,22.6-0.7,40.5,6.4c17.9,7,31,13.2,39.1,18.1c8.2,4.9,15,9.2,19.9,12.6
			c29.2-8,59.2-12.2,90.2-12.2s61.1,4.1,90.2,12.2l17.8-11.3c12.1-7.6,26.7-14.5,43.2-20.7c16.6-6.3,29.3-8,38.1-5.1
			c14.2,35.4,15.2,67.3,3.8,95.7c24.7,26.6,37.2,58.9,37.2,96.7c0,26.6-3.2,50.1-9.7,70.7c-6.4,20.5-14.6,37-24.9,49.3
			s-22.9,22.6-38.1,31.2c-15.1,8.4-29.9,14.6-44.1,18.2c-14.3,3.7-30.3,6.6-48.3,8.4c16.3,14.2,24.4,36.4,24.4,66.6v112.1
			c0,5.3,0.8,9.7,2.3,13c1.7,3.3,4.1,5.6,7.6,6.7c3.5,1.3,6.4,2,9.2,2.3c2.6,0.3,6.4,0.4,11.5,0.4h105.3c37.2,0,69.2-13.2,95.6-39.7
			c26.5-26.5,39.6-58.4,39.6-95.5V139.7C722.1,102.5,708.9,70.5,682.5,44.2z"/>
		<path class="st0" d="M144.3,528.2c-2.2,1.4-1.8,4.1,1,7.6c3.1,3.1,5.6,3.6,7.6,1.4c2.2-1.4,1.8-4.1-1-7.6
			C148.7,526.8,146.1,526.3,144.3,528.2z"/>
		<path class="st0" d="M128.8,516.6c-1,2.1,0.1,4.1,3.2,5.6c2.5,1.6,4.6,1.3,6.1-1c1-2.1-0.1-4.1-3.2-5.6
			C131.8,514.6,129.6,514.9,128.8,516.6z"/>
		<path class="st0" d="M158.8,546.5c-2.8,1.4-2.8,4.4,0,8.4c2.8,4.1,5.4,5.1,8,3.3c2.8-2.1,2.8-5.1,0-8.9
			C164.3,545.4,161.7,544.4,158.8,546.5z"/>
		<path class="st0" d="M175.2,567.7c-2.8,2.4-2.2,5.4,1.8,8.9c3.8,3.7,7,4.3,9.4,1.3c2.5-2.4,1.8-5.4-1.8-8.9
			C181,565.4,177.9,564.9,175.2,567.7z"/>
	</g>
</g>
</svg>
