<?xml version="1.0" encoding="utf-8"?>
<!-- Generator: Adobe Illustrator 23.0.3, SVG Export Plug-In . SVG Version: 6.00 Build 0)  -->
<svg version="1.1" id="Layer_1" xmlns="http://www.w3.org/2000/svg" xmlns:xlink="http://www.w3.org/1999/xlink" x="0px" y="0px"
	 viewBox="0 0 722 726" style="enable-background:new 0 0 722 726;" xml:space="preserve">
<style type="text/css">
	.st0{fill:#E3E1E4;}
</style>
<g>
	<g>
		<g>
			<path class="st0" d="M361,200.2c-89.9,0-162.8,72.9-162.8,162.8S271.1,525.8,361,525.8S523.8,452.9,523.8,363
				S450.9,200.2,361,200.2z M361,496.2c-73.4,0-133.2-59.8-133.2-133.2S287.6,229.8,361,229.8S494.2,289.6,494.2,363
				S434.4,496.2,361,496.2z"/>
			<path class="st0" d="M523.8,133.7c-28.5,0-51.8,23.2-51.8,51.8s23.2,51.8,51.8,51.8c28.5,0,51.8-23.2,51.8-51.8
				S552.3,133.7,523.8,133.7z M523.8,207.6c-12.3,0-22.2-9.9-22.2-22.2c0-12.3,9.9-22.2,22.2-22.2c12.3,0,22.2,9.9,22.2,22.2
				C545.9,197.8,536.1,207.6,523.8,207.6z"/>
			<path class="st0" d="M361,259.4c-57.1,0-103.6,46.4-103.6,103.6S303.9,466.6,361,466.6S464.6,420.1,464.6,363
				S418.1,259.4,361,259.4z M361,436.9c-40.9,0-73.9-33.2-73.9-73.9s33.2-73.9,73.9-73.9s73.9,33.2,73.9,73.9S401.9,436.9,361,436.9
				z"/>
			<path class="st0" d="M501.6,67H220.4c-81.6,0-148,66.4-148,148v288.6c0,81.6,66.4,148,148,148h281.2c81.6,0,148-66.4,148-148V215
				C649.6,133.6,583.1,67,501.6,67z M619.9,503.6c0,65.2-53.2,118.4-118.4,118.4H220.4c-65.2,0-118.4-53.2-118.4-118.4V215
				c0-65.2,53.2-118.4,118.4-118.4h281.2c65.2,0,118.4,53.2,118.4,118.4V503.6z"/>
			<path class="st0" d="M575.5,0.5h-429c-81.6,0-148,66.4-148,148v429c0,81.6,66.4,148,148,148h429c81.6,0,148-66.4,148-148v-429
				C723.5,66.9,657.1,0.5,575.5,0.5z M693.9,577.5c0,65.2-53.2,118.4-118.4,118.4h-429c-65.2,0-118.4-53.2-118.4-118.4v-429
				c0-65.2,53.2-118.4,118.4-118.4h429c65.2,0,118.4,53.2,118.4,118.4L693.9,577.5L693.9,577.5z"/>
		</g>
	</g>
</g>
</svg>
