<?xml version="1.0" encoding="utf-8"?>
<!-- Generator: Adobe Illustrator 23.0.3, SVG Export Plug-In . SVG Version: 6.00 Build 0)  -->
<svg version="1.1" id="Capa_1" xmlns="http://www.w3.org/2000/svg" xmlns:xlink="http://www.w3.org/1999/xlink" x="0px" y="0px"
	 viewBox="0 0 722 726" style="enable-background:new 0 0 722 726;" xml:space="preserve">
<style type="text/css">
	.st0{fill:#E3E1E4;}
</style>
<g>
	<g>
		<path class="st0" d="M86.3,2.5C37.9,2.5,2,36.2,2,84.3s34.4,81.8,82.8,81.8c25,0,46.8-8,62.4-24.1c15.6-14.4,23.5-35.3,23.5-59.3
			C169.1,36.2,134.7,2.5,86.3,2.5z M123.8,119.6c-9.3,9.6-23.5,14.4-39,14.4c-29.7,0-51.5-19.3-51.5-49.7s21.9-49.7,53.1-49.7
			s51.5,19.3,51.5,49.7C137.8,98.8,133.2,111.6,123.8,119.6z"/>
		<path class="st0" d="M17.6,724.5h140.5V195H17.6V724.5z M48.8,225.5h78.1v465.3H48.8V225.5z"/>
		<path class="st0" d="M526.7,193.5c-65.6,0-104.7,22.5-128,44.9l-4.7-44.9H236.3v529.4h156.2V445.3c0-11.2,4.7-36.9,7.8-43.4
			c18.7-41.7,43.7-41.7,82.8-41.7c43.7,0,81.2,43.4,81.2,93.1v271.2h156.2v-300C720.3,265.7,620.4,193.5,526.7,193.5z M689,692.4
			h-93.7V453.3c0-67.4-51.5-125.1-112.5-125.1c-39,0-84.3,0-110.9,61c-6.2,12.9-10.9,41.7-10.9,57.8V694h-93.7V228.7h99.9l6.2,64.2
			h25.2l4.7-8c10.9-17.6,43.7-57.8,123.4-57.8c78.1,0,160.9,62.6,160.9,199C689,424.5,689,692.4,689,692.4z"/>
	</g>
</g>
</svg>
