<?xml version="1.0" encoding="utf-8"?>
<!-- Generator: Adobe Illustrator 23.0.3, SVG Export Plug-In . SVG Version: 6.00 Build 0)  -->
<svg version="1.1" id="Layer_1" xmlns="http://www.w3.org/2000/svg" xmlns:xlink="http://www.w3.org/1999/xlink" x="0px" y="0px"
	 viewBox="0 0 722 726" style="enable-background:new 0 0 722 726;" xml:space="preserve">
<style type="text/css">
	.st0{fill:#E3E1E4;}
</style>
<g>
	<path class="st0" d="M125.3,509.9c42.7,27.4,93.4,43.2,147.8,43.2c177.3,0,274.3-146.9,274.3-274.3c0-4.2-0.1-8.4-0.3-12.6
		c18.7-13.6,35.2-30.6,48.1-50c-17.3,7.6-35.8,12.8-55.4,15.2c19.9-11.9,35.2-30.9,42.4-53.4c-18.6,11-39.3,19.1-61.2,23.4
		c-17.6-18.7-42.7-30.4-70.4-30.4c-53.3,0-96.4,43.1-96.4,96.4c0,7.6,0.9,14.9,2.5,21.9c-80.1-4.1-151.1-42.4-198.7-100.7
		c-8.4,14.1-13.1,30.8-13.1,48.5c0,33.4,17,63,42.8,80.3c-15.8-0.4-30.8-4.7-43.7-12.1c0,0.4,0,0.8,0,1.2
		c0,46.7,33.3,85.6,77.3,94.6c-8.1,2.2-16.5,3.4-25.4,3.4c-6.3,0-12.2-0.6-18.2-1.8c12.2,38.4,47.9,66.3,90.1,66.9
		c-33,25.8-74.6,41.4-119.8,41.4C140.6,511.3,132.9,510.8,125.3,509.9z"/>
	<path class="st0" d="M-1.5,0.5V724H722V0.5H-1.5z M677.2,679.2H43.3V45.3h633.9L677.2,679.2L677.2,679.2z"/>
</g>
</svg>
