<?xml version="1.0" encoding="utf-8"?>
<!-- Generator: Adobe Illustrator 23.0.3, SVG Export Plug-In . SVG Version: 6.00 Build 0)  -->
<svg version="1.1" id="Layer_1" xmlns="http://www.w3.org/2000/svg" xmlns:xlink="http://www.w3.org/1999/xlink" x="0px" y="0px"
	 viewBox="0 0 722 726" style="enable-background:new 0 0 722 726;" xml:space="preserve">
<style type="text/css">
	.st0{fill-rule:evenodd;clip-rule:evenodd;fill:#E3E1E4;}
</style>
<path class="st0" d="M615.6,109.4C547.9,41.7,458.2,4.5,362.4,4.5C165.3,4.5,4.8,165,4.7,362.2c0,63,16.5,124.6,47.8,178.8
	L1.8,726.5l189.7-49.7c52.3,28.5,111.2,43.5,170.9,43.6h0.1c197.1,0,357.7-160.5,357.7-357.7C720.2,266.9,683.1,177.1,615.6,109.4z
	 M362.4,659.9h-0.1c-53.4,0-105.7-14.3-151.3-41.5l-10.8-6.4L87.6,641.5l30-109.7l-7.2-11.3c-29.7-47.3-45.3-101.9-45.3-158.2
	C65.3,198.3,198.7,65,362.7,65C442,65,516.7,96,572.9,152.2c56.1,56.2,87.1,130.9,87.1,210.3C659.7,526.4,526.4,659.9,362.4,659.9z
	 M525.5,437c-8.9-4.5-52.8-26.1-61.1-29.2c-8.3-3-14.1-4.5-20.1,4.5c-5.9,8.9-23,29.2-28.4,35c-5.2,5.9-10.3,6.7-19.4,2.3
	c-8.9-4.5-37.8-13.9-72-44.4c-26.5-23.7-44.5-52.9-49.6-61.9c-5.2-8.9,0-13.3,4-18.3c9.7-12,19.4-24.7,22.3-30.6
	c3-5.9,1.4-11.2-0.8-15.7c-2.3-4.5-20.1-48.4-27.5-66.4c-7.3-17.4-14.6-15-20.1-15.4c-5.2-0.2-11.2-0.3-17.2-0.3
	s-15.7,2.3-23.8,11.2c-8.3,8.9-31.3,30.6-31.3,74.5s32,86.5,36.4,92.5c4.5,5.9,63,96.2,152.7,134.9c21.4,9.2,38,14.6,51,18.8
	c21.5,6.8,40.8,5.8,56.4,3.5c17.2-2.6,52.8-21.7,60.3-42.5c7.5-20.9,7.5-38.7,5.2-42.5C540.5,443.9,534.5,441.6,525.5,437z"/>
</svg>
