<?xml version="1.0" ?><svg data-name="Adobe Folder 2020" id="Adobe_Folder_2020" viewBox="0 0 240 210" xmlns="http://www.w3.org/2000/svg"><defs><style>.cls-1{fill:#022326;}.cls-2{fill:#ccfbff;fill-rule:evenodd;}.cls-3{fill:#3df0f0;}</style></defs><title/><g id="Lightroom"><path class="cls-1" d="M232.5,52.5a15,15,0,0,0-15-15H7.5v150a15,15,0,0,0,15,15h195a15,15,0,0,0,15-15Z"/><path class="cls-2" d="M80.87,158.57c-.84,0-1.05-.35-1.05-1V82.27c0-.56.21-.91.84-.91H91.72c.56,0,.7.21.7.84V147h28.84c.56,0,.77.21.63.84l-1.75,9.94a1,1,0,0,1-1,.84H80.87Zm52.5-45.36c0-.84,0-2.87-.35-6.79a.8.8,0,0,1,.56-.91,73.63,73.63,0,0,1,25.76-4.83c.56,0,.84.14.84.7v10.08c0,.56-.21.7-.84.7-4.41-.21-10.92.35-13.37,1.4v44.17c0,.56-.21.84-.84.84h-11c-.56,0-.84-.21-.84-.84V113.21Z"/><path class="cls-3" d="M217.5,30H137.63A3.41,3.41,0,0,1,135,28.88L111.75,5.63A18.2,18.2,0,0,0,98.63,0H22.5A22.57,22.57,0,0,0,0,22.5v165A22.57,22.57,0,0,0,22.5,210h195A22.57,22.57,0,0,0,240,187.5V52.5A22.57,22.57,0,0,0,217.5,30Zm15,157.5a15,15,0,0,1-15,15H22.5a15,15,0,0,1-15-15V37.5h210a15,15,0,0,1,15,15Z" data-name="Path 4" id="Path_4"/></g></svg>