<?xml version="1.0" encoding="utf-8"?>
<!-- Generator: Adobe Illunormal-facerator 23.0.3, SVG Export Plug-In . SVG Version: 6.00 Build 0)  -->
<svg version="1.1" id="Layer_1" xmlnsvectornator="http://vectornator.io"
	 xmlns="http://www.w3.org/2000/svg" xmlnsXlink="http://www.w3.org/1999/xlink" x="0px" y="0px" viewBox="0 0 585 490"
	 style="enable-background:new 0 0 585 490;" xmlSpace="preserve">
<style type="text/css">
	.normal-face0{fill-rule:evenodd;clip-rule:evenodd;fill:#078F68;}
	.normal-face1{fill-rule:evenodd;clip-rule:evenodd;fill:#656464;}
	.normal-face2{fill-rule:evenodd;clip-rule:evenodd;}
	.normal-face3{fill-rule:evenodd;clip-rule:evenodd;fill:#3D3D3D;}
	.normal-face4{fill-rule:evenodd;clip-rule:evenodd;fill:#797978;}
	.normal-face5{fill-rule:evenodd;clip-rule:evenodd;fill:#6E6E6C;}
	.normal-face6{fill-rule:evenodd;clip-rule:evenodd;fill:#6F6200;}
	.normal-face7{fill-rule:evenodd;clip-rule:evenodd;fill:#9A8907;}
	.normal-face8{fill-rule:evenodd;clip-rule:evenodd;fill:#ECD109;}
	.normal-face9{fill-rule:evenodd;clip-rule:evenodd;fill:#B7B7B7;}
	.normal-face10{fill-rule:evenodd;clip-rule:evenodd;fill:#656565;}
	.normal-face11{fill-rule:evenodd;clip-rule:evenodd;fill:#7F7F7F;}
	.normal-face12{fill-rule:evenodd;clip-rule:evenodd;fill:#A0A0A0;}
	.normal-face13{fill-rule:evenodd;clip-rule:evenodd;fill:#575757;}
	.normal-face14{fill-rule:evenodd;clip-rule:evenodd;fill:#4F4F4F;}
	.normal-face15{fill-rule:evenodd;clip-rule:evenodd;fill:#676767;}
	.normal-face16{fill-rule:evenodd;clip-rule:evenodd;fill:#747473;}
	.normal-face17{fill-rule:evenodd;clip-rule:evenodd;fill:#5B5B5B;}
	.normal-face18{fill-rule:evenodd;clip-rule:evenodd;fill:#474747;}
	.normal-face19{fill-rule:evenodd;clip-rule:evenodd;fill:#838383;}
	.normal-face20{fill-rule:evenodd;clip-rule:evenodd;fill:#696969;}
	.normal-face21{fill-rule:evenodd;clip-rule:evenodd;fill:#4C4C4C;}
	.normal-face22{fill-rule:evenodd;clip-rule:evenodd;fill:#FDDE01;}
	.normal-face23{fill-rule:evenodd;clip-rule:evenodd;fill:#195554;}
	.normal-face24{fill-rule:evenodd;clip-rule:evenodd;fill:#38AEAC;}
	.normal-face25{fill-rule:evenodd;clip-rule:evenodd;fill:#51FFFC;}
	.normal-face26{fill-rule:evenodd;clip-rule:evenodd;fill:#525252;}
	.normal-face27{fill-rule:evenodd;clip-rule:evenodd;fill:#505050;}
</style>
<g>
	<path class="normal-face0" d="M96.3,288.8c-18.2-9-35.1-15.2-55.3-20.7c-7.8-2.1-31.4-11.3-31.4-11.3s51.4-2.6,60.7-1.4
		c6,0.8,11.4,1.2,17.3,2.7c2.1,0.5,8.1,2,6,2c-9.6,0-53.3-46-53.3-46s46.6,9.8,58,14.7c2.9,1.2,6.3,4.5,8.7,2.7
		c2.3-1.7-9.3-13.7-10.7-15.3c-5.7-6.6-39.4-55.3-39.4-55.3s47.3,29.4,54.7,34.7c0.6,0.5,11.1,9.6,11.3,8.7
		c0.2-0.8-39.4-97.3-39.4-97.3s39.8,46.6,47.3,57.4c3.8,5.4,10.4,15.5,12.6,14.7c3.9-1.4-6.9-24.3-7.4-25.4
		c-4.1-10.7-15.3-90.7-15.3-90.7s51.5,86.4,58.1,86.4c3.9,0,0.5-24,0-26.7c-3.5-21.3-3.3-96.7-3.3-96.7S204,95.6,208.4,118
		c1.1,5.6,2.9,11.1,4.1,16.7c0.8,3.8,0.3,11.6,4.1,10.7c3.8-0.9,2.7-28.8,2.7-33.9c0-12,13.4-102.7,13.4-102.7S268.9,121.4,270,122
		c7.4,4.4,9.5-15.3,10.1-19.4c3.8-26.3,32.7-92.1,32.7-92.1s12.2,81.3,14,93.4c1.1,6.9,1.1,21.8,10.7,23.3
		c10.8,1.8,14.1-22.5,16.1-27.3c9.3-24.2,54.5-89.7,57.4-88.6c0,0-43.1,106.5-36.7,116c2.3,3.5,18.8-15.6,29.3-25.4
		c11.3-10.4,80.1-39.4,80.1-39.4s-72,100.9-70,110.7c0.3,1.4,2.9,0,4.1-0.6c9-4.5,16.4-11.3,24.6-16.7c21.2-13.8,92.1-30,92.1-30
		s-88,102.7-88,116.1c0,1.7,3.3-0.5,4.7-1.4c8-4.7,13.1-12.8,20.7-17.3c12.3-7.4,78-28.7,78-28.7s-46.6,44.6-65.3,61.3
		c-8.7,7.7-24.6,17.3-22.1,20c1.1,1.1,22.5-6.9,26-8c13.5-3.9,87.4,6,87.4,6s-40.9,11.6-60.7,12.6c-37.6,2.3-67.1,9.5-103.3,16.7"/>
	<path class="normal-face1" d="M274.2,78.8h22.5c110.1,0,199.3,77.7,199.3,173.5l0,0c0,95.8-89.2,173.5-199.3,173.5h-22.5
		c-110.1,0-199.3-77.7-199.3-173.5l0,0C74.8,156.4,164.1,78.8,274.2,78.8z"/>
	<path class="normal-face2" d="M234.5,94.4c-87.9,0-159.1,71.2-159.1,158.9l17.7,40.6l0,0c0.6,0,1.1,0,1.7,0.2c0.9,0.2,1.7,0.5,2.3,0.8
		c11.6-5.9,24.3-9.2,38.2-9.2h145.4c1.7,0,3.5,0.2,5.1,0.3V103C269.7,97.4,252.4,94.4,234.5,94.4z"/>
	<path class="normal-face3" d="M281.8,461.7c0,2-2.1-6.9-6.3,0.2c-2.6-5-1.5-7.4-5.6-3.8c-8.3-5.1-7.5-16.4-16.1-4.1
		c-4.4,1.5-8.6-17.3-17.7-5.4c-5.4-2.6-10.5-23.3-23-6.5c-5.7-4.5-3.6-15.5-14-3.9c-3.2,3.6-5.1-17.9-14.7-3c-5-3.6-3-13.2-11.7-4.5
		c-1.4,1.4-23.1-33.3-29.4-39.7c-2.6-2.6-14.3,2-10.7,23.1c-5,13.1-40.3-75.7-43-146.3c-2-48.5,19.5-87.7,44.3-82
		c11.3-39.7,33.3-3.8,49.3-5c19.1-1.4,42.4-17.4,63.8-21.2c20.7-3.6,38.5-1.5,38.5-1.5v303.4C285.6,462,281.8,461.4,281.8,461.7z"/>
	<path class="normal-face4" d="M202.4,195.6c-32.3,0-58.6,30.6-58.6,68.3s26.1,68.3,58.6,68.3c0,0,41.5-1.7,52-20.4
		c-8.7,14-47.3,23.7-61.1,10.5c0,0-28.8-23-28.8-53.8c0-19.1,12.3-42.1,24.2-40.4c9.8,1.5,13.8-15.2,24-15.2c0,0-0.5,3.5,11.9,17.4
		c12.3,14,37.1,7.5,37.1,38.2c0,1.4-0.2,2.7-0.2,4.1c0.3-2.9,0.6-5.9,0.6-8.9c0-22.4,3.6-50.3-10.5-62.8c-9.8-8.6-34.8-5.6-47.9-5.6
		h-1.2V195.6z"/>
	<path class="normal-face5" d="M168.6,229.7c-6,3-11.4,7.1-16.1,11.7c-10.7,10.8-16.8,25.8-16.8,43.6c0,35.1,28.1,63.5,60.8,63.5
		c0,0,31.5-1.2,42.2-12.3c-7.7,3.8-29.7,6.2-29.7,6.2c-32.7,0-57.2-34.4-57.2-69.5C151.8,255.3,157.5,241.3,168.6,229.7z"/>
	<path class="normal-face6" d="M207.3,236.9h2.3c18.8,0,33.9,15.2,33.9,33.9l0,0c0,18.8-15.2,33.9-33.9,33.9h-2.3
		c-18.8,0-33.9-15.2-33.9-33.9l0,0C173.4,252.1,188.6,236.9,207.3,236.9z"/>
	<path class="normal-face7" d="M207.3,239.9h2c16.7,0,30,13.7,30,30.3l0,0c0,16.8-13.5,30.3-30,30.3h-2c-16.7,0-30-13.7-30-30.3l0,0
		C177.3,253.5,190.7,239.9,207.3,239.9z"/>
	<path class="normal-face8" d="M207.6,243.6h1.8c14.4,0,26,12,26,26.7l0,0c0,14.7-11.7,26.7-26,26.7h-1.8c-14.4,0-26-12-26-26.7l0,0
		C181.5,255.6,193.2,243.6,207.6,243.6z"/>
	<path class="normal-face9" d="M168.3,209.5c-6,3-37.4,0.2-34.4-17.3c-7.4,26.6,1.5,54.8,1.5,72.6c0,35.1,28.1,63.5,60.8,63.5
		c0,0,31.5-1.2,42.2-12.3c-7.7,3.8-29.7,6.2-29.7,6.2c-32.7,0-57.2-34.4-57.2-69.5C151.6,235,157.3,221,168.3,209.5z"/>
	<path class="normal-face1" d="M247.3,225.4c9.9,11.3,16.1,26,16.1,42.2c0,1.7-0.2,3.2-0.3,4.7c-1.5,11.9-5.6,22.8-11.7,32.4
		c-2.3,3.2-14.9-5.6-22.8,0.5c0,0-2.1,14.1-11.7,14.1h-1.1c-35.3,0-63.8-28.5-63.8-63.8c0-6.2,0.9-12.2,2.6-17.7
		c-7.5,10.5-12,23.3-12,37.3c0,35.3,28.5,63.8,63.8,63.8h1.1c35.3,0,63.8-28.5,63.8-63.8C271.2,255.1,261.9,237.1,247.3,225.4z"/>
	<path class="normal-face3" d="M198.5,203.9c-9.8,0-18.9,2.3-27.3,6.2c-7.8,7.7-13.5,17.1-16.7,27.9c11.6-16.1,30.5-26.6,51.8-26.6h1.1
		c15.2,0,29,5.3,40,14.1c-11.7-13.2-28.7-21.6-47.8-21.6H198.5z"/>
	<path class="normal-face1" d="M221.1,178.2c-11.3,0-24.6,11.3-35,16.2c-12.2,6-40-24-42.2-11.3c5.1-4.8,16.2,15.3,29.7,18.2
		c16.7,3.5,36.4-9.8,45.7-9.8c0,0,19.4-0.5,35,12s23.1,57.1,25.2,68.6c0,0-1.8-14.4-0.5-26.6c1.5-12.2,6.2-21.9,6.2-21.9
		c0-13.5-14.4-14-24.2-23.4C250.9,190.7,235.3,178.2,221.1,178.2z"/>
	<path class="normal-face2" d="M186.1,262.2c0.6,28.4,28.7,30.5,28.7,30.5s26.7-27.2,7.5-41.9c-19.2-14.7-11.3,28.7-11.3,28.7
		S191.6,278.6,186.1,262.2z"/>
	<path class="normal-face3" d="M162.7,228.7c-3,2.9-5.9,5.9-8.3,9.3c-1.7,5.7-2.6,11.6-2.6,17.7c0,12.6,3.8,24.3,10.1,34.2v-52.6
		C162,234.4,162.3,231.4,162.7,228.7z"/>
	<path class="normal-face2" d="M285.6,327.2c-0.6,0-1.2,0.2-1.8,0.2c-15.5,1.8-27.5,12.9-27.5,26.6v32.3c0,7.4,3.3,12.9,12.8,12.9
		c0,9.2,8.6,13.4,16.4,13.8v-85.8H285.6z"/>
	<path class="normal-face3" d="M88.2,295.1L88.2,295.1c21,0,38,16.7,38,37.4v44.8c0,20.6-17,37.4-38,37.4l0,0c-21,0-24.5-24.8-38-37.4v-44.8
		C64.3,319.3,67.2,295.1,88.2,295.1z"/>
	<path class="normal-face10" d="M90.8,295.1L90.8,295.1c19.5,0,35.5,16.7,35.5,37.4v44.8c0,20.6-15.9,37.4-35.5,37.4l0,0
		c-19.5,0-22.8-24.8-35.5-37.4v-44.8C68.7,319.3,71.2,295.1,90.8,295.1z"/>
	<path class="normal-face11" d="M94.1,295.1L94.1,295.1c17.7,0,32.1,16.7,32.1,37.4v44.8c0,20.6-14.4,37.4-32.1,37.4l0,0
		c-17.7,0-20.7-24.8-32.1-37.4v-44.8C73.9,319.3,76.3,295.1,94.1,295.1z"/>
	<path class="normal-face12" d="M98.3,295.1L98.3,295.1c15.5,0,27.9,16.7,27.9,37.4v44.8c0,20.6-12.5,37.4-27.9,37.4l0,0
		c-15.5,0-18-24.8-27.9-37.4v-44.8C80.9,319.3,82.8,295.1,98.3,295.1z"/>
	<path class="normal-face9" d="M92.3,296.6L92.3,296.6c18.2,0,32.9,16.1,32.9,35.9v43c0,19.8-14.7,35.9-32.9,35.9l0,0
		c-18.2,0-34.1-37.9-8.4-37.1l-1.2-33C56.5,343.4,74.1,296.6,92.3,296.6z"/>
	<path class="normal-face3" d="M80.4,303.3c9,0,13.5,16.4,13.5,36.4l4.7,35.5c0,19.8-9.9,35.5-9.9,35.5c-9,0-17.7-37.6-4.8-36.7l-0.9-33
		C69.7,343,80.4,303.3,80.4,303.3z"/>
	<path class="normal-face1" d="M115.5,198.8c-2.7,0-4.2,2.1-4.8,5.1c0.5,4.8,0.9,9.6,0.9,12.8c0,0-0.9,1.8-1.1,2.3c0.5,4.4,0.9,8.4,0.9,11.3
		c0,0-12.2,24.8-16.1,41.8c0.8,1.4,1.8,2.3,3.6,2.3c15.5,0,7.5,17,16.7,17s8.9-16.7,16.5-16.8c-4.1-16.8-14.7-44-14.7-44
		c0-2.7,0.6-6.8,1.2-10.8c-0.3-0.6-1.1-2.7-1.1-2.7c0-3.6,1.1-9.2,1.8-14.6C119,200,117.7,198.8,115.5,198.8z"/>
	<path class="normal-face9" d="M254.6,378.3c-1.2-1.8-9.5-26.7-6.5-33.3c3.5-7.5-2.6-3.9-2.1-5c0.5-1.1,10.8-9.8,10.2-9
		c-3.3,4.5-3.8,9.2-3.2,10.8c2.7-8.1,20.6-16.1,32.4-27.2c-1.5,5.4-3.6,5.7-8.1,9c-7.8,5.6-19.2,12.6-21.3,18.9
		C251.8,352,255.2,379.2,254.6,378.3z"/>
	<path class="normal-face4" d="M285.6,302c-4.2,1.7-15.3,3.9-20.9,8.4c-1.4-1.4-2.9-2.9-3.6-3.3c-0.5,5-6.8,1.2-8.3,9.6
		c-1.4,6.9-4.2,8.1-11.1,16.4c-0.6,0.8,13.8-8.9,18-18.3c0.3,0.2-0.9,3-1.2,4.4c-1.4,6.9-4.2,8.1-11.1,16.4
		c-0.6,0.8,13.2-8.4,17.6-17.9c-3.5,9.9,6.3,2.9,6.9,2.6l-14.4,9.3c6.6,0.6,15.8-7.8,20.3-12.3C269.4,319.6,284.8,305.6,285.6,302z"
		/>
	<path class="normal-face1" d="M254.2,361.6c0,0,3-9.9,1.1-12.8c1.1-4.1,6.6-5.1,10.7-9.2c7.1-6.9,17.7-16.5,19.5-17.3
		c-3.8,3.9-10.1,15.5-8.6,22.4c-0.6,0.2-1.1-0.9-1.7-3.8c-2.1-0.6-1.1-0.6-4.1-2.6C273.9,352.9,254.3,360.7,254.2,361.6z"/>
	<path class="normal-face4" d="M255.8,355.9c0,0,3-9.9,1.1-12.8c1.1-4.1,5.7-2.4,9.8-6.5c7.1-6.9,17.1-17.4,18.9-18.2c-2,2.1-0.8,12-2,17
		c-1.7,7.1-5.3,8.4-6.8,0.6c-2.1-0.6-4.8,1.2-7.8-0.6C271.8,349.8,256,355,255.8,355.9z"/>
	<path class="normal-face9" d="M284.2,413c-1.7,1.8-32.1-10.2-32.9-13.1c-2-7.7-2.3-13.2-2.3-13.2s-3.6-10.1-3.8-14.9
		c-0.2-2.9-0.8-30.3-0.8-29.6s4.1,28.1,9.8,38.6c0,2.7,2,14.1,4.7,14.3C254.9,402,279,411.6,284.2,413z"/>
	<path class="normal-face13" d="M257,362.7c0,0,6,6.6,8.6,10.5c3.2,4.7-2.3,9.9,2.7,15c0,2,1.8,9.6-2,9.8c-2.9,0.2-6-1.1-7.5-3.3
		c-3.2-5-2.4-13.4-2.4-13.4s-0.2-5.1,0.2-7.1c0.3-2.6,0.2-5.3,0.2-8L257,362.7z"/>
	<path class="normal-face3" d="M264.1,367.5c0,0,3.9,5.1,5.7,8.1c2.1,3.8-1.5,7.8,1.8,11.7c0,1.5,1.2,7.5-1.2,7.7c-6,0.3-6.6-12.9-6.6-12.9
		s0-3.9,0-5.4c0.2-2,0.2-4.2,0.2-6.2L264.1,367.5z"/>
	<path class="normal-face14" d="M268,368.5c0,0,3.9,5.1,5.7,8.1c2.1,3.8-1.5,7.8,1.8,11.7c0,1.5,1.2,7.5-1.2,7.7c-6,0.3-6.6-12.9-6.6-12.9
		s0-3.9,0-5.4c0.2-2,0.2-4.2,0.2-6.2L268,368.5z"/>
	<path class="normal-face15" d="M270.4,369c0,0,3.9,5.1,5.7,8.1c2.1,3.8-1.5,7.8,1.8,11.7c0,1.5,1.2,7.5-1.2,7.7c-6,0.3-6.6-12.9-6.6-12.9
		s0-3.9,0-5.4c0.2-2,0.2-4.2,0.2-6.2L270.4,369z"/>
	<path class="normal-face16" d="M273,369.3c0,0,3.9,5.1,5.7,8.1c2.1,3.8-1.5,7.8,1.8,11.7c0,1.5,1.2,7.5-1.2,7.7c-6,0.3-6.6-12.9-6.6-12.9
		s0-3.9,0-5.4c0.2-2,0.2-4.2,0.2-6.2L273,369.3z"/>
	<path class="normal-face12" d="M274.8,369.6c0,0,3.9,5.1,5.7,8.1c2.1,3.8-1.5,7.8,1.8,11.7c0,1.5,1.2,7.5-1.2,7.7c-6,0.3-6.6-12.9-6.6-12.9
		s0-3.9,0-5.4c0.2-2,0.2-4.2,0.2-6.2L274.8,369.6z"/>
	<path class="normal-face9" d="M281.8,390l1.7-5c0.9,0,1.8,0.6,1.8,1.4v24.2c0,0.8-2.4-2.1-3.3-2.1l-0.9,3.5c-0.9,0,0-15,0-15.8l-2.9-10.5
		C278.2,384.9,280.9,390,281.8,390z"/>
	<path class="normal-face1" d="M279.6,345.2l3.3,6.8c0.9,0,2.9-22.4,2.9-21.5v44.3c0,0.9-0.8,1.8-1.8,1.8l-2.4,9.8c-0.9,0-1.7-14.3-6-14.3
		l0.3-3.8C275.7,368.4,278.5,345.2,279.6,345.2z"/>
	<path class="normal-face4" d="M262.3,315.7c-0.2,0.6,5-9.5,10.5-9.5c5.6,0,13.1-7.2,13.1-7.2s-3.6,2-8.6,2c-5,0-9.6,4.8-12.5,9.3
		C264.1,311.6,262.6,314,262.3,315.7z"/>
	<path class="normal-face17" d="M263.5,311.1c-0.2,0.6,5-9.5,10.5-9.5c5.6,0,10.2-5.1,11.3-6.3c1.1-1.4-2,1.2-6.9,1.2c-5,0-9.6,4.8-12.5,9.3
		C265.3,307.1,263.8,309.3,263.5,311.1z"/>
	<path class="normal-face18" d="M265.9,306c-0.2,0.6,5-9.5,10.5-9.5c5.6,0,8.9-4.5,8.9-4.5s0.5-0.6-4.5-0.6c-5,0-9.6,4.8-12.5,9.3
		C267.6,302,266.2,304.2,265.9,306z"/>
	<path class="normal-face2" d="M276.4,293.9c5.6,0,8.9-4.5,8.9-4.5s0.5-0.6-4.5-0.6c-5,0-11.4,5.6-12.8,11.4
		C267.6,301.5,270.9,293.9,276.4,293.9z"/>
	<path class="normal-face9" d="M276,283.2c5.6,0,8.9,4.5,8.9,4.5s0.5,0.6-4.5,0.6c-5,0-11.4-5.6-12.8-11.4C267.3,275.4,270.4,283.2,276,283.2
		z"/>
	<path class="normal-face19" d="M277.8,278c5.4,1.4,7.5,6.6,7.5,6.6s0.3,0.8-4.5-0.5c-4.8-1.2-9.8-8.1-9.6-14.3
		C271.2,268.3,272.4,276.6,277.8,278z"/>
	<path class="normal-face20" d="M279.7,277.5c0.9,4.1,4.7,5.6,4.7,5.6s0.5,0.3-0.3-3.5c-0.9-3.6-5.6-7.2-9.9-7.1
		C273.1,272.7,278.8,273.4,279.7,277.5z"/>
	<path class="normal-face21" d="M280.8,273.9c0.9,4.1,4.7,5.6,4.7,5.6s0.5,0.3-0.3-3.5c-0.9-3.6-5.6-7.2-9.9-7.1
		C274.2,269.1,279.9,269.8,280.8,273.9z"/>
	<path class="normal-face22" d="M244.7,336.4c-5,5.3-19.2,7.8-19.2,11.7c12.3-4.1,16.8-9.5,16.8-9.5S245,336.1,244.7,336.4z"/>
	<path class="normal-face9" d="M244.7,336.4c-5,5.3-19.2,7.8-19.2,11.7c12.3-4.1,16.8-9.5,16.8-9.5S245,336.1,244.7,336.4z"/>
	<path class="normal-face4" d="M248.8,330.5c-5,5.3-19.2,7.8-19.2,11.7c12.3-4.1,16.8-9.5,16.8-9.5S249.2,330.2,248.8,330.5z"/>
	<path class="normal-face1" d="M145.3,309.5c0,3,6.6,14.1,6.6,14.1s15.5,17.4,28.4,23.3c4.4-1.7,27,5.9,26.3,5c-3.2-3.8-14-5.4-17.4-7.1
		c-13.4-6.2-33.9-26.4-33.9-26.4S165,333.5,145.3,309.5z"/>
	<path class="normal-face4" d="M234.8,400.7c0,0-0.5-1.4,12.9,22.4c10.4,18.6,12.6,2.9,22.2,34.1c9.5-7.7-36.4-66.1-40.3-73.5
		C229.3,383,234.8,400.7,234.8,400.7z"/>
	<path class="normal-face9" d="M237.2,399.5c0,0-0.5-1.4,12.9,22.4c10.4,18.6,10.2,3.9,19.8,35.1c2-22.4-33.9-67.1-37.9-74.5
		C231.7,381.7,237.2,399.5,237.2,399.5z"/>
	<path class="normal-face4" d="M204.2,383.4c0,0,21.5,17.6,30.5,34.7c7.1,13.5,11.9,12.9,18.5,35.5c6.5-5.6-27.9-58.4-30.6-63.7
		C222.1,389.1,204.2,383.4,204.2,383.4z"/>
	<path class="normal-face9" d="M215.7,383.3c0,0,12.5,16.1,21.5,33.2c7.1,13.5,9.3,14.4,15.9,37c9.9-8.9-25.5-59.9-28.2-65.3
		C224.6,387.6,215.7,383.3,215.7,383.3z"/>
	<path class="normal-face1" d="M174.7,374.8c0,0,12.6,21.8,22.4,40.4c7.7,14.6,9.2,2.3,16.4,26.6c7.1-6-26.6-51.7-29.6-57.5
		C183.4,383.7,174.7,374.8,174.7,374.8z"/>
	<path class="normal-face4" d="M178.8,375c0,0,11.3,20.1,21,38.8c7.7,14.6,6.5,3.6,13.7,27.9c8.6-12.8-23.9-53-26.9-58.9
		C186.1,382.3,178.8,375,178.8,375z"/>
	<path class="normal-face1" d="M163,374.8c0,0,12,20.9,21.2,38.3c7.1,13.7,8.6,2.1,15.2,24.9c6.5-5.7-24.9-48.4-27.6-53.8
		C171.4,383.7,163,374.8,163,374.8z"/>
	<path class="normal-face4" d="M165.9,374.1c0,0,12.5,21.2,21.5,38.6c7.1,13.7,5.4,2.1,12.2,25.1c8.7-9.6-21.8-48.5-24.5-53.9
		C174.7,383.3,165.9,374.1,165.9,374.1z"/>
	<path class="normal-face1" d="M151.6,379c0,0,11.1,18.3,19.2,33.8c6.5,12,7.7,1.8,13.7,22.1c5.9-5-22.4-42.7-24.8-47.5
		C159.4,386.9,151.6,379,151.6,379z"/>
	<path class="normal-face4" d="M155.5,378.3c0,0,10.4,18.6,18.5,34.1c6.5,12,4.7,1.8,10.5,21.9c9.5-13.8-19.2-42.7-21.6-47.5
		C162.7,386.4,155.5,378.3,155.5,378.3z"/>
	<path class="normal-face1" d="M144.4,384c0,0,9.8,15.8,16.7,28.5c5.4,9.9,6.6,1.5,11.7,18.2c5-4.1-20.6-37-20.6-37L144.4,384z"/>
	<path class="normal-face4" d="M147.4,380.7c0,0,9.6,18.6,16.5,31.4c5.4,9.9,3.9,2,9,18.6c8.3-7.5-16.4-35.8-18.5-39.7
		C154.3,390.6,147.4,380.7,147.4,380.7z"/>
	<path class="normal-face1" d="M243.4,343c-8.1,8-11.3,13.5-17.1,19.4c-0.9,4.5-0.3,9.6,4.5,15.3c3.3,0,9,12.2,15.5,20.6
		c0.9-3.2-12.5-24-12-33.3c-9.6,0,1.5-8.3,4.4-12.2C238.9,352.3,243.8,342.7,243.4,343z"/>
	<path class="normal-face9" d="M244.1,342.2c-8.1,8-9.2,14.3-15,20.1c-0.9,4.5-0.3,9.6,4.5,15.3c3.3,0,16.2,23.9,17,20.7
		c0.9-3.2-13.5-16.4-12.9-25.7c-9.6,0,0.9-16.1,3.8-20.1C241.7,352.3,244.6,341.9,244.1,342.2z"/>
	<path class="normal-face4" d="M192,374.7c0,0,11.1-0.6,12.2-1.1c1.7-0.8,8.3-10.1,10.1-9.9c3.5,0.6,4.1,10.8,7.1,12.6
		c1.2,0.8,9.2,4.2,10.5,4.8c0.6,0.3-6.9,2.7-8.1,2.6c-2.4-0.3-6.5-6.5-14-0.6c4.7-6.8,6.5-19.1,3.9-19.2
		C211.2,385.7,192,374.7,192,374.7z"/>
	<path class="normal-face9" d="M101,298.2c-4.5,4.5-3.2,20.6,6.9,21c9.5,0.5,11.1,12.2,12.9,14.4c11.4,14.4,30.3,24.6,48.1,28.8
		c3.3,0.8,39.7-5.7,38.5-6.3c-1.8-0.9-18.5-3.3-31.4-5.6c-0.5-0.3-0.9-0.5-1.4-0.8c-10.2-7.4-21.2-16.7-26.9-28.4
		c-2.6-5.1-8.3-26.9-12.5-31.1c-1.2-1.2,11.9,34.8-1.2,18.6c-1.7,2.7,2.6,8.3,3.6,10.8c5.9,12.9,14.6,21.9,25.5,28.8
		c-5.4-0.6-9.6-0.9-10.7-0.3c-4.2,2.1-13.7-15.6-16.1-17.9c-1.8-1.8-6.8-7.7-4.7-13.4c2-5.4-3.2-14.4-5.3-16.5
		c-2.3-2.6-6,12.8-8.6,10.5C117.1,309.9,101,297.9,101,298.2z"/>
	<path class="normal-face4" d="M246.8,400.1c0,0,15.6,27.3,20.9,31.5c1.7,5.1,7.7,29.3,7.8,29.3c0.8,0.2,1.2-15.3,1.2-15.5
		c3.8-24.8-10.7-28.5-12.8-29C263.4,416.4,246.8,400.1,246.8,400.1z"/>
	<path class="normal-face9" d="M256,408.9c3.3,3.5,9.9,17,15.2,21.3c1.7,5.1,4.4,30,4.5,30c0.8,0.2,4.4-15.9,4.5-16.2
		c3.8-24.8-8.6-23-10.7-32.3c0-0.3-1.7,2-4.8,1.5C261.1,412.8,255.7,408.6,256,408.9z"/>
	<path class="normal-face4" d="M281.2,415.1c-0.5,3.3-2.1,15.6-2.1,15.6s-0.2,12.6,0.6,17.9c0,0.5,1.7,12.6,2,12.6c0.8,0.2,2.1-12.3,2.1-12.3
		l-2.9-18.3C281.1,430.6,281.7,411.8,281.2,415.1z"/>
	<path class="normal-face9" d="M284.4,419.5c-0.5,3.3-2.9,11-2.9,11s-0.2,12.6,0.6,17.9c0,0.5-0.5,12.8-0.3,12.8c0.8,0.2,3.6-12.3,3.6-12.3
		l-0.9-17.9C284.7,430.9,284.8,416.1,284.4,419.5z"/>
	<path class="normal-face1" d="M172.6,430.9c0,0,21.3,21.6,25.2,30.3c4.7,10.4,23.9,2.9,31.4,6.2c8.4,2.9,17.1,5,25.5,6
		c5.9-4.7,30.5-1.5,30.5-1.5s1.4-6.5-3.2-5.4c-2,2.3-5.7,0.6-6.8-0.9c-3.5,2.9-4.1,0-5.4-2.6c-3.8,3.5-12.9,0.5-15.9-2.9
		c-5.1,4.5-14.4,1.7-18-4.5c-8.4,6-19.4-2.3-22.1-8.6c-5.4-1.2-7.2,6.3-15.5-1.2c-3.2,1.2-13.1-10.5-14.4-8.7
		C182.7,439.1,172.6,430.9,172.6,430.9z"/>
	<path class="normal-face23" d="M151.1,158.1c19.5-39.2,53.3-12.5,46.4-62.5c7.5-6.5,56-47.3,56.5-47c0,0-2.7,8.3-2.7,8.7
		c-0.6,8.1,2.3,16.2,5,23.7c9.2,25.1,18.5,66.4-15,78.1c-22.8,8-43.9,6.6-67.3,3.2C171.3,161.7,150.1,160.2,151.1,158.1z"/>
	<path class="normal-face24" d="M151.8,157.5c17.7-26.7,53.8-11.1,47.6-45.2c6.8-4.4,54.7-63.7,54.7-63.7s-11.6,39.7-11.6,40
		c-0.6,5.6,6.3,22.4,8.7,27.5c8.3,17.1,12.5,34.2-17.7,42.2c-20.7,5.4-39.7,4.5-61,2.1C170.1,160,150.8,159,151.8,157.5z"/>
	<path class="normal-face25" d="M152.5,157.5c17.1-5.7,66.4-8.3,61.4-42.5c5.4-4.4,39.5-65.8,39.5-65.8s-17,45.7-17,46
		c-0.5,5.6-7.4,15.6-5.4,20.6c6.6,17.1-13.8,36.1-13.8,36.1s-31.7,8.9-48.5,6.5C166.8,158.2,151,157.9,152.5,157.5z"/>
	<path class="normal-face23" d="M102.9,211.4c-0.8,1.4,3.5-46.1,4.1-56.2c1.1-20.6,8-43.6,21.9-59.3c4.5-5.1,45.2-38.6,50.2-43.4
		c1.7-1.5-42.2,41.2-42.4,53.3c-0.2,20.3,14.3,43.4,3.6,62.2c-2.3,3.9-12.2,11.3-20.3,10.2C111.9,177.2,103.2,210.8,102.9,211.4z"/>
	<path class="normal-face23" d="M150.4,127.7c-2.1-2.7,6.3-34.2,9.9-38.5c0.2-0.2,0.3-0.6,0.6-0.6c2.9,0,8.7,6.9,10.7,8.6
		c18.5,16.2-2.3,27.5-17.1,31.2C152.8,128.8,151.5,129.1,150.4,127.7z"/>
	<path class="normal-face9" d="M153.3,134.3c0,0,12-1.4,13.5-2.1c10.1-5.7,18.9-3.5,23.7-15.5c0.8-2,2.7-12.8,0.6-12.8
		c-0.8,0-6.6,10.5-15.3,18.5C167.5,129.8,153.3,134.3,153.3,134.3z"/>
	<path class="normal-face26" d="M163.3,130.4c0,0,12.3-2.3,13.7-3c10.1-5.7,16.2-23.1,14.1-23.1c-0.8,0-4.7,11.4-6.6,13.7
		C176.8,126.1,163.3,130.4,163.3,130.4z"/>
	<path class="normal-face1" d="M95.4,271.9c-2,8.7-1.8,15.2,3.5,15.2c15.5,0,7.5,16.7,16.7,16.7c9.3,0,8.9-16.7,16.7-16.7
		c2.4,0,1.8-5.6,0-13.1c-7.7,0.3-7.4,16.8-16.5,16.8c-9.3,0-1.4-17-16.7-17C97.2,274.2,96,273.3,95.4,271.9z"/>
	<path class="normal-face9" d="M115.7,184.8c-6,0-5.9,9.8-5.1,19.1c0.8-3,2.1-5.1,4.8-5.1c2.1,0,3.5,1.2,4.1,3.2
		C120.8,193.2,121.4,184.8,115.7,184.8z"/>
	<path class="normal-face1" d="M110.6,218.9c-2.7,5.6-20.4,43.4-15.2,53c3.9-16.8,16.1-41.8,16.1-41.8C111.3,227.3,111,223.3,110.6,218.9z"/>
	<path class="normal-face9" d="M118.9,219.2c-0.6,4.2-1.2,8.1-1.2,10.8c0,0,10.7,27.2,14.7,44h0.2C139.7,274.2,121.7,226.7,118.9,219.2z"/>
	<path class="normal-face9" d="M111.6,229.9l6-13.7l-5.7,0.5l-1.1,2.9L111.6,229.9z"/>
	<path class="normal-face9" d="M95.6,271.8l16.1-41.2l5.9,0.3l-0.8,59.5c0,0-2.4-16.5-7.7-21.2C103.8,264.6,95.6,271.8,95.6,271.8z"/>
	<path class="normal-face24" d="M102.9,209.9c0,2.4,10.1-56.3,16.8-72c2.7-6.2,7.7-2,11-7.8c0.2-0.5,5.6-22.2,5.9-22.2c0,0,4.1,27.2,3.5,40.9
		c-0.9,20.1-0.9,20.9-2.9,22.7c-5.7,5.7-10.8-5.1-17.6-2.3C117.5,170.1,102.9,206.3,102.9,209.9z"/>
	<path class="normal-face25" d="M110,188.9c0,1.7,6-31.2,9.5-35.1c0.2-0.2,10.5,5.9,9.8-0.2c7.7,3.8,2.4-7.4,3.3-9.6c2.4-6,0.9-22.8,0.9-22.8
		s5.7,14.6,5.1,23.4c-0.9,13.2,3.3,15.8-4.2,15.3c-1.8,14-7.1,0.3-13.8,2.1C118.3,162.7,110,186.5,110,188.9z"/>
	<path class="normal-face24" d="M151.1,127.6l9.6-38.9l8.4,29.6c0,0-4.2-3.5-6.3,3.8c-0.9,3.3-4.1-3.5-6.2-0.9
		C154.3,124.1,151.1,127.6,151.1,127.6z"/>
	<path class="normal-face25" d="M178.3,107.8l-15-16.5l4.5,17.4c0,0,0.9-3,3.9-0.2c1.4,1.4,0.8-3,2.4-2.4C175.9,107,178.3,107.8,178.3,107.8z
		"/>
	<path class="normal-face4" d="M128.5,320.2c0,0-1.7,10.8-1.7,13.5c4.8,5.1,25.2,19.7,30.6,24.8c3.5,3.3,26.3-3.5,29.1-5.9
		c3.6,0.2-31.5,2.3-43.9-8.1C133.6,336.8,128.5,320.2,128.5,320.2z"/>
	<path class="normal-face27" d="M119,311.3c-1.2,1.1,0.6,18.8,0.8,18.8c2.1,0,5.6-10.1,11.4-11.4c1.4-0.3-3.8,1.4-7.7-0.8
		C120.8,316.4,119.6,310.8,119,311.3z"/>
	<path class="normal-face4" d="M140,313.6c0.5-8.9,3.2,9.3,10.8,19.1c7.7,9.8,16.7,19.1,16.7,19.1s-12.8-8.4-19.1-15.5
		c-6.5-7.2-10.7-16.4-10.7-16.4l-2.4-4.5l9,12.5C144.4,327.7,140,315.5,140,313.6z"/>
	<path class="normal-face1" d="M136.3,375.7c-1.1,0.3-2,0.6-3,1.1c-1.1,12.9-22.4,10.5-18.8,16.8c4.5,8,12.9-3.9,19.2,2.6
		c5.1-5.6,11.6-12.2,14.3-16.8C145,379,141.1,378,136.3,375.7z"/>
	<path class="normal-face22" d="M145.6,373.6c-0.3,0-0.6,0.2-0.9,0.2c0.3,0,0.8-0.2,1.1-0.2C145.7,373.6,145.7,373.6,145.6,373.6z
		 M142.7,374.1c-1.8,0.3-3.9,0.9-6.5,1.7C138.8,374.8,140.9,374.4,142.7,374.1z"/>
	<path class="normal-face9" d="M144.4,370.5c-1.8,0.3-5.6,4.5-8.1,5.3c4.8,2.4,11.1,1.8,14.3,2.1C152.4,374.8,145.1,370.3,144.4,370.5z"/>
	<path class="normal-face4" d="M111.5,334.1c-3-0.3-5.7,3.9-7.2,6.8c0,0,6.6,3.3,7.1,5.9c0.5,2.6-5.1,4.5-5.1,4.5c2.3,19.1,9.5,4.4,9.9,4.7
		c10.4,8.6,15.5,14.3,21.6,17.3c2.6-0.8,4.7-1.4,6.5-1.7c0.8-0.2,1.4-0.2,2-0.3c0.3,0,0.6-0.2,0.9-0.2c0.2,0,0.2,0,0.3,0
		c0.9,0,1.5,0,2.1,0.2c2.3,0.5,1.8,2.6,0.2,5.4c13.5,0.9,15.6-12.5,35-0.6c10.2,6.3,16.7,28.2,27.3,28.2s25.8,41.3,25.8,41.3
		s-3.8-25.2-8.9-33.5c-9.8-15.9-29.4-33.2-31.1-36.7c-5-1.4-11.9-2.1-12.3-3.2c14.6,0.3,5.9-10.5,14.1-8.9c12.3,2.6,39.7-20,39.7-20
		l-26.3,7.8l-31.1,20.4c0,0-7.2-8-15.6-8.9c-5.1-0.6-10.8,6-14.7,5.1c-6.2-1.5-27-16.2-25.5-27.5c-0.8-0.3-2.9,11.4-9.8-1.5
		C114.6,335.6,113,334.3,111.5,334.1z"/>
	<path class="normal-face4" d="M82.2,303.3c0,0-15.2,39.7,3.6,37.4l1.4,33c-18.5-0.9-11.6,36.5,1.5,36.5c0,0,19.7-15.3,19.7-35.3l-3.9-21.3
		c-4.7-3.5-8.9-7.4-3.5-7.7c0.2,0,0.8-1.2,1.7-2.7l-1.2-6.9C101.4,316.6,95.3,303.3,82.2,303.3z"/>
	<path class="normal-face9" d="M103.5,346.1c-0.8,1.1-1.4,1.8-1.5,2c-5.1,0.2-1.2,2.9,3.3,5.3L103.5,346.1z"/>
	<path class="normal-face1" d="M180.4,373.9l50.8,49.9L221.1,407c0,0-17-11.4-20.3-20c-3.3-8.7-4.5-8.1-4.5-8.1L180.4,373.9z"/>
	<path class="normal-face9" d="M236,346.7c0,0-14.6,4.8-24.3,11.7c-9.6,6.8-17.1,7.2-17.1,7.2l17-11.6L236,346.7z"/>
	<path class="normal-face3" d="M282.9,351.3c0,0-3.9,1.4-4.8,4.5c-0.9,3.5-1.4,13.1-1.4,13.1l6.8,9.8L282.9,351.3z"/>
	<path class="normal-face4" d="M282,390l-1.2,12.9l1.2,5.4l2.6-17.9L282,390z"/>
	<path class="normal-face4" d="M249.8,395l-13.5-33.2l3.8-7.1L249.8,395z"/>
	<path class="normal-face1" d="M218,434.2c-4.7-10.7-13.2-29-10.7-26.3c5.7,6,8.9,6.3,14.9,14.4c6,8,9.2,17.7,9.2,17.7S219.8,438.5,218,434.2
		z"/>
	<path class="normal-face4" d="M239.8,443.3c-2.7-6.9-7.7-18.9-6.2-17.1c3.3,3.9,5.1,4.2,8.6,9.3c3.5,5.3,5.3,11.6,5.3,11.6
		S241,446.2,239.8,443.3z"/>
	<path class="normal-face4" d="M259,449.5c-2.7-6.9-7.7-18.9-6.2-17.1c3.3,3.9,5.1,4.2,8.6,9.3c3.5,5.3,5.3,11.6,5.3,11.6
		S260.1,452.3,259,449.5z"/>
	<path class="normal-face9" d="M219.3,434.3c-1.4-11-14.4-29.1-11.7-26.4c5.7,6,6.9,7.7,12.9,15.8c6,8,10.5,16.2,10.5,16.2
		S219.9,439.1,219.3,434.3z"/>
	<path class="normal-face9" d="M240.7,443.5c-0.8-7.2-8.3-18.9-6.8-17.1c3.3,3.9,4.1,5.1,7.5,10.2c3.5,5.3,6.2,10.7,6.2,10.7
		S241,446.6,240.7,443.5z"/>
	<path class="normal-face9" d="M259.8,449.8c-0.8-7.2-8.3-18.9-6.8-17.1c3.3,3.9,4.1,5.1,7.5,10.2c3.5,5.3,6.2,10.7,6.2,10.7
		S260.1,452.8,259.8,449.8z"/>
	<path class="normal-face4" d="M272.7,412.7c0,0,0.8,3.2,2.1,5c1.4,1.8,3.3,2.1,3.3,2.1l1.2-4.4L272.7,412.7z"/>
	<path class="normal-face4" d="M254.2,404.7l8.6,5.9c0,0,1.1,2.3,2.7,0.5c3.5,0,2.6-1.4,2.6-1.4L254.2,404.7z"/>
	<path class="normal-face9" d="M178.5,428.8c-0.6,0-1.1,0.3-1.4,0.6l-0.2,0.2c-0.3,0.5-0.6,0.9-0.6,1.5v0.2c0.6,0.8,3.6,1.1,4.5,0.5V431
		C180.6,429.8,179.7,428.8,178.5,428.8z"/>
	<path class="normal-face9" d="M180.6,436c-0.5-0.2-0.8-0.6-1.1-1.1l-0.2-0.2c-0.2-0.5-0.2-0.9,0-1.4v-0.2c0.8-0.3,3.5,0.5,3.9,1.2l-0.2,0.5
		C182.8,435.8,181.6,436.3,180.6,436z"/>
	<path class="normal-face9" d="M191.1,432.2c-1.4,0-2.6,1.4-2.6,3.2l0,0c0.9,0.9,3.9,1.2,5.1,0.6v-0.8C193.5,433.6,192.5,432.2,191.1,432.2z"
		/>
	<path class="normal-face9" d="M192.9,441.5c-1.2-0.5-1.7-2-1.1-3.3l0,0c1.1-0.5,3.8,0.5,4.5,1.4l-0.3,0.6
		C195.6,441.4,194.1,442.1,192.9,441.5z"/>
	<path class="normal-face9" d="M204.9,436.1c-2.1,0-3.8,1.8-4.1,4.1c1.1,1.2,6.8,1.7,8.1,0.6v-0.2C209,438.2,207.2,436.1,204.9,436.1z"/>
	<path class="normal-face9" d="M203.3,447.7c-1.8-0.8-2.7-2.9-2.1-4.7c1.4-0.6,6.3,1.2,7.1,2.4v0.2C207.5,447.5,205.2,448.4,203.3,447.7z"/>
	<path class="normal-face9" d="M223.6,440.8c-4.1,0-7.4,2.9-7.7,6.6c2,2,13.1,2.7,15.2,0.9c0.2-0.2,0.2-0.3,0.3-0.6c0-0.9-0.2-1.7-0.6-2.4
		c-0.2-0.2-0.2-0.3-0.3-0.5c-0.3-0.6-0.8-1.2-1.2-1.7c-0.3-0.3-0.5-0.5-0.8-0.8C227.2,441.5,225.5,440.8,223.6,440.8z"/>
	<path class="normal-face9" d="M222.2,459.6c-3.5-1.5-5.3-4.8-4.4-7.8c2.3-0.9,12,2.7,13.2,4.8c0.2,0.2,0,0.3,0,0.5c-0.3,0.6-0.8,1.2-1.4,1.7
		c-0.2,0.2-0.3,0.2-0.3,0.3c-0.5,0.3-1.1,0.6-1.5,0.9c-0.3,0.2-0.6,0.2-0.9,0.3C225.5,460.3,223.9,460.2,222.2,459.6z"/>
	<path class="normal-face9" d="M243.1,449.3c-3.2,0-5.6,2.3-6.2,5.3c1.8,1.7,10.5,2.1,12.3,0.8C249.1,452,246.4,449.3,243.1,449.3z"/>
	<path class="normal-face9" d="M242.2,464.2c-2.7-1.2-4.1-3.8-3.5-6.3c2.1-0.6,9.6,2.1,10.8,3.9C248.3,464.4,245.2,465.4,242.2,464.2z"/>
	<path class="normal-face9" d="M261.3,453.7c-2.1,0-3.8,1.8-3.8,4.2v0.5c1.1,1.4,6.2,1.8,7.5,0.8v-1.2c0-0.6-0.2-1.1-0.3-1.7
		C264.1,454.8,262.8,453.7,261.3,453.7z"/>
	<path class="normal-face9" d="M259.3,466.5c-1.8-0.8-2.6-2.9-1.8-4.7l0.2-0.3c1.4-0.6,5.9,0.8,6.6,2.1l-0.5,0.9c-0.2,0.5-0.5,0.8-0.8,1.2
		C262,466.6,260.5,467.1,259.3,466.5z"/>
	<path class="normal-face9" d="M271.3,459.7c-1.4,0-2.4,1.4-2.4,3.2v0.2c0.9,0.9,3.9,1.4,5,0.5v-0.8C273.9,461.1,272.7,459.7,271.3,459.7z"/>
	<path class="normal-face9" d="M271.9,468.9c-1.2-0.5-1.7-2-1.1-3.3v-0.2c1.1-0.5,3.8,0.5,4.4,1.4l-0.3,0.6
		C274.5,468.6,273.1,469.3,271.9,468.9z"/>
	<path class="normal-face9" d="M278.7,461.5c-1.2,0-2.3,1.1-2.3,2.3v0.3c0.9,1.1,3.8,1.4,4.4,0.3c0.2-0.2,0-0.5,0-0.8
		C280.9,462.6,279.9,461.5,278.7,461.5z"/>
	<path class="normal-face9" d="M277.9,469c-1.1-0.5-1.5-1.5-1.2-2.6l0.2-0.3c1.1-0.5,3.8,0.3,3.9,1.4c0,0.2-0.2,0.3-0.2,0.6
		C280.2,469,279,469.5,277.9,469z"/>
	<path class="normal-face9" d="M285.6,464.5c-0.5,0.6-2.9,0.6-3.3,0c-0.5-0.6,0.9-2.3,1.8-2.3C284.8,462.1,286,463.9,285.6,464.5z"/>
	<path class="normal-face9" d="M285.4,466.6c-0.2-0.6-2.3-1.7-2.9-1.2c-0.5,0.3,0,2.3,0.8,2.6C284.1,468.3,285.6,467.2,285.4,466.6z"/>
	<path class="normal-face9" d="M152.2,160.2c1.8,0.5,15.5,6.9,17.3,7.2c4.8,0.8,9.3,0.8,14.1,0.9c7.1,0.3,14.7,0.9,21.8,0.2
		c0.5,0,6.6-1.1,6.6-0.8s-2.6,1.1-2.7,1.1c-2.9,1.2-5.9,1.5-8.9,1.8c-4.4,0.3-8.9,0.6-13.4,0.6c-5.3,0-10.5-0.2-15.3-1.1
		C170.1,169.9,151.6,160,152.2,160.2z"/>
	<path class="normal-face4" d="M152.2,160.3c1.8,0.5,15.3,8.6,17.1,8.9c4.8,0.8,9.3,0.8,14.1,0.9c7.1,0.3,14.7,0.9,21.8,0.2
		c0.5,0,6.6-3,6.8-2.6c0,0.3-2.7,3-2.9,3c-2.9,1.2-5.9,1.5-8.9,1.8c-4.4,0.3-8.9,0.6-13.4,0.6c-5.3,0-10.5-0.2-15.3-1.1
		C170.1,171.8,151.8,160,152.2,160.3z"/>
	<path class="normal-face1" d="M152.2,160.2c1.8,0.5,15.3,10.5,17,10.8c4.8,0.8,9.3,0.8,14.1,0.9c7.1,0.3,14.7,0.9,21.8,0.2
		c0.5,0,6.8-4.8,6.9-4.5c0,0.3-2.7,4.8-3,5c-2.9,1.2-5.9,1.5-8.9,1.8c-4.4,0.3-8.9,0.6-13.4,0.6c-5.3,0-10.5-0.2-15.3-1.1
		C169.9,173.6,151.6,160,152.2,160.2z"/>
	<path class="normal-face1" d="M122.6,182.9c0,0,6.2-2,7.4-2.7c0.5-0.3,3.5-2.7,3.5-2.7s-6.2,6.5-7.5,6.6
		C125.2,184.2,122.6,182.9,122.6,182.9z"/>
	<path class="normal-face4" d="M146,141.4c0,0,1.1,12.2,0,18.2c-0.3,1.5-0.6,3-1.2,4.4c-0.5,0.9-1.4,2.4-1.4,2.4s3.3-3.9,3.5-4.4
		c2.9-5.1,2.4-10.2,2.6-15.6c0-1.4-0.5-3.3-1.4-4.2C147.7,141.7,146,141.4,146,141.4z"/>
	<path class="normal-face9" d="M152.5,146.4c0.8-3.5,7.8-6.9,10.5-8.7c0.9-0.6,7.1-2.9,7.1-2.9s-12.2,8.7-14,10.5c-0.3,0.3-4.5,6.9-4.7,6.9
		C151.3,152.2,152.4,146.7,152.5,146.4z"/>
	<path class="normal-face4" d="M151.9,146.4c0.5-3.5,5.9-7.5,8.7-9c2.1-1.2,8-2.7,6.3-2.3c-2,0.6-8.4,5.4-10.1,7.4c-0.3,0.3-5.1,9.9-5.3,9.9
		C151.3,152.2,151.9,146.7,151.9,146.4z"/>
	<path class="normal-face1" d="M150.8,146.5c-0.2-3.5,8.6-12.3,11.4-11c1.5,0.8-2.6,1.1-3.6,2.6c-1.1,1.4-3.3,4.2-4.7,6.5
		c-0.3,0.5-2.4,8-2.6,8C151.3,152.4,150.8,146.8,150.8,146.5z"/>
	<path class="normal-face2" d="M336.2,94.4c87.9,0,159.1,71.2,159.1,158.9l-17.7,40.6l0,0c-0.6,0-1.1,0-1.7,0.2c-0.9,0.2-1.7,0.5-2.3,0.8
		c-11.6-5.9-24.3-9.2-38.2-9.2H290.1c-1.7,0-3.5,0.2-5.1,0.3V103C301.1,97.4,318.2,94.4,336.2,94.4z"/>
	<path class="normal-face3" d="M288.7,461.7c0,2,2.1-6.9,6.3,0.2c2.6-5,1.5-7.4,5.6-3.8c8.3-5.1,7.5-16.4,16.1-4.1c4.4,1.5,8.6-17.3,17.7-5.4
		c5.4-2.6,10.5-23.3,23-6.5c5.7-4.5,3.6-15.5,14-3.9c3.2,3.6,5.1-17.9,14.7-3c5-3.6,3-13.2,11.7-4.5c1.4,1.4,23.1-33.3,29.4-39.7
		c2.6-2.6,14.3,2,10.7,23.1c5,13.1,40.3-75.7,43-146.3c2-48.5-19.5-87.7-44.3-82c-11.3-39.7-33.3-3.8-49.3-5
		c-19.1-1.4-42.4-17.4-63.8-21.2c-20.7-3.6-38.5-1.5-38.5-1.5v303.4C285,462,288.7,461.4,288.7,461.7z"/>
	<path class="normal-face4" d="M368.2,195.6c32.3,0,58.6,30.6,58.6,68.3s-26.1,68.3-58.6,68.3c0,0-41.5-1.7-52-20.4
		c8.7,14,47.3,23.7,61.1,10.5c0,0,28.8-23,28.8-53.8c0-19.1-12.3-42.1-24.2-40.4c-9.8,1.5-13.8-15.2-24-15.2c0,0,0.5,3.5-11.9,17.4
		c-12.3,14-37.1,7.5-37.1,38.2c0,1.4,0.2,2.7,0.2,4.1c-0.3-2.9-0.6-5.9-0.6-8.9c0-22.4-3.6-50.3,10.5-62.8
		c9.8-8.6,34.8-5.6,47.9-5.6h1.2V195.6z"/>
	<path class="normal-face5" d="M402.2,229.7c6,3,11.4,7.1,16.1,11.7c10.7,10.8,16.8,25.8,16.8,43.6c0,35.1-28.1,63.5-60.8,63.5
		c0,0-31.5-1.2-42.2-12.3c7.7,3.8,29.7,6.2,29.7,6.2c32.7,0,57.2-34.4,57.2-69.5C418.8,255.3,413.1,241.3,402.2,229.7z"/>
	<path class="normal-face6" d="M363.2,236.9H361c-18.8,0-33.9,15.2-33.9,33.9l0,0c0,18.8,15.2,33.9,33.9,33.9h2.3c18.8,0,33.9-15.2,33.9-33.9
		l0,0C397.2,252.1,382,236.9,363.2,236.9z"/>
	<path class="normal-face7" d="M363.4,239.9h-2c-16.7,0-30,13.7-30,30.3l0,0c0,16.8,13.5,30.3,30,30.3h2c16.7,0,30-13.7,30-30.3l0,0
		C393.4,253.5,379.9,239.9,363.4,239.9z"/>
	<path class="normal-face8" d="M363.1,243.6h-1.8c-14.4,0-26,12-26,26.7l0,0c0,14.7,11.7,26.7,26,26.7h1.8c14.4,0,26-12,26-26.7l0,0
		C389.1,255.6,377.4,243.6,363.1,243.6z"/>
	<path class="normal-face9" d="M402.3,209.5c6,3,37.4,0.2,34.4-17.3c7.4,26.6-1.5,54.8-1.5,72.6c0,35.1-28.1,63.5-60.8,63.5
		c0,0-31.5-1.2-42.2-12.3c7.7,3.8,29.7,6.2,29.7,6.2c32.7,0,57.2-34.4,57.2-69.5C419,235,413.3,221,402.3,209.5z"/>
	<path class="normal-face1" d="M323.3,225.4c-9.9,11.3-16.1,26-16.1,42.2c0,1.7,0.2,3.2,0.3,4.7c1.5,11.9,5.6,22.8,11.7,32.4
		c2.3,3.2,14.9-5.6,22.8,0.5c0,0,2.1,14.1,11.7,14.1h1.1c35.3,0,63.8-28.5,63.8-63.8c0-6.2-0.9-12.2-2.6-17.7
		c7.5,10.5,12,23.3,12,37.3c0,35.3-28.5,63.8-63.8,63.8h-1.1c-35.3,0-63.8-28.5-63.8-63.8C299.4,255.1,308.7,237.1,323.3,225.4z"/>
	<path class="normal-face3" d="M372.1,203.9c9.8,0,18.9,2.3,27.3,6.2c7.8,7.7,13.5,17.1,16.7,27.9c-11.6-16.1-30.5-26.6-51.8-26.6h-1.1
		c-15.2,0-29,5.3-40,14.1c11.7-13.2,28.7-21.6,47.8-21.6H372.1z"/>
	<path class="normal-face1" d="M349.6,178.2c11.3,0,24.6,11.3,35,16.2c12.2,6,40-24,42.2-11.3c-5.1-4.8-16.2,15.3-29.7,18.2
		c-16.7,3.5-36.4-9.8-45.7-9.8c0,0-19.4-0.5-35,12c-15.5,12.5-23.1,57.1-25.2,68.6c0,0,1.8-14.4,0.5-26.6
		c-1.5-12.2-6.2-21.9-6.2-21.9c0-13.5,14.4-14,24.2-23.4C319.7,190.7,335.3,178.2,349.6,178.2z"/>
	<path class="normal-face2" d="M384.6,262.2c-0.6,28.4-28.7,30.5-28.7,30.5s-26.7-27.2-7.5-41.9c19.2-14.7,11.3,28.7,11.3,28.7
		S379,278.6,384.6,262.2z"/>
	<path class="normal-face3" d="M407.9,228.7c3,2.9,5.9,5.9,8.3,9.3c1.7,5.7,2.6,11.6,2.6,17.7c0,12.6-3.8,24.3-10.1,34.2v-52.6
		C408.6,234.4,408.3,231.4,407.9,228.7z"/>
	<path class="normal-face2" d="M285,327.2c0.6,0,1.2,0.2,1.8,0.2c15.5,1.8,27.5,12.9,27.5,26.6v32.3c0,7.4-3.3,12.9-12.8,12.9
		c0,9.2-8.6,13.4-16.4,13.8v-85.8H285z"/>
	<path class="normal-face3" d="M482.5,295.1L482.5,295.1c-21,0-38,16.7-38,37.4v44.8c0,20.6,17,37.4,38,37.4l0,0c21,0,24.5-24.8,38-37.4
		v-44.8C506.3,319.3,503.5,295.1,482.5,295.1z"/>
	<path class="normal-face10" d="M479.8,295.1L479.8,295.1c-19.5,0-35.5,16.7-35.5,37.4v44.8c0,20.6,15.9,37.4,35.5,37.4l0,0
		c19.5,0,22.8-24.8,35.5-37.4v-44.8C502,319.3,499.5,295.1,479.8,295.1z"/>
	<path class="normal-face11" d="M476.5,295.1L476.5,295.1c-17.7,0-32.1,16.7-32.1,37.4v44.8c0,20.6,14.4,37.4,32.1,37.4l0,0
		c17.7,0,20.7-24.8,32.1-37.4v-44.8C496.6,319.3,494.4,295.1,476.5,295.1z"/>
	<path class="normal-face12" d="M472.5,295.1L472.5,295.1c-15.5,0-27.9,16.7-27.9,37.4v44.8c0,20.6,12.5,37.4,27.9,37.4l0,0
		c15.5,0,18-24.8,27.9-37.4v-44.8C489.9,319.3,487.8,295.1,472.5,295.1z"/>
	<path class="normal-face9" d="M478.3,296.6L478.3,296.6c-18.2,0-32.9,16.1-32.9,35.9v43c0,19.8,14.7,35.9,32.9,35.9l0,0
		c18.2,0,34.1-37.9,8.4-37.1l1.2-33C514.1,343.4,496.5,296.6,478.3,296.6z"/>
	<path class="normal-face3" d="M490.2,303.3c-9,0-13.5,16.4-13.5,36.4l-4.7,35.5c0,19.8,9.9,35.5,9.9,35.5c9,0,17.7-37.6,4.8-36.7l0.9-33
		C500.8,343,490.2,303.3,490.2,303.3z"/>
	<path class="normal-face1" d="M455,198.8c2.7,0,4.2,2.1,4.8,5.1c-0.5,4.8-0.9,9.6-0.9,12.8c0,0,0.9,1.8,1.1,2.3c-0.5,4.4-0.9,8.4-0.9,11.3
		c0,0,12.2,24.8,16.1,41.8c-0.8,1.4-1.8,2.3-3.6,2.3c-15.5,0-7.5,17-16.7,17s-8.9-16.7-16.5-16.8c4.1-16.8,14.7-44,14.7-44
		c0-2.7-0.6-6.8-1.2-10.8c0.3-0.6,1.1-2.7,1.1-2.7c0-3.6-1.1-9.2-1.8-14.6C451.7,200,452.9,198.8,455,198.8z"/>
	<path class="normal-face9" d="M315.9,378.3c1.2-1.8,9.5-26.7,6.5-33.3c-3.5-7.5,2.6-3.9,2.1-5c-0.5-1.1-10.8-9.8-10.2-9
		c3.3,4.5,3.8,9.2,3.2,10.8c-2.7-8.1-20.6-16.1-32.4-27.2c1.5,5.4,3.6,5.7,8.1,9c7.8,5.6,19.2,12.6,21.3,18.9
		C318.8,352,315.5,379.2,315.9,378.3z"/>
	<path class="normal-face4" d="M285,302c4.2,1.7,15.3,3.9,20.9,8.4c1.4-1.4,2.9-2.9,3.6-3.3c0.5,5,6.8,1.2,8.3,9.6c1.4,6.9,4.2,8.1,11.1,16.4
		c0.6,0.8-13.8-8.9-18-18.3c-0.3,0.2,0.9,3,1.2,4.4c1.4,6.9,4.2,8.1,11.1,16.4c0.6,0.8-13.2-8.4-17.6-17.9c3.5,9.9-6.3,2.9-6.9,2.6
		l14.4,9.3c-6.6,0.6-15.8-7.8-20.3-12.3C301.2,319.6,285.9,305.6,285,302z"/>
	<path class="normal-face1" d="M316.4,361.6c0,0-3-9.9-1.1-12.8c-1.1-4.1-6.6-5.1-10.7-9.2c-7.1-6.9-17.7-16.5-19.5-17.3
		c3.8,3.9,10.1,15.5,8.6,22.4c0.6,0.2,1.1-0.9,1.7-3.8c2.1-0.6,1.1-0.6,4.1-2.6C296.7,352.9,316.2,360.7,316.4,361.6z"/>
	<path class="normal-face4" d="M314.7,355.9c0,0-3-9.9-1.1-12.8c-1.1-4.1-5.7-2.4-9.8-6.5c-7.1-6.9-17.1-17.4-18.9-18.2c2,2.1,0.8,12,2,17
		c1.7,7.1,5.3,8.4,6.8,0.6c2.1-0.6,4.8,1.2,7.8-0.6C298.8,349.8,314.6,355,314.7,355.9z"/>
	<path class="normal-face9" d="M286.5,413c1.7,1.8,32.1-10.2,32.9-13.1c2-7.7,2.3-13.2,2.3-13.2s3.6-10.1,3.8-14.9c0.2-2.9,0.8-30.3,0.8-29.6
		s-4.1,28.1-9.8,38.6c0,2.7-2,14.1-4.7,14.3C315.6,402,291.6,411.6,286.5,413z"/>
	<path class="normal-face13" d="M313.7,362.7c0,0-6,6.6-8.6,10.5c-3.2,4.7,2.3,9.9-2.7,15c0,2-1.8,9.6,2,9.8c2.9,0.2,6-1.1,7.5-3.3
		c3.2-5,2.4-13.4,2.4-13.4s0.2-5.1-0.2-7.1c-0.3-2.6-0.2-5.3-0.2-8L313.7,362.7z"/>
	<path class="normal-face3" d="M306.5,367.5c0,0-3.9,5.1-5.7,8.1c-2.1,3.8,1.5,7.8-1.8,11.7c0,1.5-1.2,7.5,1.2,7.7c6,0.3,6.6-12.9,6.6-12.9
		s0-3.9,0-5.4c-0.2-2-0.2-4.2-0.2-6.2L306.5,367.5z"/>
	<path class="normal-face14" d="M302.6,368.5c0,0-3.9,5.1-5.7,8.1c-2.1,3.8,1.5,7.8-1.8,11.7c0,1.5-1.2,7.5,1.2,7.7c6,0.3,6.6-12.9,6.6-12.9
		s0-3.9,0-5.4c-0.2-2-0.2-4.2-0.2-6.2L302.6,368.5z"/>
	<path class="normal-face15" d="M300.2,369c0,0-3.9,5.1-5.7,8.1c-2.1,3.8,1.5,7.8-1.8,11.7c0,1.5-1.2,7.5,1.2,7.7c6,0.3,6.6-12.9,6.6-12.9
		s0-3.9,0-5.4c-0.2-2-0.2-4.2-0.2-6.2L300.2,369z"/>
	<path class="normal-face16" d="M297.8,369.3c0,0-3.9,5.1-5.7,8.1c-2.1,3.8,1.5,7.8-1.8,11.7c0,1.5-1.2,7.5,1.2,7.7c6,0.3,6.6-12.9,6.6-12.9
		s0-3.9,0-5.4c-0.2-2-0.2-4.2-0.2-6.2L297.8,369.3z"/>
	<path class="normal-face12" d="M295.8,369.6c0,0-3.9,5.1-5.7,8.1c-2.1,3.8,1.5,7.8-1.8,11.7c0,1.5-1.2,7.5,1.2,7.7c6,0.3,6.6-12.9,6.6-12.9
		s0-3.9,0-5.4c-0.2-2-0.2-4.2-0.2-6.2L295.8,369.6z"/>
	<path class="normal-face9" d="M288.7,390l-1.7-5c-0.9,0-1.8,0.6-1.8,1.4v24.2c0,0.8,2.4-2.1,3.3-2.1l0.9,3.5c0.9,0,0-15,0-15.8l2.9-10.5
		C292.5,384.9,289.8,390,288.7,390z"/>
	<path class="normal-face1" d="M291.1,345.2l-3.3,6.8c-0.9,0-2.9-22.4-2.9-21.5v44.3c0,0.9,0.8,1.8,1.8,1.8l2.4,9.8c0.9,0,1.7-14.3,6-14.3
		l-0.3-3.8C294.9,368.4,292,345.2,291.1,345.2z"/>
	<path class="normal-face4" d="M308.3,315.7c0.2,0.6-5-9.5-10.5-9.5c-5.6,0-13.1-7.2-13.1-7.2s3.6,2,8.6,2c5,0,9.6,4.8,12.5,9.3
		C306.6,311.6,308,314,308.3,315.7z"/>
	<path class="normal-face17" d="M307.1,311.1c0.2,0.6-5-9.5-10.5-9.5s-10.2-5.1-11.3-6.3c-1.1-1.4,2,1.2,6.9,1.2c5,0,9.6,4.8,12.5,9.3
		C305.4,307.1,306.8,309.3,307.1,311.1z"/>
	<path class="normal-face18" d="M304.7,306c0.2,0.6-5-9.5-10.5-9.5c-5.6,0-8.9-4.5-8.9-4.5s-0.5-0.6,4.5-0.6c5,0,9.6,4.8,12.5,9.3
		C303,302,304.5,304.2,304.7,306z"/>
	<path class="normal-face2" d="M294.3,293.9c-5.6,0-8.9-4.5-8.9-4.5s-0.5-0.6,4.5-0.6c5,0,11.4,5.6,12.8,11.4
		C303,301.5,299.9,293.9,294.3,293.9z"/>
	<path class="normal-face9" d="M294.6,283.2c-5.6,0-8.9,4.5-8.9,4.5s-0.5,0.6,4.5,0.6c5,0,11.4-5.6,12.8-11.4
		C303.5,275.4,300.2,283.2,294.6,283.2z"/>
	<path class="normal-face19" d="M292.8,278c-5.4,1.4-7.5,6.6-7.5,6.6s-0.3,0.8,4.5-0.5s9.8-8.1,9.6-14.3C299.6,268.3,298.2,276.6,292.8,278z"
		/>
	<path class="normal-face20" d="M290.8,277.5c-0.9,4.1-4.7,5.6-4.7,5.6s-0.5,0.3,0.3-3.5c0.9-3.6,5.6-7.2,9.9-7.1
		C297.6,272.7,291.9,273.4,290.8,277.5z"/>
	<path class="normal-face21" d="M289.8,273.9c-0.9,4.1-4.7,5.6-4.7,5.6s-0.5,0.3,0.3-3.5c0.9-3.6,5.6-7.2,9.9-7.1
		C296.6,269.1,290.7,269.8,289.8,273.9z"/>
	<path class="normal-face22" d="M325.8,336.4c5,5.3,19.2,7.8,19.2,11.7c-12.3-4.1-16.8-9.5-16.8-9.5S325.5,336.1,325.8,336.4z"/>
	<path class="normal-face9" d="M325.8,336.4c5,5.3,19.2,7.8,19.2,11.7c-12.3-4.1-16.8-9.5-16.8-9.5S325.5,336.1,325.8,336.4z"/>
	<path class="normal-face4" d="M321.8,330.5c5,5.3,19.2,7.8,19.2,11.7c-12.3-4.1-16.8-9.5-16.8-9.5S321.5,330.2,321.8,330.5z"/>
	<path class="normal-face1" d="M425.3,309.5c0,3-6.6,14.1-6.6,14.1s-15.5,17.4-28.4,23.3c-4.4-1.7-27,5.9-26.3,5c3.2-3.8,14-5.4,17.4-7.1
		c13.4-6.2,33.9-26.4,33.9-26.4S405.6,333.5,425.3,309.5z"/>
	<path class="normal-face4" d="M335.8,400.7c0,0,0.5-1.4-12.9,22.4c-10.4,18.6-12.6,2.9-22.2,34.1c-9.5-7.7,36.4-66.1,40.3-73.5
		C341.3,383,335.8,400.7,335.8,400.7z"/>
	<path class="normal-face9" d="M333.4,399.5c0,0,0.5-1.4-12.9,22.4c-10.4,18.6-10.2,3.9-19.8,35.1c-2-22.4,33.9-67.1,37.9-74.5
		C339.1,381.7,333.4,399.5,333.4,399.5z"/>
	<path class="normal-face4" d="M366.4,383.4c0,0-21.5,17.6-30.5,34.7c-7.1,13.5-11.9,12.9-18.5,35.5c-6.5-5.6,27.9-58.4,30.6-63.7
		C348.5,389.1,366.4,383.4,366.4,383.4z"/>
	<path class="normal-face9" d="M354.8,383.3c0,0-12.5,16.1-21.5,33.2c-7.1,13.5-9.3,14.4-15.9,37c-9.9-8.9,25.5-59.9,28.2-65.3
		C346,387.6,354.8,383.3,354.8,383.3z"/>
	<path class="normal-face1" d="M396,374.8c0,0-12.6,21.8-22.4,40.4c-7.7,14.6-9.2,2.3-16.4,26.6c-7.1-6,26.6-51.7,29.6-57.5
		C387.1,383.7,396,374.8,396,374.8z"/>
	<path class="normal-face4" d="M391.9,375c0,0-11.3,20.1-21,38.8c-7.7,14.6-6.5,3.6-13.7,27.9c-8.6-12.8,23.9-53,26.9-58.9
		C384.4,382.3,391.9,375,391.9,375z"/>
	<path class="normal-face1" d="M407.7,374.8c0,0-12,20.9-21.2,38.3c-7.1,13.7-8.6,2.1-15.2,24.9c-6.5-5.7,24.9-48.4,27.6-53.8
		C399.2,383.7,407.7,374.8,407.7,374.8z"/>
	<path class="normal-face4" d="M404.7,374.1c0,0-12.5,21.2-21.5,38.6c-7.1,13.7-5.4,2.1-12.2,25.1c-8.7-9.6,21.8-48.5,24.5-53.9
		C395.8,383.3,404.7,374.1,404.7,374.1z"/>
	<path class="normal-face1" d="M419,379c0,0-11.1,18.3-19.2,33.8c-6.5,12-7.7,1.8-13.7,22.1c-5.9-5,22.4-42.7,24.8-47.5
		C411.2,386.9,419,379,419,379z"/>
	<path class="normal-face4" d="M415.1,378.3c0,0-10.4,18.6-18.5,34.1c-6.5,12-4.7,1.8-10.5,21.9c-9.5-13.8,19.2-42.7,21.6-47.5
		C408,386.4,415.1,378.3,415.1,378.3z"/>
	<path class="normal-face1" d="M426.2,384c0,0-9.8,15.8-16.7,28.5c-5.4,9.9-6.6,1.5-11.7,18.2c-5-4.1,20.6-37,20.6-37L426.2,384z"/>
	<path class="normal-face4" d="M423.2,380.7c0,0-9.6,18.6-16.5,31.4c-5.4,9.9-3.9,2-9,18.6c-8.3-7.5,16.4-35.8,18.5-39.7
		C416.4,390.6,423.2,380.7,423.2,380.7z"/>
	<path class="normal-face1" d="M327.2,343c8.1,8,11.3,13.5,17.1,19.4c0.9,4.5,0.3,9.6-4.5,15.3c-3.3,0-9,12.2-15.5,20.6
		c-0.9-3.2,12.5-24,12-33.3c9.6,0-1.5-8.3-4.4-12.2C331.7,352.3,326.9,342.7,327.2,343z"/>
	<path class="normal-face9" d="M326.4,342.2c8.1,8,9.2,14.3,15,20.1c0.9,4.5,0.3,9.6-4.5,15.3c-3.3,0-16.2,23.9-17,20.7
		c-0.9-3.2,13.5-16.4,12.9-25.7c9.6,0-0.9-16.1-3.8-20.1C328.9,352.3,326.1,341.9,326.4,342.2z"/>
	<path class="normal-face4" d="M378.6,374.7c0,0-11.1-0.6-12.2-1.1c-1.7-0.8-8.3-10.1-10.1-9.9c-3.5,0.6-4.1,10.8-7.1,12.6
		c-1.2,0.8-9.2,4.2-10.5,4.8c-0.6,0.3,6.9,2.7,8.1,2.6c2.4-0.3,6.5-6.5,14-0.6c-4.7-6.8-6.5-19.1-3.9-19.2
		C359.5,385.7,378.6,374.7,378.6,374.7z"/>
	<path class="normal-face9" d="M469.8,298.2c4.5,4.5,3.2,20.6-6.9,21c-9.5,0.5-11.1,12.2-12.9,14.4c-11.4,14.4-30.3,24.6-48.1,28.8
		c-3.3,0.8-39.7-5.7-38.5-6.3c1.8-0.9,18.5-3.3,31.4-5.6c0.5-0.3,0.9-0.5,1.4-0.8c10.2-7.4,21.2-16.7,26.9-28.4
		c2.6-5.1,8.3-26.9,12.5-31.1c1.2-1.2-11.9,34.8,1.2,18.6c1.7,2.7-2.6,8.3-3.6,10.8c-5.9,12.9-14.6,21.9-25.5,28.8
		c5.4-0.6,9.6-0.9,10.7-0.3c4.2,2.1,13.7-15.6,16.1-17.9c1.8-1.8,6.8-7.7,4.7-13.4c-2-5.4,3.2-14.4,5.3-16.5
		c2.3-2.6,6,12.8,8.6,10.5C453.5,309.9,469.6,297.9,469.8,298.2z"/>
	<path class="normal-face4" d="M323.7,400.1c0,0-15.6,27.3-20.9,31.5c-1.7,5.1-7.7,29.3-7.8,29.3c-0.8,0.2-1.2-15.3-1.2-15.5
		c-3.8-24.8,10.7-28.5,12.8-29C307.2,416.4,323.7,400.1,323.7,400.1z"/>
	<path class="normal-face9" d="M314.7,408.9c-3.3,3.5-9.9,17-15.2,21.3c-1.7,5.1-4.4,30-4.5,30c-0.8,0.2-4.4-15.9-4.5-16.2
		c-3.8-24.8,8.6-23,10.7-32.3c0-0.3,1.7,2,4.8,1.5C309.5,412.8,315,408.6,314.7,408.9z"/>
	<path class="normal-face4" d="M289.3,415.1c0.5,3.3,2.1,15.6,2.1,15.6s0.2,12.6-0.6,17.9c0,0.5-1.7,12.6-2,12.6c-0.8,0.2-2.1-12.3-2.1-12.3
		l2.9-18.3C289.6,430.6,288.9,411.8,289.3,415.1z"/>
	<path class="normal-face9" d="M286.2,419.5c0.5,3.3,2.9,11,2.9,11s0.2,12.6-0.6,17.9c0,0.5,0.5,12.8,0.3,12.8c-0.8,0.2-3.6-12.3-3.6-12.3
		l0.9-17.9C285.9,430.9,285.7,416.1,286.2,419.5z"/>
	<path class="normal-face1" d="M398.1,430.9c0,0-21.3,21.6-25.2,30.3c-4.7,10.4-23.9,2.9-31.4,6.2c-8.4,2.9-17.1,5-25.5,6
		c-5.9-4.7-30.5-1.5-30.5-1.5s-1.4-6.5,3.2-5.4c2,2.3,5.7,0.6,6.8-0.9c3.5,2.9,4.1,0,5.4-2.6c3.8,3.5,12.9,0.5,15.9-2.9
		c5.1,4.5,14.4,1.7,18-4.5c8.4,6,19.4-2.3,22.1-8.6c5.4-1.2,7.2,6.3,15.5-1.2c3.2,1.2,13.1-10.5,14.4-8.7
		C387.9,439.1,398.1,430.9,398.1,430.9z"/>
	<path class="normal-face23" d="M419.4,158.1c-19.5-39.2-53.3-12.5-46.4-62.5c-7.5-6.5-56-47.3-56.5-47c0,0,2.7,8.3,2.7,8.7
		c0.6,8.1-2.3,16.2-5,23.7c-9.2,25.1-18.5,66.4,15,78.1c22.8,8,43.9,6.6,67.3,3.2C399.3,161.7,420.5,160.2,419.4,158.1z"/>
	<path class="normal-face24" d="M418.8,157.5c-17.7-26.7-53.8-11.1-47.6-45.2c-6.8-4.4-54.7-63.7-54.7-63.7s11.6,39.7,11.6,40
		c0.6,5.6-6.3,22.4-8.7,27.5c-8.3,17.1-12.5,34.2,17.7,42.2c20.7,5.4,39.7,4.5,61,2.1C400.7,160,419.9,159,418.8,157.5z"/>
	<path class="normal-face25" d="M418.1,157.5c-17.1-5.7-66.4-8.3-61.4-42.5c-5.4-4.4-39.5-65.8-39.5-65.8s17,45.7,17,46
		c0.5,5.6,7.4,15.6,5.4,20.6c-6.6,17.1,13.8,36.1,13.8,36.1s31.7,8.9,48.5,6.5C403.8,158.2,419.7,157.9,418.1,157.5z"/>
	<path class="normal-face23" d="M467.6,211.4c0.8,1.4-3.5-46.1-4.1-56.2c-1.1-20.6-8-43.6-21.9-59.3c-4.5-5.1-45.2-38.6-50.2-43.4
		c-1.7-1.5,42.2,41.2,42.4,53.3c0.2,20.3-14.3,43.4-3.6,62.2c2.3,3.9,12.2,11.3,20.3,10.2C458.6,177.2,467.3,210.8,467.6,211.4z"/>
	<path class="normal-face23" d="M420.3,127.7c2.1-2.7-6.3-34.2-9.9-38.5c-0.2-0.2-0.3-0.6-0.6-0.6c-2.9,0-8.7,6.9-10.7,8.6
		c-18.5,16.2,2.3,27.5,17.1,31.2C417.9,128.8,419.3,129.1,420.3,127.7z"/>
	<path class="normal-face9" d="M417.5,134.3c0,0-12-1.4-13.5-2.1c-10.1-5.7-18.9-3.5-23.7-15.5c-0.8-2-2.7-12.8-0.6-12.8
		c0.8,0,6.6,10.5,15.3,18.5C403.2,129.8,417.5,134.3,417.5,134.3z"/>
	<path class="normal-face26" d="M407.4,130.4c0,0-12.3-2.3-13.7-3c-10.1-5.7-16.2-23.1-14.1-23.1c0.8,0,4.7,11.4,6.6,13.7
		C393.9,126.1,407.4,130.4,407.4,130.4z"/>
	<path class="normal-face1" d="M475.3,271.9c2,8.7,1.8,15.2-3.5,15.2c-15.5,0-7.5,16.7-16.7,16.7c-9.3,0-8.9-16.7-16.7-16.7
		c-2.4,0-1.8-5.6,0-13.1c7.7,0.3,7.4,16.8,16.5,16.8c9.3,0,1.4-17,16.7-17C473.4,274.2,474.6,273.3,475.3,271.9z"/>
	<path class="normal-face9" d="M454.9,184.8c6,0,5.9,9.8,5.1,19.1c-0.8-3-2.1-5.1-4.8-5.1c-2.1,0-3.5,1.2-4.1,3.2
		C449.8,193.2,449.2,184.8,454.9,184.8z"/>
	<path class="normal-face1" d="M460,218.9c2.7,5.6,20.4,43.4,15.2,53c-3.9-16.8-16.1-41.8-16.1-41.8C459.2,227.3,459.7,223.3,460,218.9z"/>
	<path class="normal-face9" d="M451.7,219.2c0.6,4.2,1.2,8.1,1.2,10.8c0,0-10.7,27.2-14.7,44h-0.2C430.8,274.2,448.9,226.7,451.7,219.2z"/>
	<path class="normal-face9" d="M458.9,229.9l-6-13.7l5.7,0.5l1.1,2.9L458.9,229.9z"/>
	<path class="normal-face9" d="M475,271.8l-16.1-41.2l-5.9,0.3l0.8,59.5c0,0,2.4-16.5,7.7-21.2C466.7,264.6,475,271.8,475,271.8z"/>
	<path class="normal-face24" d="M467.8,209.9c0,2.4-10.1-56.3-16.8-72c-2.7-6.2-7.7-2-11-7.8c-0.2-0.5-5.6-22.2-5.9-22.2
		c0,0-4.1,27.2-3.5,40.9c0.9,20.1,0.9,20.9,2.9,22.7c5.7,5.7,10.8-5.1,17.6-2.3C453.1,170.1,467.8,206.3,467.8,209.9z"/>
	<path class="normal-face25" d="M460.6,188.9c0,1.7-6-31.2-9.5-35.1c-0.2-0.2-10.5,5.9-9.8-0.2c-7.7,3.8-2.4-7.4-3.3-9.6
		c-2.4-6-0.9-22.8-0.9-22.8s-5.7,14.6-5.1,23.4c0.9,13.2-3.3,15.8,4.2,15.3c1.8,14,7.1,0.3,13.8,2.1
		C452.3,162.7,460.6,186.5,460.6,188.9z"/>
	<path class="normal-face24" d="M419.4,127.6l-9.6-38.9l-8.4,29.6c0,0,4.2-3.5,6.3,3.8c0.9,3.3,4.1-3.5,6.2-0.9
		C416.4,124.1,419.4,127.6,419.4,127.6z"/>
	<path class="normal-face25" d="M392.2,107.8l15-16.5l-4.5,17.4c0,0-0.9-3-3.9-0.2c-1.4,1.4-0.8-3-2.4-2.4C394.6,107,392.2,107.8,392.2,107.8
		z"/>
	<path class="normal-face4" d="M442.1,320.2c0,0,1.7,10.8,1.7,13.5c-4.8,5.1-25.2,19.7-30.6,24.8c-3.5,3.3-26.3-3.5-29.1-5.9
		c-3.6,0.2,31.5,2.3,43.9-8.1C437,336.8,442.1,320.2,442.1,320.2z"/>
	<path class="normal-face27" d="M451.6,311.3c1.2,1.1-0.6,18.8-0.8,18.8c-2.1,0-5.6-10.1-11.4-11.4c-1.4-0.3,3.8,1.4,7.7-0.8
		C449.8,316.4,451.1,310.8,451.6,311.3z"/>
	<path class="normal-face4" d="M430.5,313.6c-0.5-8.9-3.2,9.3-10.8,19.1c-7.7,9.8-16.7,19.1-16.7,19.1s12.8-8.4,19.1-15.5
		c6.5-7.2,10.7-16.4,10.7-16.4l2.4-4.5l-9,12.5C426.2,327.7,430.7,315.5,430.5,313.6z"/>
	<path class="normal-face1" d="M434.3,375.7c1.1,0.3,2,0.6,3,1.1c1.1,12.9,22.4,10.5,18.8,16.8c-4.5,8-12.9-3.9-19.2,2.6
		c-5.1-5.6-11.6-12.2-14.3-16.8C425.7,379,429.5,378,434.3,375.7z"/>
	<path class="normal-face22" d="M425,373.6c0.3,0,0.6,0.2,0.9,0.2c-0.3,0-0.8-0.2-1.1-0.2C424.8,373.6,425,373.6,425,373.6z M427.8,374.1
		c1.8,0.3,3.9,0.9,6.5,1.7C431.7,374.8,429.6,374.4,427.8,374.1z"/>
	<path class="normal-face9" d="M426.2,370.5c1.8,0.3,5.6,4.5,8.1,5.3c-4.8,2.4-11.1,1.8-14.3,2.1C418.2,374.8,425.6,370.3,426.2,370.5z"/>
	<path class="normal-face4" d="M459.2,334.1c3-0.3,5.7,3.9,7.2,6.8c0,0-6.6,3.3-7.1,5.9c-0.5,2.6,5.1,4.5,5.1,4.5c-2.3,19.1-9.5,4.4-9.9,4.7
		c-10.4,8.6-15.5,14.3-21.6,17.3c-2.6-0.8-4.7-1.4-6.5-1.7c-0.8-0.2-1.4-0.2-2-0.3c-0.3,0-0.6-0.2-0.9-0.2c-0.2,0-0.2,0-0.3,0
		c-0.9,0-1.5,0-2.1,0.2c-2.3,0.5-1.8,2.6-0.2,5.4c-13.5,0.9-15.6-12.5-35-0.6c-10.2,6.3-16.7,28.2-27.3,28.2
		c-10.7,0-25.8,41.3-25.8,41.3s3.8-25.2,8.9-33.5c9.8-15.9,29.4-33.2,31.1-36.7c5-1.4,11.9-2.1,12.3-3.2
		c-14.6,0.3-5.9-10.5-14.1-8.9c-12.3,2.6-39.7-20-39.7-20l26.3,7.8l31.1,20.3c0,0,7.2-8,15.6-8.9c5.1-0.6,10.8,6,14.7,5.1
		c6.2-1.5,27-16.2,25.5-27.5c0.8-0.3,2.9,11.4,9.8-1.5C455.9,335.6,457.6,334.3,459.2,334.1z"/>
	<path class="normal-face4" d="M488.5,303.3c0,0,15.2,39.7-3.6,37.4l-1.4,33c18.5-0.9,11.6,36.5-1.5,36.5c0,0-19.7-15.3-19.7-35.3l3.9-21.3
		c4.7-3.5,8.9-7.4,3.5-7.7c-0.2,0-0.8-1.2-1.7-2.7l1.2-6.9C469.1,316.6,475.5,303.3,488.5,303.3z"/>
	<path class="normal-face9" d="M467.2,346.1c0.8,1.1,1.4,1.8,1.5,2c5.1,0.2,1.2,2.9-3.3,5.3L467.2,346.1z"/>
	<path class="normal-face1" d="M390.1,373.9l-50.8,49.9l10.1-16.8c0,0,17-11.4,20.3-20c3.3-8.7,4.5-8.1,4.5-8.1L390.1,373.9z"/>
	<path class="normal-face9" d="M334.7,346.7c0,0,14.6,4.8,24.3,11.7c9.6,6.8,17.1,7.2,17.1,7.2l-17-11.6L334.7,346.7z"/>
	<path class="normal-face3" d="M287.7,351.3c0,0,3.9,1.4,4.8,4.5c0.9,3.5,1.4,13.1,1.4,13.1l-6.8,9.8L287.7,351.3z"/>
	<path class="normal-face4" d="M288.6,390l1.2,12.9l-1.2,5.4l-2.6-17.9L288.6,390z"/>
	<path class="normal-face4" d="M320.7,395l13.5-33.2l-3.8-7.1L320.7,395z"/>
	<path class="normal-face1" d="M352.7,434.2c4.7-10.7,13.2-29,10.7-26.3c-5.7,6-8.9,6.3-14.9,14.4c-6,8-9.2,17.7-9.2,17.7
		S350.8,438.5,352.7,434.2z"/>
	<path class="normal-face4" d="M330.8,443.3c2.7-6.9,7.7-18.9,6.2-17.1c-3.3,3.9-5.1,4.2-8.6,9.3c-3.5,5.3-5.3,11.6-5.3,11.6
		S329.8,446.2,330.8,443.3z"/>
	<path class="normal-face4" d="M311.7,449.5c2.7-6.9,7.7-18.9,6.2-17.1c-3.3,3.9-5.1,4.2-8.6,9.3c-3.5,5.3-5.3,11.6-5.3,11.6
		S310.7,452.3,311.7,449.5z"/>
	<path class="normal-face9" d="M351.2,434.3c1.4-11,14.4-29.1,11.7-26.4c-5.7,6-6.9,7.7-12.9,15.8c-6,8-10.5,16.2-10.5,16.2
		S350.6,439.1,351.2,434.3z"/>
	<path class="normal-face9" d="M329.9,443.5c0.8-7.2,8.3-18.9,6.8-17.1c-3.3,3.9-4.1,5.1-7.5,10.2c-3.5,5.3-6.2,10.7-6.2,10.7
		S329.6,446.6,329.9,443.5z"/>
	<path class="normal-face9" d="M310.8,449.8c0.8-7.2,8.3-18.9,6.8-17.1c-3.3,3.9-4.1,5.1-7.5,10.2c-3.5,5.3-6.2,10.7-6.2,10.7
		S310.5,452.8,310.8,449.8z"/>
	<path class="normal-face4" d="M297.9,412.7c0,0-0.8,3.2-2.1,5c-1.4,1.8-3.3,2.1-3.3,2.1l-1.2-4.4L297.9,412.7z"/>
	<path class="normal-face4" d="M316.5,404.7l-8.6,5.9c0,0-1.1,2.3-2.7,0.5c-3.5,0-2.6-1.4-2.6-1.4L316.5,404.7z"/>
	<path class="normal-face9" d="M392.2,428.8c0.6,0,1.1,0.3,1.4,0.6l0.2,0.2c0.3,0.5,0.6,0.9,0.6,1.5v0.2c-0.6,0.8-3.6,1.1-4.5,0.5V431
		C390,429.8,391,428.8,392.2,428.8z"/>
	<path class="normal-face9" d="M390,436c0.5-0.2,0.8-0.6,1.1-1.1l0.2-0.2c0.2-0.5,0.2-0.9,0-1.4v-0.2c-0.8-0.3-3.5,0.5-3.9,1.2l0.2,0.5
		C387.7,435.8,388.9,436.3,390,436z"/>
	<path class="normal-face9" d="M379.6,432.2c1.4,0,2.6,1.4,2.6,3.2l0,0c-0.9,0.9-3.9,1.2-5.1,0.6v-0.8C377.1,433.6,378.1,432.2,379.6,432.2z"
		/>
	<path class="normal-face9" d="M377.7,441.5c1.2-0.5,1.7-2,1.1-3.3l0,0c-1.1-0.5-3.8,0.5-4.5,1.4l0.3,0.6C375,441.4,376.5,442.1,377.7,441.5z
		"/>
	<path class="normal-face9" d="M365.8,436.1c2.1,0,3.8,1.8,4.1,4.1c-1.1,1.2-6.8,1.7-8.1,0.6v-0.2C361.6,438.2,363.6,436.1,365.8,436.1z"/>
	<path class="normal-face9" d="M367.3,447.7c1.8-0.8,2.7-2.9,2.1-4.7c-1.4-0.6-6.3,1.2-7.1,2.4v0.2C363.1,447.5,365.4,448.4,367.3,447.7z"/>
	<path class="normal-face9" d="M347.2,440.8c4.1,0,7.4,2.9,7.7,6.6c-2,2-13.1,2.7-15.2,0.9c-0.2-0.2-0.2-0.3-0.3-0.6c0-0.9,0.2-1.7,0.6-2.4
		c0.2-0.2,0.2-0.3,0.3-0.5c0.3-0.6,0.8-1.2,1.2-1.7c0.3-0.3,0.5-0.5,0.8-0.8C343.4,441.5,345.2,440.8,347.2,440.8z"/>
	<path class="normal-face9" d="M348.4,459.6c3.5-1.5,5.3-4.8,4.4-7.8c-2.3-0.9-12,2.7-13.2,4.8c-0.2,0.2,0,0.3,0,0.5c0.3,0.6,0.8,1.2,1.4,1.7
		c0.2,0.2,0.3,0.2,0.3,0.3c0.5,0.3,1.1,0.6,1.5,0.9c0.3,0.2,0.6,0.2,0.9,0.3C345.1,460.3,346.7,460.2,348.4,459.6z"/>
	<path class="normal-face9" d="M327.6,449.3c3.2,0,5.6,2.3,6.2,5.3c-1.8,1.7-10.5,2.1-12.3,0.8C321.5,452,324.2,449.3,327.6,449.3z"/>
	<path class="normal-face9" d="M328.4,464.2c2.7-1.2,4.1-3.8,3.5-6.3c-2.1-0.6-9.6,2.1-10.8,3.9C322.2,464.4,325.5,465.4,328.4,464.2z"/>
	<path class="normal-face9" d="M309.3,453.7c2.1,0,3.8,1.8,3.8,4.2v0.5c-1.1,1.4-6.2,1.8-7.5,0.8v-1.2c0-0.6,0.2-1.1,0.3-1.7
		C306.5,454.8,307.8,453.7,309.3,453.7z"/>
	<path class="normal-face9" d="M311.4,466.5c1.8-0.8,2.6-2.9,1.8-4.7l-0.2-0.3c-1.4-0.6-5.9,0.8-6.6,2.1l0.5,0.9c0.2,0.5,0.5,0.8,0.8,1.2
		C308.6,466.6,310.1,467.1,311.4,466.5z"/>
	<path class="normal-face9" d="M299.3,459.7c1.4,0,2.4,1.4,2.4,3.2v0.2c-0.9,0.9-3.9,1.4-5,0.5v-0.8C296.9,461.1,297.9,459.7,299.3,459.7z"/>
	<path class="normal-face9" d="M298.7,468.9c1.2-0.5,1.7-2,1.1-3.3v-0.2c-1.1-0.5-3.8,0.5-4.4,1.4l0.3,0.6
		C296.1,468.6,297.6,469.3,298.7,468.9z"/>
	<path class="normal-face9" d="M291.9,461.5c1.2,0,2.3,1.1,2.3,2.3v0.3c-0.9,1.1-3.8,1.4-4.4,0.3c-0.2-0.2,0-0.5,0-0.8
		C289.8,462.6,290.7,461.5,291.9,461.5z"/>
	<path class="normal-face9" d="M292.7,469c1.1-0.5,1.5-1.5,1.2-2.6l-0.2-0.3c-1.1-0.5-3.8,0.3-3.9,1.4c0,0.2,0.2,0.3,0.2,0.6
		C290.5,469,291.6,469.5,292.7,469z"/>
	<path class="normal-face9" d="M285.1,464.5c0.5,0.6,2.9,0.6,3.3,0c0.5-0.6-0.9-2.3-1.8-2.3C285.7,462.1,284.7,463.9,285.1,464.5z"/>
	<path class="normal-face9" d="M285.3,466.6c0.2-0.6,2.3-1.7,2.9-1.2c0.5,0.3,0,2.3-0.8,2.6C286.6,468.3,285,467.2,285.3,466.6z"/>
	<path class="normal-face9" d="M418.5,160.2c-1.8,0.5-15.5,6.9-17.3,7.2c-4.8,0.8-9.3,0.8-14.1,0.9c-7.1,0.3-14.7,0.9-21.8,0.2
		c-0.5,0-6.6-1.1-6.6-0.8s2.6,1.1,2.7,1.1c2.9,1.2,5.9,1.5,8.9,1.8c4.4,0.3,8.9,0.6,13.4,0.6c5.3,0,10.5-0.2,15.3-1.1
		C400.5,169.9,419,160,418.5,160.2z"/>
	<path class="normal-face4" d="M418.4,160.3c-1.8,0.5-15.3,8.6-17.1,8.9c-4.8,0.8-9.3,0.8-14.1,0.9c-7.1,0.3-14.7,0.9-21.8,0.2
		c-0.5,0-6.6-3-6.8-2.6c0,0.3,2.7,3,2.9,3c2.9,1.2,5.9,1.5,8.9,1.8c4.4,0.3,8.9,0.6,13.4,0.6c5.3,0,10.5-0.2,15.3-1.1
		C400.5,171.8,419,160,418.4,160.3z"/>
	<path class="normal-face1" d="M418.4,160.2c-1.8,0.5-15.3,10.5-17,10.8c-4.8,0.8-9.3,0.8-14.1,0.9c-7.1,0.3-14.7,0.9-21.8,0.2
		c-0.5,0-6.8-4.8-6.9-4.5c0,0.3,2.7,4.8,3,5c2.9,1.2,5.9,1.5,8.9,1.8c4.4,0.3,8.9,0.6,13.4,0.6c5.3,0,10.5-0.2,15.3-1.1
		C400.7,173.6,419,160,418.4,160.2z"/>
	<path class="normal-face1" d="M448.1,182.9c0,0-6.2-2-7.4-2.7c-0.5-0.3-3.5-2.7-3.5-2.7s6.2,6.5,7.5,6.6
		C445.4,184.2,448.1,182.9,448.1,182.9z"/>
	<path class="normal-face4" d="M424.5,141.4c0,0-1.1,12.2,0,18.2c0.3,1.5,0.6,3,1.2,4.4c0.5,0.9,1.4,2.4,1.4,2.4s-3.3-3.9-3.5-4.4
		c-2.9-5.1-2.4-10.2-2.6-15.6c0-1.4,0.5-3.3,1.4-4.2C422.9,141.7,424.5,141.4,424.5,141.4z"/>
	<path class="normal-face9" d="M418.2,146.4c-0.8-3.5-7.8-6.9-10.5-8.7c-0.9-0.6-7.1-2.9-7.1-2.9s12.2,8.7,14,10.5c0.3,0.3,4.5,6.9,4.7,6.9
		C419.4,152.2,418.2,146.7,418.2,146.4z"/>
	<path class="normal-face4" d="M418.7,146.4c-0.5-3.5-5.9-7.5-8.7-9c-2.1-1.2-8-2.7-6.3-2.3c2,0.6,8.4,5.4,10.1,7.4c0.3,0.3,5.1,9.9,5.3,9.9
		C419.4,152.2,418.8,146.7,418.7,146.4z"/>
	<path class="normal-face1" d="M419.7,146.5c0.2-3.5-8.6-12.3-11.4-11c-1.5,0.8,2.6,1.1,3.6,2.6c1.1,1.4,3.3,4.2,4.7,6.5c0.3,0.5,2.4,8,2.6,8
		C419.4,152.4,419.7,146.8,419.7,146.5z"/>
</g>
</svg>
