<?xml version="1.0" encoding="utf-8"?>
<!-- Generator: Adobe Illuthokiman-body-grayrator 23.0.3, SVG Export Plug-In . SVG Version: 6.00 Build 0)  -->
<svg version="1.1" id="Layer_1" xmlnsvectornator="http://vectornator.io"
	 xmlns="http://www.w3.org/2000/svg" xmlnsXlink="http://www.w3.org/1999/xlink" x="0px" y="0px" viewBox="0 0 612 847.7"
	 style="enable-background:new 0 0 612 847.7;" xmlSpace="preserve">
<style type="text/css">
	
		.thokiman-body-gray0{fill-rule:evenodd;clip-rule:evenodd;fill:#404040;fill-opacity:0.9978;thokiman-body-grayroke:#000000;thokiman-body-grayroke-width:0.78;thokiman-body-grayroke-linecap:round;thokiman-body-grayroke-linejoin:round;thokiman-body-grayroke-opacity:0.9978;}
	
		.thokiman-body-gray1{fill-rule:evenodd;clip-rule:evenodd;fill:#9F9F9F;fill-opacity:0.9978;thokiman-body-grayroke:#000000;thokiman-body-grayroke-width:0.78;thokiman-body-grayroke-linecap:round;thokiman-body-grayroke-linejoin:round;thokiman-body-grayroke-opacity:0.9978;}
	
		.thokiman-body-gray2{fill-rule:evenodd;clip-rule:evenodd;fill:#DFDFDF;fill-opacity:0.9978;thokiman-body-grayroke:#000000;thokiman-body-grayroke-width:0.78;thokiman-body-grayroke-linecap:round;thokiman-body-grayroke-linejoin:round;thokiman-body-grayroke-opacity:0.9978;}
	
		.thokiman-body-gray3{fill-rule:evenodd;clip-rule:evenodd;fill:#606060;fill-opacity:0.9978;thokiman-body-grayroke:#000000;thokiman-body-grayroke-width:0.78;thokiman-body-grayroke-linecap:round;thokiman-body-grayroke-linejoin:round;thokiman-body-grayroke-opacity:0.9978;}
	
		.thokiman-body-gray4{fill-rule:evenodd;clip-rule:evenodd;fill:#BFBFBF;fill-opacity:0.9978;thokiman-body-grayroke:#000000;thokiman-body-grayroke-width:0.78;thokiman-body-grayroke-linecap:round;thokiman-body-grayroke-linejoin:round;thokiman-body-grayroke-opacity:0.9978;}
</style>
<g vectornatorlayername="Layer 1">
	<path class="thokiman-body-gray0" d="M275.6,625.4c-3.1,0.1-6.4,1.4-9.7,4.5c-26.7,24.3-74.6,96.7-62.7,159.7c11.8,63.1,71,59.6,105.5,21.3
		c41.4,38.7,107.8,41.8,120-21.3c12.2-63.1-37-135.4-66.6-159.7c-29.7-24.3-48.8,58.6-48.8,58.6S297.4,625,275.6,625.4z
		 M288.9,695.2c5.7,0.5,9.5,2.8,9.9,7.4c0.8,8.3-21.6,10.1-35.7,32.4c-6.6,10.5,13.3,67.6,2.3,59.1c-11-8.6-41-46.5-32.9-69
		C238.6,708.2,272,693.7,288.9,695.2z M344,695.2c17-1.5,50.2,13,56.3,29.9c8.1,22.4-21.8,60.4-32.8,69c-11,8.6,8.8-48.6,2.2-59.1
		c-14.1-22.3-36.4-24.1-35.6-32.4C334.5,698,338.3,695.7,344,695.2z"/>
	<path class="thokiman-body-gray1" d="M272.4,592.5c0.7-1.6-5.8,6.6-11.5,11.2c-5.7,4.6,0,11.2,0,11.2s5.5,2.9,5.5,1.3
		C266.5,605.4,265.8,607.5,272.4,592.5z"/>
	<path class="thokiman-body-gray1" d="M272.2,645.1c0.7-1.6-5.8,6.6-11.5,11.2c-5.7,4.6,0,11.2,0,11.2s5.5,2.9,5.5,1.3
		C266.2,658,265.5,660.2,272.2,645.1z"/>
	<path class="thokiman-body-gray1" d="M272.4,539.8c0.7-1.6-5.8,6.6-11.5,11.2c-5.7,4.6,0,11.2,0,11.2s5.5,2.9,5.5,1.3
		C266.5,552.7,265.8,554.9,272.4,539.8z"/>
	<path class="thokiman-body-gray1" d="M272.4,488.1c0.7-1.5-5.8,6.6-11.5,11.2c-5.7,4.6,0,11.2,0,11.2s5.5,2.9,5.5,1.3
		C266.5,501.1,265.8,503.2,272.4,488.1z"/>
	<path class="thokiman-body-gray1" d="M272.4,435c0.7-1.6-5.8,6.6-11.5,11.2c-5.7,4.6,0,11.2,0,11.2s5.5,2.9,5.5,1.3
		C266.5,447.9,265.8,450.1,272.4,435z"/>
	<path class="thokiman-body-gray1" d="M272.4,384.7c0.7-1.6-5.8,6.6-11.5,11.2c-5.7,4.6,0,11.2,0,11.2s5.5,2.9,5.5,1.3
		C266.5,397.6,265.8,399.7,272.4,384.7z"/>
	<path class="thokiman-body-gray1" d="M272.4,331.7c0.7-1.6-5.8,6.6-11.5,11.2c-5.7,4.6,0,11.2,0,11.2s5.5,2.9,5.5,1.3
		C266.5,344.6,265.8,346.7,272.4,331.7z"/>
	<path class="thokiman-body-gray1" d="M272.4,279.8c0.7-1.5-5.8,6.6-11.5,11.2c-5.7,4.6,0,11.2,0,11.2s5.5,2.9,5.5,1.3
		C266.5,292.7,265.8,294.8,272.4,279.8z"/>
	<path class="thokiman-body-gray1" d="M272.4,227.4c0.7-1.6-5.8,6.6-11.5,11.2c-5.7,4.6,0,11.2,0,11.2s5.5,2.9,5.5,1.3
		C266.5,240.3,265.8,242.4,272.4,227.4z"/>
	<path class="thokiman-body-gray1" d="M272.4,175.3c0.7-1.6-5.8,6.6-11.5,11.2c-5.7,4.6,0,11.2,0,11.2s5.5,2.9,5.5,1.3
		C266.5,188.2,265.8,190.3,272.4,175.3z"/>
	<path class="thokiman-body-gray1" d="M272.4,121.7c0.7-1.5-5.8,6.6-11.5,11.2c-5.7,4.6,0,11.2,0,11.2s5.5,2.9,5.5,1.3
		C266.5,134.6,265.8,136.8,272.4,121.7z"/>
	<path class="thokiman-body-gray1" d="M272.4,70.7c0.7-1.6-5.8,6.6-11.5,11.2c-5.7,4.6,0,11.2,0,11.2s5.5,2.9,5.5,1.3
		C266.5,83.6,265.8,85.7,272.4,70.7z"/>
	<path class="thokiman-body-gray1" d="M272.4,18.3c0.7-1.6-5.8,6.6-11.5,11.2c-5.7,4.6,0,11.2,0,11.2s5.5,2.9,5.5,1.3
		C266.5,31.2,265.8,33.3,272.4,18.3z"/>
	<path class="thokiman-body-gray2" d="M354.1,592.5c-0.7-1.6,5.8,6.6,11.5,11.2c5.7,4.6,0,11.2,0,11.2s-5.5,2.9-5.5,1.3
		C360,605.4,360.8,607.5,354.1,592.5z"/>
	<path class="thokiman-body-gray2" d="M353.8,645.1c-0.7-1.6,5.8,6.6,11.5,11.2c5.7,4.6,0,11.2,0,11.2s-5.5,2.9-5.5,1.3
		C359.8,658,360.5,660.2,353.8,645.1z"/>
	<path class="thokiman-body-gray2" d="M354.1,539.8c-0.7-1.6,5.8,6.6,11.5,11.2c5.7,4.6,0,11.2,0,11.2s-5.5,2.9-5.5,1.3
		C360,552.7,360.8,554.9,354.1,539.8z"/>
	<path class="thokiman-body-gray2" d="M354.1,488.1c-0.7-1.5,5.8,6.6,11.5,11.2c5.7,4.6,0,11.2,0,11.2s-5.5,2.9-5.5,1.3
		C360,501.1,360.8,503.2,354.1,488.1z"/>
	<path class="thokiman-body-gray2" d="M354.1,435c-0.7-1.6,5.8,6.6,11.5,11.2c5.7,4.6,0,11.2,0,11.2s-5.5,2.9-5.5,1.3
		C360,447.9,360.8,450.1,354.1,435z"/>
	<path class="thokiman-body-gray2" d="M354.1,384.7c-0.7-1.6,5.8,6.6,11.5,11.2c5.7,4.6,0,11.2,0,11.2s-5.5,2.9-5.5,1.3
		C360,397.6,360.8,399.7,354.1,384.7z"/>
	<path class="thokiman-body-gray2" d="M354.1,331.7c-0.7-1.6,5.8,6.6,11.5,11.2c5.7,4.6,0,11.2,0,11.2s-5.5,2.9-5.5,1.3
		C360,344.6,360.8,346.7,354.1,331.7z"/>
	<path class="thokiman-body-gray2" d="M354.1,279.8c-0.7-1.5,5.8,6.6,11.5,11.2c5.7,4.6,0,11.2,0,11.2s-5.5,2.9-5.5,1.3
		C360,292.7,360.8,294.8,354.1,279.8z"/>
	<path class="thokiman-body-gray2" d="M354.1,227.4c-0.7-1.6,5.8,6.6,11.5,11.2c5.7,4.6,0,11.2,0,11.2s-5.5,2.9-5.5,1.3
		C360,240.3,360.8,242.4,354.1,227.4z"/>
	<path class="thokiman-body-gray2" d="M354.1,175.3c-0.7-1.6,5.8,6.6,11.5,11.2c5.7,4.6,0,11.2,0,11.2s-5.5,2.9-5.5,1.3
		C360,188.2,360.8,190.3,354.1,175.3z"/>
	<path class="thokiman-body-gray2" d="M354.1,121.7c-0.7-1.5,5.8,6.6,11.5,11.2c5.7,4.6,0,11.2,0,11.2s-5.5,2.9-5.5,1.3
		C360,134.6,360.8,136.8,354.1,121.7z"/>
	<path class="thokiman-body-gray2" d="M354.1,70.7c-0.7-1.6,5.8,6.6,11.5,11.2c5.7,4.6,0,11.2,0,11.2S360,96,360,94.4
		C360,83.6,360.8,85.7,354.1,70.7z"/>
	<path class="thokiman-body-gray2" d="M354.1,18.3c-0.7-1.6,5.8,6.6,11.5,11.2c5.7,4.6,0,11.2,0,11.2S360,43.6,360,42
		C360,31.2,360.8,33.3,354.1,18.3z"/>
	<path class="thokiman-body-gray3" d="M287.8,636c-1.2-0.2-2.5-0.1-3.8,0.4c-10.9,4.1-19.6,33.4-14,32.9c25.6-2.3,65-1.5,87.1,0
		c7.5,0.5-5.2-32.1-16.8-32.9c-7.4-0.5-10.6,5.5-15,10.4c1.3,1.4,2.3,2.9,2.3,4.7c0,4.9-5.6,8.9-12.4,8.9h-3c-6.8,0-12.4-4-12.4-8.9
		c0-1.6,0.9-3.1,2-4.4C296.8,642.4,292.8,636.7,287.8,636z"/>
	<path class="thokiman-body-gray3" d="M287.8,583.2c-1.2-0.2-2.5-0.1-3.8,0.4c-10.9,4.1-19.6,33.4-14,32.9c25.6-2.3,65-1.5,87.1,0
		c7.5,0.5-5.2-32.1-16.8-32.9c-7.4-0.5-10.6,5.5-15,10.4c1.3,1.4,2.3,2.9,2.3,4.7c0,4.9-5.6,8.9-12.4,8.9h-3c-6.8,0-12.4-4-12.4-8.9
		c0-1.6,0.9-3.1,2-4.4C296.8,589.7,292.8,583.9,287.8,583.2z"/>
	<path class="thokiman-body-gray3" d="M287.8,530.6c-1.2-0.2-2.5-0.1-3.8,0.4c-10.9,4.1-19.6,33.4-14,32.9c25.6-2.3,65-1.5,87.1,0
		c7.5,0.5-5.2-32.1-16.8-32.9c-7.4-0.5-10.6,5.5-15,10.4c1.3,1.4,2.3,2.9,2.3,4.7c0,4.9-5.6,8.9-12.4,8.9h-3c-6.8,0-12.4-4-12.4-8.9
		c0-1.6,0.9-3.1,2-4.4C296.8,537,292.8,531.3,287.8,530.6z"/>
	<path class="thokiman-body-gray3" d="M287.8,478.9c-1.2-0.2-2.5-0.1-3.8,0.4c-10.9,4.1-19.6,33.4-14,32.9c25.6-2.3,65-1.5,87.1,0
		c7.5,0.5-5.2-32.1-16.8-32.9c-7.4-0.5-10.6,5.5-15,10.4c1.3,1.4,2.3,2.9,2.3,4.7c0,4.9-5.6,8.9-12.4,8.9h-3c-6.8,0-12.4-4-12.4-8.9
		c0-1.6,0.9-3.1,2-4.4C296.8,485.3,292.8,479.6,287.8,478.9z"/>
	<path class="thokiman-body-gray3" d="M287.8,425.8c-1.2-0.2-2.5-0.1-3.8,0.4c-10.9,4.1-19.6,33.4-14,32.9c25.6-2.3,65-1.5,87.1,0
		c7.5,0.5-5.2-32.1-16.8-32.9c-7.4-0.5-10.6,5.5-15,10.4c1.3,1.4,2.3,2.9,2.3,4.7c0,4.9-5.6,8.9-12.4,8.9h-3c-6.8,0-12.4-4-12.4-8.9
		c0-1.6,0.9-3.1,2-4.4C296.8,432.2,292.8,426.5,287.8,425.8z"/>
	<path class="thokiman-body-gray3" d="M287.8,375.4c-1.2-0.2-2.5-0.1-3.8,0.4c-10.9,4.1-19.6,33.4-14,32.9c25.6-2.3,65-1.5,87.1,0
		c7.5,0.5-5.2-32.1-16.8-32.9c-7.4-0.5-10.6,5.5-15,10.4c1.3,1.4,2.3,2.9,2.3,4.7c0,4.9-5.6,8.9-12.4,8.9h-3c-6.8,0-12.4-4-12.4-8.9
		c0-1.6,0.9-3.1,2-4.4C296.8,381.9,292.8,376.1,287.8,375.4z"/>
	<path class="thokiman-body-gray3" d="M287.8,322.4c-1.2-0.2-2.5-0.1-3.8,0.4c-10.9,4.1-19.6,33.4-14,32.9c25.6-2.3,65-1.5,87.1,0
		c7.5,0.5-5.2-32.1-16.8-32.9c-7.4-0.5-10.6,5.5-15,10.4c1.3,1.4,2.3,2.9,2.3,4.7c0,4.9-5.6,8.9-12.4,8.9h-3c-6.8,0-12.4-4-12.4-8.9
		c0-1.6,0.9-3.1,2-4.4C296.8,328.9,292.8,323.1,287.8,322.4z"/>
	<path class="thokiman-body-gray3" d="M287.8,270.5c-1.2-0.2-2.5-0.1-3.8,0.4c-10.9,4.1-19.6,33.4-14,32.9c25.6-2.3,65-1.5,87.1,0
		c7.5,0.5-5.2-32.1-16.8-32.9c-7.4-0.5-10.6,5.5-15,10.4c1.3,1.4,2.3,2.9,2.3,4.7c0,4.9-5.6,8.9-12.4,8.9h-3c-6.8,0-12.4-4-12.4-8.9
		c0-1.6,0.9-3.1,2-4.4C296.8,277,292.8,271.2,287.8,270.5z"/>
	<path class="thokiman-body-gray3" d="M287.8,218.1c-1.2-0.2-2.5-0.1-3.8,0.4c-10.9,4.1-19.6,33.4-14,32.9c25.6-2.3,65-1.5,87.1,0
		c7.5,0.5-5.2-32.1-16.8-32.9c-7.4-0.5-10.6,5.5-15,10.4c1.3,1.4,2.3,2.9,2.3,4.7c0,4.9-5.6,8.9-12.4,8.9h-3c-6.8,0-12.4-4-12.4-8.9
		c0-1.6,0.9-3.1,2-4.4C296.8,224.6,292.8,218.8,287.8,218.1z"/>
	<path class="thokiman-body-gray3" d="M287.8,166c-1.2-0.2-2.5-0.1-3.8,0.4c-10.9,4.1-19.6,33.4-14,32.9c25.6-2.3,65-1.5,87.1,0
		c7.5,0.5-5.2-32.1-16.8-32.9c-7.4-0.5-10.6,5.5-15,10.4c1.3,1.4,2.3,2.9,2.3,4.7c0,4.9-5.6,8.9-12.4,8.9h-3c-6.8,0-12.4-4-12.4-8.9
		c0-1.6,0.9-3.1,2-4.4C296.8,172.5,292.8,166.7,287.8,166z"/>
	<path class="thokiman-body-gray3" d="M287.8,112.5c-1.2-0.2-2.5-0.1-3.8,0.4c-10.9,4.1-19.6,33.4-14,32.9c25.6-2.3,65-1.5,87.1,0
		c7.5,0.5-5.2-32.1-16.8-32.9c-7.4-0.5-10.6,5.5-15,10.4c1.3,1.4,2.3,2.9,2.3,4.7c0,4.9-5.6,8.9-12.4,8.9h-3c-6.8,0-12.4-4-12.4-8.9
		c0-1.6,0.9-3.1,2-4.4C296.8,118.9,292.8,113.2,287.8,112.5z"/>
	<path class="thokiman-body-gray3" d="M287.8,61.4c-1.2-0.2-2.5-0.1-3.8,0.4c-10.9,4.1-19.6,33.4-14,32.9c25.6-2.3,65-1.5,87.1,0
		c7.5,0.5-5.2-32.1-16.8-32.9c-7.4-0.5-10.6,5.5-15,10.4c1.3,1.4,2.3,2.9,2.3,4.7c0,4.9-5.6,8.9-12.4,8.9h-3c-6.8,0-12.4-4-12.4-8.9
		c0-1.6,0.9-3.1,2-4.4C296.8,67.9,292.8,62.1,287.8,61.4z"/>
	<path class="thokiman-body-gray3" d="M287.8,9c-1.2-0.2-2.5-0.1-3.8,0.4c-10.9,4.1-19.6,33.4-14,32.9c25.6-2.3,65-1.5,87.1,0
		c7.5,0.5-5.2-32.1-16.8-32.9c-7.4-0.5-10.6,5.5-15,10.4c1.3,1.4,2.3,2.9,2.3,4.7c0,4.9-5.6,8.9-12.4,8.9h-3c-6.8,0-12.4-4-12.4-8.9
		c0-1.6,0.9-3.1,2-4.4C296.8,15.5,292.8,9.8,287.8,9z"/>
	<path class="thokiman-body-gray1" d="M312.3,642.8h3c6.8,0,12.4,3.9,12.4,8.8l0,0c0,4.9-5.5,8.8-12.4,8.8h-3c-6.8,0-12.4-3.9-12.4-8.8l0,0
		C299.9,646.7,305.5,642.8,312.3,642.8z"/>
	<path class="thokiman-body-gray1" d="M312.3,590h3c6.8,0,12.4,3.9,12.4,8.8l0,0c0,4.9-5.5,8.8-12.4,8.8h-3c-6.8,0-12.4-3.9-12.4-8.8l0,0
		C299.9,594,305.5,590,312.3,590z"/>
	<path class="thokiman-body-gray1" d="M312.3,537.4h3c6.8,0,12.4,3.9,12.4,8.8l0,0c0,4.9-5.5,8.8-12.4,8.8h-3c-6.8,0-12.4-3.9-12.4-8.8l0,0
		C299.9,541.3,305.5,537.4,312.3,537.4z"/>
	<path class="thokiman-body-gray1" d="M312.3,485.7h3c6.8,0,12.4,3.9,12.4,8.8l0,0c0,4.9-5.5,8.8-12.4,8.8h-3c-6.8,0-12.4-3.9-12.4-8.8l0,0
		C299.9,489.6,305.5,485.7,312.3,485.7z"/>
	<path class="thokiman-body-gray1" d="M312.3,432.6h3c6.8,0,12.4,3.9,12.4,8.8l0,0c0,4.9-5.5,8.8-12.4,8.8h-3c-6.8,0-12.4-3.9-12.4-8.8l0,0
		C299.9,436.5,305.5,432.6,312.3,432.6z"/>
	<path class="thokiman-body-gray1" d="M312.3,382.2h3c6.8,0,12.4,3.9,12.4,8.8l0,0c0,4.9-5.5,8.8-12.4,8.8h-3c-6.8,0-12.4-3.9-12.4-8.8l0,0
		C299.9,386.1,305.5,382.2,312.3,382.2z"/>
	<path class="thokiman-body-gray1" d="M312.3,329.2h3c6.8,0,12.4,3.9,12.4,8.8l0,0c0,4.9-5.5,8.8-12.4,8.8h-3c-6.8,0-12.4-3.9-12.4-8.8l0,0
		C299.9,333.2,305.5,329.2,312.3,329.2z"/>
	<path class="thokiman-body-gray1" d="M312.3,277.3h3c6.8,0,12.4,3.9,12.4,8.8l0,0c0,4.9-5.5,8.8-12.4,8.8h-3c-6.8,0-12.4-3.9-12.4-8.8l0,0
		C299.9,281.2,305.5,277.3,312.3,277.3z"/>
	<path class="thokiman-body-gray1" d="M312.3,224.9h3c6.8,0,12.4,3.9,12.4,8.8l0,0c0,4.9-5.5,8.8-12.4,8.8h-3c-6.8,0-12.4-3.9-12.4-8.8l0,0
		C299.9,228.9,305.5,224.9,312.3,224.9z"/>
	<path class="thokiman-body-gray1" d="M312.3,172.8h3c6.8,0,12.4,3.9,12.4,8.8l0,0c0,4.9-5.5,8.8-12.4,8.8h-3c-6.8,0-12.4-3.9-12.4-8.8l0,0
		C299.9,176.8,305.5,172.8,312.3,172.8z"/>
	<path class="thokiman-body-gray1" d="M312.3,119.3h3c6.8,0,12.4,3.9,12.4,8.8l0,0c0,4.9-5.5,8.8-12.4,8.8h-3c-6.8,0-12.4-3.9-12.4-8.8l0,0
		C299.9,123.2,305.5,119.3,312.3,119.3z"/>
	<path class="thokiman-body-gray1" d="M312.3,68.2h3c6.8,0,12.4,3.9,12.4,8.8l0,0c0,4.9-5.5,8.8-12.4,8.8h-3c-6.8,0-12.4-3.9-12.4-8.8l0,0
		C299.9,72.2,305.5,68.2,312.3,68.2z"/>
	<path class="thokiman-body-gray1" d="M312.3,15.8h3c6.8,0,12.4,3.9,12.4,8.8l0,0c0,4.9-5.5,8.8-12.4,8.8h-3c-6.8,0-12.4-3.9-12.4-8.8l0,0
		C299.9,19.8,305.5,15.8,312.3,15.8z"/>
	<path class="thokiman-body-gray4" d="M376.1,62.6c-29.4,30.1,262.8,30.2,205.5,2.5c-14.1-6.8-13.6,13-59.8-0.2c-63.6-18-114.3-38.2-145.3-18
		C365.2,54.2,393.9,44.4,376.1,62.6z"/>
	<path class="thokiman-body-gray1" d="M235.9,62.6c29.4,30.1-262.8,30.2-205.5,2.5c14.1-6.8,13.6,13,59.8-0.2c63.6-18,114.3-38.2,145.3-18
		C246.8,54.2,218.1,44.4,235.9,62.6z"/>
	<path class="thokiman-body-gray1" d="M241.1,132.1c-13.2-14.5-44.3-28.2-62.8-13.6c-23.6,18.7-81.8-41.8-51.4-8.1c30.3,33.8,30.4,27,60,33.3
		C216.5,150.1,254.3,146.6,241.1,132.1z"/>
	<path class="thokiman-body-gray4" d="M376,128.8c13.2-14.5,44.3-28.2,62.8-13.6c23.6,18.7,81.8-41.8,51.4-8.1s-30.4,27-60,33.3
		C400.6,146.8,362.8,143.2,376,128.8z"/>
	<path class="thokiman-body-gray1" d="M102.8,174.1c19.6-8.7,55.1-10.9,64.2,8.5c11.6,24.8,96.3-10.8,51,9.7c-45.4,20.6-41.8,14.4-72.1,10.3
		C115.6,198.6,83.1,182.8,102.8,174.1z"/>
	<path class="thokiman-body-gray4" d="M514.3,170.7c-19.6-8.7-55.1-10.9-64.2,8.5c-11.6,24.8-96.3-10.8-51,9.7c45.4,20.6,41.8,14.4,72.1,10.3
		C501.5,195.3,534,179.5,514.3,170.7z"/>
	<path class="thokiman-body-gray1" d="M86.8,252.5c18.1-21.7,60.7-42.5,86.1-20.4c32.3,28.1,112-62.9,70.5-12.2c-41.6,50.8-41.6,40.6-82.2,50.1
		C120.4,279.6,68.7,274.3,86.8,252.5z"/>
	<path class="thokiman-body-gray4" d="M530.3,249.2c-18.1-21.7-60.7-42.5-86.1-20.4c-32.3,28.1-112-62.9-70.5-12.2c41.6,50.8,41.6,40.6,82.2,50.1
		C496.6,276.2,548.4,270.9,530.3,249.2z"/>
	<path class="thokiman-body-gray1" d="M100,307.2c15.6-19.3,52.1-37.7,73.9-18.1c27.8,25,96.2-55.8,60.5-10.8c-35.7,45.1-35.7,36-70.6,44.5
		C128.9,331.2,84.4,326.5,100,307.2z"/>
	<path class="thokiman-body-gray4" d="M517.1,303.8c-15.6-19.3-52.1-37.7-73.9-18.1c-27.8,25-96.2-55.8-60.5-10.8c35.7,45.1,35.7,36,70.6,44.5
		C488.2,327.8,532.7,323.1,517.1,303.8z"/>
	<path class="thokiman-body-gray1" d="M117.5,352.4c13.2-14.5,44.3-28.2,62.8-13.6c23.6,18.7,81.8-41.8,51.4-8.1c-30.3,33.8-30.4,27-60,33.3
		C142.1,370.5,104.3,366.9,117.5,352.4z"/>
	<path class="thokiman-body-gray4" d="M499.6,349.1c-13.2-14.5-44.3-28.2-62.8-13.6c-23.6,18.7-81.8-41.8-51.4-8.1c30.3,33.8,30.4,27,60,33.3
		C475,367.1,512.8,363.5,499.6,349.1z"/>
	<path class="thokiman-body-gray1" d="M146.3,398.2c13.2-14.5,44.3-28.2,62.8-13.6c23.6,18.7,81.8-41.8,51.4-8.1c-30.3,33.8-30.4,27-60,33.3
		C170.9,416.2,133.1,412.6,146.3,398.2z"/>
	<path class="thokiman-body-gray4" d="M470.8,394.8c-13.2-14.5-44.3-28.2-62.8-13.6c-23.6,18.7-81.8-41.8-51.4-8.1c30.3,33.8,30.4,27,60,33.3
		C446.2,412.8,484,409.3,470.8,394.8z"/>
</g>
</svg>
