<?xml version="1.0" encoding="utf-8"?>
<!-- Generator: Adobe Illustrator 23.0.3, SVG Export Plug-In . SVG Version: 6.00 Build 0)  -->
<svg version="1.1" id="Layer_1" xmlns="http://www.w3.org/2000/svg" xmlnsXlink="http://www.w3.org/1999/xlink" x="0px" y="0px"
	 viewBox="0 0 2131.2 2806.5" style="enable-background:new 0 0 2131.2 2806.5;" xmlSpace="preserve">
<style type="text/css">
	.thokiman-skeleton-gray0{fill:none;stroke:#3F4249;stroke-width:10;stroke-miterlimit:8;}
</style>
<g>
	<path class="thokiman-skeleton-gray0" d="M897.6,236c14.1,13,29.5,3.4,29.5,3.4s4.2-14.4,15.7-27.2c11.4-12.7,23.4-21.5,23.4-21.5s-3.7-18.7-18.1-16.4
		c-11.9,6.5-27.1,10.2-40.6,26.3C894.7,216.4,897.6,235.7,897.6,236z"/>
	<path class="thokiman-skeleton-gray0" d="M1248.4,235.7c-13.3,7.9-30.5,1.7-30.5,1.7s-3.5-11.9-13.3-22.9c-11.4-12.7-24.4-23.8-24.4-23.8
		s3.7-18.7,18.3-16.4c19.4,13,35.3,17.8,41.4,30.9C1250,227.2,1248.4,235.7,1248.4,235.7z"/>
	<path class="thokiman-skeleton-gray0" d="M982.3,164.8c0,0,47.5-6.5,68.5,13.9c6.1,5.4,5.3,45,5.3,45l-15.7-16.1c0,0-11.9-48.4-74.6-16.7
		C961.1,170.5,982.3,164.8,982.3,164.8z"/>
	<path class="thokiman-skeleton-gray0" d="M1164.2,164.8c0,0-47.5-6.5-68.5,13.9c-6.1,5.9-6.1,46.7-6.1,46.7l16.5-17.8c0,0,11.9-48.4,74.6-16.7
		C1185,170.5,1164.2,164.8,1164.2,164.8z"/>
	<path class="thokiman-skeleton-gray0" d="M1073.4,334c-18.1-5.1-52.3-45.6-44.9-60.6c1.9-3.7,8.5,4.2,13,3.4C1048.5,310.5,1057.5,329.2,1073.4,334z"/>
	<path class="thokiman-skeleton-gray0" d="M1074,334c18.3-5.1,51-45.3,43.3-60.6c-1.9-3.7-8.5,4.2-13,3.4C1097.3,310.7,1089.6,329.2,1074,334z"/>
	<path class="thokiman-skeleton-gray0" d="M1029.6,272.2c3.7-9.6,6.9-22.4,18.1-21c8,1.1,21.5-24.4,20.7-4.5c-2.7,1.1-26,5.1-27.6,30.6
		C1034.9,275.6,1031.7,272.5,1029.6,272.2z"/>
	<path class="thokiman-skeleton-gray0" d="M1116.2,272.2c-3.7-9.6-6.9-22.4-18.1-21c-8,1.1-21.5-24.4-20.7-4.5c2.7,1.1,26,5.1,27.6,30.6
		C1110.9,275.6,1114.3,272.5,1116.2,272.2z"/>
	<path class="thokiman-skeleton-gray0" d="M922.3,324.9c4.2,1.7,47.8,19,61.9,47.3c14.6,13.3,18.9-11.3,29.7-9.6c11.2,2,24.2,16.4,29.7,13.3
		c6.9-4.2-4.2-21,6.1-19.3c12.2,2,17.5,25.2,27.1,25.2c12.2,0,20.2-25.2,28.4-25.2c8,0,0.8,20.4,9.8,22.7
		c3.5,1.1,4.5-16.7,12.2-17.3c7.2-0.3,17.3,28.3,34,17.8c13.8-23.8,55.5-53.3,56.3-54.1c-24.4-1.7-45.1-16.7-99.6-56.9
		c39.3,45.6-27.6,56.4-45.4,83c-23.4-25.8-75.4-29.5-60.5-79.3C984.2,296,965.3,309.9,922.3,324.9z"/>
	<path class="thokiman-skeleton-gray0" d="M950.2,319.5c19.1-6.5,31.1-20.7,53.6-23.8c1.9,24.1,51.5,38.5,62.7,56.1c-17.3-9.1-39-18.1-39-18.1
		s9.6,14.2,14.6,21.5c-11.2-4.2-28.4-17.3-28.4-17.3s-1.9,0.3,1.9,17.8c-15.7-16.7-15.4,0.3-15.4,0.3S972,326.6,950.2,319.5z"/>
	<path class="thokiman-skeleton-gray0" d="M1193.4,324.9c-19.1-6.5-35.3-26.1-57.9-28.9c-1.9,24.1-47.5,39.1-58.4,56.4c17.3-9.1,39-18.1,39-18.1
		s-9.6,14.2-14.6,21.5c11.2-4.2,28.4-17.3,28.4-17.3s1.9,0.3-1.9,17.8c15.7-16.7,15.4,0.3,15.4,0.3S1171.1,331.7,1193.4,324.9z"/>
	<path class="thokiman-skeleton-gray0" d="M990.3,384.4c0,0-35.8,32.3,6.9,43.1c13.8,3.4,61.6-6.8,76.2,7.9c18.9-15,67.4-2.8,87.9-7.9
		c40.9-10.8,0-43.1,0-43.1s-56.3,21.2-45.4,6.8c7.7-10.8-24.2,14.2-40.1-0.3c-15.4,15-32.9-9.3-35.6-1.4
		C1032.8,412.5,990.3,384.4,990.3,384.4z"/>
	<path class="thokiman-skeleton-gray0" d="M953.9,247c16.2-32,45.9-17.3,53.9,0c-5.8-25.8-26-33.4-26-33.4S962.7,209.9,953.9,247z"/>
	<path class="thokiman-skeleton-gray0" d="M1132.9,247c16.2-32,45.9-17.3,53.9,0c-5.8-25.8-26-33.4-26-33.4S1141.7,209.9,1132.9,247z"/>
	<path class="thokiman-skeleton-gray0" d="M955,140.2c0,0-26.3-102.6-5-108.8c39,83.9,57.1,73.4,58.2,100.3C1009.4,159.2,955,140.2,955,140.2z"/>
	<path class="thokiman-skeleton-gray0" d="M1186,140.2c0,0,26.3-102.6,5-108.8c-39,83.9-57.1,73.4-58.2,100.3C1131.8,159.2,1186,140.2,1186,140.2z"/>
	<path class="thokiman-skeleton-gray0" d="M1165,156.9c13,7.1,6.1-1.7,33.7,17.3c26.3,18.1,44.3,17.6,50.2,63.2c2.4,18.7-3.5,47.9-3.5,48.2
		c32.9-38.8,73.8,18.1,22.8,48.2c-16.2-19-36.6-19.5-50.5-7.9c-24.4,0-73.8-39.7-99.6-56.4c38.5,46.5-28.7,56.9-45.1,83
		c-19.9-23.8-74.6-27.2-60.8-78.8c-35.8,30-62.4,41.6-90.3,52.7c-25-22.7-39.8,3.7-46.2,0c-48.9-30,0-99.7,23.4-41.4
		c0-0.3-3.7-20.7-3.7-23.8c0-69.7,9.3-66.3,82.6-101.4c14.9-7.1,63.5,14.4,95.3,14.4C1116.2,174.2,1146.7,146.4,1165,156.9z"/>
	<path class="thokiman-skeleton-gray0" d="M1148.6,180.1c-31.1-4.8-52.3,25.2-39.8,47.3c12.7,22.1,25.2,47.3,56.6,47.3c31.3,0,62.4-22.9,49.4-45
		C1202.2,207.6,1179.6,185,1148.6,180.1z"/>
	<path class="thokiman-skeleton-gray0" d="M997.2,179.6c31.1-4.8,52.3,25.2,39.8,47.3c-12.7,22.1-30.3,46.5-61.1,46.5s-57.4-22.1-44.3-43.9
		C943.6,207.1,966.1,184.4,997.2,179.6z"/>
	<path class="thokiman-skeleton-gray0" d="M1072.9,246.7c-16.7,0.3-33.7,14.2-31.3,31.7c2.4,17.6,13.8,52.1,32.1,55.2c19.9-4.5,25.2-38.2,31.3-56.4
		C1104,259.2,1085.9,245.3,1072.9,246.7z"/>
	<path class="thokiman-skeleton-gray0" d="M1013.9,257.8c0,0,19.1-22.4,40.9-31.7c4.2-1.7,11.9-22.9,15.7-22.9c6.1,0,13.8,19.8,20.7,24.1
		c18.3,11.6,36.6,29.2,36.6,29.2s-7.7-7.9-20.2-9.6c-5-4.8-10.6-6.5-17.5-5.9c-7.2,0.6-11.4-14.2-17.5-14.4
		c-5.8,0-11.4,11.6-18.1,14.4c-8-2.3-14.9,1.7-19.4,9.9C1026.7,249.8,1013.9,257.8,1013.9,257.8z"/>
	<path class="thokiman-skeleton-gray0" d="M1073.4,50.1c57.4,0.3,102.5,38.5,139.9,43.6c68.8,9.1,64.5,99.7,64.5,169.4l0,0c0,50.1-59.7,63.2-64.5,94.9
		c-5.8,37.4-95.3,37.1-141.3,62.3c-43.5-19-144.2-10.2-150-63.2c-5.3-53-58.2-29.2-58.2-93.8l0,0c0-66.3,10.4-158.1,75.7-168
		C983.7,87.8,1015.8,49.8,1073.4,50.1z"/>
	<path class="thokiman-skeleton-gray0" d="M914.6,193.7c0,0-36.4,22.9-39,45.3c16.5,7.6,10.4,19.3,23.4,46.5C883.6,214.7,914.6,193.7,914.6,193.7z"/>
	<path class="thokiman-skeleton-gray0" d="M1231.2,194.9c0,0,34.5,22.1,37.2,44.5c-16.5,7.6-10.4,19.3-23.4,46.5c5.8-25.8,5.3-45,2.4-59.2
		C1242,202.2,1231.2,194.9,1231.2,194.9z"/>
	<path class="thokiman-skeleton-gray0" d="M1038.4,433.1c-13,5.4-23.6,43.6-16.7,43.1c31.1-3.1,78.1-2,104.9,0c9.3,0.6-6.1-41.9-20.2-43.1
		c-14.6-1.1-14.9,21.5-32.1,21.5C1057.2,454.7,1051.4,427.5,1038.4,433.1z"/>
	<path class="thokiman-skeleton-gray0" d="M1025.1,445c0.8-2-6.9,8.5-13.8,14.7c-6.9,6.2,0,14.7,0,14.7s6.4,3.7,6.4,1.7
		C1018.2,462,1017.1,464.9,1025.1,445z"/>
	<path class="thokiman-skeleton-gray0" d="M1123.3,445c-0.8-2,6.9,8.5,13.8,14.7s0,14.7,0,14.7s-6.4,3.7-6.4,1.7C1130.8,462,1131.3,464.9,1123.3,445z"/>
	<path class="thokiman-skeleton-gray0" d="M1072.6,441.4h3.7c8,0,14.9,5.1,14.9,11.3l0,0c0,6.2-6.4,11.3-14.9,11.3h-3.7c-8,0-14.9-5.1-14.9-11.3l0,0
		C1057.5,446.4,1064.1,441.4,1072.6,441.4z"/>
	<path class="thokiman-skeleton-gray0" d="M1038.4,501.1c-13,5.4-23.6,43.6-16.7,43.1c31.1-3.1,78.1-2,104.9,0c9.3,0.6-6.1-41.9-20.2-43.1
		c-14.6-1.1-14.9,21.5-32.1,21.5C1057.2,522.9,1051.4,496,1038.4,501.1z"/>
	<path class="thokiman-skeleton-gray0" d="M1025.1,513.6c0.8-2-6.9,8.5-13.8,14.7c-6.9,6.2,0,14.7,0,14.7s6.4,3.7,6.4,1.7
		C1018.2,530.3,1017.1,533.1,1025.1,513.6z"/>
	<path class="thokiman-skeleton-gray0" d="M1123.3,513.6c-0.8-2,6.9,8.5,13.8,14.7s0,14.7,0,14.7s-6.4,3.7-6.4,1.7
		C1130.8,530.3,1131.3,533.1,1123.3,513.6z"/>
	<path class="thokiman-skeleton-gray0" d="M1072.6,509.3h3.7c8,0,14.9,5.1,14.9,11.3l0,0c0,6.2-6.4,11.3-14.9,11.3h-3.7c-8,0-14.9-5.1-14.9-11.3l0,0
		C1057.5,514.7,1064.1,509.3,1072.6,509.3z"/>
	<path class="thokiman-skeleton-gray0" d="M1038.4,569.7c-13,5.4-23.6,43.6-16.7,43.1c31.1-3.1,78.1-2,104.9,0c9.3,0.6-6.1-41.9-20.2-43.1
		c-14.6-1.1-14.9,21.5-32.1,21.5C1057.2,590.9,1051.4,564,1038.4,569.7z"/>
	<path class="thokiman-skeleton-gray0" d="M1025.1,581.6c0.8-2-6.9,8.5-13.8,14.7c-6.9,6.2,0,14.7,0,14.7s6.4,3.7,6.4,1.7
		C1018.2,598.6,1017.1,601.1,1025.1,581.6z"/>
	<path class="thokiman-skeleton-gray0" d="M1123.3,581.6c-0.8-2,6.9,8.5,13.8,14.7s0,14.7,0,14.7s-6.4,3.7-6.4,1.7
		C1130.8,598.6,1131.3,601.1,1123.3,581.6z"/>
	<path class="thokiman-skeleton-gray0" d="M1072.6,577.9h3.7c8,0,14.9,5.1,14.9,11.3l0,0c0,6.2-6.4,11.3-14.9,11.3h-3.7c-8,0-14.9-5.1-14.9-11.3l0,0
		C1057.5,583,1064.1,577.9,1072.6,577.9z"/>
	<path class="thokiman-skeleton-gray0" d="M1038.4,637.7c-13,5.4-23.6,43.6-16.7,43.1c31.1-3.1,78.1-2,104.9,0c9.3,0.6-6.1-41.9-20.2-43.1
		c-14.6-1.1-14.9,21.5-32.1,21.5C1057.2,659.2,1051.4,632.6,1038.4,637.7z"/>
	<path class="thokiman-skeleton-gray0" d="M1025.1,649.9c0.8-2-6.9,8.5-13.8,14.7c-6.9,6.2,0,14.7,0,14.7s6.4,3.7,6.4,1.7
		C1018.2,666.6,1017.1,669.7,1025.1,649.9z"/>
	<path class="thokiman-skeleton-gray0" d="M1123.3,649.9c-0.8-2,6.9,8.5,13.8,14.7s0,14.7,0,14.7s-6.4,3.7-6.4,1.7
		C1130.8,666.6,1131.3,669.7,1123.3,649.9z"/>
	<path class="thokiman-skeleton-gray0" d="M1072.6,645.9h3.7c8,0,14.9,5.1,14.9,11.3l0,0c0,6.2-6.4,11.3-14.9,11.3h-3.7c-8,0-14.9-5.1-14.9-11.3l0,0
		C1057.5,651,1064.1,645.9,1072.6,645.9z"/>
	<path class="thokiman-skeleton-gray0" d="M1038.4,706.2c-13,5.4-23.6,43.6-16.7,43.1c31.1-3.1,78.1-2,104.9,0c9.3,0.6-6.1-41.9-20.2-43.1
		c-14.6-1.1-14.9,21.5-32.1,21.5C1057.2,727.5,1051.4,700.6,1038.4,706.2z"/>
	<path class="thokiman-skeleton-gray0" d="M1025.1,718.1c0.8-2-6.9,8.5-13.8,14.7c-6.9,6.2,0,14.7,0,14.7s6.4,3.7,6.4,1.7
		C1018.2,735.1,1017.1,737.7,1025.1,718.1z"/>
	<path class="thokiman-skeleton-gray0" d="M1123.3,718.1c-0.8-2,6.9,8.5,13.8,14.7s0,14.7,0,14.7s-6.4,3.7-6.4,1.7
		C1130.8,735.1,1131.3,737.7,1123.3,718.1z"/>
	<path class="thokiman-skeleton-gray0" d="M1072.6,714.5h3.7c8,0,14.9,5.1,14.9,11.3l0,0c0,6.2-6.4,11.3-14.9,11.3h-3.7c-8,0-14.9-5.1-14.9-11.3l0,0
		C1057.5,719.3,1064.1,714.5,1072.6,714.5z"/>
	<path class="thokiman-skeleton-gray0" d="M1038.4,774.2c-13,5.4-23.6,43.6-16.7,43.1c31.1-3.1,78.1-2,104.9,0c9.3,0.6-6.1-41.9-20.2-43.1
		c-14.6-1.1-14.9,21.5-32.1,21.5C1057.2,795.8,1051.4,768.6,1038.4,774.2z"/>
	<path class="thokiman-skeleton-gray0" d="M1025.1,786.1c0.8-2-6.9,8.5-13.8,14.7c-6.9,6.2,0,14.7,0,14.7s6.4,3.7,6.4,1.7
		C1018.2,803.1,1017.1,806,1025.1,786.1z"/>
	<path class="thokiman-skeleton-gray0" d="M1123.3,786.1c-0.8-2,6.9,8.5,13.8,14.7s0,14.7,0,14.7s-6.4,3.7-6.4,1.7C1130.8,803.1,1131.3,806,1123.3,786.1
		z"/>
	<path class="thokiman-skeleton-gray0" d="M1072.6,782.4h3.7c8,0,14.9,5.1,14.9,11.3l0,0c0,6.2-6.4,11.3-14.9,11.3h-3.7c-8,0-14.9-5.1-14.9-11.3l0,0
		C1057.5,787.5,1064.1,782.4,1072.6,782.4z"/>
	<path class="thokiman-skeleton-gray0" d="M1038.4,842.2c-13,5.4-23.6,43.6-16.7,43.1c31.1-3.1,78.1-2,104.9,0c9.3,0.6-6.1-41.9-20.2-43.1
		c-14.6-1.1-14.9,21.5-32.1,21.5C1057.2,864,1051.4,837.1,1038.4,842.2z"/>
	<path class="thokiman-skeleton-gray0" d="M1025.1,854.4c0.8-2-6.9,8.5-13.8,14.7c-6.9,6.2,0,14.7,0,14.7s6.4,3.7,6.4,1.7
		C1018.2,871.4,1017.1,874.2,1025.1,854.4z"/>
	<path class="thokiman-skeleton-gray0" d="M1123.3,854.4c-0.8-2,6.9,8.5,13.8,14.7s0,14.7,0,14.7s-6.4,3.7-6.4,1.7
		C1130.8,871.4,1131.3,874.2,1123.3,854.4z"/>
	<path class="thokiman-skeleton-gray0" d="M1072.6,850.4h3.7c8,0,14.9,5.1,14.9,11.3l0,0c0,6.2-6.4,11.3-14.9,11.3h-3.7c-8,0-14.9-5.1-14.9-11.3l0,0
		C1057.5,855.8,1064.1,850.4,1072.6,850.4z"/>
	<path class="thokiman-skeleton-gray0" d="M1038.4,910.8c-13,5.4-23.6,43.6-16.7,43.1c31.1-3.1,78.1-2,104.9,0c9.3,0.6-6.1-41.9-20.2-43.1
		c-14.6-1.1-14.9,21.5-32.1,21.5C1057.2,932,1051.4,905.1,1038.4,910.8z"/>
	<path class="thokiman-skeleton-gray0" d="M1025.1,922.7c0.8-2-6.9,8.5-13.8,14.7c-6.9,6.2,0,14.7,0,14.7s6.4,3.7,6.4,1.7
		C1018.2,939.7,1017.1,942.2,1025.1,922.7z"/>
	<path class="thokiman-skeleton-gray0" d="M1123.3,922.7c-0.8-2,6.9,8.5,13.8,14.7s0,14.7,0,14.7s-6.4,3.7-6.4,1.7
		C1130.8,939.7,1131.3,942.2,1123.3,922.7z"/>
	<path class="thokiman-skeleton-gray0" d="M1072.6,919h3.7c8,0,14.9,5.1,14.9,11.3l0,0c0,6.2-6.4,11.3-14.9,11.3h-3.7c-8,0-14.9-5.1-14.9-11.3l0,0
		C1057.5,924.1,1064.1,919,1072.6,919z"/>
	<path class="thokiman-skeleton-gray0" d="M1038.4,978.8c-13,5.4-23.6,43.6-16.7,43.1c31.1-3.1,78.1-2,104.9,0c9.3,0.6-6.1-41.9-20.2-43.1
		c-14.6-1.1-14.9,21.5-32.1,21.5C1057.2,1000.3,1051.4,973.7,1038.4,978.8z"/>
	<path class="thokiman-skeleton-gray0" d="M1025.1,991c0.8-2-6.9,8.5-13.8,14.7c-6.9,6.2,0,14.7,0,14.7s6.4,3.7,6.4,1.7
		C1018.2,1007.7,1017.1,1010.8,1025.1,991z"/>
	<path class="thokiman-skeleton-gray0" d="M1123.3,991c-0.8-2,6.9,8.5,13.8,14.7s0,14.7,0,14.7s-6.4,3.7-6.4,1.7C1130.8,1007.7,1131.3,1010.8,1123.3,991
		z"/>
	<path class="thokiman-skeleton-gray0" d="M1072.6,987h3.7c8,0,14.9,5.1,14.9,11.3l0,0c0,6.2-6.4,11.3-14.9,11.3h-3.7c-8,0-14.9-5.1-14.9-11.3l0,0
		C1057.5,992.1,1064.1,987,1072.6,987z"/>
	<path class="thokiman-skeleton-gray0" d="M1038.4,1047.3c-13,5.4-23.6,43.6-16.7,43.1c31.1-3.1,78.1-2,104.9,0c9.3,0.6-6.1-41.9-20.2-43.1
		c-14.6-1.1-14.9,21.5-32.1,21.5C1057.2,1068.6,1051.4,1041.7,1038.4,1047.3z"/>
	<path class="thokiman-skeleton-gray0" d="M1025.1,1059.2c0.8-2-6.9,8.5-13.8,14.7c-6.9,6.2,0,14.7,0,14.7s6.4,3.7,6.4,1.7
		C1018.2,1076.2,1017.1,1078.8,1025.1,1059.2z"/>
	<path class="thokiman-skeleton-gray0" d="M1123.3,1059.2c-0.8-2,6.9,8.5,13.8,14.7s0,14.7,0,14.7s-6.4,3.7-6.4,1.7
		C1130.8,1076.2,1131.3,1078.8,1123.3,1059.2z"/>
	<path class="thokiman-skeleton-gray0" d="M1072.6,1055h3.7c8,0,14.9,5.1,14.9,11.3l0,0c0,6.2-6.4,11.3-14.9,11.3h-3.7c-8,0-14.9-5.1-14.9-11.3l0,0
		C1057.5,1060.4,1064.1,1055,1072.6,1055z"/>
	<path class="thokiman-skeleton-gray0" d="M1038.4,1115.3c-13,5.4-23.6,43.6-16.7,43.1c31.1-3.1,78.1-2,104.9,0c9.3,0.6-6.1-41.9-20.2-43.1
		c-14.6-1.1-14.9,21.5-32.1,21.5C1057.2,1136.9,1051.4,1109.7,1038.4,1115.3z"/>
	<path class="thokiman-skeleton-gray0" d="M1025.1,1127.2c0.8-2-6.9,8.5-13.8,14.7c-6.9,6.2,0,14.7,0,14.7s6.4,3.7,6.4,1.7
		C1018.2,1144.2,1017.1,1147.1,1025.1,1127.2z"/>
	<path class="thokiman-skeleton-gray0" d="M1123.3,1127.2c-0.8-2,6.9,8.5,13.8,14.7s0,14.7,0,14.7s-6.4,3.7-6.4,1.7
		C1130.8,1144.2,1131.3,1147.1,1123.3,1127.2z"/>
	<path class="thokiman-skeleton-gray0" d="M1072.6,1123.5h3.7c8,0,14.9,5.1,14.9,11.3l0,0c0,6.2-6.4,11.3-14.9,11.3h-3.7c-8,0-14.9-5.1-14.9-11.3l0,0
		C1057.5,1128.6,1064.1,1123.5,1072.6,1123.5z"/>
	<path class="thokiman-skeleton-gray0" d="M1038.4,1183.3c-13,5.4-23.6,43.6-16.7,43.1c31.1-3.1,78.1-2,104.9,0c9.3,0.6-6.1-41.9-20.2-43.1
		c-14.6-1.1-14.9,21.5-32.1,21.5C1057.2,1205.1,1051.4,1178.2,1038.4,1183.3z"/>
	<path class="thokiman-skeleton-gray0" d="M1025.1,1195.5c0.8-2-6.9,8.5-13.8,14.7c-6.9,6.2,0,14.7,0,14.7s6.4,3.7,6.4,1.7
		C1018.2,1212.5,1017.1,1215.3,1025.1,1195.5z"/>
	<path class="thokiman-skeleton-gray0" d="M1123.3,1195.5c-0.8-2,6.9,8.5,13.8,14.7s0,14.7,0,14.7s-6.4,3.7-6.4,1.7
		C1130.8,1212.5,1131.3,1215.3,1123.3,1195.5z"/>
	<path class="thokiman-skeleton-gray0" d="M1072.6,1191.5h3.7c8,0,14.9,5.1,14.9,11.3l0,0c0,6.2-6.4,11.3-14.9,11.3h-3.7c-8,0-14.9-5.1-14.9-11.3l0,0
		C1057.5,1196.9,1064.1,1191.5,1072.6,1191.5z"/>
	<path class="thokiman-skeleton-gray0" d="M1038.4,1251.9c-13,5.4-23.6,43.6-16.7,43.1c31.1-3.1,78.1-2,104.9,0c9.3,0.6-6.1-41.9-20.2-43.1
		c-14.6-1.1-14.9,21.5-32.1,21.5C1057.2,1273.1,1051.4,1246.2,1038.4,1251.9z"/>
	<path class="thokiman-skeleton-gray0" d="M1025.1,1263.8c0.8-2-6.9,8.5-13.8,14.7c-6.9,6.2,0,14.7,0,14.7s6.4,3.7,6.4,1.7
		C1018.2,1280.8,1017.1,1283.3,1025.1,1263.8z"/>
	<path class="thokiman-skeleton-gray0" d="M1123.3,1263.8c-0.8-2,6.9,8.5,13.8,14.7s0,14.7,0,14.7s-6.4,3.7-6.4,1.7
		C1130.8,1280.8,1131.3,1283.3,1123.3,1263.8z"/>
	<path class="thokiman-skeleton-gray0" d="M1072.6,1260.1h3.7c8,0,14.9,5.1,14.9,11.3l0,0c0,6.2-6.4,11.3-14.9,11.3h-3.7c-8,0-14.9-5.1-14.9-11.3l0,0
		C1057.5,1265.2,1064.1,1260.1,1072.6,1260.1z"/>
	<path class="thokiman-skeleton-gray0" d="M1038.4,1319.9c-13,5.4-23.6,43.6-16.7,43.1c31.1-3.1,78.1-2,104.9,0c9.3,0.6-6.1-41.9-20.2-43.1
		c-14.6-1.1-14.9,21.5-32.1,21.5C1057.2,1341.4,1051.4,1314.8,1038.4,1319.9z"/>
	<path class="thokiman-skeleton-gray0" d="M1025.1,1331.8c0.8-2-6.9,8.5-13.8,14.7c-6.9,6.2,0,14.7,0,14.7s6.4,3.7,6.4,1.7
		C1018.2,1348.8,1017.1,1351.6,1025.1,1331.8z"/>
	<path class="thokiman-skeleton-gray0" d="M1123.3,1331.8c-0.8-2,6.9,8.5,13.8,14.7s0,14.7,0,14.7s-6.4,3.7-6.4,1.7
		C1130.8,1348.8,1131.3,1351.6,1123.3,1331.8z"/>
	<path class="thokiman-skeleton-gray0" d="M1072.6,1328.1h3.7c8,0,14.9,5.1,14.9,11.3l0,0c0,6.2-6.4,11.3-14.9,11.3h-3.7c-8,0-14.9-5.1-14.9-11.3l0,0
		C1057.5,1333.2,1064.1,1328.1,1072.6,1328.1z"/>
	<path class="thokiman-skeleton-gray0" d="M1038.4,1388.4c-13,5.4-23.6,43.6-16.7,43.1c31.1-3.1,78.1-2,104.9,0c9.3,0.6-6.1-41.9-20.2-43.1
		c-14.6-1.1-14.9,21.5-32.1,21.5C1057.2,1409.7,1051.4,1382.8,1038.4,1388.4z"/>
	<path class="thokiman-skeleton-gray0" d="M1025.1,1400.3c0.8-2-6.9,8.5-13.8,14.7c-6.9,6.2,0,14.7,0,14.7s6.4,3.7,6.4,1.7
		C1018.2,1417,1017.1,1419.9,1025.1,1400.3z"/>
	<path class="thokiman-skeleton-gray0" d="M1123.3,1400.3c-0.8-2,6.9,8.5,13.8,14.7s0,14.7,0,14.7s-6.4,3.7-6.4,1.7
		C1130.8,1417,1131.3,1419.9,1123.3,1400.3z"/>
	<path class="thokiman-skeleton-gray0" d="M1072.6,1396.1h3.7c8,0,14.9,5.1,14.9,11.3l0,0c0,6.2-6.4,11.3-14.9,11.3h-3.7c-8,0-14.9-5.1-14.9-11.3l0,0
		C1057.5,1401.5,1064.1,1396.1,1072.6,1396.1z"/>
	<path class="thokiman-skeleton-gray0" d="M1149.9,500.6c-35.3,39.7,316,39.7,247.2,3.1c-16.7-9.1-16.5,16.7-72-0.3c-76.5-23.8-137.3-49.9-174.7-23.8
		C1136.9,489.5,1171.1,476.8,1149.9,500.6z"/>
	<path class="thokiman-skeleton-gray0" d="M1161.6,460.9c21.8-16.1,120.8,7.6,204.7,19.3c75.4-24.6,126.1-22.4,137.3,50.4c-64.3,9.6,0,85.8-68,116.2
		c-80.5,35.7-78.9-52.7-143.1-16.7c-37.4-36.5,18.1-83.9-14.9-126.6C1245,461.7,1193.4,526.1,1161.6,460.9z"/>
	<path class="thokiman-skeleton-gray0" d="M1440.9,466c-7.7,10.8-18.3,47.9-3.5,59.8c14.9,12.5,77.3,38.5,85.8,22.4s-31.1-67.1-45.9-79
		C1461.9,456.9,1448.6,455.5,1440.9,466z"/>
	<path class="thokiman-skeleton-gray0" d="M1386.5,722.4c90.6,30.6,88.4-36.8,137.8-59.8c102.5,46.2,58.2-54.1,35.3-90.4c-22.8-36.5-103.6-22.9-153.5,0
		C1356.5,595.2,1339.5,706.8,1386.5,722.4z"/>
	<path class="thokiman-skeleton-gray0" d="M1625.8,1079.9c26.3,28.9,41.7,7.6,65.3,11.3c27.1,36,34.5-4.2,34.5-20.4s-32.9-29.5-57.1-33.1
		C1645.1,1034.6,1612.2,1065.2,1625.8,1079.9z"/>
	<path class="thokiman-skeleton-gray0" d="M1947.3,1472.6c15.4,14.4,24.2,3.7,38.2,5.4c15.7,18.1,19.9-2,20.2-9.9c0-7.9-19.1-14.7-33.2-16.4
		C1958.5,1449.9,1939.4,1465.2,1947.3,1472.6z"/>
	<path class="thokiman-skeleton-gray0" d="M1921.8,1504.9c21.8,5.4,22.8-7.1,35.8-11.9c24.4,8.5,15.9-10.8,11.2-17.6c-4.5-6.8-25.2-4.2-38.2,0.3
		C1917.9,1480.2,1910.7,1501.7,1921.8,1504.9z"/>
	<path class="thokiman-skeleton-gray0" d="M1883.6,1522.7c21.8,5.4,22.8-7.6,35.8-12.5c24.4,8.2,15.7-10.8,11.2-17.6c-5-6.8-25.2-3.7-38.2,1.1
		S1871.9,1519.9,1883.6,1522.7z"/>
	<path class="thokiman-skeleton-gray0" d="M1905.9,1554.4c15.7,5.4,16.5-7.6,26-12.5c17.5,8.2,11.4-10.8,8-17.6s-18.3-3.7-27.6,1.1
		C1903,1530.1,1897.9,1551.6,1905.9,1554.4z"/>
	<path class="thokiman-skeleton-gray0" d="M1937.8,1545.7c15.7,5.4,16.5-7.6,26-12.5c17.5,8.2,11.4-10.8,8-17.6s-18.3-3.7-27.6,1.1
		C1934.9,1521.3,1929.8,1543.1,1937.8,1545.7z"/>
	<path class="thokiman-skeleton-gray0" d="M1967,1528.4c15.7,5.4,16.5-7.6,26-12.5c17.5,8.2,11.4-10.8,8-17.6s-18.3-3.7-27.6,1.1
		C1963.8,1503.7,1958.8,1525.5,1967,1528.4z"/>
	<path class="thokiman-skeleton-gray0" d="M1997,1514.8c15.7,5.4,16.5-7.6,26-12.5c17.5,8.2,11.4-10.8,8-17.6s-18.3-3.7-27.6,1.1
		C1993.5,1490.4,1988.8,1511.9,1997,1514.8z"/>
	<path class="thokiman-skeleton-gray0" d="M1916,1560.7c13.3-9.1,0.8-16.1,0.3-25.5c17.3-9.1-5-14.2-13.8-14.7c-8.8-0.6-13,11.6-13,21
		C1890,1550.5,1909.1,1564.9,1916,1560.7z"/>
	<path class="thokiman-skeleton-gray0" d="M1503.6,773.4c-3.7,100.3,59.2,139.7,76.2,252.4c65.9-44.5,160.9,79.3,172.1,0s-85.2-219-163.3-295.8
		c-24.4-24.1-7.7-21.5-66.9-36.5C1495.1,708.2,1548.5,782.2,1503.6,773.4z"/>
	<path class="thokiman-skeleton-gray0" d="M1753,1140c30.5-68,54.7,0,61.9,22.4c44.1,128.3,60.5,165.7,100.1,183c72.8,31.7,92.7,109.4,64.3,79
		c-27.9-30.6-43.5,51.3-43.5,51.3s-14.6,28.6-63.5-62.3C1823.3,1322.4,1771.8,1223,1753,1140z"/>
	<path class="thokiman-skeleton-gray0" d="M1725.9,1143.1c-15.7,0-16.7,93.5,27.6,179.6c44.3,85.6,75.7,163.5,138.3,163.5c42.8,0-19.1-47.9-81-119
		C1772.6,1323.3,1774.5,1143.1,1725.9,1143.1z"/>
	<path class="thokiman-skeleton-gray0" d="M1971.8,1437.7h5.3c15.4,0,27.6,12.5,27.6,27.5l0,0c0,15-12.2,27.5-27.6,27.5h-5.3
		c-15.4,0-27.6-12.5-27.6-27.5l0,0C1944.4,1450.2,1956.6,1437.7,1971.8,1437.7z"/>
	<path class="thokiman-skeleton-gray0" d="M1901.9,1568.6c-0.3,8.2,13,13.9,23.6,29.5c16.5,5.1,36.4,18.7,36.4,9.9s-26-19.3-30.3-36.8
		C1916.8,1559.5,1902.2,1560.1,1901.9,1568.6z"/>
	<path class="thokiman-skeleton-gray0" d="M2021.2,1653.3c7.7,4.5,4.2,15,11.2,30.3c-5.8,12.5-6.4,31.7-14.1,26.9s-0.3-26.1-13.8-38.2
		C2003.6,1657.3,2013.5,1649.1,2021.2,1653.3z"/>
	<path class="thokiman-skeleton-gray0" d="M2052.2,1653.9c6.9,5.1,3.7,17.6,10.4,34.8c-5.3,14.2-6.1,36-13,30.6c-6.9-5.4-0.3-29.5-12.7-43.3
		C2036,1657.8,2045.3,1648.5,2052.2,1653.9z"/>
	<path class="thokiman-skeleton-gray0" d="M2076.4,1620.4c7.7,4.5,4.2,14.7,11.2,29.5c-5.8,11.9-6.4,30.6-14.1,26.1c-7.7-4.8-0.3-25.5-13.8-37.1
		C2058.3,1624.1,2068.7,1616.2,2076.4,1620.4z"/>
	<path class="thokiman-skeleton-gray0" d="M2095.8,1603.2c3.7,3.7,1.9,13,5.8,25.8c-3.2,10.8-3.5,26.9-6.9,22.7c-3.7-4.2-0.3-22.1-6.9-32.3
		C2087,1606.6,2092.1,1599.5,2095.8,1603.2z"/>
	<path class="thokiman-skeleton-gray0" d="M1924.8,1552.7c0,13.3,20.7,28.6,50.2,45.3c20.7-5.1,0.3-6.2,9.6-13.3c-7.2-13-38.5-44.8-38.5-36
		C1945.7,1561.2,1936.7,1549.9,1924.8,1552.7z"/>
	<path class="thokiman-skeleton-gray0" d="M1976.8,1600.1c-5,11,6.4,30,25,52.1c19.4,1.4,2.7-5.1,13-8.5c-1.1-13-15.7-48.2-18.9-41.4
		C1991.4,1612.8,1988,1601.2,1976.8,1600.1z"/>
	<path class="thokiman-skeleton-gray0" d="M1961.9,1540.8c0,13.3,16.7,24.1,45.9,40.5c13.8,4.8,4.5-1.7,13.8-9.1c-7.2-13-38.5-44.8-38.5-36
		C1982.9,1549.6,1973.6,1538.3,1961.9,1540.8z"/>
	<path class="thokiman-skeleton-gray0" d="M2007.1,1586.5c-5,14.4,5,32.6,23.4,61.5c9.8,10.2,4.5-0.3,14.9-4.5c-1.1-17.3-15.7-63.2-18.9-54.1
		C2021.7,1603.2,2018.2,1587.6,2007.1,1586.5z"/>
	<path class="thokiman-skeleton-gray0" d="M1992.7,1525.8c0,13.3,28.9,43.3,47,46.7c17.5,3.4,3.5-7.9,12.7-14.7c-7.2-13-38.5-44.8-38.5-36
		C2014,1534,2004.7,1523,1992.7,1525.8z"/>
	<path class="thokiman-skeleton-gray0" d="M2038.7,1575.4c-4.2,9.1,6.9,35.4,18.3,41.9c11.4,6.2,5-4.5,13.3-7.1c-0.8-10.8-13-38.5-15.7-33.1
		C2050.6,1585.6,2048,1576.3,2038.7,1575.4z"/>
	<path class="thokiman-skeleton-gray0" d="M2023.5,1509.1c0,12.5,25.2,30.6,32.9,37.4c12.2,11,5.8,0.3,13.3-4.8c5.3-3.7-32.4-39.9-33.2-31.7
		C2035.2,1522.7,2023.5,1504.9,2023.5,1509.1z"/>
	<path class="thokiman-skeleton-gray0" d="M2063.6,1556.1c-4.5,10.2,9.6,32.6,13.8,40.8c6.1,12.7,4.5,2,13-0.3c5.8-1.7-12.2-42.5-15.9-36
		C2068.2,1570.9,2065.2,1552.2,2063.6,1556.1z"/>
	<path class="thokiman-skeleton-gray0" d="M981.5,500.6c35.3,39.7-316,39.7-247.2,3.1c16.7-9.1,16.5,16.7,72-0.3c76.5-23.8,137.3-49.9,174.7-23.8
		C994.6,489.5,960,476.8,981.5,500.6z"/>
	<path class="thokiman-skeleton-gray0" d="M969.6,460.9c-21.8-16.1-120.8,7.6-204.7,19.3c-75.4-24.6-126.1-22.4-137.3,50.4c64.3,9.6,0,85.8,68,116.2
		c80.5,35.7,78.9-52.7,143.1-16.7c37.4-36.5-18.1-83.9,14.9-126.6C886.2,461.7,938,526.1,969.6,460.9z"/>
	<path class="thokiman-skeleton-gray0" d="M690.5,466c7.7,10.8,18.3,47.9,3.5,59.8c-14.9,11.9-77.3,38.5-85.8,22.4s31.1-67.1,45.9-79
		C669.3,456.9,682.8,455.5,690.5,466z"/>
	<path class="thokiman-skeleton-gray0" d="M744.7,722.4c-90.6,30.6-88.4-36.8-137.8-59.8c-102.5,46.2-58.2-54.1-35.3-90.4c22.8-36.5,103.6-22.9,153.5,0
		C774.9,595.2,791.7,706.8,744.7,722.4z"/>
	<path class="thokiman-skeleton-gray0" d="M505.1,1079.9c-26.3,28.9-41.7,7.6-65.3,11.3c-27.1,36-34.5-4.2-34.5-20.4s32.9-29.5,57.1-33.1
		C486,1034.6,519,1065.2,505.1,1079.9z"/>
	<path class="thokiman-skeleton-gray0" d="M183.8,1472.6c-15.4,14.4-24.2,3.7-38.2,5.4c-15.7,18.1-19.9-2-20.2-9.9c0-7.9,19.1-14.7,33.2-16.4
		C172.4,1449.9,191.5,1465.2,183.8,1472.6z"/>
	<path class="thokiman-skeleton-gray0" d="M209.6,1504.9c-21.8,5.4-22.8-7.1-35.8-11.9c-24.4,8.5-16.2-10.8-11.2-17.6c4.5-6.8,25.2-4.2,38.2,0.3
		C213.3,1480.2,220.7,1501.7,209.6,1504.9z"/>
	<path class="thokiman-skeleton-gray0" d="M247.8,1522.7c-21.8,5.4-22.8-7.6-35.8-12.5c-24.4,8.2-15.7-10.8-11.2-17.6c5-6.8,25.2-3.7,38.2,1.1
		C252.1,1498.3,259.3,1519.9,247.8,1522.7z"/>
	<path class="thokiman-skeleton-gray0" d="M225.3,1554.4c-15.7,5.4-16.5-7.6-26-12.5c-17.5,8.2-11.4-10.8-8-17.6c3.5-6.8,18.3-3.7,27.6,1.1
		C228.2,1530.1,233.2,1551.6,225.3,1554.4z"/>
	<path class="thokiman-skeleton-gray0" d="M193.4,1545.7c-15.7,5.4-16.5-7.6-26-12.5c-17.5,8.2-11.4-10.8-8-17.6c3.5-6.8,18.3-3.7,27.6,1.1
		C196.6,1521.3,201.6,1543.1,193.4,1545.7z"/>
	<path class="thokiman-skeleton-gray0" d="M164.5,1528.4c-15.7,5.4-16.5-7.6-26-12.5c-17.5,8.2-11.4-10.8-8-17.6c3.5-6.8,18.3-3.7,27.6,1.1
		C167.4,1503.7,172.4,1525.5,164.5,1528.4z"/>
	<path class="thokiman-skeleton-gray0" d="M134.2,1514.8c-15.7,5.4-16.5-7.6-26-12.5c-17.5,8.2-11.4-10.8-8-17.6s18.3-3.7,27.6,1.1
		C137.4,1490.4,142.7,1511.9,134.2,1514.8z"/>
	<path class="thokiman-skeleton-gray0" d="M215.4,1560.7c-13.3-9.1-0.8-16.1-0.3-25.5c-17.3-9.1,5-14.2,13.8-14.7s13,11.6,13,21
		C241.2,1550.5,222.1,1564.9,215.4,1560.7z"/>
	<path class="thokiman-skeleton-gray0" d="M647.2,773.4c0,112.5-79.1,139.7-96.1,252.4c-65.9-44.5-160.9,79.3-172.1,0s85.2-199.4,163.3-276.2
		c24.4-24.1,7.7-41.4,66.9-56.1C636.1,708.2,600.2,773.4,647.2,773.4z"/>
	<path class="thokiman-skeleton-gray0" d="M378,1140c-30.5-68-54.7,0-61.9,22.4c-44.1,127.8-60.8,165.4-100.1,182.4c-72.8,31.7-92.7,109.4-64.3,79
		c27.9-30.6,43.5,51.3,43.5,51.3s14.6,28.6,63.5-62.3C307.8,1322.4,359.6,1223,378,1140z"/>
	<path class="thokiman-skeleton-gray0" d="M405.3,1143.1c15.7,0,16.7,93.5-27.6,179.6c-44.3,85.6-75.7,163.5-138.3,163.5c-42.8,0,19.1-47.9,81-119
		C358.3,1323.3,356.4,1143.1,405.3,1143.1z"/>
	<path class="thokiman-skeleton-gray0" d="M159.4,1437.7h-5.3c-15.4,0-27.6,12.5-27.6,27.5l0,0c0,15,12.2,27.5,27.6,27.5h5.3c15.4,0,27.6-12.5,27.6-27.5
		l0,0C187,1450.2,174.8,1437.7,159.4,1437.7z"/>
	<path class="thokiman-skeleton-gray0" d="M229.5,1568.6c0.3,8.2-13,13.9-23.6,29.5c-16.5,5.1-36.4,18.7-36.4,9.9s26-19.3,30.3-36.8
		C214.1,1559.5,229,1560.1,229.5,1568.6z"/>
	<path class="thokiman-skeleton-gray0" d="M110,1653.3c-7.7,4.5-4.2,15-11.2,30.3c5.8,12.5,6.4,31.7,14.1,26.9c7.7-4.8,0.3-26.1,13.8-38.2
		C127.8,1657.3,117.7,1649.1,110,1653.3z"/>
	<path class="thokiman-skeleton-gray0" d="M78.7,1653.9c-6.9,5.1-3.7,17.6-10.4,34.8c5.3,14.2,6.1,36,13,30.6s0.3-29.5,12.7-43.3
		C95.1,1657.8,86.1,1648.5,78.7,1653.9z"/>
	<path class="thokiman-skeleton-gray0" d="M55,1620.4c-7.7,4.5-4.2,14.7-11.2,29.5c5.8,11.9,6.4,30.6,14.1,26.1c7.7-4.8,0.3-25.5,13.8-37.1
		C72.6,1624.1,62.7,1616.2,55,1620.4z"/>
	<path class="thokiman-skeleton-gray0" d="M35.4,1603.2c-3.7,3.7-1.9,13-5.8,25.8c3.2,10.8,3.5,26.9,6.9,22.7c3.7-4.2,0.3-22.1,6.9-32.3
		C44.4,1606.6,39.4,1599.5,35.4,1603.2z"/>
	<path class="thokiman-skeleton-gray0" d="M206.4,1552.7c0,13.3-20.7,28.6-50.2,45.3c-20.7-5.1-0.3-6.2-9.6-13.3c7.2-13,38.5-44.8,38.5-36
		C185.4,1561.2,194.7,1549.9,206.4,1552.7z"/>
	<path class="thokiman-skeleton-gray0" d="M154.4,1600.1c5,11-6.4,30-25,52.1c-19.4,1.4-2.7-5.1-13-8.5c1.1-13,15.7-48.2,18.9-41.4
		C140,1612.8,143.5,1601.2,154.4,1600.1z"/>
	<path class="thokiman-skeleton-gray0" d="M169.5,1540.8c0,13.3-16.7,24.1-45.9,40.5c-13.8,4.8-4.5-1.7-13.8-9.1c7.2-13,38.5-44.8,38.5-36
		C148.3,1549.6,157.5,1538.3,169.5,1540.8z"/>
	<path class="thokiman-skeleton-gray0" d="M123.8,1586.5c5,14.4-5,32.6-23.4,61.5c-9.8,10.2-4.5-0.3-14.9-4.5c1.1-17.3,15.7-63.2,18.9-54.1
		C109.8,1603.2,113.2,1587.6,123.8,1586.5z"/>
	<path class="thokiman-skeleton-gray0" d="M138.4,1525.8c0,13.3-28.9,43.3-47,46.7c-17.5,3.4-3.5-7.9-12.7-14.7c7.2-13,38.5-44.8,38.5-36
		C117.5,1534,126.5,1523,138.4,1525.8z"/>
	<path class="thokiman-skeleton-gray0" d="M92.5,1575.4c4.2,9.1-6.9,35.4-18.3,41.9s-5-4.5-13.3-7.1c0.8-10.8,13-38.5,15.7-33.1
		C80.5,1585.6,83.5,1576.3,92.5,1575.4z"/>
	<path class="thokiman-skeleton-gray0" d="M107.9,1509.1c0,12.5-25.2,30.6-32.9,37.4c-12.2,11-5.8,0.3-13.3-4.8c-5.3-3.7,32.4-39.9,33.2-31.7
		C95.9,1522.7,107.4,1504.9,107.9,1509.1z"/>
	<path class="thokiman-skeleton-gray0" d="M67.5,1556.1c4.5,10.2-9.6,32.6-13.8,40.8c-6.1,12.7-4.5,2-13-0.3c-5.8-1.7,12.2-42.5,16.2-36
		C62.7,1570.9,66.2,1552.2,67.5,1556.1z"/>
	<path class="thokiman-skeleton-gray0" d="M987.6,591.5c-16.2-19-53.1-36.8-75.4-17.8c-28.4,24.4-98.3-54.7-61.9-10.8c36.4,43.9,36.4,35.4,72.2,43.6
		C958.2,615,1003.3,610.5,987.6,591.5z"/>
	<path class="thokiman-skeleton-gray0" d="M987.6,591.5c-16.2-19-53.1-36.8-75.4-17.8c-28.4,24.4-98.3-54.7-61.9-10.8c36.4,43.9,36.4,35.4,72.2,43.6
		C958.2,615,1003.3,610.5,987.6,591.5z"/>
	<path class="thokiman-skeleton-gray0" d="M1149.9,587.3c16.2-19,53.1-36.8,75.4-17.8c28.4,24.4,98.3-54.7,61.9-10.8s-36.4,35.4-72.2,43.6
		C1178.8,610.5,1133.7,605.9,1149.9,587.3z"/>
	<path class="thokiman-skeleton-gray0" d="M821.2,646.7c23.6-11.3,66.1-14.4,77.3,11c13.8,32.3,115.8-14.2,61.1,12.7s-50.2,19-86.8,13.3
		C836.6,678.5,797.5,658.1,821.2,646.7z"/>
	<path class="thokiman-skeleton-gray0" d="M1316.1,642.2c-23.6-11.3-66.1-14.4-77.3,11c-13.8,32.3-115.8-14.2-61.1,12.7c54.7,26.9,50.2,19,86.8,13.3
		C1301,674.2,1339.5,653.5,1316.1,642.2z"/>
	<path class="thokiman-skeleton-gray0" d="M802,749c21.8-28.6,73-55.8,103.3-26.9c39,36.8,134.6-82.2,84.4-15.9s-50.2,53-99,65.7
		C842.7,784.4,780.3,777.3,802,749z"/>
	<path class="thokiman-skeleton-gray0" d="M1335.2,744.5c-21.8-28.6-73-55.8-103.3-26.9c-39,36.8-134.6-82.2-84.4-15.9s50.2,53,99,65.7
		C1294.9,780.2,1357,773.1,1335.2,744.5z"/>
	<path class="thokiman-skeleton-gray0" d="M817.7,820.7c18.9-25.2,62.7-49.3,88.7-23.8c33.2,32.6,115.5-72.8,72.8-14.2c-42.8,58.9-42.8,47-85,58.1
		C852.5,851.9,799.1,845.6,817.7,820.7z"/>
	<path class="thokiman-skeleton-gray0" d="M1319.6,816.2c-18.9-25.2-62.7-49.3-88.7-23.8c-33.2,32.6-115.5-72.8-72.8-14.2c42.8,58.9,42.8,47,85,58.1
		C1284.8,847.3,1337.9,841.4,1319.6,816.2z"/>
	<path class="thokiman-skeleton-gray0" d="M838.9,879.6c16.2-19,53.1-36.8,75.4-17.8c28.4,24.4,98.3-54.7,61.9-10.8c-36.4,43.9-36.4,35.4-72.2,43.6
		C868.7,903.1,823,898.6,838.9,879.6z"/>
	<path class="thokiman-skeleton-gray0" d="M1298.3,875.4c-16.2-19-53.1-36.8-75.4-17.8c-28.4,24.4-98.3-54.7-61.9-10.8s36.4,35.4,72.2,43.6
		C1268.9,898.9,1314.3,894.1,1298.3,875.4z"/>
	<path class="thokiman-skeleton-gray0" d="M873.7,939.7c16.2-19,53.1-36.8,75.4-17.8c28.4,24.4,98.3-54.7,61.9-10.8c-36.4,43.9-36.4,35.4-72.2,43.6
		C903.2,962.9,857.5,958.4,873.7,939.7z"/>
	<path class="thokiman-skeleton-gray0" d="M1263.8,935.1c-16.2-19-53.1-36.8-75.4-17.8c-28.4,24.4-98.3-54.7-61.9-10.8s36.4,35.4,72.2,43.6
		C1234.3,958.4,1279.5,954.1,1263.8,935.1z"/>
	<path class="thokiman-skeleton-gray0" d="M1071.8,522.9c-29.5,12.5-29.5,49.9-71.4,138c77.5,0,38,225.2,74.9,225.2c37.2,0,3.7-225.2,72.8-225.2
		C1106.1,572.8,1105.8,534.8,1071.8,522.9z"/>
	<path class="thokiman-skeleton-gray0" d="M948.3,1251c0,0-65.3,44.8-68.5,96.9c-3.2,52.7,24.4,40.2,57.9,62.6c31.3,21,58.2,68,62.7,41.4
		c4.5-26.9,14.6-89-38.5-128.9C950.5,1265.2,948.3,1251,948.3,1251z"/>
	<path class="thokiman-skeleton-gray0" d="M1206.7,1242.5c0,0,65.3,44.8,68.5,96.9c3.2,52.7-24.4,40.2-57.9,62.6c-31.3,21-58.2,68-62.7,41.4
		c-4.5-26.9-14.6-89,38.5-128.9C1204.6,1257,1206.7,1242.5,1206.7,1242.5z"/>
	<path class="thokiman-skeleton-gray0" d="M1017.4,1242.5c-32.1,31.7-89.5,126.6-75.4,209.1c14.1,82.4,85.2,78.2,126.9,27.8
		c49.7,50.4,129.6,54.7,144.2-27.8c14.6-82.4-44.3-177.1-80.5-209.1c-35.6-32-58.4,76.8-58.4,76.8S1049.5,1210.8,1017.4,1242.5z"/>
	<path class="thokiman-skeleton-gray0" d="M881.2,1551.6c-13.3-2,38-78.8-44.3-115.9c-32.1-26.1-88.7,156.4-88.7,273.7c0.3,117.3-11.9,189.2,28.9,199.7
		c44.9-79.3,87.9,64.3,108.3-21.5C906.1,1801.5,965.9,1564.6,881.2,1551.6z"/>
	<path class="thokiman-skeleton-gray0" d="M917.3,1375.7c53.9,25.8,100.1,73.9,100.1,96.9c0,0-89.2,106-100.1,55.8c-9.6-44.8-89.2-93.8-101.4-130.9
		C802,1353.9,863.4,1349.3,917.3,1375.7z"/>
	<path class="thokiman-skeleton-gray0" d="M838.1,1999.2c-32.4,5.4-73-3.7-84.2-15.6c0,0-7.2-71.1,21.5-48.7c25.2,19.8,50.5-15.9,73-0.6
		C874.8,1951.9,870.5,1994.1,838.1,1999.2z"/>
	<path class="thokiman-skeleton-gray0" d="M758.5,2027.6c-49.7-14.4-15.7,326.6-11.4,443.6c23.6,72.2,26,60.1,62.7,8.5c82.3-116.4-10.6-434.6-10.6-434.6
		S774.7,2091.6,758.5,2027.6z"/>
	<path class="thokiman-skeleton-gray0" d="M820.1,2045.1c-6.9,114.7,25.8,36.8,50.2,150.7s-96.7,362.1-30.5,292.9c134.3-140.5,69.2-376.2,13.2-487.5
		C814,2057,823.5,1988.7,820.1,2045.1z"/>
	<path class="thokiman-skeleton-gray0" d="M766.4,2573.5c-25,8.5-24.2,22.1-11.9,29.5c11.9,7.1,28.4-16.4,60,0c22.8-6.8,25.8-21.5,9.3-29.2
		C807.3,2566.7,791.4,2565,766.4,2573.5z"/>
	<path class="thokiman-skeleton-gray0" d="M809.5,2523.9c-6.4,15.9,33.2,16.1,40.1,85.8c4.5,45,55,4.8,86.8,4.8c15.7-48.2-40.6-47-61.1-68.8
		C854.6,2524.7,815.8,2508.3,809.5,2523.9z"/>
	<path class="thokiman-skeleton-gray0" d="M784.8,2521.6L784.8,2521.6c14.6,0,26,9.6,26,22.1v2.3c0,11.9-11.4,22.1-26,22.1l0,0c-14.6,0-26-9.6-26-22.1
		v-2.3C758.7,2531.5,770.4,2521.6,784.8,2521.6z"/>
	<path class="thokiman-skeleton-gray0" d="M719.2,2618.2c-9.8,0-30.5,18.7-38,24.4c-11.4,9.3-1.6,4.2,1.1,9.6c1.9,3.7,39.8-24.1,33.2-24.6
		C705.4,2626.7,722.6,2618.2,719.2,2618.2z"/>
	<path class="thokiman-skeleton-gray0" d="M734.3,2631.3c-13.8,1.1-37.2,22.9-45.9,30c-13.8,11-1.1,4.5,4.2,9.9c3.7,3.7,48.6-30,39.3-29.5
		C717.9,2642.3,739.4,2631,734.3,2631.3z"/>
	<path class="thokiman-skeleton-gray0" d="M745.5,2652.5c-11.2,1.1-31.3,21-38.5,27.2c-11.4,9.9-1.1,4.2,3.2,9.1c2.7,3.4,40.6-27.2,33.2-26.9
		C731.7,2662.7,749.7,2652.2,745.5,2652.5z"/>
	<path class="thokiman-skeleton-gray0" d="M802.6,2651.7c-13.8-1.1-52.8,33.7-66.7,44.8c-21.5,16.7-4.5,8.2-3.7,19.3c0.3,7.6,68.8-43.6,60-45.3
		C778.7,2667.5,807.3,2651.9,802.6,2651.7z"/>
	<path class="thokiman-skeleton-gray0" d="M831.5,2681.1c-9.3,0-28.9-2-42.5,5.9c-13.3,7.9-20.7,26.1-27.6,30.6c-21.5,13.3-3.2,6.2,2.4,14.2
		c3.7,5.4,73-35.7,60.8-36C806.3,2694.2,838.1,2681.1,831.5,2681.1z"/>
	<path class="thokiman-skeleton-gray0" d="M717.6,2608.6c-5.8,4.8-1.1,14.7,5.8,16.7c7.2,2,18.9-3.7,22.6-9.1c3.7-4.8,1.6-9.3-7.2-11
		C729.8,2604.1,723.7,2603.8,717.6,2608.6z"/>
	<path class="thokiman-skeleton-gray0" d="M763.5,2609.7c-11.2,6.2-26.3,39.7-10.4,42.5c16.2,3.4,68-22.7,74.6-29.5c6.4-6.8,0.3-13-19.9-15.9
		C788,2604.1,774.9,2603.5,763.5,2609.7z"/>
	<path class="thokiman-skeleton-gray0" d="M815,2639.5c-10.6,9.6-4.5,30,7.2,33.7c11.4,3.7,31.9-8.2,39-18.1s4.2-18.7-10.6-21.5
		C836,2630.1,825.9,2629.9,815,2639.5z"/>
	<path class="thokiman-skeleton-gray0" d="M616.1,2674.9c0,0-11.2,9.6-9.8,11.6c1.6,2,8.5-0.6,16.2-5.4c7.7-4.8,14.6-2.8,16.2-9.3
		c1.6-6.8,1.9-3.1-2.7-7.6C630.8,2659.9,616.1,2674.9,616.1,2674.9z"/>
	<path class="thokiman-skeleton-gray0" d="M618.5,2697c0,0-14.1,10.2-11.9,12.5c2.4,2,11.4-0.6,21.8-5.4c10.4-5.1,19.9-2.3,21-9.6c1.1-7.6,1.9-3.1-5-8.2
		C636.9,2680.8,618.5,2697,618.5,2697z"/>
	<path class="thokiman-skeleton-gray0" d="M631.8,2716c0,0-16.7,11.6-14.1,14.2c2.7,2.3,13.3-0.6,25.2-6.5c12.2-5.9,22.8-2.8,24.4-11
		c1.6-8.5,2.4-3.4-5.8-9.1C653.6,2698.1,631.8,2716,631.8,2716z"/>
	<path class="thokiman-skeleton-gray0" d="M649.9,2739.2c0,0-19.4,13.9-16.2,16.4c3.2,2.8,15.7-0.6,29.5-7.6c13.8-6.8,26.8-3.1,28.4-13
		c1.6-10.2,2.7-4.2-6.9-11C674.8,2718,649.9,2739.2,649.9,2739.2z"/>
	<path class="thokiman-skeleton-gray0" d="M688.9,2754.5c0,0-16.7,11-14.1,13.3s13.8-0.3,25.8-5.9c12.2-5.4,23.4-2.3,24.4-10.2c1.1-8.2,2.4-3.4-6.1-9.1
		C710.7,2737.2,688.9,2754.5,688.9,2754.5z"/>
	<path class="thokiman-skeleton-gray0" d="M644,2657.3c-3.2,5.4,1.1,10.8,8.8,11.9c7.7,1.4,16.2-11,16.2-11s-6.1-1.4-6.1-6.8S647.2,2651.9,644,2657.3z"
		/>
	<path class="thokiman-skeleton-gray0" d="M657.6,2676.9c-3.2,5.4,1.1,10.8,8.8,11.9c7.7,1.4,16.2-11,16.2-11s-6.1-1.4-6.1-6.8
		C676.2,2665.5,660.5,2671.5,657.6,2676.9z"/>
	<path class="thokiman-skeleton-gray0" d="M675.9,2695.6c-3.2,5.4,1.1,10.8,8.8,11.9c7.7,1.4,16.2-11,16.2-11s-6.1-1.4-6.1-6.8
		C694.5,2684,678.8,2690.2,675.9,2695.6z"/>
	<path class="thokiman-skeleton-gray0" d="M696.9,2716c-3.2,5.4,1.1,10.8,8.8,11.9c7.7,1.4,16.2-11,16.2-11s-6.1-1.4-6.1-6.8
		C715.7,2704.1,700.1,2710.3,696.9,2716z"/>
	<path class="thokiman-skeleton-gray0" d="M727.1,2731.3c-3.2,5.4,1.1,10.8,8.8,11.9c7.7,1.4,16.2-11,16.2-11s-6.1-1.4-6.1-6.8
		C745.7,2719.9,730.1,2725.9,727.1,2731.3z"/>
	<path class="thokiman-skeleton-gray0" d="M1232.7,1551.6c13.3-2-38-78.8,44.3-115.9c32.1-26.1,88.7,156.4,88.7,273.7c-0.3,117.3,11.9,189.2-28.9,199.7
		c-44.9-79.3-87.9,64.3-108.3-21.5C1208.3,1801.5,1147.8,1564.6,1232.7,1551.6z"/>
	<path class="thokiman-skeleton-gray0" d="M1196.4,1375.7c-53.9,25.8-100.1,73.9-100.1,96.9c0,0,89.2,106,100.1,55.8c9.6-44.8,89.2-93.8,101.4-130.9
		C1311.9,1353.9,1250.8,1349.3,1196.4,1375.7z"/>
	<path class="thokiman-skeleton-gray0" d="M1276,1999.2c32.4,5.4,73-3.7,84.2-15.6c0,0,7.2-71.1-21.5-48.7c-25.2,19.8-50.5-15.9-73-0.6
		C1239.4,1951.9,1243.6,1994.1,1276,1999.2z"/>
	<path class="thokiman-skeleton-gray0" d="M1355.7,2027.6c49.7-14.4,15.7,326.6,11.4,443.6c-23.6,72.2-26,60.1-62.7,8.5
		c-82.3-116.4,10.6-434.6,10.6-434.6S1339.2,2091.6,1355.7,2027.6z"/>
	<path class="thokiman-skeleton-gray0" d="M1293.6,2045.1c6.9,114.7-25.8,36.8-50.2,150.7c-24.4,113.9,96.7,362.1,30.5,292.9
		c-134.4-140.5-69.3-376.2-13.3-487.6C1299.7,2057,1290.6,1988.7,1293.6,2045.1z"/>
	<path class="thokiman-skeleton-gray0" d="M1347.5,2573.5c25,8.5,24.2,22.1,11.9,29.5c-11.9,7.1-28.4-16.4-60,0c-22.8-6.8-25.8-21.5-9.3-29.2
		C1306.3,2566.7,1322.8,2565,1347.5,2573.5z"/>
	<path class="thokiman-skeleton-gray0" d="M1304.7,2523.9c6.4,15.9-33.2,16.1-40.1,85.8c-4.5,45-55,4.8-86.8,4.8c-15.7-48.2,40.6-47,61.1-68.8
		C1259.6,2524.7,1298.3,2508.3,1304.7,2523.9z"/>
	<path class="thokiman-skeleton-gray0" d="M1329.1,2521.6L1329.1,2521.6c-14.6,0-26,9.6-26,22.1v2.3c0,11.9,11.4,22.1,26,22.1l0,0c14.6,0,26-9.6,26-22.1
		v-2.3C1355.2,2531.5,1343.5,2521.6,1329.1,2521.6z"/>
	<path class="thokiman-skeleton-gray0" d="M1394.7,2618.2c9.8,0,30.5,18.7,38,24.4c11.4,9.3,1.6,4.2-1.1,9.6c-1.9,3.7-39.8-24.1-33.2-24.6
		C1408.3,2626.7,1391.3,2618.2,1394.7,2618.2z"/>
	<path class="thokiman-skeleton-gray0" d="M1379.6,2631.3c13.8,1.1,37.2,22.9,45.9,30c13.8,11,1.1,4.5-4.2,9.9c-3.7,3.7-48.6-30-39.3-29.5
		C1396.1,2642.3,1374.8,2631,1379.6,2631.3z"/>
	<path class="thokiman-skeleton-gray0" d="M1368.2,2652.5c11.2,1.1,31.3,21,38.5,27.2c11.4,9.9,1.1,4.2-3.2,9.1c-2.7,3.4-40.6-27.2-33.2-26.9
		C1382.3,2662.7,1364.5,2652.2,1368.2,2652.5z"/>
	<path class="thokiman-skeleton-gray0" d="M1311.4,2651.7c13.8-1.1,52.8,33.7,66.7,44.8c21.5,16.7,4.5,8.2,3.7,19.3c-0.3,7.6-68.8-43.6-60-45.3
		C1335.2,2667.5,1306.3,2651.9,1311.4,2651.7z"/>
	<path class="thokiman-skeleton-gray0" d="M1282.4,2681.1c9.3,0,28.9-2,42.5,5.9c13.3,7.9,20.7,26.1,27.6,30.6c21.5,13.3,3.2,6.2-2.4,14.2
		c-3.7,5.4-73-35.7-60.8-36C1307.9,2694.2,1275.8,2681.1,1282.4,2681.1z"/>
	<path class="thokiman-skeleton-gray0" d="M1396.1,2608.6c5.8,4.8,1.1,14.7-5.8,16.7c-7.2,2-18.9-3.7-22.6-9.1c-3.7-4.8-1.6-9.3,7.2-11
		C1384.4,2604.1,1390.5,2603.8,1396.1,2608.6z"/>
	<path class="thokiman-skeleton-gray0" d="M1350.1,2609.7c11.2,6.2,26.3,39.7,10.4,42.5c-16.2,3.4-68-22.7-74.6-29.5c-6.4-6.8-0.3-13,19.9-15.9
		C1325.7,2604.1,1339.2,2603.5,1350.1,2609.7z"/>
	<path class="thokiman-skeleton-gray0" d="M1298.6,2639.5c10.6,9.6,4.5,30-7.2,33.7c-11.4,3.7-31.9-8.2-39-18.1s-4.2-18.7,10.6-21.5
		C1277.9,2630.1,1288,2629.9,1298.6,2639.5z"/>
	<path class="thokiman-skeleton-gray0" d="M1497.8,2674.9c0,0,11.2,9.6,9.8,11.6c-1.6,2-8.5-0.6-15.9-5.4c-7.7-4.8-14.6-2.8-15.7-9.3
		c-1.6-6.8-1.9-3.1,2.7-7.6C1482.9,2659.9,1497.8,2674.9,1497.8,2674.9z"/>
	<path class="thokiman-skeleton-gray0" d="M1495.6,2697c0,0,14.1,10.2,11.9,12.5c-2.4,2-11.4-0.6-21.8-5.4c-10.4-5.1-19.9-2.3-21-9.6
		c-1.1-7.6-1.9-3.1,5-8.2C1477.3,2680.8,1495.6,2697,1495.6,2697z"/>
	<path class="thokiman-skeleton-gray0" d="M1481.8,2716c0,0,16.7,11.6,14.1,14.2c-2.7,2.3-13.3-0.6-25.2-6.5c-12.2-5.9-22.8-2.8-24.4-11
		c-1.6-8.5-2.4-3.4,5.8-9.1C1460.1,2698.1,1481.8,2716,1481.8,2716z"/>
	<path class="thokiman-skeleton-gray0" d="M1464.3,2739.2c0,0,19.4,13.9,16.2,16.4c-3.2,2.8-15.7-0.6-29.5-7.6c-13.8-6.8-26.8-3.1-28.4-13
		c-1.6-10.2-2.7-4.2,6.9-11C1439.3,2718,1464.3,2739.2,1464.3,2739.2z"/>
	<path class="thokiman-skeleton-gray0" d="M1424.7,2754.5c0,0,16.7,11,14.1,13.3c-2.7,2.3-13.8-0.3-25.8-5.9c-12.2-5.4-23.4-2.3-24.4-10.2
		c-1.1-8.2-2.4-3.4,6.1-9.1C1403.5,2737.2,1424.7,2754.5,1424.7,2754.5z"/>
	<path class="thokiman-skeleton-gray0" d="M1469.9,2657.3c3.2,5.4-1.1,10.8-8.8,11.9c-7.7,1.4-16.2-11-16.2-11s6.1-1.4,6.1-6.8
		S1467,2651.9,1469.9,2657.3z"/>
	<path class="thokiman-skeleton-gray0" d="M1456.1,2676.9c3.2,5.4-1.1,10.8-8.8,11.9c-7.7,1.4-16.2-11-16.2-11s6.1-1.4,6.1-6.8
		C1437.5,2665.5,1453.2,2671.5,1456.1,2676.9z"/>
	<path class="thokiman-skeleton-gray0" d="M1438.3,2695.6c3.2,5.4-1.1,10.8-8.8,11.9c-7.7,1.4-16.2-11-16.2-11s6.1-1.4,6.1-6.8
		C1419.4,2684,1435.1,2690.2,1438.3,2695.6z"/>
	<path class="thokiman-skeleton-gray0" d="M1417.3,2716c3.2,5.4-1.1,10.8-8.8,11.9c-7.7,1.4-16.2-11-16.2-11s6.1-1.4,6.1-6.8
		C1398.4,2704.1,1414.1,2710.3,1417.3,2716z"/>
	<path class="thokiman-skeleton-gray0" d="M1386.5,2731.3c3.2,5.4-1.1,10.8-8.8,11.9c-7.7,1.4-16.2-11-16.2-11s6.1-1.4,6.1-6.8
		C1367.9,2719.9,1383.6,2725.9,1386.5,2731.3z"/>
</g>
</svg>
