<?xml version="1.0" encoding="utf-8"?>
<!-- Generator: Adobe Illuthokiman-hand-grayrator 23.0.3, SVG Export Plug-In . SVG Version: 6.00 Build 0)  -->
<svg version="1.1" id="Layer_1" xmlnsvectornator="http://vectornator.io"
	 xmlns="http://www.w3.org/2000/svg" xmlnsXlink="http://www.w3.org/1999/xlink" x="0px" y="0px" viewBox="0 0 234 1014.9"
	 style="enable-background:new 0 0 234 1014.9;" xmlSpace="preserve">
<style type="text/css">
	
		.thokiman-hand-gray0{fill-rule:evenodd;clip-rule:evenodd;fill:#9F9F9F;fill-opacity:0.9978;stroke:#1F1F1F;stroke-width:0.78;stroke-linecap:round;stroke-linejoin:round;}
	
		.thokiman-hand-gray1{fill-rule:evenodd;clip-rule:evenodd;fill:#BFBFBF;fill-opacity:0.9978;stroke:#1F1F1F;stroke-width:0.78;stroke-linecap:round;stroke-linejoin:round;}
	
		.thokiman-hand-gray2{fill-rule:evenodd;clip-rule:evenodd;fill:#DFDFDF;fill-opacity:0.9978;stroke:#1F1F1F;stroke-width:0.78;stroke-linecap:round;stroke-linejoin:round;}
</style>
<g vectornatorlayername="Layer 1">
	<path class="thokiman-hand-gray0" d="M32.4,10.3c16.8-2.7,60.3,41.1,100.1,73.2c47.5,8.7,73.1,25.6,54.5,70.8c-36.7-14.1-28.8,49.4-74.5,46.2
		c-53.7-3.7-23.4-54.3-68.9-53.1c-7.3-32.5,37.5-42.9,34.7-77.2C75.6,35.9,27.1,57.4,32.4,10.3z"/>
	<path class="thokiman-hand-gray0" d="M126,818.2l2.7,1.6c7.9,4.6,10.1,15.4,5,24.1l0,0c-5.1,8.7-15.6,12-23.4,7.5l-2.7-1.6
		c-7.9-4.6-10.1-15.4-5.1-24.1l0,0C107.7,817,118.2,813.6,126,818.2z"/>
	<path class="thokiman-hand-gray1" d="M135,951c0.7,3.3-3.3,8.1-5.7,16.5c-5,5.2-10.7,14.4-11.3,10.9c-0.6-3.5,7.3-12.8,7.2-20.7
		C129.4,950.1,134.3,947.7,135,951z"/>
	<path class="thokiman-hand-gray2" d="M66.2,507.3c4,24.6,19,17,30.2,26.3c1.9,29.1,19.3,8.1,24.7-1.1c5.5-9.3-7.3-27-18.5-36.3
		C91.5,486.9,64.1,494.6,66.2,507.3z"/>
	<path class="thokiman-hand-gray2" d="M101.7,830.8c3.1,13,11.3,9.6,17.9,14.8c2.1,15.2,11.1,4.9,13.9,0.3c2.7-4.6-5.1-14.3-11.7-19.6
		C115.2,821.1,100.1,824.1,101.7,830.8z"/>
	<path class="thokiman-hand-gray0" d="M55.9,871.8c9.9-1.2,5.8-9.1,8.8-14.5c12,0,2-9.6-2.2-12.7c-4.2-3.1-10.7,2.8-13.8,8.2
		C45.7,858.2,50.7,872.4,55.9,871.8z"/>
	<path class="thokiman-hand-gray2" d="M105.5,294c-35.7,56.6-15.9,98.4-45,168.2c49.2-5.5,57.2,94.5,89.6,52.3c32.4-42.2,29.1-151.8,14.2-219.6
		c-4.7-21.4,3.3-14.8-22.5-41.3C123,253.7,125.9,312.4,105.5,294z"/>
	<path class="thokiman-hand-gray2" d="M112.3,580.5c38.9-29.9,28.4,16.5,24.9,31.6c-20.2,87-24.1,113.7-9.3,135.6c27.2,40.3,11.4,91.1,7,65
		s-39.8,16.2-39.8,16.2s-17,11.9-12.2-55.2C87.7,706.6,94.2,633.8,112.3,580.5z"/>
	<path class="thokiman-hand-gray0" d="M97,574c-8.1-4.7-40.2,48.8-45.9,111.5c-5.6,62.7-15.4,116.8,17.3,135.9c22.3,13,6.1-33.2-2.3-93
		C61,691.9,122.4,588.8,97,574z"/>
	<path class="thokiman-hand-gray1" d="M45.9,872.1c-2.9,4.7,2.1,11.9,2.6,24.2c6.8,7.9,12.7,21.7,15.5,16.7c2.8-4.9-7.2-19-3.3-30.3
		C56.8,871.5,48.8,867.4,45.9,872.1z"/>
	<path class="thokiman-hand-gray0" d="M79.4,957.3c2.4,4.9-3,10.1-4.4,20.9c-7.2,5.4-14,16.2-16.3,11.2c-2.3-5.1,8.5-15.2,5.6-26.2
		C69,954.1,77,952.4,79.4,957.3z"/>
	<path class="thokiman-hand-gray0" d="M95.6,966.8c1.9,5-3.9,11.2-6.2,23c-7.5,6.5-15.2,18.9-17,13.6c-1.8-5.3,9.7-17.2,7.9-28.8
		C85.7,964.3,93.6,961.8,95.6,966.8z"/>
	<path class="thokiman-hand-gray0" d="M119.1,955c2.5,4.8-2.8,9.8-4.1,20.4c-7.1,5.2-13.7,15.7-16,10.7c-2.3-5,8.2-14.7,5.2-25.5
		C108.7,951.7,116.6,950.2,119.1,955z"/>
	<path class="thokiman-hand-gray1" d="M63.1,870.1c-4.5,7.6,1.2,22.8,10.8,41.3c12.5,3.2,2.4-3.5,9.5-4.8c0.7-9.8-5.1-37.4-8-32.5
		C71.1,881.3,70.2,872.1,63.1,870.1z"/>
	<path class="thokiman-hand-gray0" d="M74.3,913c-6.3,4.9-6.6,19.2-4.5,37.6c9.6,6.7,3.2-2.1,9.7-1c3.8-7.9,8-32.6,4-29.5
		C77.4,924.8,79.6,916.9,74.3,913z"/>
	<path class="thokiman-hand-gray1" d="M86.4,874.6c-4.5,7.6,0.7,18.9,10.3,37.3c5.6,6.9,2.9,0.4,10-0.9c0.7-9.8-5.1-37.4-8-32.5
		C94.4,885.8,93.4,876.6,86.4,874.6z"/>
	<path class="thokiman-hand-gray0" d="M94.7,914.4c-7.5,6.9-8.3,20.2-8.5,42.5c1.7,8.8,2.3,1.2,9.2,1.8c5.2-10.2,13-41.1,8.3-36.8
		C96.5,928.5,99.9,918.5,94.7,914.4z"/>
	<path class="thokiman-hand-gray1" d="M107.5,875.2c-4.5,7.6,0.7,33.8,8.7,41.2c8,7.4,4.4-3.4,11.6-4.8c0.7-9.8-5.1-37.4-8-32.5
		C115.6,886.4,114.6,877.2,107.5,875.2z"/>
	<path class="thokiman-hand-gray0" d="M114.7,917.7c-5.1,3.8-8.3,22.6-4.6,29.6c3.7,7.1,4-1.1,9.4,0c3-6.3,6.1-26.1,2.9-23.7
		C117.5,927.3,119.2,920.9,114.7,917.7z"/>
	<path class="thokiman-hand-gray2" d="M129.1,874.9c-4.2,7,2.8,25.2,4.6,31.7c2.8,10,2.9,2,8.6,1.2c4-0.6-3.4-32.9-6.7-28.3
		C130.7,886.3,130.6,872.4,129.1,874.9z"/>
	<path class="thokiman-hand-gray1" d="M134.2,914.1c-5.9,4.4-6,21.8-6.6,27.7c-1,9.2,1.8,2.6,7,3.7c3.6,0.8,8-28.3,3.7-25.6
		C131.7,924,136.3,912.5,134.2,914.1z"/>
	<path class="thokiman-hand-gray1" d="M175.9,98.1c-7.5,3.8-25.6,21.8-21.9,33.4c3.7,11.6,27.3,45.6,37.1,38.7c9.8-6.9,6.3-48,2.6-59.5
		S183.4,94.3,175.9,98.1z"/>
	<path class="thokiman-hand-gray2" d="M61.6,229c36.9,45,58.3,5.6,91.7,7.3c37.9,57.6,48.4-13.5,48.6-41.4c0.2-27.9-46.3-44.8-79.7-46.5
		C88.8,146.6,42.6,205.7,61.6,229z"/>
	<path class="thokiman-hand-gray1" d="M77.6,841.5c9.4,9.8,14.5,2.8,22.8,4c9.8,12.3,11.9-1.2,11.8-6.7c-0.1-5.4-11.8-10.1-20.1-11.4
		C83.8,826.2,72.8,836.4,77.6,841.5z"/>
	<path class="thokiman-hand-gray1" d="M51.6,840.2c9.6,9.7,14.5,2.6,22.8,3.7c9.9,12.2,11.9-1.4,11.7-6.8c-0.2-5.4-11.9-9.9-20.2-11.1
		C57.6,824.8,46.7,835.1,51.6,840.2z"/>
	<path class="thokiman-hand-gray2" d="M113.3,870.1c6.4,7.9,11.2,0.6,17.6,0.7c6.4,10.1,9.6-2.7,10.1-7.8c0.5-5-8.2-7.8-14.6-7.9
		C119.9,855.1,110,866,113.3,870.1z"/>
	<path class="thokiman-hand-gray2" d="M52.8,865.2c6.4,7.9,11.2,0.6,17.6,0.7c6.4,10.1,9.6-2.7,10.1-7.8c0.5-5-8.2-7.8-14.6-7.9
		C59.4,850.2,49.5,861.1,52.8,865.2z"/>
	<path class="thokiman-hand-gray2" d="M72.2,870c6.4,7.9,11.2,0.6,17.6,0.7c6.4,10.1,9.6-2.7,10.1-7.8c0.5-5-8.2-7.8-14.6-7.9
		C78.8,855,68.9,866,72.2,870z"/>
	<path class="thokiman-hand-gray2" d="M93.2,868.7c6.4,7.9,11.2,0.6,17.6,0.7c6.4,10.1,9.6-2.7,10.1-7.8c0.5-5-8.2-7.8-14.6-7.9
		C99.8,853.7,89.9,864.7,93.2,868.7z"/>
</g>
</svg>
