<?xml version="1.0" encoding="utf-8"?>
<!-- Generator: Adobe Illuthokiman-head-colorrator 23.0.3, SVG Export Plug-In . SVG Version: 6.00 Build 0)  -->
<svg version="1.1" id="Layer_1" xmlns="http://www.w3.org/2000/svg" xmlnsXlink="http://www.w3.org/1999/xlink" x="0px" y="0px"
	 viewBox="0 0 589 627" style="enable-background:new 0 0 589 627;" xmlSpace="preserve">
<style type="text/css">
	.thokiman-head-color0{fill-rule:evenodd;clip-rule:evenodd;fill:#404040;fill-opacity:0.9978;stroke:#E3E1E4;stroke-width:4;stroke-miterlimit:10;}
	.thokiman-head-color1{fill-rule:evenodd;clip-rule:evenodd;fill:#9F9F9F;fill-opacity:0.9978;stroke:#E3E1E4;stroke-width:4;stroke-miterlimit:10;}
	.thokiman-head-color2{fill-rule:evenodd;clip-rule:evenodd;fill:#BFBFBF;fill-opacity:0.9978;stroke:#E3E1E4;stroke-width:4;stroke-miterlimit:10;}
	.thokiman-head-color3{fill-rule:evenodd;clip-rule:evenodd;fill:#202020;fill-opacity:0.9978;stroke:#E3E1E4;stroke-width:4;stroke-miterlimit:10;}
	.thokiman-head-color4{fill-rule:evenodd;clip-rule:evenodd;fill:#808080;fill-opacity:0.9978;stroke:#E3E1E4;stroke-width:4;stroke-miterlimit:10;}
	.thokiman-head-color5{fill-rule:evenodd;clip-rule:evenodd;fill:#606060;fill-opacity:0.9978;stroke:#E3E1E4;stroke-width:4;stroke-miterlimit:10;}
</style>
<g>
	<g>
		<path class="thokiman-head-color0" d="M301.4,38.5c72.2,0.6,129.1,57.9,176.6,65.3c87,13.6,81.3,149.6,81.3,254.2l0,0c0,75.5-73.5,93.4-79.7,140.6
			c-7.4,56-122.2,57-179.7,94.8c-55.1-28.4-182-15.7-188.9-94.8s-73.6-44-73.6-140.6l0,0c0-99.5,13-237.1,95.7-252.3
			C188.5,95.6,229.2,38,301.4,38.5z"/>
		<path class="thokiman-head-color1" d="M418.8,210.9c56.2,27.2,97.1,42,104.4,110.8c2.9,27.7-4.4,71.6-4.4,72.1c40.6-63.1,92.5,33.9,29,76.2
			c-20.6,11.1-32.2,5.1-39.8-3.7c-11.2-13-13.8-32-24-11.9c-13.7-2.2-13.6-57-38.9-36c-31.3-21.2-68-34.8-85.4-48.7
			c48.8,69.4-37.6,81.8-58,117.4c-17.7-33.7-90.3-43.3-75-117.4c-23.2,23-60.1,34.4-75.4,48.4C128.1,404,123,446.8,111,454.4
			c-31.2-33.8-8.1,35-73.5,2.4c-67.6-33.8,15.2-123.7,44.6-64c0-0.5-4.9-31-4.9-35.5c0-104.8,34-108.1,89.3-144.3
			c55.4-36.1,116.4,31.8,134.9,0.7C325,244.2,362.7,183.7,418.8,210.9z"/>
		<path class="thokiman-head-color2" d="M80.2,317.5c17.9,19.7,37.3,5.3,37.3,5.3s5.1-21.5,19.6-40.6c14.6-19.2,29.3-29.7,29.3-29.7
			s-4.6-30.7-22.7-27.6c-14.9,9.6-34.4,15.4-50.9,39.4C76.4,288.3,80,317.2,80.2,317.5z"/>
		<path class="thokiman-head-color2" d="M522,325.2c-17,11.7-38.5,2.3-38.5,2.3s-0.9-20.8-13.2-37.3c-14.3-19.3-32.9-36.1-32.9-36.1s5.3-27,23.3-23.9
			c19.2,8.5,42.2,24.6,52.2,46C527.8,308.4,522.2,325.1,522,325.2z"/>
		<path class="thokiman-head-color2" d="M189.1,212.8c0,0,58.6-8.6,85.2,21.5c7.5,8.5,6.5,68.7,6.5,68.7s-3.5-10.9-8.3-26.1
			c-9.9-31.4-27.2-73.6-106-26C160.5,220.4,189.1,212.8,189.1,212.8z"/>
		<path class="thokiman-head-color2" d="M413,215.2c0,0-55.5-13-82.1,17.1c-7.9,9-12,72.2-12,72.2s5.5-12.4,12-28.3c10.8-26.5,27.8-71.4,106.5-23.8
			C443.4,222,413,215.2,413,215.2z"/>
		<path class="thokiman-head-color2" d="M294.5,466.5c-20.8-7.3-64.3-64.6-55.5-85.6c2.2-5.2,9.6,5.7,14.9,4.7C261.9,432.7,278.2,451.9,294.5,466.5z"
			/>
		<path class="thokiman-head-color2" d="M307.1,466.5c20.8-7.3,60-64.3,51.3-85.3c-2.2-5.2-9.6,5.7-14.9,4.7C335.5,433,323.4,451.9,307.1,466.5z"/>
		<path class="thokiman-head-color1" d="M242,374.7c5-14.6,8.9-33.6,22.9-31.3c9.9,1.6,31.2-36.3,31-5.4c-3.5,1.8-37.6,6.2-39.6,44.4
			C248.8,379.8,244.4,375.2,242,374.7z"/>
		<path class="thokiman-head-color1" d="M355.5,374.7c-5-14.6-8.8-33.6-22.9-31.3c-9.9,1.6-26.3-36.3-26.3-5.4c3.5,1.8,32.9,6.2,34.9,44.4
			C348.7,379.8,353.1,375.2,355.5,374.7z"/>
		<path class="thokiman-head-color3" d="M396.8,233.6c-39-7.2-66.2,37.8-50.1,71c16.1,33.1,31.9,71.3,71.2,71.1c39.3-0.3,78.4-34.5,62.3-67.6
			C464.1,274.9,435.9,240.8,396.8,233.6z"/>
		<path class="thokiman-head-color3" d="M205.5,233.1c39-7.2,66.2,37.8,50.1,71c-16.1,33.1-38,69.8-77.4,69.6c-39.3-0.3-72.3-33-56.2-66.1
			C138.2,274.3,166.5,240.2,205.5,233.1z"/>
		<path class="thokiman-head-color0" d="M301.6,341c-11.1,4.8-20.8,30.7-43.1,46.3c14.1,11.7,10.4,42.3,22.3,49.6c10.1,6.1,15.5,25.8,20.5,33.6
			c5.2-9,4.9-26.3,17.6-33.6c12-7.3,8.4-38.9,19.6-51C318.9,372.6,311.1,345.8,301.6,341z"/>
		<path class="thokiman-head-color1" d="M378.9,338.9c20.3-47.8,58.1-26,68.2,0c-7.2-38.7-33-50.2-33-50.2S389.8,283.1,378.9,338.9z"/>
		<path class="thokiman-head-color1" d="M151.2,337.7c20.3-47.8,58.1-26,68.2,0c-7.2-38.7-33-50.2-33-50.2S162.1,281.9,151.2,337.7z"/>
		<path class="thokiman-head-color0" d="M226.6,350.1c10.8-10.2,21.9-17,53.3-45.8c4.4-4.1,20.6-35.3,21.5-51.8c0.5,17.3,9.1,45.4,17.6,51.8
			c23.3,17.5,39.7,32.9,51.6,44.4c-11.9-5.1-12.7-6-28.5-8.7c-7.6-8.5-11.1-17.9-19.5-14.7c-7.1-2.8-21.2-19-21.2-26.8
			c0,8.8-15.5,23-23.7,27.3c-10.2-3.6-18,4.6-23.9,17C243.3,340.2,239,344.7,226.6,350.1z"/>
		<path class="thokiman-head-color0" d="M101.6,254.2c0,0-45.8,34.6-49,67.8c20.9,11.5,13.1,29,29.3,69.8C66.8,296.8,101.6,254.2,101.6,254.2z"/>
		<path class="thokiman-head-color0" d="M496.8,254.1c0,0,47.8,34.7,50.9,67.9c-20.9,11.5-13.1,29-29.3,69.8c7.3-38.9,6.5-67.7,2.7-88.7
			C514.5,266.9,496.8,254.1,496.8,254.1z"/>
		<path class="thokiman-head-color4" d="M117.9,457.3c0,0,42.3,62.4,71.2,76.2s23.7-28.7,37.5-25.8c13.8,2.9,20.3,14.7,31.7,12.5
			c11.4-2.2,0.4-19.8,13.6-19.8c7.9,0,12.8,23.3,18.3,31.2c2.8-3.8,9.1-20.3,11.4-20.1c2.4,0.2,8.6,14.6,11.2,18.8
			c4.4-8.1,6.1-29.9,18.1-29.9c10.1,0,1.3,19.5,11.1,19.8c9.8,0.3,18.1-12.6,28.1-13.2c8.9-0.5,12.4,39.7,40.9,26
			c28.5-13.6,66.2-75,67.1-75.8c-21.6-11.8-19.9-28.6-33-30.5c-26.2-3.8-29.1-12.3-80.8-51.8c65.3,69.4-42.3,82.2-62.6,118.1
			c-19.5-35.9-114.5-48-78.3-119.4c-25.8,24.8-45.9,49.3-63,51C142.2,426.5,136.8,446.9,117.9,457.3z"/>
		<path class="thokiman-head-color5" d="M470.3,457.3c-13.5-2.1-12.7-20.3-34.3-20.3c-23.1,0-33.4-20.4-46.3-30.4c23.3,56.5-56.2,52.5-88.1,93.7
			c21.9-13.6,60.8-29.8,60.8-29.8s-18.6,15.4-25,26.6c14.1-6,35.9-25.8,35.9-25.8s2.6,0.3-2.3,26.7c20-25.1,19.4,0.6,19.4,0.6
			S396,526,413,520.2C430,514.3,449.3,477.6,470.3,457.3z"/>
		<path class="thokiman-head-color5" d="M128.5,457.3c13.5-2.1,12.7-20.3,34.3-20.3c23.1,0,33.4-20.4,46.3-30.4c-23.3,56.5,60.6,52.5,92.5,93.7
			c-21.9-13.6-65.2-29.8-65.2-29.8s18.6,15.4,25,26.6c-14.1-6-35.9-25.8-35.9-25.8s-2.6,0.3,2.3,26.7c-20-25.1-19.4,0.6-19.4,0.6
			s-5.6,27.3-22.6,21.5C168.8,514.3,149.5,477.6,128.5,457.3z"/>
		<path class="thokiman-head-color2" d="M443.9,173.6c0,0,33.3-153.9,6.5-162.7c-49.4,125.9-71.8,110-73.4,150.7C375.3,202.3,443.9,173.6,443.9,173.6
			z"/>
		<path class="thokiman-head-color2" d="M152.4,173.6c0,0-33.3-153.9-6.5-162.7c49.4,125.9,71.8,110,73.4,150.7C220.9,202.3,152.4,173.6,152.4,173.6z
			"/>
		<path class="thokiman-head-color5" d="M189.1,548.9c0,0-37.3,39,16.7,55.1c17.2,5.1,77.7-10.5,96.2,12.1c23.6-22.6,85-4,111-12.1
			c51.8-16.1,0-57.3,0-57.3s-71,25.1-57.5,3.1c9.8-16-30.3,21.1-50.5-0.4c-19.5,22.5-39-10.1-42.3,1.7
			C252.9,585.7,189.1,548.9,189.1,548.9z"/>
		<path class="thokiman-head-color5" d="M370.5,348.6c-6.2-4.3-43.3-34.8-51.6-44.2c3.3-5.1,13.4-14.2,19.6-30c6.2-15.9,17-26.3,17-26.3
			s-14.8,39.4-8.6,54.7C357.3,328.6,365.9,339,370.5,348.6z"/>
		<path class="thokiman-head-color5" d="M226.6,350.1c-0.1,0.1,40.4-31.5,54.2-46.8L264,271.4c0,0-2.7-14.7-25.2-31.3c22.6,20.6,24.9,47.8,17.4,62.9
			C247.7,320.1,239.2,335.8,226.6,350.1z"/>
	</g>
</g>
</svg>
