<?xml version="1.0" encoding="utf-8"?>
<!-- Generator: Adobe Illustrator 23.0.3, SVG Export Plug-In . SVG Version: 6.00 Build 0)  -->
<svg version="1.1" id="Layer_1" xmlns:serif="http://www.serif.com/"
	 xmlns="http://www.w3.org/2000/svg" xmlns:xlink="http://www.w3.org/1999/xlink" x="0px" y="0px" viewBox="0 0 612 230.4"
	 style="enable-background:new 0 0 612 230.4;" xml:space="preserve">
<style type="text/css">
	.st0{fill:#E3E1E4;}
	.st1{fill:#5A0FC8;}
</style>
<path class="st0" d="M450.4,189.2l17.7-44.7h51l-24.2-67.8L525.2,0L612,230.4h-64l-14.8-41.3H450.4"/>
<path class="st1" d="M395.8,230.4L488.7,0h-61.6l-63.6,148.9L318.4,0H271l-48.5,148.9l-34.2-67.8l-31,95.4l31.4,54h60.6l43.8-133.5
	L335,230.4H395.8"/>
<path class="st0" d="M58.5,151.3h37.9c11.5,0,21.7-1.3,30.7-3.9l9.8-30.2l27.4-84.5c-2.1-3.3-4.5-6.4-7.2-9.4
	C143.1,7.8,122.5,0,95.4,0H0v230.4h58.5V151.3z M108.7,53c5.5,5.5,8.2,12.9,8.2,22.2c0,9.4-2.4,16.8-7.3,22.2
	c-5.3,6.1-15.1,9.1-29.3,9.1H58.5V44.7h22.1C93.8,44.7,103.2,47.5,108.7,53"/>
</svg>
