<?xml version="1.0" encoding="utf-8"?>
<!-- Generator: Adobe Illustrator 23.0.3, SVG Export Plug-In . SVG Version: 6.00 Build 0)  -->
<svg version="1.1" id="Layer_1" xmlns="http://www.w3.org/2000/svg" xmlns:xlink="http://www.w3.org/1999/xlink" x="0px" y="0px"
	 viewBox="0 0 512 512" style="enable-background:new 0 0 512 512;" xml:space="preserve">
<style type="text/css">
	.st0{fill:#E3E1E4;}
</style>
<g id="Page-1">
	<g>
		<path id="Shape" class="st0" d="M426.5,318.4H114.6C54.9,318.4,6.5,270,6.5,210.3s48.4-108.1,108.1-108.1c0.7,0,1.4,0,2.1,0
			c19.8-45.5,64.7-74.9,114.3-74.9s94.5,29.4,114.3,74.9c37.6,0.8,71.3,23.7,86,58.3c42.6,2.6,75.4,38.6,74.1,81.3
			C504.2,284.5,469.2,318.4,426.5,318.4z M114.6,118.8c-50.5,0-91.5,41-91.5,91.5s41,91.5,91.5,91.5h311.9
			c34.4,0,62.4-27.9,62.4-62.4S460.9,177,426.5,177h-0.8c-3.5,0-6.7-2.2-7.8-5.5c-11.2-31.8-41.3-52.9-75-52.7c-0.8,0-1.6,0-2.4,0.1
			c-3.6,0.2-7-1.9-8.4-5.3c-16-41.9-56.2-69.6-101.1-69.6c-44.9,0.1-85.1,27.8-101,69.8c-1.3,3.5-4.9,5.7-8.6,5.3
			C119.1,118.9,116.8,118.8,114.6,118.8L114.6,118.8z"/>
		<path class="st0" d="M62.8,260.2c-2.5,0-4.9-1.1-6.5-3.1c-14.4-17.8-19.8-41.3-14.7-63.6s20.3-41.1,41-50.8c4.2-2,9.1-0.2,11.1,4
			c2,4.2,0.2,9.1-4,11.1c-20.3,9.6-33.3,30.1-33.4,52.6c-0.1,13.2,4.5,26.1,12.9,36.3c2,2.5,2.4,5.9,1,8.8
			C68.9,258.3,66,260.2,62.8,260.2z"/>
		<path class="st0" d="M147.9,268.5c-2.7,0-5.2-1.3-6.7-3.5c-1.6-2.2-2-5-1.1-7.5l33.3-99.8c1.5-4.4,6.2-6.7,10.5-5.3
			c4.4,1.5,6.7,6.2,5.3,10.5l-33.3,99.8C154.6,266.2,151.4,268.5,147.9,268.5L147.9,268.5z"/>
		<path class="st0" d="M214.4,268.5c-3.6,0-6.8-2.3-7.9-5.7L173.2,163c-1.5-4.4,0.9-9.1,5.3-10.5c4.4-1.5,9.1,0.9,10.5,5.3
			l33.3,99.8c0.8,2.5,0.4,5.3-1.1,7.5C219.6,267.2,217.1,268.5,214.4,268.5L214.4,268.5z"/>
		<path class="st0" d="M200.5,226.9h-38.8c-4.6,0-8.3-3.7-8.3-8.3s3.7-8.3,8.3-8.3h38.8c4.6,0,8.3,3.7,8.3,8.3
			S205.1,226.9,200.5,226.9z"/>
		<path class="st0" d="M239.3,268.5c-4.6,0-8.3-3.7-8.3-8.3v-99.8c0-4.6,3.7-8.3,8.3-8.3c4.6,0,8.3,3.7,8.3,8.3v99.8
			C247.7,264.7,243.9,268.5,239.3,268.5z"/>
		<path class="st0" d="M272.6,218.6h-33.3c-4.6,0-8.3-3.7-8.3-8.3v-49.9c0-4.6,3.7-8.3,8.3-8.3h33.3c18.4,0,33.3,14.9,33.3,33.3
			S291,218.6,272.6,218.6z M247.7,201.9h25c9.2,0,16.6-7.4,16.6-16.6c0-9.2-7.4-16.6-16.6-16.6h-25V201.9z"/>
		<path class="st0" d="M339.1,268.5c-4.6,0-8.3-3.7-8.3-8.3v-99.8c0-4.6,3.7-8.3,8.3-8.3s8.3,3.7,8.3,8.3v99.8
			C347.5,264.7,343.7,268.5,339.1,268.5z"/>
		<path class="st0" d="M364.1,168.7h-49.9c-4.6,0-8.3-3.7-8.3-8.3c0-4.6,3.7-8.3,8.3-8.3h49.9c4.6,0,8.3,3.7,8.3,8.3
			C372.4,164.9,368.7,168.7,364.1,168.7z"/>
		<path class="st0" d="M364.1,268.5h-49.9c-4.6,0-8.3-3.7-8.3-8.3c0-4.6,3.7-8.3,8.3-8.3h49.9c4.6,0,8.3,3.7,8.3,8.3
			C372.4,264.7,368.7,268.5,364.1,268.5z"/>
		<path class="st0" d="M206.5,484.7c-2.1,0-4.2-0.4-6.1-1.3l-52-21.6c-3.8-1.6-6.9-4.6-8.4-8.5c-1.5-3.8-1.5-8.1,0.2-11.8l12.4-30
			c-12.2-9.3-23.1-20.2-32.3-32.4l-30.2,12.5c-3.8,1.6-8,1.6-11.8,0c-3.8-1.6-6.7-4.5-8.3-8.3l-21.5-52.3c-3.3-7.8,0.3-16.7,8.1-20
			L85.8,299c2.7-1.1,5.9-0.7,8.2,1.1c2.4,1.8,3.6,4.7,3.2,7.7c-0.4,2.9-2.3,5.5-5.1,6.6l-28,11.5l20.6,49.9l35.1-14.5
			c3.6-1.5,7.7-0.3,10,2.9c10.3,14.6,23,27.4,37.6,37.6c3.2,2.2,4.4,6.4,2.9,10l-14.5,35l49.9,20.7l14.5-35c1.5-3.6,5.3-5.7,9.1-5
			c17.6,3.1,35.6,3.1,53.1-0.1c3.8-0.7,7.7,1.4,9.2,5l14.6,35.1l49.8-20.7l-14.5-35.1c-1.5-3.6-0.3-7.8,2.9-10
			c14.7-10.2,27.4-22.9,37.6-37.5c2.2-3.2,6.4-4.4,10-2.9l35.1,14.5l20.7-49.9l-20-8.3c-3.8-1.4-6-5.3-5.3-9.2
			c0.7-3.9,4.1-6.8,8.1-6.9c1.1,0,2.2,0.2,3.3,0.6l21.4,8.9c3.8,1.6,6.8,4.6,8.4,8.4c1.5,3.8,1.5,8,0,11.8l-21.6,52.2
			c-1.6,3.8-4.6,6.8-8.4,8.4c-3.8,1.6-8.1,1.5-11.9-0.1l-30-12.4c-9.3,12.2-20.1,23.1-32.3,32.3l12.5,30.2c1.6,3.7,1.6,7.9,0.1,11.6
			c-1.6,3.9-4.6,6.9-8.5,8.5l-52.1,21.6c-3.8,1.6-8,1.6-11.8,0c-3.8-1.6-6.8-4.6-8.3-8.4L278.8,445c-15.2,2.1-30.5,2.1-45.7,0.1
			l-12.5,30.1C218.3,480.9,212.7,484.7,206.5,484.7L206.5,484.7z M205.3,468.8L205.3,468.8L205.3,468.8z M206.8,468.1L206.8,468.1
			L206.8,468.1z M356.6,448.2L356.6,448.2L356.6,448.2z M155.4,448.1L155.4,448.1L155.4,448.1z M357.2,446.5L357.2,446.5
			L357.2,446.5z M154.7,446.5L154.7,446.5L154.7,446.5z M426.8,377.1L426.8,377.1L426.8,377.1z M83.5,376.4L83.5,376.4L83.5,376.4z
			 M428.3,376.4L428.3,376.4L428.3,376.4z M449.1,326.5L449.1,326.5L449.1,326.5z M63.6,324.8L63.6,324.8L63.6,324.8z"/>
		<path class="st0" d="M256,393.2c-51.6-0.2-97.9-32-116.5-80.2c-1.1-2.8-0.6-5.9,1.3-8.3c1.9-2.3,4.9-3.5,7.8-3
			c2.9,0.5,5.4,2.5,6.5,5.3c16,41.9,56.1,69.5,100.9,69.5s85-27.6,100.9-69.5c1-2.8,3.5-4.8,6.5-5.3c3-0.5,5.9,0.7,7.8,3
			s2.4,5.5,1.3,8.3C353.8,361.2,307.6,393,256,393.2z"/>
		<path class="st0" d="M164.5,127.1c-2.7,0-5.2-1.3-6.7-3.5c-1.6-2.2-2-5-1.1-7.5c18.3-55,64.2-55.6,66.1-55.6
			c4.6,0,8.3,3.7,8.3,8.3s-3.7,8.3-8.3,8.3c-1.6,0-36,1.1-50.4,44.2C171.3,124.8,168.1,127.1,164.5,127.1L164.5,127.1z"/>
	</g>
</g>
</svg>
