<svg height="512" viewBox="0 0 64 64" width="512" xmlns="http://www.w3.org/2000/svg"><g id="Filled_outline" data-name="Filled outline"><path d="m41.086 3a6.932 6.932 0 0 0 -6.607 4.405c-1.844 5.031 2.056 8.548 4.521 12.595v3h4v-3c2.019-3.315 5-6.274 5-10 0-4.39-2.548-6.966-6.914-7z" fill="#f9bb4b"/><path d="m44 10c0 2.209-.791 5-3 5s-3-2.791-3-5 .791-3 3-3 3 .791 3 3z" fill="#fff"/><path d="m43 49v-18h-4v18c0 5.247-4.753 8-10 8s-9-4.753-9-10v-5h4l-8-8v13c0 7.456 5.544 14 13 14s14-4.544 14-12z" fill="#4da6ea"/><rect fill="#d3843d" height="4" rx="2" width="8" x="37" y="23"/><rect fill="#f9bb4b" height="4" rx="2" width="8" x="37" y="27"/><path d="m41 16c2.763 0 4-3.014 4-6 0-2.767-1.233-4-4-4s-4 1.233-4 4c0 2.986 1.237 6 4 6zm0-8c1.663 0 2 .336 2 2 0 1.608-.532 4-2 4s-2-2.392-2-4c0-1.664.337-2 2-2z"/><path d="m29 62c9.848 0 15-6.54 15-13v-17.184a2.972 2.972 0 0 0 1.22-4.816 2.972 2.972 0 0 0 -1.22-4.816v-1.9c.465-.742.986-1.485 1.493-2.2 1.724-2.459 3.507-4.996 3.507-8.084 0-4.971-2.956-7.962-7.906-8h-.066a7.91 7.91 0 0 0 -7.487 5.061c-1.638 4.466.7 7.8 2.966 11.018.507.72 1.028 1.463 1.493 2.2v1.9a2.972 2.972 0 0 0 -1.22 4.821 2.972 2.972 0 0 0 1.22 4.816v17.184c0 4.835-4.521 7-9 7-4.411 0-8-4.038-8-9v-4h3a1 1 0 0 0 .707-1.707l-8-8a1 1 0 0 0 -1.707.707v13c0 8.271 6.28 15 14 15zm6.418-54.251a5.975 5.975 0 0 1 5.66-3.749c3.822.029 5.922 2.16 5.922 6 0 2.456-1.527 4.628-3.144 6.929-.578.823-1.176 1.674-1.71 2.551l-.146.239v2.281h-2v-2.281l-.146-.239c-.534-.877-1.132-1.728-1.71-2.551-2.144-3.056-4.002-5.696-2.726-9.18zm3.582 16.251h4a1 1 0 0 1 0 2h-4a1 1 0 0 1 0-2zm0 4h4a1 1 0 0 1 0 2h-4a1 1 0 0 1 0-2zm-22 8.414 4.586 4.586h-1.586a1 1 0 0 0 -1 1v5c0 6.065 4.486 11 10 11 6.477 0 11-3.7 11-9v-17h2v17c0 7.222-6.54 11-13 11-6.617 0-12-5.832-12-13z"/></g></svg>