<?xml version="1.0" standalone="no"?>
<!DOCTYPE svg PUBLIC "-//W3C//DTD SVG 20010904//EN"
 "http://www.w3.org/TR/2001/REC-SVG-20010904/DTD/svg10.dtd">
<svg version="1.0" xmlns="http://www.w3.org/2000/svg"
 width="700.000000pt" height="700.000000pt" viewBox="0 0 700.000000 700.000000"
 preserveAspectRatio="xMidYMid meet">
<metadata>
Created by potrace 1.11, written by Peter Selinger 2001-2013
</metadata>
<g transform="translate(0.000000,700.000000) scale(0.100000,-0.100000)"
fill="#000000" stroke="none">
<path d="M1722 6843 c-42 -20 -77 -80 -98 -168 -31 -125 -19 -497 25 -773 9
-58 15 -53 -82 -72 -195 -39 -358 -129 -507 -279 -206 -208 -349 -492 -455
-905 -101 -394 -149 -839 -149 -1397 l-1 -356 -36 -21 c-93 -54 -199 -181
-242 -289 -89 -226 13 -443 266 -567 177 -86 345 -126 446 -105 77 16 107 33
167 96 l52 54 42 -53 c93 -117 130 -212 160 -407 32 -215 75 -306 201 -431
122 -122 305 -217 564 -292 168 -49 201 -33 474 226 134 127 189 166 234 166
14 0 53 -13 89 -30 144 -68 225 -62 314 22 67 63 80 59 135 -33 44 -74 85
-115 126 -125 32 -8 47 7 92 93 20 37 41 68 47 70 6 2 28 -25 49 -61 43 -73
71 -94 104 -76 12 6 49 54 82 106 34 52 64 94 69 94 4 0 12 -32 18 -71 14 -94
31 -112 98 -107 63 5 183 62 242 115 l44 38 97 -95 c129 -128 249 -195 388
-221 75 -14 121 -6 277 48 403 140 605 304 646 523 23 125 80 232 188 351 l51
56 68 -67 c81 -79 140 -104 244 -103 209 3 436 166 539 388 48 103 63 169 63
275 -1 160 -61 309 -161 401 l-55 50 2 502 c2 505 -7 772 -35 1035 -57 554
-193 923 -423 1152 -140 139 -269 205 -492 250 -76 16 -164 37 -195 47 l-56
17 6 51 c51 399 45 680 -16 803 -22 45 -81 96 -101 89 -6 -2 -47 -84 -91 -183
-89 -194 -236 -486 -264 -520 l-17 -22 -195 94 c-483 230 -784 318 -1130 331
-400 14 -705 -81 -1269 -396 -99 -56 -185 -101 -190 -101 -20 0 -240 422 -351
678 -30 67 -57 122 -60 122 -3 0 -20 -8 -38 -17z m109 -253 c171 -373 328
-644 538 -923 161 -214 196 -278 211 -387 15 -102 5 -163 -32 -205 -46 -53
-104 -70 -233 -69 -119 0 -169 9 -343 56 -89 24 -116 35 -123 52 -13 31 -84
398 -124 636 -85 519 -92 886 -18 1011 10 16 22 28 27 26 5 -2 49 -90 97 -197z
m3552 157 c65 -126 61 -443 -14 -932 -39 -259 -127 -697 -142 -712 -7 -6 -50
-23 -97 -37 -149 -44 -249 -61 -370 -61 -103 0 -120 3 -164 25 -79 40 -91 63
-91 183 0 164 20 206 230 482 125 163 230 330 341 540 77 144 197 393 244 503
13 29 27 51 33 49 6 -2 19 -20 30 -40z m-1533 -263 c169 -26 342 -76 550 -156
89 -35 516 -231 528 -242 8 -9 -131 -219 -256 -385 -73 -97 -146 -198 -162
-226 -44 -78 -64 -158 -64 -266 -1 -90 1 -99 29 -145 24 -37 44 -56 90 -79 58
-30 61 -30 209 -29 162 0 205 8 394 66 57 17 107 39 112 47 11 22 94 433 126
626 14 88 27 161 28 163 2 1 23 -5 47 -13 24 -9 99 -27 166 -40 242 -48 343
-97 487 -234 84 -81 141 -159 199 -276 151 -298 222 -669 247 -1285 11 -272
13 -914 4 -1006 l-6 -59 -92 0 c-78 0 -99 -4 -147 -26 -31 -15 -75 -43 -98
-64 -22 -21 -41 -35 -41 -33 0 3 9 31 21 64 11 32 40 134 64 226 60 228 92
285 187 334 28 15 30 19 26 62 -14 138 -146 334 -351 521 -92 83 -349 283
-431 336 -77 49 -255 135 -281 135 -11 0 -45 12 -75 26 -196 92 -471 207 -542
225 -66 18 -110 23 -218 23 -179 0 -216 -9 -610 -150 -119 -42 -231 -55 -295
-34 -20 7 -55 30 -77 52 l-41 41 -25 -33 c-32 -40 -94 -69 -149 -70 -64 0
-170 25 -378 90 -304 94 -353 106 -510 119 -231 20 -364 -16 -630 -169 -55
-32 -116 -61 -135 -65 -44 -9 -191 -95 -300 -175 -45 -34 -84 -59 -87 -56 -3
3 -44 -21 -92 -54 -319 -219 -558 -484 -622 -692 -30 -94 -27 -112 25 -142 86
-50 117 -106 160 -281 15 -61 38 -147 51 -191 30 -97 30 -102 8 -82 -79 69
-243 92 -357 49 -22 -9 -24 -7 -30 36 -9 67 -7 276 4 543 54 1225 341 1957
862 2199 85 40 256 88 280 79 9 -4 20 -46 32 -119 18 -115 99 -529 114 -584 8
-27 16 -32 112 -62 171 -54 306 -76 440 -71 104 4 120 7 170 33 33 19 66 46
84 72 26 37 30 54 34 125 8 165 -31 261 -189 468 -137 179 -252 351 -242 360
16 16 336 191 471 259 275 137 492 206 732 231 108 11 317 3 440 -16z m-1250
-1755 c98 -15 237 -52 415 -109 329 -105 437 -114 532 -44 l32 24 46 -29 c64
-41 131 -54 209 -41 75 12 107 22 310 94 340 122 503 133 736 52 106 -37 450
-187 450 -197 0 -3 -12 -12 -26 -20 -15 -8 -41 -33 -59 -56 l-33 -43 -11 44
c-14 55 -62 120 -126 168 -111 84 -254 112 -540 105 -163 -4 -204 -8 -287 -30
-171 -45 -325 -141 -365 -229 -39 -84 -90 -366 -109 -602 -6 -81 -8 -87 -22
-70 -51 67 -126 289 -140 417 -7 58 -9 62 -34 65 -24 3 -28 0 -28 -23 0 -47
-59 -206 -123 -329 l-62 -120 -7 199 c-7 228 -29 389 -59 452 -41 85 -223 192
-403 238 -139 35 -276 48 -469 43 -143 -4 -181 -8 -224 -25 -106 -42 -195
-129 -227 -220 l-13 -37 -28 43 c-16 24 -44 53 -62 65 l-32 22 109 63 c126 73
207 107 294 126 74 16 267 19 356 4z m105 -100 c215 -26 400 -97 500 -192 52
-48 57 -57 70 -122 17 -82 35 -297 34 -399 l0 -71 -44 125 c-116 327 -232 462
-445 516 -184 47 -550 -37 -777 -178 l-33 -20 0 55 c0 133 121 262 269 287 71
12 325 11 426 -1z m2085 -9 c178 -21 295 -87 346 -195 22 -47 34 -151 17 -143
-5 2 -46 24 -93 50 -156 86 -396 148 -571 148 -129 0 -260 -49 -352 -130 -71
-63 -130 -153 -205 -312 -37 -79 -76 -159 -85 -178 l-17 -35 5 75 c15 189 62
434 96 502 46 91 240 188 434 218 75 11 329 11 425 0z m-2955 -140 c40 -25 87
-96 110 -170 l18 -54 -34 -26 c-70 -53 -157 -135 -227 -213 -135 -152 -281
-390 -297 -487 -5 -30 -14 -44 -33 -54 -48 -24 -131 -38 -180 -32 -57 9 -140
47 -171 79 l-22 24 21 104 c12 57 30 131 41 164 60 179 222 383 398 500 112
73 310 185 330 185 7 0 28 -9 46 -20z m1030 -61 c116 -44 200 -127 270 -267
39 -78 88 -202 82 -208 -2 -2 -27 45 -57 104 -47 95 -64 118 -154 208 -86 85
-115 108 -196 148 l-95 48 50 -7 c27 -4 72 -15 100 -26z m2830 -133 c96 -64
231 -191 282 -267 95 -139 183 -390 183 -525 0 -29 -5 -34 -52 -55 -65 -28
-214 -37 -297 -17 l-54 13 -4 50 c-5 70 -26 127 -81 222 -81 142 -191 280
-325 409 l-129 124 12 34 c26 79 89 149 149 166 32 9 178 -62 316 -154z
m-3027 119 c128 -30 220 -99 301 -225 76 -117 111 -258 92 -367 -13 -72 -82
-210 -182 -362 -72 -111 -191 -261 -207 -261 -5 0 -20 55 -34 121 -20 90 -40
148 -78 227 -45 92 -63 117 -143 196 -53 53 -115 104 -146 121 -52 27 -58 28
-109 17 -138 -29 -252 -163 -328 -385 -24 -69 -88 -347 -81 -353 1 -2 33 60
71 137 56 117 78 151 129 203 105 106 208 136 334 98 142 -44 245 -142 315
-303 l45 -104 -41 -37 c-60 -56 -160 -113 -251 -145 -72 -25 -93 -27 -220 -27
-158 -1 -230 14 -353 70 -157 72 -265 176 -312 302 -17 44 -21 73 -18 127 3
61 11 85 59 185 93 190 214 339 394 487 50 41 101 85 115 97 48 45 301 158
405 181 80 18 167 18 243 0z m1615 -44 c-116 -82 -199 -187 -298 -379 -32 -61
-64 -117 -72 -123 -16 -14 -2 21 68 169 92 196 171 292 292 352 87 43 90 37
10 -19z m464 28 c79 -22 232 -83 324 -129 81 -41 301 -245 429 -398 88 -105
138 -193 171 -302 50 -165 23 -259 -110 -390 -157 -154 -374 -240 -608 -240
-116 0 -191 17 -288 65 -67 32 -182 122 -171 132 3 3 -4 13 -15 22 -20 16 -20
17 21 105 90 196 183 288 319 317 136 29 315 -63 410 -211 20 -31 56 -104 80
-163 25 -59 46 -105 48 -103 6 6 -47 250 -69 316 -60 184 -204 368 -343 435
-47 23 -57 25 -99 15 -179 -40 -306 -227 -376 -550 -13 -58 -27 -109 -30 -113
-9 -10 -20 4 -112 148 -38 61 -99 169 -135 242 -64 129 -65 133 -65 210 1 97
21 191 73 350 40 118 43 124 88 157 58 42 140 84 188 95 70 17 192 12 270 -10z
m-3669 -386 c-105 -229 -145 -423 -155 -758 l-6 -210 -33 127 c-47 187 -86
255 -183 318 l-24 16 17 59 c31 106 111 229 231 356 61 64 183 179 190 179 2
0 -14 -39 -37 -87z m2585 -197 c20 -43 51 -96 68 -118 27 -34 31 -45 26 -83
-5 -49 4 -51 23 -6 l12 29 91 -77 c51 -42 147 -119 215 -170 67 -52 121 -95
119 -97 -1 -1 -36 5 -78 14 -75 17 -77 18 -132 83 -58 69 -120 106 -158 94
-11 -4 -33 2 -53 15 -53 32 -152 144 -178 200 -29 63 -50 65 -76 6 -21 -47
-110 -140 -182 -189 -37 -26 -58 -33 -118 -38 -88 -7 -136 -37 -198 -124 l-40
-57 -57 -1 c-31 -1 -53 1 -49 4 4 3 61 47 127 96 66 50 160 125 209 167 49 42
92 74 95 71 3 -4 11 -21 18 -38 11 -31 11 -31 12 22 1 45 8 64 42 118 42 68
137 255 158 314 l13 34 27 -96 c15 -52 44 -130 64 -173z m2640 -16 c60 -74
131 -207 143 -265 5 -27 1 -33 -40 -62 -85 -60 -123 -137 -172 -345 -9 -43
-19 -77 -20 -75 -1 1 1 63 6 137 12 177 -2 441 -29 546 -21 82 -56 174 -98
259 l-25 50 87 -85 c48 -47 114 -119 148 -160z m-3086 52 c46 -79 83 -148 83
-152 0 -10 -167 -149 -305 -255 -126 -96 -122 -94 -100 -60 64 98 179 298 197
345 18 46 22 76 23 177 0 81 3 116 9 105 5 -9 47 -82 93 -160z m880 126 c-3
-7 -5 -2 -5 12 0 14 2 19 5 13 2 -7 2 -19 0 -25z m-61 -81 c0 -50 8 -104 18
-137 18 -53 134 -285 183 -362 13 -21 23 -40 23 -43 0 -2 -58 42 -128 98 -70
57 -165 129 -210 160 -45 32 -84 62 -88 68 -3 5 12 29 34 53 56 61 123 154
147 204 11 23 20 42 20 42 0 0 0 -37 1 -83z m-1760 -95 c76 -50 173 -154 218
-235 20 -35 36 -67 36 -71 0 -4 -21 11 -47 34 -102 90 -249 136 -355 112 -75
-18 -130 -46 -188 -99 -27 -25 -50 -42 -50 -38 0 3 16 40 35 82 60 130 131
206 222 239 56 19 64 18 129 -24z m2692 -20 c63 -41 155 -140 199 -213 53 -88
52 -99 -2 -51 -172 151 -388 156 -547 14 -26 -24 -48 -40 -48 -36 0 28 88 181
131 228 56 62 94 86 149 96 43 8 52 5 118 -38z m-1293 -241 c70 -73 131 -112
171 -110 57 4 69 -5 183 -145 9 -11 10 -16 3 -12 -6 4 -31 7 -55 8 -55 0 -65
7 -174 105 -54 48 -101 83 -113 83 -40 0 -58 -18 -69 -70 -19 -89 -17 -96 37
-115 165 -60 258 -131 311 -237 32 -64 54 -152 49 -195 -3 -27 -5 -26 -77 42
-45 43 -115 128 -179 218 -112 158 -157 203 -193 192 -35 -11 -96 -72 -214
-215 -62 -74 -132 -153 -156 -175 -56 -51 -118 -99 -123 -94 -11 12 18 143 44
197 55 117 163 200 330 253 l85 26 0 56 c-1 95 -54 139 -124 102 -17 -8 -66
-44 -109 -79 -90 -73 -137 -100 -163 -93 -10 3 -34 1 -54 -3 -39 -9 -39 -10 9
58 44 63 103 95 164 90 40 -4 55 1 102 30 74 47 148 111 185 161 l30 40 20
-27 c10 -15 46 -56 80 -91z m-2524 -130 c28 -6 62 -11 77 -11 28 0 124 22 155
35 14 6 17 2 17 -22 0 -16 7 -51 16 -77 65 -190 243 -333 500 -402 52 -14 105
-19 214 -19 125 0 156 3 220 23 98 31 173 70 254 131 36 28 66 47 67 43 0 -4
4 3 9 15 6 14 39 36 92 62 97 46 167 66 204 57 25 -7 25 -8 10 -29 -45 -62
-145 -301 -132 -315 3 -2 -5 -13 -17 -22 -20 -16 -22 -27 -22 -102 1 -68 6
-96 30 -153 64 -157 195 -342 354 -501 114 -115 214 -188 293 -214 29 -10 52
-23 50 -30 -1 -6 2 -9 8 -5 5 3 13 -1 16 -9 8 -22 19 -20 33 7 7 14 33 30 64
41 69 24 126 65 216 150 314 302 510 748 361 823 -18 9 -20 13 -7 13 21 0 21
2 3 45 -8 19 -13 35 -11 35 9 0 95 -130 125 -190 87 -173 79 -312 -26 -451
-51 -67 -168 -160 -334 -266 -200 -127 -282 -187 -349 -253 l-60 -59 -26 35
c-39 51 -152 138 -359 276 -235 158 -361 279 -425 408 -72 146 -86 301 -45
483 9 38 14 71 11 73 -3 3 -31 -18 -63 -47 -94 -85 -255 -183 -492 -300 -122
-60 -256 -129 -296 -154 l-74 -44 -55 11 c-118 25 -189 -29 -303 -231 -37 -66
-78 -133 -90 -148 l-22 -27 -38 33 c-66 59 -137 77 -181 46 -12 -9 -41 -42
-64 -75 -76 -109 -133 -135 -268 -128 -163 10 -373 101 -482 208 -89 87 -113
148 -107 272 4 75 9 96 42 164 52 105 145 198 250 250 68 33 88 38 166 42 78
4 94 1 142 -20 91 -43 152 -115 215 -258 38 -88 39 -84 13 63 -44 250 -64 577
-44 743 l6 51 55 -33 c30 -18 77 -37 104 -43z m2329 -17 c19 -49 13 -59 -41
-73 -29 -8 -88 -31 -131 -53 -142 -71 -243 -197 -272 -339 l-12 -58 -52 30
c-29 16 -52 36 -52 43 0 27 61 175 90 217 35 52 62 68 120 69 53 0 104 25 175
85 73 61 136 105 152 105 7 0 18 -12 23 -26z m296 -51 c103 -95 134 -113 198
-113 45 0 53 -4 91 -43 30 -31 51 -69 78 -140 20 -53 37 -101 37 -106 0 -5
-24 -23 -52 -40 l-53 -30 -13 62 c-18 90 -64 179 -124 243 -60 63 -113 98
-207 134 -65 26 -66 26 -63 60 4 36 9 50 18 50 3 0 43 -35 90 -77z m2379 -293
c-8 -85 -31 -233 -51 -329 -19 -95 -33 -175 -31 -178 2 -2 14 21 26 51 49 119
179 259 276 295 78 29 137 27 210 -7 72 -34 126 -92 166 -175 40 -85 52 -154
47 -271 -7 -163 -59 -276 -183 -401 -115 -117 -238 -175 -368 -175 -126 0
-198 50 -306 212 -82 124 -126 139 -193 66 l-39 -43 -19 25 c-11 14 -38 68
-61 120 -64 147 -99 207 -140 245 -52 47 -97 54 -167 25 l-55 -23 -56 32 c-92
52 -322 167 -546 273 -222 105 -313 155 -409 225 -48 36 -66 57 -93 112 -18
39 -50 84 -73 105 -46 42 -44 42 70 17 159 -36 205 -60 306 -159 101 -99 202
-158 324 -188 99 -25 306 -15 423 20 264 79 465 249 531 450 5 14 12 17 34 12
15 -4 79 -9 142 -12 101 -4 123 -2 180 18 l65 23 3 -105 c2 -58 -4 -175 -13
-260z m-2527 163 c16 -21 67 -92 114 -158 47 -66 119 -152 161 -192 72 -68 74
-72 60 -93 -23 -33 -49 -113 -82 -257 -37 -164 -56 -201 -127 -254 -68 -50
-105 -106 -140 -213 -15 -45 -29 -85 -32 -90 -2 -4 -29 38 -58 94 -61 117
-109 180 -165 217 -49 32 -79 93 -119 243 -34 127 -70 213 -103 248 l-22 24
30 21 c58 42 148 133 233 237 110 136 182 210 203 210 10 0 31 -17 47 -37z
m-954 -638 c40 -135 135 -273 267 -383 39 -34 148 -113 243 -176 166 -113 293
-207 171 -128 -33 21 -125 76 -205 122 -225 129 -308 187 -401 279 -63 63 -95
104 -120 156 -31 64 -34 77 -34 165 0 74 5 112 25 170 l24 75 7 -110 c3 -60
14 -137 23 -170z m269 230 l57 -30 16 -75 c38 -176 123 -382 207 -507 20 -29
34 -53 32 -53 -2 0 -32 30 -66 66 -132 135 -263 335 -309 470 -27 77 -27 173
0 162 4 -2 32 -16 63 -33z m1291 19 c43 -111 -119 -439 -321 -652 l-63 -67 45
75 c25 41 63 121 85 177 39 98 110 353 110 392 0 12 19 28 56 47 30 15 57 32
60 36 8 13 21 9 28 -8z m-1675 -71 c-10 -38 -18 -78 -18 -89 -1 -14 -21 -37
-58 -65 -32 -24 -97 -80 -144 -125 -156 -147 -222 -181 -379 -195 -136 -12
-187 -36 -289 -133 -45 -43 -91 -78 -107 -81 -16 -4 -34 -8 -41 -10 -17 -5
222 225 262 252 44 30 71 40 157 58 128 26 256 113 493 333 72 66 133 121 136
121 3 1 -3 -29 -12 -66z m1470 -50 c-72 -330 -167 -530 -328 -688 -34 -33 -61
-56 -61 -53 0 19 56 157 76 189 13 21 44 52 68 69 82 55 109 108 145 275 27
124 44 183 66 226 15 30 44 69 51 69 1 0 -7 -39 -17 -87z m814 -56 c138 -68
292 -147 341 -175 l88 -52 42 25 c24 14 59 25 78 25 66 0 84 -25 203 -285 20
-44 48 -93 63 -109 l27 -29 -44 24 c-59 32 -139 107 -204 193 -28 38 -64 78
-79 89 -15 11 -73 30 -138 43 -167 34 -238 72 -510 273 -128 94 -137 101 -127
101 4 0 121 -56 260 -123z m-1718 38 c13 -22 42 -105 65 -184 52 -181 77 -231
135 -271 24 -17 55 -45 69 -63 31 -41 93 -147 106 -182 10 -26 8 -25 -38 13
-135 113 -250 279 -318 457 -35 92 -70 209 -79 265 l-7 45 22 -20 c12 -11 33
-38 45 -60z m1539 -44 c303 -222 372 -260 538 -293 57 -12 113 -28 126 -36 13
-8 47 -47 77 -87 30 -39 77 -92 104 -118 28 -26 48 -47 45 -47 -17 0 -59 32
-130 100 -93 89 -129 104 -264 115 -152 12 -229 52 -390 202 -96 90 -190 166
-197 160 -2 -2 10 -36 26 -74 36 -88 44 -123 43 -195 -2 -104 -72 -198 -208
-281 -34 -20 -158 -80 -275 -132 -262 -118 -373 -178 -480 -262 -72 -58 -78
-61 -53 -28 60 79 151 140 469 315 197 109 286 169 366 249 90 91 123 161 124
261 0 85 -20 152 -65 224 -16 25 -27 46 -24 46 4 0 79 -53 168 -119z m-170 13
c55 -113 56 -197 3 -297 -55 -104 -176 -197 -462 -353 -88 -48 -188 -104 -223
-125 -34 -21 -61 -35 -58 -31 6 9 89 66 306 207 261 171 371 296 400 457 11
57 1 155 -20 215 l-10 28 19 -25 c11 -14 31 -48 45 -76z m-2154 25 c-91 -85
-215 -181 -282 -218 -32 -18 -90 -39 -135 -48 -117 -23 -160 -50 -306 -191
-73 -70 -154 -138 -180 -152 -26 -14 -47 -28 -47 -32 0 -10 140 -188 238 -303
128 -149 345 -363 446 -439 125 -93 203 -130 286 -134 115 -7 165 34 239 193
18 38 39 78 48 87 29 32 75 22 209 -47 114 -58 133 -65 186 -65 52 0 63 4 88
28 17 18 31 44 34 68 17 106 18 109 58 112 45 4 48 1 143 -192 41 -82 76 -141
84 -141 8 0 39 46 70 102 31 56 60 101 66 99 5 -1 32 -42 61 -90 28 -47 55
-91 61 -97 16 -16 36 19 73 126 52 149 86 195 143 195 33 0 43 -14 63 -95 22
-87 55 -125 109 -125 40 0 81 34 120 101 36 60 52 53 188 -78 156 -151 205
-178 327 -178 77 0 92 3 160 36 179 86 378 279 645 624 60 77 121 155 137 173
16 18 26 37 23 43 -4 5 4 5 19 -1 24 -9 28 -6 50 28 48 76 64 76 115 2 l34
-49 -58 -63 c-114 -126 -175 -235 -201 -360 -21 -103 -56 -169 -128 -241 -102
-101 -274 -191 -531 -278 -123 -41 -197 -43 -297 -6 -110 40 -177 86 -292 200
-96 96 -110 106 -126 95 -9 -7 -42 -33 -71 -57 -62 -51 -143 -91 -199 -98 -43
-6 -44 -4 -55 84 -7 55 -36 103 -62 103 -23 0 -73 -57 -122 -139 -23 -39 -46
-71 -52 -71 -5 0 -22 21 -37 46 -46 79 -61 94 -92 94 -37 0 -63 -28 -101 -108
-25 -52 -33 -61 -47 -53 -24 13 -44 37 -86 109 -37 62 -75 92 -116 92 -12 0
-45 -23 -75 -51 -85 -80 -139 -84 -282 -19 -126 57 -170 38 -384 -162 -251
-236 -265 -243 -415 -200 -295 85 -502 207 -610 358 -62 86 -89 165 -114 323
-30 202 -73 308 -172 430 -45 57 -49 64 -35 78 23 23 58 10 126 -47 l61 -50
40 36 c24 22 69 88 114 168 109 192 165 241 253 217 21 -6 45 -15 53 -20 10
-7 28 1 64 27 41 31 520 281 536 281 3 0 -24 -27 -60 -60z m211 -159 c17 -83
62 -162 137 -242 91 -97 184 -164 413 -298 283 -165 377 -232 429 -302 l24
-33 -30 23 c-135 105 -244 164 -545 292 -316 134 -425 205 -480 311 -35 66
-32 171 7 268 16 40 30 65 32 55 1 -11 7 -44 13 -74z m-125 -122 c0 -83 3 -99
28 -147 37 -71 115 -145 210 -200 42 -24 165 -81 274 -128 384 -164 599 -286
272 -154 -224 90 -535 198 -505 176 118 -91 227 -181 260 -216 22 -23 33 -38
25 -34 -38 21 -142 94 -216 151 -72 56 -83 62 -100 50 -20 -15 -23 -56 -11
-154 l8 -63 -38 25 c-98 64 -147 36 -172 -96 -19 -103 -63 -182 -125 -219 -99
-60 -217 23 -481 341 -71 85 -158 185 -192 221 l-64 66 26 17 c13 9 51 43 82
77 74 77 134 106 238 114 165 13 271 63 407 194 40 39 73 71 73 71 1 0 1 -42
1 -92z m2429 -61 c93 -74 217 -116 345 -117 68 -1 125 -32 217 -120 45 -44 88
-80 95 -80 7 0 -19 -33 -58 -72 -39 -40 -128 -140 -197 -223 -238 -283 -322
-355 -417 -355 -88 0 -166 103 -190 253 -18 111 -80 139 -168 77 -32 -23 -43
-27 -38 -14 11 28 19 160 12 188 -4 15 -13 26 -23 26 -9 0 -50 -26 -92 -58
-71 -54 -176 -128 -211 -147 -38 -20 86 94 180 167 130 101 131 102 100 93
-51 -14 -401 -156 -531 -214 -74 -33 -125 -54 -114 -45 44 33 197 114 330 174
354 158 422 197 508 289 64 69 89 128 90 216 0 39 -4 81 -8 95 -6 20 5 13 56
-34 35 -32 86 -77 114 -99z m-3283 -364 c39 -38 138 -149 221 -248 246 -293
350 -385 455 -401 118 -18 233 101 263 275 6 33 16 67 23 77 12 15 15 15 50
-1 20 -10 65 -49 99 -86 34 -38 65 -69 68 -69 3 0 -5 53 -17 118 -13 64 -24
134 -24 155 l0 38 58 -44 c97 -75 235 -162 306 -193 57 -24 66 -32 61 -49 -3
-11 -10 -46 -15 -78 -12 -81 -22 -90 -90 -85 -43 3 -73 14 -136 51 -143 83
-224 99 -270 56 -14 -13 -50 -72 -80 -131 -64 -124 -91 -148 -170 -148 -162 0
-472 262 -816 689 -75 93 -97 126 -86 132 22 14 28 11 100 -58z m4048 52 c0
-9 -188 -254 -269 -350 -105 -125 -283 -302 -362 -358 -109 -77 -171 -102
-259 -102 -105 1 -156 29 -295 165 -110 108 -139 130 -170 130 -35 0 -83 -32
-101 -68 -28 -55 -44 -72 -69 -72 -31 0 -41 15 -60 90 -9 36 -22 74 -30 86
-12 19 -10 22 45 47 63 29 213 125 303 194 54 42 57 43 57 20 0 -23 -35 -226
-47 -276 -4 -18 17 -1 79 62 64 66 91 87 111 87 31 0 42 -18 50 -82 4 -26 19
-76 35 -110 96 -211 251 -223 444 -35 41 39 136 146 212 237 178 212 326 364
326 335z m-2482 -281 c143 -56 387 -165 400 -179 2 -2 -8 -20 -23 -39 -15 -20
-25 -36 -22 -36 3 0 24 11 48 24 l42 25 51 -26 50 -26 -28 37 c-15 21 -26 39
-25 41 20 17 353 170 469 215 l55 21 -71 -73 c-39 -40 -81 -88 -93 -105 -19
-28 -28 -33 -64 -33 -82 0 -142 -67 -189 -212 -12 -38 -25 -68 -28 -68 -4 0
-12 12 -19 27 -7 14 -28 50 -47 80 -57 85 -85 73 -155 -62 -19 -36 -36 -65
-39 -65 -3 0 -30 52 -60 116 -30 64 -69 132 -87 152 -32 34 -35 35 -91 29 -58
-5 -59 -4 -77 27 -10 17 -54 68 -98 114 -45 45 -77 82 -73 82 4 0 83 -30 174
-66z"/>
<path d="M3914 989 c-31 -11 -49 -46 -86 -165 -19 -61 -40 -109 -47 -109 -6 0
-42 40 -79 90 -37 49 -79 96 -94 105 -25 13 -29 13 -55 -6 -15 -11 -50 -52
-76 -90 -26 -38 -51 -70 -56 -72 -12 -4 -34 34 -67 117 -37 93 -70 131 -116
131 -48 0 -88 -29 -149 -108 -87 -113 -113 -120 -197 -56 -72 55 -129 69 -272
68 -95 0 -148 -6 -219 -23 -101 -25 -156 -45 -165 -60 -3 -5 -13 -51 -22 -104
-14 -86 -15 -100 0 -156 31 -120 107 -193 266 -253 l85 -32 210 4 c361 8 586
5 662 -9 79 -14 171 -54 220 -95 l33 -27 33 25 c73 56 192 90 354 103 47 3
237 0 422 -7 297 -12 347 -11 426 2 172 29 317 106 360 189 21 39 18 106 -5
157 -11 24 -50 74 -87 111 -73 72 -206 171 -231 171 -8 0 -70 -22 -138 -49
-161 -66 -232 -84 -329 -84 -61 -1 -91 5 -129 21 -64 29 -98 28 -136 -5 l-32
-27 -47 50 c-193 209 -193 210 -237 193z m-607 -154 c44 -102 89 -159 121
-153 15 3 32 22 112 134 20 27 40 49 45 49 6 -1 44 -45 85 -100 41 -54 85
-102 97 -106 42 -15 69 21 107 144 20 62 40 118 45 126 15 24 46 3 114 -78 86
-101 142 -151 169 -151 12 0 35 12 50 27 l28 27 72 -25 c137 -45 260 -30 485
63 l123 50 67 -48 c87 -61 184 -159 206 -206 52 -111 -21 -193 -233 -260 -72
-22 -84 -23 -325 -18 -675 13 -766 6 -914 -66 l-73 -36 -29 21 c-119 88 -346
115 -779 92 -232 -11 -299 -7 -391 28 -161 61 -231 145 -230 278 1 82 15 144
35 159 36 26 220 59 331 59 126 0 166 -11 245 -66 30 -21 69 -41 87 -45 48 -9
105 28 165 108 58 79 84 100 118 96 21 -3 31 -18 67 -103z"/>
</g>
</svg>
